<?xml version="1.0" encoding="utf-8" standalone="no"?>
<!DOCTYPE svg PUBLIC "-//W3C//DTD SVG 1.1//EN"
  "http://www.w3.org/Graphics/SVG/1.1/DTD/svg11.dtd">
<svg xmlns:xlink="http://www.w3.org/1999/xlink" width="714.530625pt" height="397.172187pt" viewBox="0 0 714.530625 397.172187" xmlns="http://www.w3.org/2000/svg" version="1.1">
 <metadata>
  <rdf:RDF xmlns:dc="http://purl.org/dc/elements/1.1/" xmlns:cc="http://creativecommons.org/ns#" xmlns:rdf="http://www.w3.org/1999/02/22-rdf-syntax-ns#">
   <cc:Work>
    <dc:type rdf:resource="http://purl.org/dc/dcmitype/StillImage"/>
    <dc:date>2025-03-14T15:31:30.132935</dc:date>
    <dc:format>image/svg+xml</dc:format>
    <dc:creator>
     <cc:Agent>
      <dc:title>Matplotlib v3.8.4, https://matplotlib.org/</dc:title>
     </cc:Agent>
    </dc:creator>
   </cc:Work>
  </rdf:RDF>
 </metadata>
 <defs>
  <style type="text/css">*{stroke-linejoin: round; stroke-linecap: butt}</style>
 </defs>
 <g id="figure_1">
  <g id="patch_1">
   <path d="M 0 397.172187 
L 714.530625 397.172187 
L 714.530625 0 
L 0 0 
z
" style="fill: #ffffff"/>
  </g>
  <g id="axes_1">
   <g id="patch_2">
    <path d="M 83.910625 356.805937 
L 530.310625 356.805937 
L 530.310625 24.165937 
L 83.910625 24.165937 
z
" style="fill: #ffffff"/>
   </g>
   <g id="PathCollection_1">
    <path d="M 510.019716 278.255601 
C 511.799943 278.255601 513.507496 277.548309 514.766306 276.289499 
C 516.025117 275.030688 516.732409 273.323135 516.732409 271.542908 
C 516.732409 269.762681 516.025117 268.055128 514.766306 266.796318 
C 513.507496 265.537507 511.799943 264.830216 510.019716 264.830216 
C 508.239489 264.830216 506.531936 265.537507 505.273125 266.796318 
C 504.014315 268.055128 503.307023 269.762681 503.307023 271.542908 
C 503.307023 273.323135 504.014315 275.030688 505.273125 276.289499 
C 506.531936 277.548309 508.239489 278.255601 510.019716 278.255601 
z
" clip-path="url(#p3d926228e5)" style="fill: #008000; stroke: #ffffff; stroke-width: 0.750037"/>
    <path d="M 488.774818 288.794145 
C 490.372023 288.794145 491.904026 288.159569 493.033421 287.030174 
C 494.162815 285.90078 494.797392 284.368777 494.797392 282.771572 
C 494.797392 281.174367 494.162815 279.642364 493.033421 278.512969 
C 491.904026 277.383575 490.372023 276.748998 488.774818 276.748998 
C 487.177613 276.748998 485.64561 277.383575 484.516216 278.512969 
C 483.386821 279.642364 482.752245 281.174367 482.752245 282.771572 
C 482.752245 284.368777 483.386821 285.90078 484.516216 287.030174 
C 485.64561 288.159569 487.177613 288.794145 488.774818 288.794145 
z
" clip-path="url(#p3d926228e5)" style="fill: #008000; stroke: #ffffff; stroke-width: 0.750037"/>
    <path d="M 473.075358 322.191509 
C 474.616278 322.191509 476.094294 321.579295 477.183889 320.4897 
C 478.273484 319.400105 478.885699 317.922089 478.885699 316.381169 
C 478.885699 314.840248 478.273484 313.362233 477.183889 312.272637 
C 476.094294 311.183042 474.616278 310.570828 473.075358 310.570828 
C 471.534438 310.570828 470.056422 311.183042 468.966827 312.272637 
C 467.877232 313.362233 467.265017 314.840248 467.265017 316.381169 
C 467.265017 317.922089 467.877232 319.400105 468.966827 320.4897 
C 470.056422 321.579295 471.534438 322.191509 473.075358 322.191509 
z
" clip-path="url(#p3d926228e5)" style="fill: #008000; stroke: #ffffff; stroke-width: 0.750037"/>
    <path d="M 465.223573 347.526975 
C 466.772634 347.526975 468.258458 346.911526 469.35381 345.816175 
C 470.449161 344.720823 471.06461 343.234999 471.06461 341.685937 
C 471.06461 340.136876 470.449161 338.651052 469.35381 337.5557 
C 468.258458 336.460349 466.772634 335.8449 465.223573 335.8449 
C 463.674511 335.8449 462.188687 336.460349 461.093335 337.5557 
C 459.997984 338.651052 459.382535 340.136876 459.382535 341.685937 
C 459.382535 343.234999 459.997984 344.720823 461.093335 345.816175 
C 462.188687 346.911526 463.674511 347.526975 465.223573 347.526975 
z
" clip-path="url(#p3d926228e5)" style="fill: #008000; stroke: #ffffff; stroke-width: 0.750037"/>
    <path d="M 463.481963 287.213356 
C 464.86525 287.213356 466.192067 286.663771 467.170198 285.685639 
C 468.14833 284.707508 468.697915 283.380691 468.697915 281.997404 
C 468.697915 280.614117 468.14833 279.2873 467.170198 278.309169 
C 466.192067 277.331038 464.86525 276.781452 463.481963 276.781452 
C 462.098677 276.781452 460.771859 277.331038 459.793728 278.309169 
C 458.815597 279.2873 458.266011 280.614117 458.266011 281.997404 
C 458.266011 283.380691 458.815597 284.707508 459.793728 285.685639 
C 460.771859 286.663771 462.098677 287.213356 463.481963 287.213356 
z
" clip-path="url(#p3d926228e5)" style="fill: #808080; fill-opacity: 0.3; stroke: #ffffff; stroke-opacity: 0.3; stroke-width: 0.750037"/>
    <path d="M 461.242655 326.903524 
C 462.70592 326.903524 464.10945 326.322163 465.144135 325.287479 
C 466.178819 324.252794 466.76018 322.849264 466.76018 321.385999 
C 466.76018 319.922735 466.178819 318.519204 465.144135 317.48452 
C 464.10945 316.449836 462.70592 315.868474 461.242655 315.868474 
C 459.779391 315.868474 458.37586 316.449836 457.341176 317.48452 
C 456.306492 318.519204 455.72513 319.922735 455.72513 321.385999 
C 455.72513 322.849264 456.306492 324.252794 457.341176 325.287479 
C 458.37586 326.322163 459.779391 326.903524 461.242655 326.903524 
z
" clip-path="url(#p3d926228e5)" style="fill: #008000; stroke: #ffffff; stroke-width: 0.750037"/>
    <path d="M 456.934917 223.945788 
C 458.141767 223.945788 459.299351 223.466301 460.152723 222.612929 
C 461.006095 221.759557 461.485582 220.601973 461.485582 219.395123 
C 461.485582 218.188272 461.006095 217.030689 460.152723 216.177317 
C 459.299351 215.323945 458.141767 214.844458 456.934917 214.844458 
C 455.728066 214.844458 454.570483 215.323945 453.717111 216.177317 
C 452.863739 217.030689 452.384252 218.188272 452.384252 219.395123 
C 452.384252 220.601973 452.863739 221.759557 453.717111 222.612929 
C 454.570483 223.466301 455.728066 223.945788 456.934917 223.945788 
z
" clip-path="url(#p3d926228e5)" style="fill: #808080; fill-opacity: 0.3; stroke: #ffffff; stroke-opacity: 0.3; stroke-width: 0.750037"/>
    <path d="M 454.596817 323.511905 
C 456.003073 323.511905 457.351921 322.953194 458.346294 321.958821 
C 459.340667 320.964448 459.899378 319.615599 459.899378 318.209344 
C 459.899378 316.803088 459.340667 315.454239 458.346294 314.459866 
C 457.351921 313.465493 456.003073 312.906782 454.596817 312.906782 
C 453.190561 312.906782 451.841713 313.465493 450.84734 314.459866 
C 449.852967 315.454239 449.294255 316.803088 449.294255 318.209344 
C 449.294255 319.615599 449.852967 320.964448 450.84734 321.958821 
C 451.841713 322.953194 453.190561 323.511905 454.596817 323.511905 
z
" clip-path="url(#p3d926228e5)" style="fill: #808080; fill-opacity: 0.3; stroke: #ffffff; stroke-opacity: 0.3; stroke-width: 0.750037"/>
    <path d="M 190.384217 221.030039 
C 191.321852 221.030039 192.22121 220.657513 192.884217 219.994505 
C 193.547225 219.331497 193.919751 218.43214 193.919751 217.494505 
C 193.919751 216.55687 193.547225 215.657513 192.884217 214.994505 
C 192.22121 214.331497 191.321852 213.958971 190.384217 213.958971 
C 189.446583 213.958971 188.547225 214.331497 187.884217 214.994505 
C 187.22121 215.657513 186.848683 216.55687 186.848683 217.494505 
C 186.848683 218.43214 187.22121 219.331497 187.884217 219.994505 
C 188.547225 220.657513 189.446583 221.030039 190.384217 221.030039 
z
" clip-path="url(#p3d926228e5)" style="fill: #808080; fill-opacity: 0.3; stroke: #ffffff; stroke-opacity: 0.3; stroke-width: 0.750037"/>
    <path d="M 139.980742 128.08331 
C 141.359795 128.08331 142.682551 127.535407 143.657689 126.560269 
C 144.632826 125.585131 145.18073 124.262375 145.18073 122.883322 
C 145.18073 121.504269 144.632826 120.181513 143.657689 119.206375 
C 142.682551 118.231237 141.359795 117.683333 139.980742 117.683333 
C 138.601688 117.683333 137.278932 118.231237 136.303794 119.206375 
C 135.328657 120.181513 134.780753 121.504269 134.780753 122.883322 
C 134.780753 124.262375 135.328657 125.585131 136.303794 126.560269 
C 137.278932 127.535407 138.601688 128.08331 139.980742 128.08331 
z
" clip-path="url(#p3d926228e5)" style="fill: #808080; fill-opacity: 0.3; stroke: #ffffff; stroke-opacity: 0.3; stroke-width: 0.750037"/>
    <path d="M 125.961769 72.250357 
C 127.576829 72.250357 129.125958 71.608687 130.267978 70.466667 
C 131.409998 69.324647 132.051668 67.775518 132.051668 66.160458 
C 132.051668 64.545398 131.409998 62.996269 130.267978 61.854249 
C 129.125958 60.712229 127.576829 60.070559 125.961769 60.070559 
C 124.346709 60.070559 122.79758 60.712229 121.65556 61.854249 
C 120.51354 62.996269 119.87187 64.545398 119.87187 66.160458 
C 119.87187 67.775518 120.51354 69.324647 121.65556 70.466667 
C 122.79758 71.608687 124.346709 72.250357 125.961769 72.250357 
z
" clip-path="url(#p3d926228e5)" style="fill: #ff0000; stroke: #ffffff; stroke-width: 0.750037"/>
    <path d="M 120.274179 131.992735 
C 121.824297 131.992735 123.311135 131.376867 124.407234 130.280768 
C 125.503333 129.184669 126.119201 127.697831 126.119201 126.147713 
C 126.119201 124.597595 125.503333 123.110758 124.407234 122.014659 
C 123.311135 120.91856 121.824297 120.302691 120.274179 120.302691 
C 118.724061 120.302691 117.237224 120.91856 116.141125 122.014659 
C 115.045026 123.110758 114.429157 124.597595 114.429157 126.147713 
C 114.429157 127.697831 115.045026 129.184669 116.141125 130.280768 
C 117.237224 131.376867 118.724061 131.992735 120.274179 131.992735 
z
" clip-path="url(#p3d926228e5)" style="fill: #ff0000; stroke: #ffffff; stroke-width: 0.750037"/>
    <path d="M 104.201534 46.357005 
C 106.076803 46.357005 107.875519 45.611953 109.201534 44.285937 
C 110.52755 42.959922 111.272602 41.161207 111.272602 39.285937 
C 111.272602 37.410668 110.52755 35.611953 109.201534 34.285937 
C 107.875519 32.959922 106.076803 32.21487 104.201534 32.21487 
C 102.326265 32.21487 100.52755 32.959922 99.201534 34.285937 
C 97.875519 35.611953 97.130466 37.410668 97.130466 39.285937 
C 97.130466 41.161207 97.875519 42.959922 99.201534 44.285937 
C 100.52755 45.611953 102.326265 46.357005 104.201534 46.357005 
z
" clip-path="url(#p3d926228e5)" style="fill: #ff0000; stroke: #ffffff; stroke-width: 0.750037"/>
   </g>
   <g id="PathCollection_2"/>
   <g id="PathCollection_3"/>
   <g id="PathCollection_4"/>
   <g id="matplotlib.axis_1">
    <g id="xtick_1">
     <g id="line2d_1">
      <defs>
       <path id="m1853a9f6b4" d="M 0 0 
L 0 3.5 
" style="stroke: #000000; stroke-width: 0.8"/>
      </defs>
      <g>
       <use xlink:href="#m1853a9f6b4" x="117.906899" y="356.805937" style="stroke: #000000; stroke-width: 0.8"/>
      </g>
     </g>
     <g id="text_1">
      <!-- −0.6 -->
      <g transform="translate(106.024087 371.515312) scale(0.1 -0.1)">
       <defs>
        <path id="LucidaGrande-2212" d="M 694 1619 
L 694 2081 
L 4394 2081 
L 4394 1619 
L 694 1619 
z
" transform="scale(0.015625)"/>
        <path id="LucidaGrande-30" d="M 2006 -116 
Q 1291 -116 848 557 
Q 406 1231 406 2316 
Q 406 3409 851 4075 
Q 1297 4741 2025 4741 
Q 2753 4741 3198 4075 
Q 3644 3409 3644 2325 
Q 3644 1213 3198 548 
Q 2753 -116 2006 -116 
z
M 2013 347 
Q 2991 347 2991 2334 
Q 2991 4278 2025 4278 
Q 1063 4278 1063 2316 
Q 1063 347 2013 347 
z
" transform="scale(0.015625)"/>
        <path id="LucidaGrande-2e" d="M 625 0 
L 625 772 
L 1397 772 
L 1397 0 
L 625 0 
z
" transform="scale(0.015625)"/>
        <path id="LucidaGrande-36" d="M 1100 2397 
Q 1541 2969 2209 2969 
Q 2816 2969 3202 2567 
Q 3588 2166 3588 1538 
Q 3588 816 3155 350 
Q 2722 -116 2056 -116 
Q 1291 -116 859 500 
Q 428 1116 428 2209 
Q 428 3413 923 4078 
Q 1419 4744 2319 4744 
Q 2731 4744 3350 4569 
L 3350 4031 
Q 2697 4281 2281 4281 
Q 1100 4281 1100 2397 
z
M 2969 1400 
Q 2969 1925 2733 2225 
Q 2497 2525 2078 2525 
Q 1688 2525 1406 2262 
Q 1125 2000 1125 1631 
Q 1125 1050 1392 698 
Q 1659 347 2100 347 
Q 2497 347 2733 633 
Q 2969 919 2969 1400 
z
" transform="scale(0.015625)"/>
       </defs>
       <use xlink:href="#LucidaGrande-2212"/>
       <use xlink:href="#LucidaGrande-30" x="79.541016"/>
       <use xlink:href="#LucidaGrande-2e" x="142.773438"/>
       <use xlink:href="#LucidaGrande-36" x="174.414062"/>
      </g>
     </g>
    </g>
    <g id="xtick_2">
     <g id="line2d_2">
      <g>
       <use xlink:href="#m1853a9f6b4" x="180.614338" y="356.805937" style="stroke: #000000; stroke-width: 0.8"/>
      </g>
     </g>
     <g id="text_2">
      <!-- −0.4 -->
      <g transform="translate(168.731525 371.515312) scale(0.1 -0.1)">
       <defs>
        <path id="LucidaGrande-34" d="M 2409 0 
L 2409 1309 
L 328 1309 
L 328 1775 
L 2409 4625 
L 2988 4625 
L 2988 1813 
L 3606 1813 
L 3606 1309 
L 2988 1309 
L 2988 0 
L 2409 0 
z
M 931 1813 
L 2450 1813 
L 2450 3869 
L 931 1813 
z
" transform="scale(0.015625)"/>
       </defs>
       <use xlink:href="#LucidaGrande-2212"/>
       <use xlink:href="#LucidaGrande-30" x="79.541016"/>
       <use xlink:href="#LucidaGrande-2e" x="142.773438"/>
       <use xlink:href="#LucidaGrande-34" x="174.414062"/>
      </g>
     </g>
    </g>
    <g id="xtick_3">
     <g id="line2d_3">
      <g>
       <use xlink:href="#m1853a9f6b4" x="243.321776" y="356.805937" style="stroke: #000000; stroke-width: 0.8"/>
      </g>
     </g>
     <g id="text_3">
      <!-- −0.2 -->
      <g transform="translate(231.438963 371.515312) scale(0.1 -0.1)">
       <defs>
        <path id="LucidaGrande-32" d="M 531 0 
L 531 541 
Q 800 1169 1619 1909 
L 1972 2225 
Q 2653 2841 2653 3447 
Q 2653 3834 2420 4056 
Q 2188 4278 1781 4278 
Q 1300 4278 647 3906 
L 647 4450 
Q 1263 4741 1869 4741 
Q 2519 4741 2912 4391 
Q 3306 4041 3306 3463 
Q 3306 3047 3107 2725 
Q 2909 2403 2369 1944 
L 2131 1741 
Q 1391 1113 1275 541 
L 3284 541 
L 3284 0 
L 531 0 
z
" transform="scale(0.015625)"/>
       </defs>
       <use xlink:href="#LucidaGrande-2212"/>
       <use xlink:href="#LucidaGrande-30" x="79.541016"/>
       <use xlink:href="#LucidaGrande-2e" x="142.773438"/>
       <use xlink:href="#LucidaGrande-32" x="174.414062"/>
      </g>
     </g>
    </g>
    <g id="xtick_4">
     <g id="line2d_4">
      <g>
       <use xlink:href="#m1853a9f6b4" x="306.029214" y="356.805937" style="stroke: #000000; stroke-width: 0.8"/>
      </g>
     </g>
     <g id="text_4">
      <!-- 0.0 -->
      <g transform="translate(298.123746 371.515312) scale(0.1 -0.1)">
       <use xlink:href="#LucidaGrande-30"/>
       <use xlink:href="#LucidaGrande-2e" x="63.232422"/>
       <use xlink:href="#LucidaGrande-30" x="94.873047"/>
      </g>
     </g>
    </g>
    <g id="xtick_5">
     <g id="line2d_5">
      <g>
       <use xlink:href="#m1853a9f6b4" x="368.736653" y="356.805937" style="stroke: #000000; stroke-width: 0.8"/>
      </g>
     </g>
     <g id="text_5">
      <!-- 0.2 -->
      <g transform="translate(360.831184 371.515312) scale(0.1 -0.1)">
       <use xlink:href="#LucidaGrande-30"/>
       <use xlink:href="#LucidaGrande-2e" x="63.232422"/>
       <use xlink:href="#LucidaGrande-32" x="94.873047"/>
      </g>
     </g>
    </g>
    <g id="xtick_6">
     <g id="line2d_6">
      <g>
       <use xlink:href="#m1853a9f6b4" x="431.444091" y="356.805937" style="stroke: #000000; stroke-width: 0.8"/>
      </g>
     </g>
     <g id="text_6">
      <!-- 0.4 -->
      <g transform="translate(423.538623 371.515312) scale(0.1 -0.1)">
       <use xlink:href="#LucidaGrande-30"/>
       <use xlink:href="#LucidaGrande-2e" x="63.232422"/>
       <use xlink:href="#LucidaGrande-34" x="94.873047"/>
      </g>
     </g>
    </g>
    <g id="xtick_7">
     <g id="line2d_7">
      <g>
       <use xlink:href="#m1853a9f6b4" x="494.15153" y="356.805937" style="stroke: #000000; stroke-width: 0.8"/>
      </g>
     </g>
     <g id="text_7">
      <!-- 0.6 -->
      <g transform="translate(486.246061 371.515312) scale(0.1 -0.1)">
       <use xlink:href="#LucidaGrande-30"/>
       <use xlink:href="#LucidaGrande-2e" x="63.232422"/>
       <use xlink:href="#LucidaGrande-36" x="94.873047"/>
      </g>
     </g>
    </g>
    <g id="text_8">
     <!-- Correlation with Protein Production -->
     <g transform="translate(196.103828 387.465625) scale(0.13 -0.13)">
      <defs>
       <path id="LucidaGrande-43" d="M 2578 -116 
Q 1500 -116 912 517 
Q 325 1150 325 2309 
Q 325 3466 923 4103 
Q 1522 4741 2609 4741 
Q 3231 4741 4066 4538 
L 4066 3922 
Q 3116 4250 2600 4250 
Q 1847 4250 1434 3740 
Q 1022 3231 1022 2303 
Q 1022 1419 1462 908 
Q 1903 397 2666 397 
Q 3322 397 4072 800 
L 4072 238 
Q 3388 -116 2578 -116 
z
" transform="scale(0.015625)"/>
       <path id="LucidaGrande-6f" d="M 1944 -78 
Q 1216 -78 781 405 
Q 347 888 347 1697 
Q 347 2516 783 2992 
Q 1219 3469 1966 3469 
Q 2713 3469 3148 2992 
Q 3584 2516 3584 1703 
Q 3584 872 3146 397 
Q 2709 -78 1944 -78 
z
M 1953 384 
Q 2931 384 2931 1703 
Q 2931 3006 1966 3006 
Q 1003 3006 1003 1697 
Q 1003 384 1953 384 
z
" transform="scale(0.015625)"/>
       <path id="LucidaGrande-72" d="M 616 0 
L 616 3394 
L 1231 3394 
L 1231 2756 
Q 1597 3469 2294 3469 
Q 2388 3469 2491 3453 
L 2491 2878 
Q 2331 2931 2209 2931 
Q 1625 2931 1231 2238 
L 1231 0 
L 616 0 
z
" transform="scale(0.015625)"/>
       <path id="LucidaGrande-65" d="M 3103 109 
Q 2484 -78 2044 -78 
Q 1294 -78 820 420 
Q 347 919 347 1713 
Q 347 2484 764 2978 
Q 1181 3472 1831 3472 
Q 2447 3472 2783 3034 
Q 3119 2597 3119 1791 
L 3116 1600 
L 975 1600 
Q 1109 391 2159 391 
Q 2544 391 3103 597 
L 3103 109 
z
M 1003 2063 
L 2500 2063 
Q 2500 3009 1794 3009 
Q 1084 3009 1003 2063 
z
" transform="scale(0.015625)"/>
       <path id="LucidaGrande-6c" d="M 616 0 
L 616 4934 
L 1231 4934 
L 1231 0 
L 616 0 
z
" transform="scale(0.015625)"/>
       <path id="LucidaGrande-61" d="M 2366 431 
Q 1813 -78 1300 -78 
Q 878 -78 600 186 
Q 322 450 322 853 
Q 322 1409 789 1707 
Q 1256 2006 2128 2006 
L 2275 2006 
L 2275 2416 
Q 2275 3006 1669 3006 
Q 1181 3006 616 2706 
L 616 3216 
Q 1238 3469 1781 3469 
Q 2350 3469 2620 3212 
Q 2891 2956 2891 2416 
L 2891 878 
Q 2891 350 3216 350 
Q 3256 350 3334 363 
L 3378 22 
Q 3169 -78 2916 -78 
Q 2484 -78 2366 431 
z
M 2275 766 
L 2275 1644 
L 2069 1650 
Q 1563 1650 1250 1458 
Q 938 1266 938 953 
Q 938 731 1094 578 
Q 1250 425 1475 425 
Q 1859 425 2275 766 
z
" transform="scale(0.015625)"/>
       <path id="LucidaGrande-74" d="M 1634 -78 
Q 1166 -78 903 190 
Q 641 459 641 938 
L 641 2931 
L 216 2931 
L 216 3394 
L 641 3394 
L 641 4009 
L 1256 4069 
L 1256 3394 
L 2144 3394 
L 2144 2931 
L 1256 2931 
L 1256 1050 
Q 1256 384 1831 384 
Q 1953 384 2128 425 
L 2128 0 
Q 1844 -78 1634 -78 
z
" transform="scale(0.015625)"/>
       <path id="LucidaGrande-69" d="M 616 0 
L 616 3394 
L 1231 3394 
L 1231 0 
L 616 0 
z
M 616 4009 
L 616 4625 
L 1231 4625 
L 1231 4009 
L 616 4009 
z
" transform="scale(0.015625)"/>
       <path id="LucidaGrande-6e" d="M 616 0 
L 616 3394 
L 1231 3394 
L 1231 2756 
Q 1719 3469 2425 3469 
Q 2866 3469 3128 3189 
Q 3391 2909 3391 2438 
L 3391 0 
L 2775 0 
L 2775 2238 
Q 2775 2616 2664 2777 
Q 2553 2938 2297 2938 
Q 1731 2938 1231 2197 
L 1231 0 
L 616 0 
z
" transform="scale(0.015625)"/>
       <path id="LucidaGrande-20" transform="scale(0.015625)"/>
       <path id="LucidaGrande-77" d="M 1009 0 
L 38 3394 
L 641 3394 
L 1384 766 
L 2188 3394 
L 2803 3394 
L 3506 766 
L 4359 3394 
L 4888 3394 
L 3781 0 
L 3163 0 
L 2444 2628 
L 1631 0 
L 1009 0 
z
" transform="scale(0.015625)"/>
       <path id="LucidaGrande-68" d="M 616 0 
L 616 4934 
L 1231 4934 
L 1231 2756 
Q 1719 3469 2425 3469 
Q 2866 3469 3128 3189 
Q 3391 2909 3391 2438 
L 3391 0 
L 2775 0 
L 2775 2238 
Q 2775 2616 2664 2777 
Q 2553 2938 2297 2938 
Q 1731 2938 1231 2197 
L 1231 0 
L 616 0 
z
" transform="scale(0.015625)"/>
       <path id="LucidaGrande-50" d="M 597 0 
L 597 4625 
L 1856 4625 
Q 2694 4625 3059 4342 
Q 3425 4059 3425 3413 
Q 3425 2675 2925 2256 
Q 2425 1838 1538 1838 
L 1247 1838 
L 1247 0 
L 597 0 
z
M 1247 2334 
L 1513 2334 
Q 2097 2334 2415 2603 
Q 2734 2872 2734 3363 
Q 2734 3778 2484 3956 
Q 2234 4134 1650 4134 
L 1247 4134 
L 1247 2334 
z
" transform="scale(0.015625)"/>
       <path id="LucidaGrande-64" d="M 2794 0 
L 2794 638 
Q 2419 -78 1663 -78 
Q 1050 -78 698 369 
Q 347 816 347 1591 
Q 347 2438 745 2953 
Q 1144 3469 1794 3469 
Q 2397 3469 2794 3006 
L 2794 4934 
L 3413 4934 
L 3413 0 
L 2794 0 
z
M 2794 2584 
Q 2316 3006 1888 3006 
Q 1003 3006 1003 1653 
Q 1003 463 1791 463 
Q 2303 463 2794 1022 
L 2794 2584 
z
" transform="scale(0.015625)"/>
       <path id="LucidaGrande-75" d="M 2738 0 
L 2738 638 
Q 2247 -78 1547 -78 
Q 1103 -78 840 201 
Q 578 481 578 956 
L 578 3394 
L 1194 3394 
L 1194 1156 
Q 1194 775 1305 614 
Q 1416 453 1675 453 
Q 2238 453 2738 1194 
L 2738 3394 
L 3353 3394 
L 3353 0 
L 2738 0 
z
" transform="scale(0.015625)"/>
       <path id="LucidaGrande-63" d="M 1941 -78 
Q 1253 -78 800 431 
Q 347 941 347 1716 
Q 347 2544 795 3006 
Q 1244 3469 2047 3469 
Q 2444 3469 2934 3359 
L 2934 2844 
Q 2413 2997 2084 2997 
Q 1613 2997 1327 2642 
Q 1041 2288 1041 1697 
Q 1041 1125 1334 772 
Q 1628 419 2103 419 
Q 2525 419 2972 634 
L 2972 103 
Q 2375 -78 1941 -78 
z
" transform="scale(0.015625)"/>
      </defs>
      <use xlink:href="#LucidaGrande-43"/>
      <use xlink:href="#LucidaGrande-6f" x="69.189453"/>
      <use xlink:href="#LucidaGrande-72" x="130.615234"/>
      <use xlink:href="#LucidaGrande-72" x="171.533203"/>
      <use xlink:href="#LucidaGrande-65" x="212.451172"/>
      <use xlink:href="#LucidaGrande-6c" x="268.164062"/>
      <use xlink:href="#LucidaGrande-61" x="297.070312"/>
      <use xlink:href="#LucidaGrande-74" x="352.294922"/>
      <use xlink:href="#LucidaGrande-69" x="389.697266"/>
      <use xlink:href="#LucidaGrande-6f" x="418.603516"/>
      <use xlink:href="#LucidaGrande-6e" x="480.029297"/>
      <use xlink:href="#LucidaGrande-20" x="542.089844"/>
      <use xlink:href="#LucidaGrande-77" x="573.730469"/>
      <use xlink:href="#LucidaGrande-69" x="650.78125"/>
      <use xlink:href="#LucidaGrande-74" x="679.6875"/>
      <use xlink:href="#LucidaGrande-68" x="717.089844"/>
      <use xlink:href="#LucidaGrande-20" x="779.150391"/>
      <use xlink:href="#LucidaGrande-50" x="810.791016"/>
      <use xlink:href="#LucidaGrande-72" x="866.064453"/>
      <use xlink:href="#LucidaGrande-6f" x="906.982422"/>
      <use xlink:href="#LucidaGrande-74" x="968.408203"/>
      <use xlink:href="#LucidaGrande-65" x="1005.810547"/>
      <use xlink:href="#LucidaGrande-69" x="1061.523438"/>
      <use xlink:href="#LucidaGrande-6e" x="1090.429688"/>
      <use xlink:href="#LucidaGrande-20" x="1152.490234"/>
      <use xlink:href="#LucidaGrande-50" x="1184.130859"/>
      <use xlink:href="#LucidaGrande-72" x="1239.404297"/>
      <use xlink:href="#LucidaGrande-6f" x="1280.322266"/>
      <use xlink:href="#LucidaGrande-64" x="1341.748047"/>
      <use xlink:href="#LucidaGrande-75" x="1404.6875"/>
      <use xlink:href="#LucidaGrande-63" x="1466.748047"/>
      <use xlink:href="#LucidaGrande-74" x="1517.96875"/>
      <use xlink:href="#LucidaGrande-69" x="1555.371094"/>
      <use xlink:href="#LucidaGrande-6f" x="1584.277344"/>
      <use xlink:href="#LucidaGrande-6e" x="1645.703125"/>
     </g>
    </g>
   </g>
   <g id="matplotlib.axis_2">
    <g id="ytick_1">
     <g id="line2d_8">
      <defs>
       <path id="m6d8cc4d2c6" d="M 0 0 
L -3.5 0 
" style="stroke: #000000; stroke-width: 0.8"/>
      </defs>
      <g>
       <use xlink:href="#m6d8cc4d2c6" x="83.910625" y="322.732254" style="stroke: #000000; stroke-width: 0.8"/>
      </g>
     </g>
     <g id="text_9">
      <!-- −0.3 -->
      <g transform="translate(53.145 326.586942) scale(0.1 -0.1)">
       <defs>
        <path id="LucidaGrande-33" d="M 650 34 
L 650 609 
Q 1313 347 1694 347 
Q 2134 347 2411 605 
Q 2688 863 2688 1272 
Q 2688 2247 1322 2247 
L 1078 2247 
L 1078 2663 
L 1294 2666 
Q 2575 2666 2575 3569 
Q 2575 4278 1731 4278 
Q 1269 4278 713 4019 
L 713 4556 
Q 1259 4741 1775 4741 
Q 3194 4741 3194 3669 
Q 3194 2853 2228 2506 
Q 3347 2247 3347 1281 
Q 3347 628 2915 256 
Q 2484 -116 1731 -116 
Q 1303 -116 650 34 
z
" transform="scale(0.015625)"/>
       </defs>
       <use xlink:href="#LucidaGrande-2212"/>
       <use xlink:href="#LucidaGrande-30" x="79.541016"/>
       <use xlink:href="#LucidaGrande-2e" x="142.773438"/>
       <use xlink:href="#LucidaGrande-33" x="174.414062"/>
      </g>
     </g>
    </g>
    <g id="ytick_2">
     <g id="line2d_9">
      <g>
       <use xlink:href="#m6d8cc4d2c6" x="83.910625" y="276.539323" style="stroke: #000000; stroke-width: 0.8"/>
      </g>
     </g>
     <g id="text_10">
      <!-- −0.2 -->
      <g transform="translate(53.145 280.394011) scale(0.1 -0.1)">
       <use xlink:href="#LucidaGrande-2212"/>
       <use xlink:href="#LucidaGrande-30" x="79.541016"/>
       <use xlink:href="#LucidaGrande-2e" x="142.773438"/>
       <use xlink:href="#LucidaGrande-32" x="174.414062"/>
      </g>
     </g>
    </g>
    <g id="ytick_3">
     <g id="line2d_10">
      <g>
       <use xlink:href="#m6d8cc4d2c6" x="83.910625" y="230.346392" style="stroke: #000000; stroke-width: 0.8"/>
      </g>
     </g>
     <g id="text_11">
      <!-- −0.1 -->
      <g transform="translate(53.145 234.20108) scale(0.1 -0.1)">
       <defs>
        <path id="LucidaGrande-31" d="M 963 0 
L 963 463 
L 1888 463 
L 1888 4113 
L 963 3881 
L 963 4356 
L 2506 4741 
L 2506 463 
L 3431 463 
L 3431 0 
L 963 0 
z
" transform="scale(0.015625)"/>
       </defs>
       <use xlink:href="#LucidaGrande-2212"/>
       <use xlink:href="#LucidaGrande-30" x="79.541016"/>
       <use xlink:href="#LucidaGrande-2e" x="142.773438"/>
       <use xlink:href="#LucidaGrande-31" x="174.414062"/>
      </g>
     </g>
    </g>
    <g id="ytick_4">
     <g id="line2d_11">
      <g>
       <use xlink:href="#m6d8cc4d2c6" x="83.910625" y="184.153461" style="stroke: #000000; stroke-width: 0.8"/>
      </g>
     </g>
     <g id="text_12">
      <!-- 0.0 -->
      <g transform="translate(61.099688 188.008149) scale(0.1 -0.1)">
       <use xlink:href="#LucidaGrande-30"/>
       <use xlink:href="#LucidaGrande-2e" x="63.232422"/>
       <use xlink:href="#LucidaGrande-30" x="94.873047"/>
      </g>
     </g>
    </g>
    <g id="ytick_5">
     <g id="line2d_12">
      <g>
       <use xlink:href="#m6d8cc4d2c6" x="83.910625" y="137.96053" style="stroke: #000000; stroke-width: 0.8"/>
      </g>
     </g>
     <g id="text_13">
      <!-- 0.1 -->
      <g transform="translate(61.099688 141.815218) scale(0.1 -0.1)">
       <use xlink:href="#LucidaGrande-30"/>
       <use xlink:href="#LucidaGrande-2e" x="63.232422"/>
       <use xlink:href="#LucidaGrande-31" x="94.873047"/>
      </g>
     </g>
    </g>
    <g id="ytick_6">
     <g id="line2d_13">
      <g>
       <use xlink:href="#m6d8cc4d2c6" x="83.910625" y="91.767599" style="stroke: #000000; stroke-width: 0.8"/>
      </g>
     </g>
     <g id="text_14">
      <!-- 0.2 -->
      <g transform="translate(61.099688 95.622287) scale(0.1 -0.1)">
       <use xlink:href="#LucidaGrande-30"/>
       <use xlink:href="#LucidaGrande-2e" x="63.232422"/>
       <use xlink:href="#LucidaGrande-32" x="94.873047"/>
      </g>
     </g>
    </g>
    <g id="ytick_7">
     <g id="line2d_14">
      <g>
       <use xlink:href="#m6d8cc4d2c6" x="83.910625" y="45.574668" style="stroke: #000000; stroke-width: 0.8"/>
      </g>
     </g>
     <g id="text_15">
      <!-- 0.3 -->
      <g transform="translate(61.099688 49.429356) scale(0.1 -0.1)">
       <use xlink:href="#LucidaGrande-30"/>
       <use xlink:href="#LucidaGrande-2e" x="63.232422"/>
       <use xlink:href="#LucidaGrande-33" x="94.873047"/>
      </g>
     </g>
    </g>
    <g id="text_16">
     <!-- Correlation with Cysteine Composition -->
     <g transform="translate(46.638438 312.210625) rotate(-90) scale(0.13 -0.13)">
      <defs>
       <path id="LucidaGrande-79" d="M 813 -1234 
L 1363 0 
L 50 3394 
L 716 3394 
L 1688 838 
L 2725 3394 
L 3306 3394 
L 1453 -1234 
L 813 -1234 
z
" transform="scale(0.015625)"/>
       <path id="LucidaGrande-73" d="M 1516 -78 
Q 1094 -78 491 119 
L 491 684 
Q 1094 384 1541 384 
Q 1806 384 1981 528 
Q 2156 672 2156 888 
Q 2156 1203 1666 1409 
L 1306 1563 
Q 509 1894 509 2516 
Q 509 2959 823 3214 
Q 1138 3469 1684 3469 
Q 1969 3469 2388 3391 
L 2516 3366 
L 2516 2853 
Q 2000 3006 1697 3006 
Q 1103 3006 1103 2575 
Q 1103 2297 1553 2106 
L 1850 1981 
Q 2353 1769 2562 1533 
Q 2772 1297 2772 944 
Q 2772 497 2419 209 
Q 2066 -78 1516 -78 
z
" transform="scale(0.015625)"/>
       <path id="LucidaGrande-6d" d="M 616 0 
L 616 3394 
L 1231 3394 
L 1231 2756 
Q 1681 3469 2388 3469 
Q 3069 3469 3316 2756 
Q 3753 3472 4453 3472 
Q 4903 3472 5150 3208 
Q 5397 2944 5397 2469 
L 5397 0 
L 4778 0 
L 4778 2372 
Q 4778 2953 4319 2953 
Q 3841 2953 3316 2275 
L 3316 0 
L 2697 0 
L 2697 2372 
Q 2697 2956 2228 2956 
Q 1763 2956 1231 2275 
L 1231 0 
L 616 0 
z
" transform="scale(0.015625)"/>
       <path id="LucidaGrande-70" d="M 616 -1234 
L 616 3394 
L 1231 3394 
L 1231 2756 
Q 1609 3469 2366 3469 
Q 2978 3469 3329 3022 
Q 3681 2575 3681 1800 
Q 3681 956 3282 439 
Q 2884 -78 2234 -78 
Q 1631 -78 1231 384 
L 1231 -1234 
L 616 -1234 
z
M 1231 809 
Q 1706 384 2138 384 
Q 3025 384 3025 1738 
Q 3025 2931 2238 2931 
Q 1722 2931 1231 2372 
L 1231 809 
z
" transform="scale(0.015625)"/>
      </defs>
      <use xlink:href="#LucidaGrande-43"/>
      <use xlink:href="#LucidaGrande-6f" x="69.189453"/>
      <use xlink:href="#LucidaGrande-72" x="130.615234"/>
      <use xlink:href="#LucidaGrande-72" x="171.533203"/>
      <use xlink:href="#LucidaGrande-65" x="212.451172"/>
      <use xlink:href="#LucidaGrande-6c" x="268.164062"/>
      <use xlink:href="#LucidaGrande-61" x="297.070312"/>
      <use xlink:href="#LucidaGrande-74" x="352.294922"/>
      <use xlink:href="#LucidaGrande-69" x="389.697266"/>
      <use xlink:href="#LucidaGrande-6f" x="418.603516"/>
      <use xlink:href="#LucidaGrande-6e" x="480.029297"/>
      <use xlink:href="#LucidaGrande-20" x="542.089844"/>
      <use xlink:href="#LucidaGrande-77" x="573.730469"/>
      <use xlink:href="#LucidaGrande-69" x="650.78125"/>
      <use xlink:href="#LucidaGrande-74" x="679.6875"/>
      <use xlink:href="#LucidaGrande-68" x="717.089844"/>
      <use xlink:href="#LucidaGrande-20" x="779.150391"/>
      <use xlink:href="#LucidaGrande-43" x="810.791016"/>
      <use xlink:href="#LucidaGrande-79" x="879.980469"/>
      <use xlink:href="#LucidaGrande-73" x="932.226562"/>
      <use xlink:href="#LucidaGrande-74" x="983.203125"/>
      <use xlink:href="#LucidaGrande-65" x="1020.605469"/>
      <use xlink:href="#LucidaGrande-69" x="1076.318359"/>
      <use xlink:href="#LucidaGrande-6e" x="1105.224609"/>
      <use xlink:href="#LucidaGrande-65" x="1167.285156"/>
      <use xlink:href="#LucidaGrande-20" x="1222.998047"/>
      <use xlink:href="#LucidaGrande-43" x="1254.638672"/>
      <use xlink:href="#LucidaGrande-6f" x="1323.828125"/>
      <use xlink:href="#LucidaGrande-6d" x="1385.253906"/>
      <use xlink:href="#LucidaGrande-70" x="1478.613281"/>
      <use xlink:href="#LucidaGrande-6f" x="1541.552734"/>
      <use xlink:href="#LucidaGrande-73" x="1602.978516"/>
      <use xlink:href="#LucidaGrande-69" x="1653.955078"/>
      <use xlink:href="#LucidaGrande-74" x="1682.861328"/>
      <use xlink:href="#LucidaGrande-69" x="1720.263672"/>
      <use xlink:href="#LucidaGrande-6f" x="1749.169922"/>
      <use xlink:href="#LucidaGrande-6e" x="1810.595703"/>
     </g>
    </g>
   </g>
   <g id="line2d_15">
    <path d="M 83.910625 184.153461 
L 530.310625 184.153461 
" clip-path="url(#p3d926228e5)" style="fill: none; stroke-dasharray: 1.85,0.8; stroke-dashoffset: 0; stroke: #000000; stroke-width: 0.5"/>
   </g>
   <g id="line2d_16">
    <path d="M 306.029214 356.805937 
L 306.029214 24.165937 
" clip-path="url(#p3d926228e5)" style="fill: none; stroke-dasharray: 1.85,0.8; stroke-dashoffset: 0; stroke: #000000; stroke-width: 0.5"/>
   </g>
   <g id="patch_3">
    <path d="M 83.910625 356.805937 
L 83.910625 24.165937 
" style="fill: none; stroke: #000000; stroke-width: 0.8; stroke-linejoin: miter; stroke-linecap: square"/>
   </g>
   <g id="patch_4">
    <path d="M 530.310625 356.805937 
L 530.310625 24.165937 
" style="fill: none; stroke: #000000; stroke-width: 0.8; stroke-linejoin: miter; stroke-linecap: square"/>
   </g>
   <g id="patch_5">
    <path d="M 83.910625 356.805937 
L 530.310625 356.805937 
" style="fill: none; stroke: #000000; stroke-width: 0.8; stroke-linejoin: miter; stroke-linecap: square"/>
   </g>
   <g id="patch_6">
    <path d="M 83.910625 24.165937 
L 530.310625 24.165937 
" style="fill: none; stroke: #000000; stroke-width: 0.8; stroke-linejoin: miter; stroke-linecap: square"/>
   </g>
   <g id="text_17">
    <!-- Slc11a2 -->
    <g transform="translate(513.155088 266.923615) scale(0.09 -0.09)">
     <defs>
      <path id="LucidaGrande-53" d="M 1503 -116 
Q 1038 -116 313 88 
L 313 738 
Q 1094 375 1597 375 
Q 1984 375 2220 578 
Q 2456 781 2456 1113 
Q 2456 1384 2301 1575 
Q 2147 1766 1731 2000 
L 1413 2184 
Q 822 2522 580 2820 
Q 338 3119 338 3516 
Q 338 4050 725 4395 
Q 1113 4741 1713 4741 
Q 2247 4741 2841 4563 
L 2841 3963 
Q 2109 4250 1750 4250 
Q 1409 4250 1187 4069 
Q 966 3888 966 3613 
Q 966 3381 1128 3203 
Q 1291 3025 1722 2778 
L 2053 2591 
Q 2653 2250 2890 1947 
Q 3128 1644 3128 1219 
Q 3128 616 2683 250 
Q 2238 -116 1503 -116 
z
" transform="scale(0.015625)"/>
     </defs>
     <use xlink:href="#LucidaGrande-53"/>
     <use xlink:href="#LucidaGrande-6c" x="53.857422"/>
     <use xlink:href="#LucidaGrande-63" x="82.763672"/>
     <use xlink:href="#LucidaGrande-31" x="133.984375"/>
     <use xlink:href="#LucidaGrande-31" x="197.216797"/>
     <use xlink:href="#LucidaGrande-61" x="260.449219"/>
     <use xlink:href="#LucidaGrande-32" x="315.673828"/>
    </g>
   </g>
   <g id="text_18">
    <!-- Slc7a11 -->
    <g transform="translate(491.91019 278.152279) scale(0.09 -0.09)">
     <defs>
      <path id="LucidaGrande-37" d="M 963 0 
Q 1053 541 1220 934 
Q 1388 1328 1813 2016 
L 3075 4047 
L 694 4047 
L 694 4625 
L 3663 4625 
L 3663 4047 
Q 1884 1425 1672 0 
L 963 0 
z
" transform="scale(0.015625)"/>
     </defs>
     <use xlink:href="#LucidaGrande-53"/>
     <use xlink:href="#LucidaGrande-6c" x="53.857422"/>
     <use xlink:href="#LucidaGrande-63" x="82.763672"/>
     <use xlink:href="#LucidaGrande-37" x="133.984375"/>
     <use xlink:href="#LucidaGrande-61" x="197.216797"/>
     <use xlink:href="#LucidaGrande-31" x="252.441406"/>
     <use xlink:href="#LucidaGrande-31" x="315.673828"/>
    </g>
   </g>
   <g id="text_19">
    <!-- Slc25a24 -->
    <g transform="translate(476.21073 311.761876) scale(0.09 -0.09)">
     <defs>
      <path id="LucidaGrande-35" d="M 778 -19 
L 778 531 
Q 1238 347 1653 347 
Q 2109 347 2370 615 
Q 2631 884 2631 1356 
Q 2631 2397 1197 2397 
Q 1034 2397 856 2375 
L 856 4625 
L 3197 4625 
L 3197 4088 
L 1397 4088 
L 1397 2869 
Q 2288 2869 2788 2459 
Q 3288 2050 3288 1325 
Q 3288 650 2833 267 
Q 2378 -116 1572 -116 
Q 1222 -116 778 -19 
z
" transform="scale(0.015625)"/>
     </defs>
     <use xlink:href="#LucidaGrande-53"/>
     <use xlink:href="#LucidaGrande-6c" x="53.857422"/>
     <use xlink:href="#LucidaGrande-63" x="82.763672"/>
     <use xlink:href="#LucidaGrande-32" x="133.984375"/>
     <use xlink:href="#LucidaGrande-35" x="197.216797"/>
     <use xlink:href="#LucidaGrande-61" x="260.449219"/>
     <use xlink:href="#LucidaGrande-32" x="315.673828"/>
     <use xlink:href="#LucidaGrande-34" x="378.90625"/>
    </g>
   </g>
   <g id="text_20">
    <!-- Zfand1 -->
    <g transform="translate(468.358944 337.066644) scale(0.09 -0.09)">
     <defs>
      <path id="LucidaGrande-5a" d="M 297 0 
L 297 525 
L 2781 4134 
L 450 4134 
L 450 4625 
L 3569 4625 
L 3569 4134 
L 1084 525 
L 3569 525 
L 3569 0 
L 297 0 
z
" transform="scale(0.015625)"/>
      <path id="LucidaGrande-66" d="M 1350 2931 
L 1350 0 
L 731 0 
L 731 2931 
L 250 2931 
L 250 3394 
L 731 3394 
L 731 3800 
Q 731 5013 1838 5013 
Q 2147 5013 2541 4909 
L 2541 4422 
Q 2125 4550 1875 4550 
Q 1572 4550 1461 4404 
Q 1350 4259 1350 3866 
L 1350 3394 
L 2197 3394 
L 2197 2931 
L 1350 2931 
z
" transform="scale(0.015625)"/>
     </defs>
     <use xlink:href="#LucidaGrande-5a"/>
     <use xlink:href="#LucidaGrande-66" x="60.449219"/>
     <use xlink:href="#LucidaGrande-61" x="97.216797"/>
     <use xlink:href="#LucidaGrande-6e" x="152.441406"/>
     <use xlink:href="#LucidaGrande-64" x="214.501953"/>
     <use xlink:href="#LucidaGrande-31" x="277.441406"/>
    </g>
   </g>
   <g id="text_21">
    <!-- Gskip -->
    <g transform="translate(464.378027 316.766706) scale(0.09 -0.09)">
     <defs>
      <path id="LucidaGrande-47" d="M 4072 125 
Q 3231 -116 2606 -116 
Q 1503 -116 914 512 
Q 325 1141 325 2313 
Q 325 3463 922 4102 
Q 1519 4741 2597 4741 
Q 3303 4741 4066 4531 
L 4066 3925 
Q 3109 4250 2600 4250 
Q 1850 4250 1436 3740 
Q 1022 3231 1022 2306 
Q 1022 1391 1465 883 
Q 1909 375 2709 375 
Q 3038 375 3419 491 
L 3419 1997 
L 4072 1997 
L 4072 125 
z
" transform="scale(0.015625)"/>
      <path id="LucidaGrande-6b" d="M 616 0 
L 616 4934 
L 1231 4934 
L 1231 1747 
L 2669 3394 
L 3331 3394 
L 1959 1809 
L 3616 0 
L 2828 0 
L 1231 1741 
L 1231 0 
L 616 0 
z
" transform="scale(0.015625)"/>
     </defs>
     <use xlink:href="#LucidaGrande-47"/>
     <use xlink:href="#LucidaGrande-73" x="72.265625"/>
     <use xlink:href="#LucidaGrande-6b" x="123.242188"/>
     <use xlink:href="#LucidaGrande-69" x="181.689453"/>
     <use xlink:href="#LucidaGrande-70" x="210.595703"/>
    </g>
   </g>
   <g id="text_22">
    <!-- Endog -->
    <g transform="translate(129.097141 61.541165) scale(0.09 -0.09)">
     <defs>
      <path id="LucidaGrande-45" d="M 597 0 
L 597 4625 
L 3181 4625 
L 3181 4134 
L 1253 4134 
L 1253 2650 
L 2869 2650 
L 2869 2166 
L 1253 2166 
L 1253 491 
L 3316 491 
L 3316 0 
L 597 0 
z
" transform="scale(0.015625)"/>
      <path id="LucidaGrande-67" d="M 628 -1128 
L 700 -594 
Q 1234 -847 1753 -847 
Q 2794 -847 2794 256 
L 2794 791 
Q 2453 78 1675 78 
Q 1066 78 706 522 
Q 347 966 347 1719 
Q 347 2494 756 2981 
Q 1166 3469 1816 3469 
Q 2384 3469 2794 3006 
L 2794 3394 
L 3413 3394 
L 3413 925 
Q 3413 128 3330 -255 
Q 3247 -638 3019 -881 
Q 2616 -1309 1766 -1309 
Q 1172 -1309 628 -1128 
z
M 2794 1175 
L 2794 2584 
Q 2388 3006 1909 3006 
Q 1484 3006 1243 2665 
Q 1003 2325 1003 1731 
Q 1003 616 1788 616 
Q 2322 616 2794 1175 
z
" transform="scale(0.015625)"/>
     </defs>
     <use xlink:href="#LucidaGrande-45"/>
     <use xlink:href="#LucidaGrande-6e" x="54.199219"/>
     <use xlink:href="#LucidaGrande-64" x="116.259766"/>
     <use xlink:href="#LucidaGrande-6f" x="179.199219"/>
     <use xlink:href="#LucidaGrande-67" x="240.625"/>
    </g>
   </g>
   <g id="text_23">
    <!-- Trex1 -->
    <g transform="translate(123.409551 121.52842) scale(0.09 -0.09)">
     <defs>
      <path id="LucidaGrande-54" d="M 1697 0 
L 1697 4134 
L 56 4134 
L 56 4625 
L 3994 4625 
L 3994 4134 
L 2353 4134 
L 2353 0 
L 1697 0 
z
" transform="scale(0.015625)"/>
      <path id="LucidaGrande-78" d="M 275 0 
L 1566 1753 
L 313 3394 
L 1044 3394 
L 2034 2088 
L 2931 3394 
L 3531 3394 
L 2356 1672 
L 3634 0 
L 2903 0 
L 1881 1344 
L 894 0 
L 275 0 
z
" transform="scale(0.015625)"/>
     </defs>
     <use xlink:href="#LucidaGrande-54"/>
     <use xlink:href="#LucidaGrande-72" x="63.232422"/>
     <use xlink:href="#LucidaGrande-65" x="104.150391"/>
     <use xlink:href="#LucidaGrande-78" x="159.863281"/>
     <use xlink:href="#LucidaGrande-31" x="221.191406"/>
    </g>
   </g>
   <g id="text_24">
    <!-- Keap1 -->
    <g transform="translate(107.336906 34.666644) scale(0.09 -0.09)">
     <defs>
      <path id="LucidaGrande-4b" d="M 597 0 
L 597 4625 
L 1213 4625 
L 1213 2350 
L 3084 4625 
L 3744 4625 
L 1931 2419 
L 4066 0 
L 3234 0 
L 1213 2344 
L 1213 0 
L 597 0 
z
" transform="scale(0.015625)"/>
     </defs>
     <use xlink:href="#LucidaGrande-4b"/>
     <use xlink:href="#LucidaGrande-65" x="65.283203"/>
     <use xlink:href="#LucidaGrande-61" x="120.996094"/>
     <use xlink:href="#LucidaGrande-70" x="176.220703"/>
     <use xlink:href="#LucidaGrande-31" x="239.160156"/>
    </g>
   </g>
   <g id="text_25">
    <!-- Correlation of Oxidative Stress Genes with Protein Production and Cysteine Composition -->
    <g transform="translate(7.2 18.165937) scale(0.14 -0.14)">
     <defs>
      <path id="LucidaGrande-4f" d="M 2459 -116 
Q 1497 -116 911 551 
Q 325 1219 325 2316 
Q 325 3419 914 4080 
Q 1503 4741 2488 4741 
Q 3469 4741 4059 4081 
Q 4650 3422 4650 2322 
Q 4650 1200 4059 542 
Q 3469 -116 2459 -116 
z
M 2469 375 
Q 3178 375 3565 886 
Q 3953 1397 3953 2328 
Q 3953 3231 3564 3740 
Q 3175 4250 2488 4250 
Q 1797 4250 1409 3739 
Q 1022 3228 1022 2319 
Q 1022 1413 1406 894 
Q 1791 375 2469 375 
z
" transform="scale(0.015625)"/>
      <path id="LucidaGrande-76" d="M 1319 0 
L 56 3394 
L 672 3394 
L 1659 753 
L 2700 3394 
L 3275 3394 
L 1934 0 
L 1319 0 
z
" transform="scale(0.015625)"/>
     </defs>
     <use xlink:href="#LucidaGrande-43"/>
     <use xlink:href="#LucidaGrande-6f" x="69.189453"/>
     <use xlink:href="#LucidaGrande-72" x="130.615234"/>
     <use xlink:href="#LucidaGrande-72" x="171.533203"/>
     <use xlink:href="#LucidaGrande-65" x="212.451172"/>
     <use xlink:href="#LucidaGrande-6c" x="268.164062"/>
     <use xlink:href="#LucidaGrande-61" x="297.070312"/>
     <use xlink:href="#LucidaGrande-74" x="352.294922"/>
     <use xlink:href="#LucidaGrande-69" x="389.697266"/>
     <use xlink:href="#LucidaGrande-6f" x="418.603516"/>
     <use xlink:href="#LucidaGrande-6e" x="480.029297"/>
     <use xlink:href="#LucidaGrande-20" x="542.089844"/>
     <use xlink:href="#LucidaGrande-6f" x="573.730469"/>
     <use xlink:href="#LucidaGrande-66" x="635.15625"/>
     <use xlink:href="#LucidaGrande-20" x="671.923828"/>
     <use xlink:href="#LucidaGrande-4f" x="703.564453"/>
     <use xlink:href="#LucidaGrande-78" x="781.25"/>
     <use xlink:href="#LucidaGrande-69" x="842.578125"/>
     <use xlink:href="#LucidaGrande-64" x="871.484375"/>
     <use xlink:href="#LucidaGrande-61" x="934.423828"/>
     <use xlink:href="#LucidaGrande-74" x="989.648438"/>
     <use xlink:href="#LucidaGrande-69" x="1027.050781"/>
     <use xlink:href="#LucidaGrande-76" x="1055.957031"/>
     <use xlink:href="#LucidaGrande-65" x="1107.714844"/>
     <use xlink:href="#LucidaGrande-20" x="1163.427734"/>
     <use xlink:href="#LucidaGrande-53" x="1195.068359"/>
     <use xlink:href="#LucidaGrande-74" x="1248.925781"/>
     <use xlink:href="#LucidaGrande-72" x="1286.328125"/>
     <use xlink:href="#LucidaGrande-65" x="1327.246094"/>
     <use xlink:href="#LucidaGrande-73" x="1382.958984"/>
     <use xlink:href="#LucidaGrande-73" x="1433.935547"/>
     <use xlink:href="#LucidaGrande-20" x="1484.912109"/>
     <use xlink:href="#LucidaGrande-47" x="1516.552734"/>
     <use xlink:href="#LucidaGrande-65" x="1588.818359"/>
     <use xlink:href="#LucidaGrande-6e" x="1644.53125"/>
     <use xlink:href="#LucidaGrande-65" x="1706.591797"/>
     <use xlink:href="#LucidaGrande-73" x="1762.304688"/>
     <use xlink:href="#LucidaGrande-20" x="1813.28125"/>
     <use xlink:href="#LucidaGrande-77" x="1844.921875"/>
     <use xlink:href="#LucidaGrande-69" x="1921.972656"/>
     <use xlink:href="#LucidaGrande-74" x="1950.878906"/>
     <use xlink:href="#LucidaGrande-68" x="1988.28125"/>
     <use xlink:href="#LucidaGrande-20" x="2050.341797"/>
     <use xlink:href="#LucidaGrande-50" x="2081.982422"/>
     <use xlink:href="#LucidaGrande-72" x="2137.255859"/>
     <use xlink:href="#LucidaGrande-6f" x="2178.173828"/>
     <use xlink:href="#LucidaGrande-74" x="2239.599609"/>
     <use xlink:href="#LucidaGrande-65" x="2277.001953"/>
     <use xlink:href="#LucidaGrande-69" x="2332.714844"/>
     <use xlink:href="#LucidaGrande-6e" x="2361.621094"/>
     <use xlink:href="#LucidaGrande-20" x="2423.681641"/>
     <use xlink:href="#LucidaGrande-50" x="2455.322266"/>
     <use xlink:href="#LucidaGrande-72" x="2510.595703"/>
     <use xlink:href="#LucidaGrande-6f" x="2551.513672"/>
     <use xlink:href="#LucidaGrande-64" x="2612.939453"/>
     <use xlink:href="#LucidaGrande-75" x="2675.878906"/>
     <use xlink:href="#LucidaGrande-63" x="2737.939453"/>
     <use xlink:href="#LucidaGrande-74" x="2789.160156"/>
     <use xlink:href="#LucidaGrande-69" x="2826.5625"/>
     <use xlink:href="#LucidaGrande-6f" x="2855.46875"/>
     <use xlink:href="#LucidaGrande-6e" x="2916.894531"/>
     <use xlink:href="#LucidaGrande-20" x="2978.955078"/>
     <use xlink:href="#LucidaGrande-61" x="3010.595703"/>
     <use xlink:href="#LucidaGrande-6e" x="3065.820312"/>
     <use xlink:href="#LucidaGrande-64" x="3127.880859"/>
     <use xlink:href="#LucidaGrande-20" x="3190.820312"/>
     <use xlink:href="#LucidaGrande-43" x="3222.460938"/>
     <use xlink:href="#LucidaGrande-79" x="3291.650391"/>
     <use xlink:href="#LucidaGrande-73" x="3343.896484"/>
     <use xlink:href="#LucidaGrande-74" x="3394.873047"/>
     <use xlink:href="#LucidaGrande-65" x="3432.275391"/>
     <use xlink:href="#LucidaGrande-69" x="3487.988281"/>
     <use xlink:href="#LucidaGrande-6e" x="3516.894531"/>
     <use xlink:href="#LucidaGrande-65" x="3578.955078"/>
     <use xlink:href="#LucidaGrande-20" x="3634.667969"/>
     <use xlink:href="#LucidaGrande-43" x="3666.308594"/>
     <use xlink:href="#LucidaGrande-6f" x="3735.498047"/>
     <use xlink:href="#LucidaGrande-6d" x="3796.923828"/>
     <use xlink:href="#LucidaGrande-70" x="3890.283203"/>
     <use xlink:href="#LucidaGrande-6f" x="3953.222656"/>
     <use xlink:href="#LucidaGrande-73" x="4014.648438"/>
     <use xlink:href="#LucidaGrande-69" x="4065.625"/>
     <use xlink:href="#LucidaGrande-74" x="4094.53125"/>
     <use xlink:href="#LucidaGrande-69" x="4131.933594"/>
     <use xlink:href="#LucidaGrande-6f" x="4160.839844"/>
     <use xlink:href="#LucidaGrande-6e" x="4222.265625"/>
    </g>
   </g>
   <g id="legend_1">
    <g id="patch_7">
     <path d="M 559.630625 91.190937 
L 754.147813 91.190937 
Q 756.147813 91.190937 756.147813 89.190937 
L 756.147813 31.165937 
Q 756.147813 29.165937 754.147813 29.165937 
L 559.630625 29.165937 
Q 557.630625 29.165937 557.630625 31.165937 
L 557.630625 89.190937 
Q 557.630625 91.190937 559.630625 91.190937 
z
" style="fill: #ffffff; opacity: 0.8; stroke: #cccccc; stroke-linejoin: miter"/>
    </g>
    <g id="text_26">
     <!-- Correlation Category -->
     <g transform="translate(606.478281 40.875312) scale(0.1 -0.1)">
      <use xlink:href="#LucidaGrande-43"/>
      <use xlink:href="#LucidaGrande-6f" x="69.189453"/>
      <use xlink:href="#LucidaGrande-72" x="130.615234"/>
      <use xlink:href="#LucidaGrande-72" x="171.533203"/>
      <use xlink:href="#LucidaGrande-65" x="212.451172"/>
      <use xlink:href="#LucidaGrande-6c" x="268.164062"/>
      <use xlink:href="#LucidaGrande-61" x="297.070312"/>
      <use xlink:href="#LucidaGrande-74" x="352.294922"/>
      <use xlink:href="#LucidaGrande-69" x="389.697266"/>
      <use xlink:href="#LucidaGrande-6f" x="418.603516"/>
      <use xlink:href="#LucidaGrande-6e" x="480.029297"/>
      <use xlink:href="#LucidaGrande-20" x="542.089844"/>
      <use xlink:href="#LucidaGrande-43" x="573.730469"/>
      <use xlink:href="#LucidaGrande-61" x="642.919922"/>
      <use xlink:href="#LucidaGrande-74" x="698.144531"/>
      <use xlink:href="#LucidaGrande-65" x="735.546875"/>
      <use xlink:href="#LucidaGrande-67" x="791.259766"/>
      <use xlink:href="#LucidaGrande-6f" x="853.613281"/>
      <use xlink:href="#LucidaGrande-72" x="915.039062"/>
      <use xlink:href="#LucidaGrande-79" x="955.957031"/>
     </g>
    </g>
    <g id="patch_8">
     <path d="M 561.630625 55.63 
L 581.630625 55.63 
L 581.630625 48.63 
L 561.630625 48.63 
z
" style="fill: #008000; stroke: #008000; stroke-linejoin: miter"/>
    </g>
    <g id="text_27">
     <!-- Overexpressed in High producers -->
     <g transform="translate(589.630625 55.63) scale(0.1 -0.1)">
      <defs>
       <path id="LucidaGrande-48" d="M 597 0 
L 597 4625 
L 1253 4625 
L 1253 2675 
L 3453 2675 
L 3453 4625 
L 4109 4625 
L 4109 0 
L 3453 0 
L 3453 2184 
L 1253 2184 
L 1253 0 
L 597 0 
z
" transform="scale(0.015625)"/>
      </defs>
      <use xlink:href="#LucidaGrande-4f"/>
      <use xlink:href="#LucidaGrande-76" x="77.685547"/>
      <use xlink:href="#LucidaGrande-65" x="129.443359"/>
      <use xlink:href="#LucidaGrande-72" x="185.15625"/>
      <use xlink:href="#LucidaGrande-65" x="226.074219"/>
      <use xlink:href="#LucidaGrande-78" x="281.787109"/>
      <use xlink:href="#LucidaGrande-70" x="343.115234"/>
      <use xlink:href="#LucidaGrande-72" x="406.054688"/>
      <use xlink:href="#LucidaGrande-65" x="446.972656"/>
      <use xlink:href="#LucidaGrande-73" x="502.685547"/>
      <use xlink:href="#LucidaGrande-73" x="553.662109"/>
      <use xlink:href="#LucidaGrande-65" x="604.638672"/>
      <use xlink:href="#LucidaGrande-64" x="660.351562"/>
      <use xlink:href="#LucidaGrande-20" x="723.291016"/>
      <use xlink:href="#LucidaGrande-69" x="754.931641"/>
      <use xlink:href="#LucidaGrande-6e" x="783.837891"/>
      <use xlink:href="#LucidaGrande-20" x="845.898438"/>
      <use xlink:href="#LucidaGrande-48" x="877.539062"/>
      <use xlink:href="#LucidaGrande-69" x="951.025391"/>
      <use xlink:href="#LucidaGrande-67" x="979.931641"/>
      <use xlink:href="#LucidaGrande-68" x="1042.285156"/>
      <use xlink:href="#LucidaGrande-20" x="1104.345703"/>
      <use xlink:href="#LucidaGrande-70" x="1135.986328"/>
      <use xlink:href="#LucidaGrande-72" x="1198.925781"/>
      <use xlink:href="#LucidaGrande-6f" x="1239.84375"/>
      <use xlink:href="#LucidaGrande-64" x="1301.269531"/>
      <use xlink:href="#LucidaGrande-75" x="1364.208984"/>
      <use xlink:href="#LucidaGrande-63" x="1426.269531"/>
      <use xlink:href="#LucidaGrande-65" x="1477.490234"/>
      <use xlink:href="#LucidaGrande-72" x="1533.203125"/>
      <use xlink:href="#LucidaGrande-73" x="1574.121094"/>
     </g>
    </g>
    <g id="patch_9">
     <path d="M 561.630625 70.384687 
L 581.630625 70.384687 
L 581.630625 63.384687 
L 561.630625 63.384687 
z
" style="fill: #ff0000; stroke: #ff0000; stroke-linejoin: miter"/>
    </g>
    <g id="text_28">
     <!-- Overexpressed in Non-producers -->
     <g transform="translate(589.630625 70.384687) scale(0.1 -0.1)">
      <defs>
       <path id="LucidaGrande-4e" d="M 597 0 
L 597 4625 
L 1241 4625 
L 3569 1053 
L 3569 4625 
L 4131 4625 
L 4131 0 
L 3491 0 
L 1159 3572 
L 1159 0 
L 597 0 
z
" transform="scale(0.015625)"/>
       <path id="LucidaGrande-2d" d="M 463 1619 
L 463 2081 
L 3238 2081 
L 3238 1619 
L 463 1619 
z
" transform="scale(0.015625)"/>
      </defs>
      <use xlink:href="#LucidaGrande-4f"/>
      <use xlink:href="#LucidaGrande-76" x="77.685547"/>
      <use xlink:href="#LucidaGrande-65" x="129.443359"/>
      <use xlink:href="#LucidaGrande-72" x="185.15625"/>
      <use xlink:href="#LucidaGrande-65" x="226.074219"/>
      <use xlink:href="#LucidaGrande-78" x="281.787109"/>
      <use xlink:href="#LucidaGrande-70" x="343.115234"/>
      <use xlink:href="#LucidaGrande-72" x="406.054688"/>
      <use xlink:href="#LucidaGrande-65" x="446.972656"/>
      <use xlink:href="#LucidaGrande-73" x="502.685547"/>
      <use xlink:href="#LucidaGrande-73" x="553.662109"/>
      <use xlink:href="#LucidaGrande-65" x="604.638672"/>
      <use xlink:href="#LucidaGrande-64" x="660.351562"/>
      <use xlink:href="#LucidaGrande-20" x="723.291016"/>
      <use xlink:href="#LucidaGrande-69" x="754.931641"/>
      <use xlink:href="#LucidaGrande-6e" x="783.837891"/>
      <use xlink:href="#LucidaGrande-20" x="845.898438"/>
      <use xlink:href="#LucidaGrande-4e" x="877.539062"/>
      <use xlink:href="#LucidaGrande-6f" x="951.416016"/>
      <use xlink:href="#LucidaGrande-6e" x="1012.841797"/>
      <use xlink:href="#LucidaGrande-2d" x="1074.902344"/>
      <use xlink:href="#LucidaGrande-70" x="1132.763672"/>
      <use xlink:href="#LucidaGrande-72" x="1195.703125"/>
      <use xlink:href="#LucidaGrande-6f" x="1236.621094"/>
      <use xlink:href="#LucidaGrande-64" x="1298.046875"/>
      <use xlink:href="#LucidaGrande-75" x="1360.986328"/>
      <use xlink:href="#LucidaGrande-63" x="1423.046875"/>
      <use xlink:href="#LucidaGrande-65" x="1474.267578"/>
      <use xlink:href="#LucidaGrande-72" x="1529.980469"/>
      <use xlink:href="#LucidaGrande-73" x="1570.898438"/>
     </g>
    </g>
    <g id="patch_10">
     <path d="M 561.630625 85.145625 
L 581.630625 85.145625 
L 581.630625 78.145625 
L 561.630625 78.145625 
z
" style="fill: #808080; stroke: #808080; stroke-linejoin: miter"/>
    </g>
    <g id="text_29">
     <!-- Non-Significant -->
     <g transform="translate(589.630625 85.145625) scale(0.1 -0.1)">
      <use xlink:href="#LucidaGrande-4e"/>
      <use xlink:href="#LucidaGrande-6f" x="73.876953"/>
      <use xlink:href="#LucidaGrande-6e" x="135.302734"/>
      <use xlink:href="#LucidaGrande-2d" x="197.363281"/>
      <use xlink:href="#LucidaGrande-53" x="255.224609"/>
      <use xlink:href="#LucidaGrande-69" x="309.082031"/>
      <use xlink:href="#LucidaGrande-67" x="337.988281"/>
      <use xlink:href="#LucidaGrande-6e" x="400.341797"/>
      <use xlink:href="#LucidaGrande-69" x="462.402344"/>
      <use xlink:href="#LucidaGrande-66" x="491.308594"/>
      <use xlink:href="#LucidaGrande-69" x="528.076172"/>
      <use xlink:href="#LucidaGrande-63" x="556.982422"/>
      <use xlink:href="#LucidaGrande-61" x="608.203125"/>
      <use xlink:href="#LucidaGrande-6e" x="663.427734"/>
      <use xlink:href="#LucidaGrande-74" x="725.488281"/>
     </g>
    </g>
   </g>
   <g id="legend_2">
    <g id="patch_11">
     <path d="M 559.630625 157.484562 
L 705.330625 157.484562 
Q 707.330625 157.484562 707.330625 155.484562 
L 707.330625 97.693937 
Q 707.330625 95.693937 705.330625 95.693937 
L 559.630625 95.693937 
Q 557.630625 95.693937 557.630625 97.693937 
L 557.630625 155.484562 
Q 557.630625 157.484562 559.630625 157.484562 
z
" style="fill: #ffffff; opacity: 0.8; stroke: #cccccc; stroke-linejoin: miter"/>
    </g>
    <g id="text_30">
     <!-- Significance (-log10 p-value) -->
     <g transform="translate(561.630625 107.52675) scale(0.1 -0.1)">
      <defs>
       <path id="LucidaGrande-28" d="M 1850 -500 
L 1850 -925 
Q 1175 -466 779 323 
Q 384 1113 384 2006 
Q 384 2897 779 3686 
Q 1175 4475 1850 4934 
L 1850 4509 
Q 1391 4009 1195 3434 
Q 1000 2859 1000 2006 
Q 1000 1150 1195 575 
Q 1391 0 1850 -500 
z
" transform="scale(0.015625)"/>
       <path id="LucidaGrande-29" d="M 231 -500 
L 231 -925 
Q 906 -466 1301 323 
Q 1697 1113 1697 2006 
Q 1697 2897 1301 3686 
Q 906 4475 231 4934 
L 231 4509 
Q 691 4009 886 3434 
Q 1081 2859 1081 2006 
Q 1081 1150 886 575 
Q 691 0 231 -500 
z
" transform="scale(0.015625)"/>
      </defs>
      <use xlink:href="#LucidaGrande-53"/>
      <use xlink:href="#LucidaGrande-69" x="53.857422"/>
      <use xlink:href="#LucidaGrande-67" x="82.763672"/>
      <use xlink:href="#LucidaGrande-6e" x="145.117188"/>
      <use xlink:href="#LucidaGrande-69" x="207.177734"/>
      <use xlink:href="#LucidaGrande-66" x="236.083984"/>
      <use xlink:href="#LucidaGrande-69" x="272.851562"/>
      <use xlink:href="#LucidaGrande-63" x="301.757812"/>
      <use xlink:href="#LucidaGrande-61" x="352.978516"/>
      <use xlink:href="#LucidaGrande-6e" x="408.203125"/>
      <use xlink:href="#LucidaGrande-63" x="470.263672"/>
      <use xlink:href="#LucidaGrande-65" x="521.484375"/>
      <use xlink:href="#LucidaGrande-20" x="577.197266"/>
      <use xlink:href="#LucidaGrande-28" x="608.837891"/>
      <use xlink:href="#LucidaGrande-2d" x="641.357422"/>
      <use xlink:href="#LucidaGrande-6c" x="699.21875"/>
      <use xlink:href="#LucidaGrande-6f" x="728.125"/>
      <use xlink:href="#LucidaGrande-67" x="789.550781"/>
      <use xlink:href="#LucidaGrande-31" x="851.904297"/>
      <use xlink:href="#LucidaGrande-30" x="915.136719"/>
      <use xlink:href="#LucidaGrande-20" x="978.369141"/>
      <use xlink:href="#LucidaGrande-70" x="1010.009766"/>
      <use xlink:href="#LucidaGrande-2d" x="1072.949219"/>
      <use xlink:href="#LucidaGrande-76" x="1130.810547"/>
      <use xlink:href="#LucidaGrande-61" x="1182.568359"/>
      <use xlink:href="#LucidaGrande-6c" x="1237.792969"/>
      <use xlink:href="#LucidaGrande-75" x="1266.699219"/>
      <use xlink:href="#LucidaGrande-65" x="1328.759766"/>
      <use xlink:href="#LucidaGrande-29" x="1384.472656"/>
     </g>
    </g>
    <g id="PathCollection_5">
     <defs>
      <path id="mb4b9395b5b" d="M 0 5 
C 1.326016 5 2.597899 4.473168 3.535534 3.535534 
C 4.473168 2.597899 5 1.326016 5 0 
C 5 -1.326016 4.473168 -2.597899 3.535534 -3.535534 
C 2.597899 -4.473168 1.326016 -5 0 -5 
C -1.326016 -5 -2.597899 -4.473168 -3.535534 -3.535534 
C -4.473168 -2.597899 -5 -1.326016 -5 0 
C -5 1.326016 -4.473168 2.597899 -3.535534 3.535534 
C -2.597899 4.473168 -1.326016 5 0 5 
z
" style="stroke: #000000; stroke-opacity: 0.7"/>
     </defs>
     <g>
      <use xlink:href="#mb4b9395b5b" x="607.125156" y="119.656437" style="fill-opacity: 0.7; stroke: #000000; stroke-opacity: 0.7"/>
     </g>
    </g>
    <g id="text_31">
     <!-- p ≤ 0.01 -->
     <g transform="translate(625.125156 122.281437) scale(0.1 -0.1)">
      <defs>
       <path id="LucidaGrande-2264" d="M 694 0 
L 694 463 
L 4394 463 
L 4394 0 
L 694 0 
z
M 4394 741 
L 694 2222 
L 4394 3700 
L 4394 3203 
L 1947 2225 
L 1947 2219 
L 4394 1238 
L 4394 741 
z
" transform="scale(0.015625)"/>
      </defs>
      <use xlink:href="#LucidaGrande-70"/>
      <use xlink:href="#LucidaGrande-20" x="62.939453"/>
      <use xlink:href="#LucidaGrande-2264" x="94.580078"/>
      <use xlink:href="#LucidaGrande-20" x="174.121094"/>
      <use xlink:href="#LucidaGrande-30" x="205.761719"/>
      <use xlink:href="#LucidaGrande-2e" x="268.994141"/>
      <use xlink:href="#LucidaGrande-30" x="300.634766"/>
      <use xlink:href="#LucidaGrande-31" x="363.867188"/>
     </g>
    </g>
    <g id="PathCollection_6">
     <defs>
      <path id="mb1c8eb8fbe" d="M 0 4.032725 
C 1.069491 4.032725 2.095323 3.607812 2.851568 2.851568 
C 3.607812 2.095323 4.032725 1.069491 4.032725 0 
C 4.032725 -1.069491 3.607812 -2.095323 2.851568 -2.851568 
C 2.095323 -3.607812 1.069491 -4.032725 0 -4.032725 
C -1.069491 -4.032725 -2.095323 -3.607812 -2.851568 -2.851568 
C -3.607812 -2.095323 -4.032725 -1.069491 -4.032725 0 
C -4.032725 1.069491 -3.607812 2.095323 -2.851568 2.851568 
C -2.095323 3.607812 -1.069491 4.032725 0 4.032725 
z
" style="stroke: #000000; stroke-opacity: 0.7"/>
     </defs>
     <g>
      <use xlink:href="#mb1c8eb8fbe" x="607.125156" y="134.293937" style="fill-opacity: 0.7; stroke: #000000; stroke-opacity: 0.7"/>
     </g>
    </g>
    <g id="text_32">
     <!-- p ≤ 0.05 -->
     <g transform="translate(625.125156 136.918937) scale(0.1 -0.1)">
      <use xlink:href="#LucidaGrande-70"/>
      <use xlink:href="#LucidaGrande-20" x="62.939453"/>
      <use xlink:href="#LucidaGrande-2264" x="94.580078"/>
      <use xlink:href="#LucidaGrande-20" x="174.121094"/>
      <use xlink:href="#LucidaGrande-30" x="205.761719"/>
      <use xlink:href="#LucidaGrande-2e" x="268.994141"/>
      <use xlink:href="#LucidaGrande-30" x="300.634766"/>
      <use xlink:href="#LucidaGrande-35" x="363.867188"/>
     </g>
    </g>
    <g id="PathCollection_7">
     <defs>
      <path id="m1b538f3b66" d="M 0 3.535534 
C 0.937635 3.535534 1.836992 3.163008 2.5 2.5 
C 3.163008 1.836992 3.535534 0.937635 3.535534 0 
C 3.535534 -0.937635 3.163008 -1.836992 2.5 -2.5 
C 1.836992 -3.163008 0.937635 -3.535534 0 -3.535534 
C -0.937635 -3.535534 -1.836992 -3.163008 -2.5 -2.5 
C -3.163008 -1.836992 -3.535534 -0.937635 -3.535534 0 
C -3.535534 0.937635 -3.163008 1.836992 -2.5 2.5 
C -1.836992 3.163008 -0.937635 3.535534 0 3.535534 
z
" style="stroke: #000000; stroke-opacity: 0.7"/>
     </defs>
     <g>
      <use xlink:href="#m1b538f3b66" x="607.125156" y="148.931437" style="fill-opacity: 0.7; stroke: #000000; stroke-opacity: 0.7"/>
     </g>
    </g>
    <g id="text_33">
     <!-- p ≤ 0.1 -->
     <g transform="translate(625.125156 151.556437) scale(0.1 -0.1)">
      <use xlink:href="#LucidaGrande-70"/>
      <use xlink:href="#LucidaGrande-20" x="62.939453"/>
      <use xlink:href="#LucidaGrande-2264" x="94.580078"/>
      <use xlink:href="#LucidaGrande-20" x="174.121094"/>
      <use xlink:href="#LucidaGrande-30" x="205.761719"/>
      <use xlink:href="#LucidaGrande-2e" x="268.994141"/>
      <use xlink:href="#LucidaGrande-31" x="300.634766"/>
     </g>
    </g>
   </g>
  </g>
 </g>
 <defs>
  <clipPath id="p3d926228e5">
   <rect x="83.910625" y="24.165937" width="446.4" height="332.64"/>
  </clipPath>
 </defs>
</svg>
