<?xml version="1.0" encoding="utf-8" standalone="no"?>
<!DOCTYPE svg PUBLIC "-//W3C//DTD SVG 1.1//EN"
  "http://www.w3.org/Graphics/SVG/1.1/DTD/svg11.dtd">
<svg xmlns:xlink="http://www.w3.org/1999/xlink" width="1001.091128pt" height="520.74pt" viewBox="0 0 1001.091128 520.74" xmlns="http://www.w3.org/2000/svg" version="1.1">
 <metadata>
  <rdf:RDF xmlns:dc="http://purl.org/dc/elements/1.1/" xmlns:cc="http://creativecommons.org/ns#" xmlns:rdf="http://www.w3.org/1999/02/22-rdf-syntax-ns#">
   <cc:Work>
    <dc:type rdf:resource="http://purl.org/dc/dcmitype/StillImage"/>
    <dc:date>2025-05-21T17:20:38.081346</dc:date>
    <dc:format>image/svg+xml</dc:format>
    <dc:creator>
     <cc:Agent>
      <dc:title>Matplotlib v3.9.4, https://matplotlib.org/</dc:title>
     </cc:Agent>
    </dc:creator>
   </cc:Work>
  </rdf:RDF>
 </metadata>
 <defs>
  <style type="text/css">*{stroke-linejoin: round; stroke-linecap: butt}</style>
 </defs>
 <g id="figure_1">
  <g id="patch_1">
   <path d="M 0 520.74 
L 1001.091128 520.74 
L 1001.091128 0 
L 0 0 
z
" style="fill: #ffffff"/>
  </g>
  <g id="axes_1">
   <g id="patch_2">
    <path d="M 314.804062 469.604062 
L 984.404062 469.604062 
L 984.404062 26.084062 
L 314.804062 26.084062 
z
" style="fill: #ffffff"/>
   </g>
   <g id="matplotlib.axis_1">
    <g id="xtick_1">
     <g id="line2d_1">
      <path d="M 378.652237 469.604062 
L 378.652237 26.084062 
" clip-path="url(#p8ed8ef399b)" style="fill: none; stroke-dasharray: 2.59,1.12; stroke-dashoffset: 0; stroke: #cccccc; stroke-opacity: 0.7; stroke-width: 0.7"/>
     </g>
     <g id="text_1">
      <!-- −0.3 -->
      <g style="fill: #262626" transform="translate(364.8338 492.125) scale(0.14 -0.14)">
       <defs>
        <path id="ArialMT-2212" d="M 3381 1997 
L 356 1997 
L 356 2522 
L 3381 2522 
L 3381 1997 
z
" transform="scale(0.015625)"/>
        <path id="ArialMT-30" d="M 266 2259 
Q 266 3072 433 3567 
Q 600 4063 929 4331 
Q 1259 4600 1759 4600 
Q 2128 4600 2406 4451 
Q 2684 4303 2865 4023 
Q 3047 3744 3150 3342 
Q 3253 2941 3253 2259 
Q 3253 1453 3087 958 
Q 2922 463 2592 192 
Q 2263 -78 1759 -78 
Q 1097 -78 719 397 
Q 266 969 266 2259 
z
M 844 2259 
Q 844 1131 1108 757 
Q 1372 384 1759 384 
Q 2147 384 2411 759 
Q 2675 1134 2675 2259 
Q 2675 3391 2411 3762 
Q 2147 4134 1753 4134 
Q 1366 4134 1134 3806 
Q 844 3388 844 2259 
z
" transform="scale(0.015625)"/>
        <path id="ArialMT-2e" d="M 581 0 
L 581 641 
L 1222 641 
L 1222 0 
L 581 0 
z
" transform="scale(0.015625)"/>
        <path id="ArialMT-33" d="M 269 1209 
L 831 1284 
Q 928 806 1161 595 
Q 1394 384 1728 384 
Q 2125 384 2398 659 
Q 2672 934 2672 1341 
Q 2672 1728 2419 1979 
Q 2166 2231 1775 2231 
Q 1616 2231 1378 2169 
L 1441 2663 
Q 1497 2656 1531 2656 
Q 1891 2656 2178 2843 
Q 2466 3031 2466 3422 
Q 2466 3731 2256 3934 
Q 2047 4138 1716 4138 
Q 1388 4138 1169 3931 
Q 950 3725 888 3313 
L 325 3413 
Q 428 3978 793 4289 
Q 1159 4600 1703 4600 
Q 2078 4600 2393 4439 
Q 2709 4278 2876 4000 
Q 3044 3722 3044 3409 
Q 3044 3113 2884 2869 
Q 2725 2625 2413 2481 
Q 2819 2388 3044 2092 
Q 3269 1797 3269 1353 
Q 3269 753 2831 336 
Q 2394 -81 1725 -81 
Q 1122 -81 723 278 
Q 325 638 269 1209 
z
" transform="scale(0.015625)"/>
       </defs>
       <use xlink:href="#ArialMT-2212"/>
       <use xlink:href="#ArialMT-30" x="58.398438"/>
       <use xlink:href="#ArialMT-2e" x="114.013672"/>
       <use xlink:href="#ArialMT-33" x="141.796875"/>
      </g>
     </g>
    </g>
    <g id="xtick_2">
     <g id="line2d_2">
      <path d="M 465.153507 469.604062 
L 465.153507 26.084062 
" clip-path="url(#p8ed8ef399b)" style="fill: none; stroke-dasharray: 2.59,1.12; stroke-dashoffset: 0; stroke: #cccccc; stroke-opacity: 0.7; stroke-width: 0.7"/>
     </g>
     <g id="text_2">
      <!-- −0.2 -->
      <g style="fill: #262626" transform="translate(451.33507 492.125) scale(0.14 -0.14)">
       <defs>
        <path id="ArialMT-32" d="M 3222 541 
L 3222 0 
L 194 0 
Q 188 203 259 391 
Q 375 700 629 1000 
Q 884 1300 1366 1694 
Q 2113 2306 2375 2664 
Q 2638 3022 2638 3341 
Q 2638 3675 2398 3904 
Q 2159 4134 1775 4134 
Q 1369 4134 1125 3890 
Q 881 3647 878 3216 
L 300 3275 
Q 359 3922 746 4261 
Q 1134 4600 1788 4600 
Q 2447 4600 2831 4234 
Q 3216 3869 3216 3328 
Q 3216 3053 3103 2787 
Q 2991 2522 2730 2228 
Q 2469 1934 1863 1422 
Q 1356 997 1212 845 
Q 1069 694 975 541 
L 3222 541 
z
" transform="scale(0.015625)"/>
       </defs>
       <use xlink:href="#ArialMT-2212"/>
       <use xlink:href="#ArialMT-30" x="58.398438"/>
       <use xlink:href="#ArialMT-2e" x="114.013672"/>
       <use xlink:href="#ArialMT-32" x="141.796875"/>
      </g>
     </g>
    </g>
    <g id="xtick_3">
     <g id="line2d_3">
      <path d="M 551.654777 469.604062 
L 551.654777 26.084062 
" clip-path="url(#p8ed8ef399b)" style="fill: none; stroke-dasharray: 2.59,1.12; stroke-dashoffset: 0; stroke: #cccccc; stroke-opacity: 0.7; stroke-width: 0.7"/>
     </g>
     <g id="text_3">
      <!-- −0.1 -->
      <g style="fill: #262626" transform="translate(537.83634 492.125) scale(0.14 -0.14)">
       <defs>
        <path id="ArialMT-31" d="M 2384 0 
L 1822 0 
L 1822 3584 
Q 1619 3391 1289 3197 
Q 959 3003 697 2906 
L 697 3450 
Q 1169 3672 1522 3987 
Q 1875 4303 2022 4600 
L 2384 4600 
L 2384 0 
z
" transform="scale(0.015625)"/>
       </defs>
       <use xlink:href="#ArialMT-2212"/>
       <use xlink:href="#ArialMT-30" x="58.398438"/>
       <use xlink:href="#ArialMT-2e" x="114.013672"/>
       <use xlink:href="#ArialMT-31" x="141.796875"/>
      </g>
     </g>
    </g>
    <g id="xtick_4">
     <g id="line2d_4">
      <path d="M 638.156047 469.604062 
L 638.156047 26.084062 
" clip-path="url(#p8ed8ef399b)" style="fill: none; stroke-dasharray: 2.59,1.12; stroke-dashoffset: 0; stroke: #cccccc; stroke-opacity: 0.7; stroke-width: 0.7"/>
     </g>
     <g id="text_4">
      <!-- 0.0 -->
      <g style="fill: #262626" transform="translate(628.426047 492.125) scale(0.14 -0.14)">
       <use xlink:href="#ArialMT-30"/>
       <use xlink:href="#ArialMT-2e" x="55.615234"/>
       <use xlink:href="#ArialMT-30" x="83.398438"/>
      </g>
     </g>
    </g>
    <g id="xtick_5">
     <g id="line2d_5">
      <path d="M 724.657318 469.604062 
L 724.657318 26.084062 
" clip-path="url(#p8ed8ef399b)" style="fill: none; stroke-dasharray: 2.59,1.12; stroke-dashoffset: 0; stroke: #cccccc; stroke-opacity: 0.7; stroke-width: 0.7"/>
     </g>
     <g id="text_5">
      <!-- 0.1 -->
      <g style="fill: #262626" transform="translate(714.927318 492.125) scale(0.14 -0.14)">
       <use xlink:href="#ArialMT-30"/>
       <use xlink:href="#ArialMT-2e" x="55.615234"/>
       <use xlink:href="#ArialMT-31" x="83.398438"/>
      </g>
     </g>
    </g>
    <g id="xtick_6">
     <g id="line2d_6">
      <path d="M 811.158588 469.604062 
L 811.158588 26.084062 
" clip-path="url(#p8ed8ef399b)" style="fill: none; stroke-dasharray: 2.59,1.12; stroke-dashoffset: 0; stroke: #cccccc; stroke-opacity: 0.7; stroke-width: 0.7"/>
     </g>
     <g id="text_6">
      <!-- 0.2 -->
      <g style="fill: #262626" transform="translate(801.428588 492.125) scale(0.14 -0.14)">
       <use xlink:href="#ArialMT-30"/>
       <use xlink:href="#ArialMT-2e" x="55.615234"/>
       <use xlink:href="#ArialMT-32" x="83.398438"/>
      </g>
     </g>
    </g>
    <g id="xtick_7">
     <g id="line2d_7">
      <path d="M 897.659858 469.604062 
L 897.659858 26.084062 
" clip-path="url(#p8ed8ef399b)" style="fill: none; stroke-dasharray: 2.59,1.12; stroke-dashoffset: 0; stroke: #cccccc; stroke-opacity: 0.7; stroke-width: 0.7"/>
     </g>
     <g id="text_7">
      <!-- 0.3 -->
      <g style="fill: #262626" transform="translate(887.929858 492.125) scale(0.14 -0.14)">
       <use xlink:href="#ArialMT-30"/>
       <use xlink:href="#ArialMT-2e" x="55.615234"/>
       <use xlink:href="#ArialMT-33" x="83.398438"/>
      </g>
     </g>
    </g>
    <g id="xtick_8">
     <g id="line2d_8">
      <path d="M 984.161128 469.604062 
L 984.161128 26.084062 
" clip-path="url(#p8ed8ef399b)" style="fill: none; stroke-dasharray: 2.59,1.12; stroke-dashoffset: 0; stroke: #cccccc; stroke-opacity: 0.7; stroke-width: 0.7"/>
     </g>
     <g id="text_8">
      <!-- 0.4 -->
      <g style="fill: #262626" transform="translate(974.431128 492.125) scale(0.14 -0.14)">
       <defs>
        <path id="ArialMT-34" d="M 2069 0 
L 2069 1097 
L 81 1097 
L 81 1613 
L 2172 4581 
L 2631 4581 
L 2631 1613 
L 3250 1613 
L 3250 1097 
L 2631 1097 
L 2631 0 
L 2069 0 
z
M 2069 1613 
L 2069 3678 
L 634 1613 
L 2069 1613 
z
" transform="scale(0.015625)"/>
       </defs>
       <use xlink:href="#ArialMT-30"/>
       <use xlink:href="#ArialMT-2e" x="55.615234"/>
       <use xlink:href="#ArialMT-34" x="83.398438"/>
      </g>
     </g>
    </g>
    <g id="text_9">
     <!-- Correlation Coefficient -->
     <g style="fill: #262626" transform="translate(570.600312 510.36) scale(0.16 -0.16)">
      <defs>
       <path id="ArialMT-43" d="M 3763 1606 
L 4369 1453 
Q 4178 706 3683 314 
Q 3188 -78 2472 -78 
Q 1731 -78 1267 223 
Q 803 525 561 1097 
Q 319 1669 319 2325 
Q 319 3041 592 3573 
Q 866 4106 1370 4382 
Q 1875 4659 2481 4659 
Q 3169 4659 3637 4309 
Q 4106 3959 4291 3325 
L 3694 3184 
Q 3534 3684 3231 3912 
Q 2928 4141 2469 4141 
Q 1941 4141 1586 3887 
Q 1231 3634 1087 3207 
Q 944 2781 944 2328 
Q 944 1744 1114 1308 
Q 1284 872 1643 656 
Q 2003 441 2422 441 
Q 2931 441 3284 734 
Q 3638 1028 3763 1606 
z
" transform="scale(0.015625)"/>
       <path id="ArialMT-6f" d="M 213 1659 
Q 213 2581 725 3025 
Q 1153 3394 1769 3394 
Q 2453 3394 2887 2945 
Q 3322 2497 3322 1706 
Q 3322 1066 3130 698 
Q 2938 331 2570 128 
Q 2203 -75 1769 -75 
Q 1072 -75 642 372 
Q 213 819 213 1659 
z
M 791 1659 
Q 791 1022 1069 705 
Q 1347 388 1769 388 
Q 2188 388 2466 706 
Q 2744 1025 2744 1678 
Q 2744 2294 2464 2611 
Q 2184 2928 1769 2928 
Q 1347 2928 1069 2612 
Q 791 2297 791 1659 
z
" transform="scale(0.015625)"/>
       <path id="ArialMT-72" d="M 416 0 
L 416 3319 
L 922 3319 
L 922 2816 
Q 1116 3169 1280 3281 
Q 1444 3394 1641 3394 
Q 1925 3394 2219 3213 
L 2025 2691 
Q 1819 2813 1613 2813 
Q 1428 2813 1281 2702 
Q 1134 2591 1072 2394 
Q 978 2094 978 1738 
L 978 0 
L 416 0 
z
" transform="scale(0.015625)"/>
       <path id="ArialMT-65" d="M 2694 1069 
L 3275 997 
Q 3138 488 2766 206 
Q 2394 -75 1816 -75 
Q 1088 -75 661 373 
Q 234 822 234 1631 
Q 234 2469 665 2931 
Q 1097 3394 1784 3394 
Q 2450 3394 2872 2941 
Q 3294 2488 3294 1666 
Q 3294 1616 3291 1516 
L 816 1516 
Q 847 969 1125 678 
Q 1403 388 1819 388 
Q 2128 388 2347 550 
Q 2566 713 2694 1069 
z
M 847 1978 
L 2700 1978 
Q 2663 2397 2488 2606 
Q 2219 2931 1791 2931 
Q 1403 2931 1139 2672 
Q 875 2413 847 1978 
z
" transform="scale(0.015625)"/>
       <path id="ArialMT-6c" d="M 409 0 
L 409 4581 
L 972 4581 
L 972 0 
L 409 0 
z
" transform="scale(0.015625)"/>
       <path id="ArialMT-61" d="M 2588 409 
Q 2275 144 1986 34 
Q 1697 -75 1366 -75 
Q 819 -75 525 192 
Q 231 459 231 875 
Q 231 1119 342 1320 
Q 453 1522 633 1644 
Q 813 1766 1038 1828 
Q 1203 1872 1538 1913 
Q 2219 1994 2541 2106 
Q 2544 2222 2544 2253 
Q 2544 2597 2384 2738 
Q 2169 2928 1744 2928 
Q 1347 2928 1158 2789 
Q 969 2650 878 2297 
L 328 2372 
Q 403 2725 575 2942 
Q 747 3159 1072 3276 
Q 1397 3394 1825 3394 
Q 2250 3394 2515 3294 
Q 2781 3194 2906 3042 
Q 3031 2891 3081 2659 
Q 3109 2516 3109 2141 
L 3109 1391 
Q 3109 606 3145 398 
Q 3181 191 3288 0 
L 2700 0 
Q 2613 175 2588 409 
z
M 2541 1666 
Q 2234 1541 1622 1453 
Q 1275 1403 1131 1340 
Q 988 1278 909 1158 
Q 831 1038 831 891 
Q 831 666 1001 516 
Q 1172 366 1500 366 
Q 1825 366 2078 508 
Q 2331 650 2450 897 
Q 2541 1088 2541 1459 
L 2541 1666 
z
" transform="scale(0.015625)"/>
       <path id="ArialMT-74" d="M 1650 503 
L 1731 6 
Q 1494 -44 1306 -44 
Q 1000 -44 831 53 
Q 663 150 594 308 
Q 525 466 525 972 
L 525 2881 
L 113 2881 
L 113 3319 
L 525 3319 
L 525 4141 
L 1084 4478 
L 1084 3319 
L 1650 3319 
L 1650 2881 
L 1084 2881 
L 1084 941 
Q 1084 700 1114 631 
Q 1144 563 1211 522 
Q 1278 481 1403 481 
Q 1497 481 1650 503 
z
" transform="scale(0.015625)"/>
       <path id="ArialMT-69" d="M 425 3934 
L 425 4581 
L 988 4581 
L 988 3934 
L 425 3934 
z
M 425 0 
L 425 3319 
L 988 3319 
L 988 0 
L 425 0 
z
" transform="scale(0.015625)"/>
       <path id="ArialMT-6e" d="M 422 0 
L 422 3319 
L 928 3319 
L 928 2847 
Q 1294 3394 1984 3394 
Q 2284 3394 2536 3286 
Q 2788 3178 2913 3003 
Q 3038 2828 3088 2588 
Q 3119 2431 3119 2041 
L 3119 0 
L 2556 0 
L 2556 2019 
Q 2556 2363 2490 2533 
Q 2425 2703 2258 2804 
Q 2091 2906 1866 2906 
Q 1506 2906 1245 2678 
Q 984 2450 984 1813 
L 984 0 
L 422 0 
z
" transform="scale(0.015625)"/>
       <path id="ArialMT-20" transform="scale(0.015625)"/>
       <path id="ArialMT-66" d="M 556 0 
L 556 2881 
L 59 2881 
L 59 3319 
L 556 3319 
L 556 3672 
Q 556 4006 616 4169 
Q 697 4388 901 4523 
Q 1106 4659 1475 4659 
Q 1713 4659 2000 4603 
L 1916 4113 
Q 1741 4144 1584 4144 
Q 1328 4144 1222 4034 
Q 1116 3925 1116 3625 
L 1116 3319 
L 1763 3319 
L 1763 2881 
L 1116 2881 
L 1116 0 
L 556 0 
z
" transform="scale(0.015625)"/>
       <path id="ArialMT-63" d="M 2588 1216 
L 3141 1144 
Q 3050 572 2676 248 
Q 2303 -75 1759 -75 
Q 1078 -75 664 370 
Q 250 816 250 1647 
Q 250 2184 428 2587 
Q 606 2991 970 3192 
Q 1334 3394 1763 3394 
Q 2303 3394 2647 3120 
Q 2991 2847 3088 2344 
L 2541 2259 
Q 2463 2594 2264 2762 
Q 2066 2931 1784 2931 
Q 1359 2931 1093 2626 
Q 828 2322 828 1663 
Q 828 994 1084 691 
Q 1341 388 1753 388 
Q 2084 388 2306 591 
Q 2528 794 2588 1216 
z
" transform="scale(0.015625)"/>
      </defs>
      <use xlink:href="#ArialMT-43"/>
      <use xlink:href="#ArialMT-6f" x="72.216797"/>
      <use xlink:href="#ArialMT-72" x="127.832031"/>
      <use xlink:href="#ArialMT-72" x="161.132812"/>
      <use xlink:href="#ArialMT-65" x="194.433594"/>
      <use xlink:href="#ArialMT-6c" x="250.048828"/>
      <use xlink:href="#ArialMT-61" x="272.265625"/>
      <use xlink:href="#ArialMT-74" x="327.880859"/>
      <use xlink:href="#ArialMT-69" x="355.664062"/>
      <use xlink:href="#ArialMT-6f" x="377.880859"/>
      <use xlink:href="#ArialMT-6e" x="433.496094"/>
      <use xlink:href="#ArialMT-20" x="489.111328"/>
      <use xlink:href="#ArialMT-43" x="516.894531"/>
      <use xlink:href="#ArialMT-6f" x="589.111328"/>
      <use xlink:href="#ArialMT-65" x="644.726562"/>
      <use xlink:href="#ArialMT-66" x="700.341797"/>
      <use xlink:href="#ArialMT-66" x="726.375"/>
      <use xlink:href="#ArialMT-69" x="754.158203"/>
      <use xlink:href="#ArialMT-63" x="776.375"/>
      <use xlink:href="#ArialMT-69" x="826.375"/>
      <use xlink:href="#ArialMT-65" x="848.591797"/>
      <use xlink:href="#ArialMT-6e" x="904.207031"/>
      <use xlink:href="#ArialMT-74" x="959.822266"/>
     </g>
    </g>
   </g>
   <g id="matplotlib.axis_2">
    <g id="ytick_1">
     <g id="text_10">
      <!-- Secondary Structure: Strand (%) -->
      <g style="fill: #262626" transform="translate(100.00625 463.611844) scale(0.14 -0.14)">
       <defs>
        <path id="ArialMT-53" d="M 288 1472 
L 859 1522 
Q 900 1178 1048 958 
Q 1197 738 1509 602 
Q 1822 466 2213 466 
Q 2559 466 2825 569 
Q 3091 672 3220 851 
Q 3350 1031 3350 1244 
Q 3350 1459 3225 1620 
Q 3100 1781 2813 1891 
Q 2628 1963 1997 2114 
Q 1366 2266 1113 2400 
Q 784 2572 623 2826 
Q 463 3081 463 3397 
Q 463 3744 659 4045 
Q 856 4347 1234 4503 
Q 1613 4659 2075 4659 
Q 2584 4659 2973 4495 
Q 3363 4331 3572 4012 
Q 3781 3694 3797 3291 
L 3216 3247 
Q 3169 3681 2898 3903 
Q 2628 4125 2100 4125 
Q 1550 4125 1298 3923 
Q 1047 3722 1047 3438 
Q 1047 3191 1225 3031 
Q 1400 2872 2139 2705 
Q 2878 2538 3153 2413 
Q 3553 2228 3743 1945 
Q 3934 1663 3934 1294 
Q 3934 928 3725 604 
Q 3516 281 3123 101 
Q 2731 -78 2241 -78 
Q 1619 -78 1198 103 
Q 778 284 539 648 
Q 300 1013 288 1472 
z
" transform="scale(0.015625)"/>
        <path id="ArialMT-64" d="M 2575 0 
L 2575 419 
Q 2259 -75 1647 -75 
Q 1250 -75 917 144 
Q 584 363 401 755 
Q 219 1147 219 1656 
Q 219 2153 384 2558 
Q 550 2963 881 3178 
Q 1213 3394 1622 3394 
Q 1922 3394 2156 3267 
Q 2391 3141 2538 2938 
L 2538 4581 
L 3097 4581 
L 3097 0 
L 2575 0 
z
M 797 1656 
Q 797 1019 1065 703 
Q 1334 388 1700 388 
Q 2069 388 2326 689 
Q 2584 991 2584 1609 
Q 2584 2291 2321 2609 
Q 2059 2928 1675 2928 
Q 1300 2928 1048 2622 
Q 797 2316 797 1656 
z
" transform="scale(0.015625)"/>
        <path id="ArialMT-79" d="M 397 -1278 
L 334 -750 
Q 519 -800 656 -800 
Q 844 -800 956 -737 
Q 1069 -675 1141 -563 
Q 1194 -478 1313 -144 
Q 1328 -97 1363 -6 
L 103 3319 
L 709 3319 
L 1400 1397 
Q 1534 1031 1641 628 
Q 1738 1016 1872 1384 
L 2581 3319 
L 3144 3319 
L 1881 -56 
Q 1678 -603 1566 -809 
Q 1416 -1088 1222 -1217 
Q 1028 -1347 759 -1347 
Q 597 -1347 397 -1278 
z
" transform="scale(0.015625)"/>
        <path id="ArialMT-75" d="M 2597 0 
L 2597 488 
Q 2209 -75 1544 -75 
Q 1250 -75 995 37 
Q 741 150 617 320 
Q 494 491 444 738 
Q 409 903 409 1263 
L 409 3319 
L 972 3319 
L 972 1478 
Q 972 1038 1006 884 
Q 1059 663 1231 536 
Q 1403 409 1656 409 
Q 1909 409 2131 539 
Q 2353 669 2445 892 
Q 2538 1116 2538 1541 
L 2538 3319 
L 3100 3319 
L 3100 0 
L 2597 0 
z
" transform="scale(0.015625)"/>
        <path id="ArialMT-3a" d="M 578 2678 
L 578 3319 
L 1219 3319 
L 1219 2678 
L 578 2678 
z
M 578 0 
L 578 641 
L 1219 641 
L 1219 0 
L 578 0 
z
" transform="scale(0.015625)"/>
        <path id="ArialMT-28" d="M 1497 -1347 
Q 1031 -759 709 28 
Q 388 816 388 1659 
Q 388 2403 628 3084 
Q 909 3875 1497 4659 
L 1900 4659 
Q 1522 4009 1400 3731 
Q 1209 3300 1100 2831 
Q 966 2247 966 1656 
Q 966 153 1900 -1347 
L 1497 -1347 
z
" transform="scale(0.015625)"/>
        <path id="ArialMT-25" d="M 372 3481 
Q 372 3972 619 4315 
Q 866 4659 1334 4659 
Q 1766 4659 2048 4351 
Q 2331 4044 2331 3447 
Q 2331 2866 2045 2552 
Q 1759 2238 1341 2238 
Q 925 2238 648 2547 
Q 372 2856 372 3481 
z
M 1350 4272 
Q 1141 4272 1002 4090 
Q 863 3909 863 3425 
Q 863 2984 1003 2804 
Q 1144 2625 1350 2625 
Q 1563 2625 1702 2806 
Q 1841 2988 1841 3469 
Q 1841 3913 1700 4092 
Q 1559 4272 1350 4272 
z
M 1353 -169 
L 3859 4659 
L 4316 4659 
L 1819 -169 
L 1353 -169 
z
M 3334 1075 
Q 3334 1569 3581 1911 
Q 3828 2253 4300 2253 
Q 4731 2253 5014 1945 
Q 5297 1638 5297 1041 
Q 5297 459 5011 145 
Q 4725 -169 4303 -169 
Q 3888 -169 3611 142 
Q 3334 453 3334 1075 
z
M 4316 1866 
Q 4103 1866 3964 1684 
Q 3825 1503 3825 1019 
Q 3825 581 3965 400 
Q 4106 219 4313 219 
Q 4528 219 4667 400 
Q 4806 581 4806 1063 
Q 4806 1506 4665 1686 
Q 4525 1866 4316 1866 
z
" transform="scale(0.015625)"/>
        <path id="ArialMT-29" d="M 791 -1347 
L 388 -1347 
Q 1322 153 1322 1656 
Q 1322 2244 1188 2822 
Q 1081 3291 891 3722 
Q 769 4003 388 4659 
L 791 4659 
Q 1378 3875 1659 3084 
Q 1900 2403 1900 1659 
Q 1900 816 1576 28 
Q 1253 -759 791 -1347 
z
" transform="scale(0.015625)"/>
       </defs>
       <use xlink:href="#ArialMT-53"/>
       <use xlink:href="#ArialMT-65" x="66.699219"/>
       <use xlink:href="#ArialMT-63" x="122.314453"/>
       <use xlink:href="#ArialMT-6f" x="172.314453"/>
       <use xlink:href="#ArialMT-6e" x="227.929688"/>
       <use xlink:href="#ArialMT-64" x="283.544922"/>
       <use xlink:href="#ArialMT-61" x="339.160156"/>
       <use xlink:href="#ArialMT-72" x="394.775391"/>
       <use xlink:href="#ArialMT-79" x="428.076172"/>
       <use xlink:href="#ArialMT-20" x="478.076172"/>
       <use xlink:href="#ArialMT-53" x="505.859375"/>
       <use xlink:href="#ArialMT-74" x="572.558594"/>
       <use xlink:href="#ArialMT-72" x="600.341797"/>
       <use xlink:href="#ArialMT-75" x="633.642578"/>
       <use xlink:href="#ArialMT-63" x="689.257812"/>
       <use xlink:href="#ArialMT-74" x="739.257812"/>
       <use xlink:href="#ArialMT-75" x="767.041016"/>
       <use xlink:href="#ArialMT-72" x="822.65625"/>
       <use xlink:href="#ArialMT-65" x="855.957031"/>
       <use xlink:href="#ArialMT-3a" x="911.572266"/>
       <use xlink:href="#ArialMT-20" x="939.355469"/>
       <use xlink:href="#ArialMT-53" x="967.138672"/>
       <use xlink:href="#ArialMT-74" x="1033.837891"/>
       <use xlink:href="#ArialMT-72" x="1061.621094"/>
       <use xlink:href="#ArialMT-61" x="1094.921875"/>
       <use xlink:href="#ArialMT-6e" x="1150.537109"/>
       <use xlink:href="#ArialMT-64" x="1206.152344"/>
       <use xlink:href="#ArialMT-20" x="1261.767578"/>
       <use xlink:href="#ArialMT-28" x="1289.550781"/>
       <use xlink:href="#ArialMT-25" x="1322.851562"/>
       <use xlink:href="#ArialMT-29" x="1411.767578"/>
      </g>
     </g>
    </g>
    <g id="ytick_2">
     <g id="text_11">
      <!-- Transition Secondary Structure: Strand/Coil -->
      <g style="fill: #262626" transform="translate(32.8325 441.435844) scale(0.14 -0.14)">
       <defs>
        <path id="ArialMT-54" d="M 1659 0 
L 1659 4041 
L 150 4041 
L 150 4581 
L 3781 4581 
L 3781 4041 
L 2266 4041 
L 2266 0 
L 1659 0 
z
" transform="scale(0.015625)"/>
        <path id="ArialMT-73" d="M 197 991 
L 753 1078 
Q 800 744 1014 566 
Q 1228 388 1613 388 
Q 2000 388 2187 545 
Q 2375 703 2375 916 
Q 2375 1106 2209 1216 
Q 2094 1291 1634 1406 
Q 1016 1563 777 1677 
Q 538 1791 414 1992 
Q 291 2194 291 2438 
Q 291 2659 392 2848 
Q 494 3038 669 3163 
Q 800 3259 1026 3326 
Q 1253 3394 1513 3394 
Q 1903 3394 2198 3281 
Q 2494 3169 2634 2976 
Q 2775 2784 2828 2463 
L 2278 2388 
Q 2241 2644 2061 2787 
Q 1881 2931 1553 2931 
Q 1166 2931 1000 2803 
Q 834 2675 834 2503 
Q 834 2394 903 2306 
Q 972 2216 1119 2156 
Q 1203 2125 1616 2013 
Q 2213 1853 2448 1751 
Q 2684 1650 2818 1456 
Q 2953 1263 2953 975 
Q 2953 694 2789 445 
Q 2625 197 2315 61 
Q 2006 -75 1616 -75 
Q 969 -75 630 194 
Q 291 463 197 991 
z
" transform="scale(0.015625)"/>
        <path id="ArialMT-2f" d="M 0 -78 
L 1328 4659 
L 1778 4659 
L 453 -78 
L 0 -78 
z
" transform="scale(0.015625)"/>
       </defs>
       <use xlink:href="#ArialMT-54"/>
       <use xlink:href="#ArialMT-72" x="57.333984"/>
       <use xlink:href="#ArialMT-61" x="90.634766"/>
       <use xlink:href="#ArialMT-6e" x="146.25"/>
       <use xlink:href="#ArialMT-73" x="201.865234"/>
       <use xlink:href="#ArialMT-69" x="251.865234"/>
       <use xlink:href="#ArialMT-74" x="274.082031"/>
       <use xlink:href="#ArialMT-69" x="301.865234"/>
       <use xlink:href="#ArialMT-6f" x="324.082031"/>
       <use xlink:href="#ArialMT-6e" x="379.697266"/>
       <use xlink:href="#ArialMT-20" x="435.3125"/>
       <use xlink:href="#ArialMT-53" x="463.095703"/>
       <use xlink:href="#ArialMT-65" x="529.794922"/>
       <use xlink:href="#ArialMT-63" x="585.410156"/>
       <use xlink:href="#ArialMT-6f" x="635.410156"/>
       <use xlink:href="#ArialMT-6e" x="691.025391"/>
       <use xlink:href="#ArialMT-64" x="746.640625"/>
       <use xlink:href="#ArialMT-61" x="802.255859"/>
       <use xlink:href="#ArialMT-72" x="857.871094"/>
       <use xlink:href="#ArialMT-79" x="891.171875"/>
       <use xlink:href="#ArialMT-20" x="941.171875"/>
       <use xlink:href="#ArialMT-53" x="968.955078"/>
       <use xlink:href="#ArialMT-74" x="1035.654297"/>
       <use xlink:href="#ArialMT-72" x="1063.4375"/>
       <use xlink:href="#ArialMT-75" x="1096.738281"/>
       <use xlink:href="#ArialMT-63" x="1152.353516"/>
       <use xlink:href="#ArialMT-74" x="1202.353516"/>
       <use xlink:href="#ArialMT-75" x="1230.136719"/>
       <use xlink:href="#ArialMT-72" x="1285.751953"/>
       <use xlink:href="#ArialMT-65" x="1319.052734"/>
       <use xlink:href="#ArialMT-3a" x="1374.667969"/>
       <use xlink:href="#ArialMT-20" x="1402.451172"/>
       <use xlink:href="#ArialMT-53" x="1430.234375"/>
       <use xlink:href="#ArialMT-74" x="1496.933594"/>
       <use xlink:href="#ArialMT-72" x="1524.716797"/>
       <use xlink:href="#ArialMT-61" x="1558.017578"/>
       <use xlink:href="#ArialMT-6e" x="1613.632812"/>
       <use xlink:href="#ArialMT-64" x="1669.248047"/>
       <use xlink:href="#ArialMT-2f" x="1724.863281"/>
       <use xlink:href="#ArialMT-43" x="1752.646484"/>
       <use xlink:href="#ArialMT-6f" x="1824.863281"/>
       <use xlink:href="#ArialMT-69" x="1880.478516"/>
       <use xlink:href="#ArialMT-6c" x="1902.695312"/>
      </g>
     </g>
    </g>
    <g id="ytick_3">
     <g id="text_12">
      <!-- AAC - Tyrosine -->
      <g style="fill: #262626" transform="translate(208.412187 419.259844) scale(0.14 -0.14)">
       <defs>
        <path id="ArialMT-41" d="M -9 0 
L 1750 4581 
L 2403 4581 
L 4278 0 
L 3588 0 
L 3053 1388 
L 1138 1388 
L 634 0 
L -9 0 
z
M 1313 1881 
L 2866 1881 
L 2388 3150 
Q 2169 3728 2063 4100 
Q 1975 3659 1816 3225 
L 1313 1881 
z
" transform="scale(0.015625)"/>
        <path id="ArialMT-2d" d="M 203 1375 
L 203 1941 
L 1931 1941 
L 1931 1375 
L 203 1375 
z
" transform="scale(0.015625)"/>
       </defs>
       <use xlink:href="#ArialMT-41"/>
       <use xlink:href="#ArialMT-41" x="66.699219"/>
       <use xlink:href="#ArialMT-43" x="133.398438"/>
       <use xlink:href="#ArialMT-20" x="205.615234"/>
       <use xlink:href="#ArialMT-2d" x="233.398438"/>
       <use xlink:href="#ArialMT-20" x="266.699219"/>
       <use xlink:href="#ArialMT-54" x="292.732422"/>
       <use xlink:href="#ArialMT-79" x="348.316406"/>
       <use xlink:href="#ArialMT-72" x="398.316406"/>
       <use xlink:href="#ArialMT-6f" x="431.617188"/>
       <use xlink:href="#ArialMT-73" x="487.232422"/>
       <use xlink:href="#ArialMT-69" x="537.232422"/>
       <use xlink:href="#ArialMT-6e" x="559.449219"/>
       <use xlink:href="#ArialMT-65" x="615.064453"/>
      </g>
     </g>
    </g>
    <g id="ytick_4">
     <g id="text_13">
      <!-- AAC - Aromatic Residues (%) -->
      <g style="fill: #262626" transform="translate(118.700625 397.083844) scale(0.14 -0.14)">
       <defs>
        <path id="ArialMT-6d" d="M 422 0 
L 422 3319 
L 925 3319 
L 925 2853 
Q 1081 3097 1340 3245 
Q 1600 3394 1931 3394 
Q 2300 3394 2536 3241 
Q 2772 3088 2869 2813 
Q 3263 3394 3894 3394 
Q 4388 3394 4653 3120 
Q 4919 2847 4919 2278 
L 4919 0 
L 4359 0 
L 4359 2091 
Q 4359 2428 4304 2576 
Q 4250 2725 4106 2815 
Q 3963 2906 3769 2906 
Q 3419 2906 3187 2673 
Q 2956 2441 2956 1928 
L 2956 0 
L 2394 0 
L 2394 2156 
Q 2394 2531 2256 2718 
Q 2119 2906 1806 2906 
Q 1569 2906 1367 2781 
Q 1166 2656 1075 2415 
Q 984 2175 984 1722 
L 984 0 
L 422 0 
z
" transform="scale(0.015625)"/>
        <path id="ArialMT-52" d="M 503 0 
L 503 4581 
L 2534 4581 
Q 3147 4581 3465 4457 
Q 3784 4334 3975 4021 
Q 4166 3709 4166 3331 
Q 4166 2844 3850 2509 
Q 3534 2175 2875 2084 
Q 3116 1969 3241 1856 
Q 3506 1613 3744 1247 
L 4541 0 
L 3778 0 
L 3172 953 
Q 2906 1366 2734 1584 
Q 2563 1803 2427 1890 
Q 2291 1978 2150 2013 
Q 2047 2034 1813 2034 
L 1109 2034 
L 1109 0 
L 503 0 
z
M 1109 2559 
L 2413 2559 
Q 2828 2559 3062 2645 
Q 3297 2731 3419 2920 
Q 3541 3109 3541 3331 
Q 3541 3656 3305 3865 
Q 3069 4075 2559 4075 
L 1109 4075 
L 1109 2559 
z
" transform="scale(0.015625)"/>
       </defs>
       <use xlink:href="#ArialMT-41"/>
       <use xlink:href="#ArialMT-41" x="66.699219"/>
       <use xlink:href="#ArialMT-43" x="133.398438"/>
       <use xlink:href="#ArialMT-20" x="205.615234"/>
       <use xlink:href="#ArialMT-2d" x="233.398438"/>
       <use xlink:href="#ArialMT-20" x="266.699219"/>
       <use xlink:href="#ArialMT-41" x="288.982422"/>
       <use xlink:href="#ArialMT-72" x="355.681641"/>
       <use xlink:href="#ArialMT-6f" x="388.982422"/>
       <use xlink:href="#ArialMT-6d" x="444.597656"/>
       <use xlink:href="#ArialMT-61" x="527.898438"/>
       <use xlink:href="#ArialMT-74" x="583.513672"/>
       <use xlink:href="#ArialMT-69" x="611.296875"/>
       <use xlink:href="#ArialMT-63" x="633.513672"/>
       <use xlink:href="#ArialMT-20" x="683.513672"/>
       <use xlink:href="#ArialMT-52" x="711.296875"/>
       <use xlink:href="#ArialMT-65" x="783.513672"/>
       <use xlink:href="#ArialMT-73" x="839.128906"/>
       <use xlink:href="#ArialMT-69" x="889.128906"/>
       <use xlink:href="#ArialMT-64" x="911.345703"/>
       <use xlink:href="#ArialMT-75" x="966.960938"/>
       <use xlink:href="#ArialMT-65" x="1022.576172"/>
       <use xlink:href="#ArialMT-73" x="1078.191406"/>
       <use xlink:href="#ArialMT-20" x="1128.191406"/>
       <use xlink:href="#ArialMT-28" x="1155.974609"/>
       <use xlink:href="#ArialMT-25" x="1189.275391"/>
       <use xlink:href="#ArialMT-29" x="1278.191406"/>
      </g>
     </g>
    </g>
    <g id="ytick_5">
     <g id="text_14">
      <!-- AAC - Threonine -->
      <g style="fill: #262626" transform="translate(198.28625 374.822531) scale(0.14 -0.14)">
       <defs>
        <path id="ArialMT-68" d="M 422 0 
L 422 4581 
L 984 4581 
L 984 2938 
Q 1378 3394 1978 3394 
Q 2347 3394 2619 3248 
Q 2891 3103 3008 2847 
Q 3125 2591 3125 2103 
L 3125 0 
L 2563 0 
L 2563 2103 
Q 2563 2525 2380 2717 
Q 2197 2909 1863 2909 
Q 1613 2909 1392 2779 
Q 1172 2650 1078 2428 
Q 984 2206 984 1816 
L 984 0 
L 422 0 
z
" transform="scale(0.015625)"/>
       </defs>
       <use xlink:href="#ArialMT-41"/>
       <use xlink:href="#ArialMT-41" x="66.699219"/>
       <use xlink:href="#ArialMT-43" x="133.398438"/>
       <use xlink:href="#ArialMT-20" x="205.615234"/>
       <use xlink:href="#ArialMT-2d" x="233.398438"/>
       <use xlink:href="#ArialMT-20" x="266.699219"/>
       <use xlink:href="#ArialMT-54" x="292.732422"/>
       <use xlink:href="#ArialMT-68" x="353.816406"/>
       <use xlink:href="#ArialMT-72" x="409.431641"/>
       <use xlink:href="#ArialMT-65" x="442.732422"/>
       <use xlink:href="#ArialMT-6f" x="498.347656"/>
       <use xlink:href="#ArialMT-6e" x="553.962891"/>
       <use xlink:href="#ArialMT-69" x="609.578125"/>
       <use xlink:href="#ArialMT-6e" x="631.794922"/>
       <use xlink:href="#ArialMT-65" x="687.410156"/>
      </g>
     </g>
    </g>
    <g id="ytick_6">
     <g id="text_15">
      <!-- Transition Volume: Small/Large -->
      <g style="fill: #262626" transform="translate(108.30125 352.731844) scale(0.14 -0.14)">
       <defs>
        <path id="ArialMT-56" d="M 1803 0 
L 28 4581 
L 684 4581 
L 1875 1253 
Q 2019 853 2116 503 
Q 2222 878 2363 1253 
L 3600 4581 
L 4219 4581 
L 2425 0 
L 1803 0 
z
" transform="scale(0.015625)"/>
        <path id="ArialMT-4c" d="M 469 0 
L 469 4581 
L 1075 4581 
L 1075 541 
L 3331 541 
L 3331 0 
L 469 0 
z
" transform="scale(0.015625)"/>
        <path id="ArialMT-67" d="M 319 -275 
L 866 -356 
Q 900 -609 1056 -725 
Q 1266 -881 1628 -881 
Q 2019 -881 2231 -725 
Q 2444 -569 2519 -288 
Q 2563 -116 2559 434 
Q 2191 0 1641 0 
Q 956 0 581 494 
Q 206 988 206 1678 
Q 206 2153 378 2554 
Q 550 2956 876 3175 
Q 1203 3394 1644 3394 
Q 2231 3394 2613 2919 
L 2613 3319 
L 3131 3319 
L 3131 450 
Q 3131 -325 2973 -648 
Q 2816 -972 2473 -1159 
Q 2131 -1347 1631 -1347 
Q 1038 -1347 672 -1080 
Q 306 -813 319 -275 
z
M 784 1719 
Q 784 1066 1043 766 
Q 1303 466 1694 466 
Q 2081 466 2343 764 
Q 2606 1063 2606 1700 
Q 2606 2309 2336 2618 
Q 2066 2928 1684 2928 
Q 1309 2928 1046 2623 
Q 784 2319 784 1719 
z
" transform="scale(0.015625)"/>
       </defs>
       <use xlink:href="#ArialMT-54"/>
       <use xlink:href="#ArialMT-72" x="57.333984"/>
       <use xlink:href="#ArialMT-61" x="90.634766"/>
       <use xlink:href="#ArialMT-6e" x="146.25"/>
       <use xlink:href="#ArialMT-73" x="201.865234"/>
       <use xlink:href="#ArialMT-69" x="251.865234"/>
       <use xlink:href="#ArialMT-74" x="274.082031"/>
       <use xlink:href="#ArialMT-69" x="301.865234"/>
       <use xlink:href="#ArialMT-6f" x="324.082031"/>
       <use xlink:href="#ArialMT-6e" x="379.697266"/>
       <use xlink:href="#ArialMT-20" x="435.3125"/>
       <use xlink:href="#ArialMT-56" x="463.095703"/>
       <use xlink:href="#ArialMT-6f" x="524.294922"/>
       <use xlink:href="#ArialMT-6c" x="579.910156"/>
       <use xlink:href="#ArialMT-75" x="602.126953"/>
       <use xlink:href="#ArialMT-6d" x="657.742188"/>
       <use xlink:href="#ArialMT-65" x="741.042969"/>
       <use xlink:href="#ArialMT-3a" x="796.658203"/>
       <use xlink:href="#ArialMT-20" x="824.441406"/>
       <use xlink:href="#ArialMT-53" x="852.224609"/>
       <use xlink:href="#ArialMT-6d" x="918.923828"/>
       <use xlink:href="#ArialMT-61" x="1002.224609"/>
       <use xlink:href="#ArialMT-6c" x="1057.839844"/>
       <use xlink:href="#ArialMT-6c" x="1080.056641"/>
       <use xlink:href="#ArialMT-2f" x="1102.273438"/>
       <use xlink:href="#ArialMT-4c" x="1130.056641"/>
       <use xlink:href="#ArialMT-61" x="1185.671875"/>
       <use xlink:href="#ArialMT-72" x="1241.287109"/>
       <use xlink:href="#ArialMT-67" x="1274.587891"/>
       <use xlink:href="#ArialMT-65" x="1330.203125"/>
      </g>
     </g>
    </g>
    <g id="ytick_7">
     <g id="text_16">
      <!-- Molecular Weight (Da) -->
      <g style="fill: #262626" transform="translate(163.295 330.555844) scale(0.14 -0.14)">
       <defs>
        <path id="ArialMT-4d" d="M 475 0 
L 475 4581 
L 1388 4581 
L 2472 1338 
Q 2622 884 2691 659 
Q 2769 909 2934 1394 
L 4031 4581 
L 4847 4581 
L 4847 0 
L 4263 0 
L 4263 3834 
L 2931 0 
L 2384 0 
L 1059 3900 
L 1059 0 
L 475 0 
z
" transform="scale(0.015625)"/>
        <path id="ArialMT-57" d="M 1294 0 
L 78 4581 
L 700 4581 
L 1397 1578 
Q 1509 1106 1591 641 
Q 1766 1375 1797 1488 
L 2669 4581 
L 3400 4581 
L 4056 2263 
Q 4303 1400 4413 641 
Q 4500 1075 4641 1638 
L 5359 4581 
L 5969 4581 
L 4713 0 
L 4128 0 
L 3163 3491 
Q 3041 3928 3019 4028 
Q 2947 3713 2884 3491 
L 1913 0 
L 1294 0 
z
" transform="scale(0.015625)"/>
        <path id="ArialMT-44" d="M 494 0 
L 494 4581 
L 2072 4581 
Q 2606 4581 2888 4516 
Q 3281 4425 3559 4188 
Q 3922 3881 4101 3404 
Q 4281 2928 4281 2316 
Q 4281 1794 4159 1391 
Q 4038 988 3847 723 
Q 3656 459 3429 307 
Q 3203 156 2883 78 
Q 2563 0 2147 0 
L 494 0 
z
M 1100 541 
L 2078 541 
Q 2531 541 2789 625 
Q 3047 709 3200 863 
Q 3416 1078 3536 1442 
Q 3656 1806 3656 2325 
Q 3656 3044 3420 3430 
Q 3184 3816 2847 3947 
Q 2603 4041 2063 4041 
L 1100 4041 
L 1100 541 
z
" transform="scale(0.015625)"/>
       </defs>
       <use xlink:href="#ArialMT-4d"/>
       <use xlink:href="#ArialMT-6f" x="83.300781"/>
       <use xlink:href="#ArialMT-6c" x="138.916016"/>
       <use xlink:href="#ArialMT-65" x="161.132812"/>
       <use xlink:href="#ArialMT-63" x="216.748047"/>
       <use xlink:href="#ArialMT-75" x="266.748047"/>
       <use xlink:href="#ArialMT-6c" x="322.363281"/>
       <use xlink:href="#ArialMT-61" x="344.580078"/>
       <use xlink:href="#ArialMT-72" x="400.195312"/>
       <use xlink:href="#ArialMT-20" x="433.496094"/>
       <use xlink:href="#ArialMT-57" x="461.279297"/>
       <use xlink:href="#ArialMT-65" x="553.914062"/>
       <use xlink:href="#ArialMT-69" x="609.529297"/>
       <use xlink:href="#ArialMT-67" x="631.746094"/>
       <use xlink:href="#ArialMT-68" x="687.361328"/>
       <use xlink:href="#ArialMT-74" x="742.976562"/>
       <use xlink:href="#ArialMT-20" x="770.759766"/>
       <use xlink:href="#ArialMT-28" x="798.542969"/>
       <use xlink:href="#ArialMT-44" x="831.84375"/>
       <use xlink:href="#ArialMT-61" x="904.060547"/>
       <use xlink:href="#ArialMT-29" x="959.675781"/>
      </g>
     </g>
    </g>
    <g id="ytick_8">
     <g id="text_17">
      <!-- AAC - Phenylalanine -->
      <g style="fill: #262626" transform="translate(173.123437 308.379844) scale(0.14 -0.14)">
       <defs>
        <path id="ArialMT-50" d="M 494 0 
L 494 4581 
L 2222 4581 
Q 2678 4581 2919 4538 
Q 3256 4481 3484 4323 
Q 3713 4166 3852 3881 
Q 3991 3597 3991 3256 
Q 3991 2672 3619 2267 
Q 3247 1863 2275 1863 
L 1100 1863 
L 1100 0 
L 494 0 
z
M 1100 2403 
L 2284 2403 
Q 2872 2403 3119 2622 
Q 3366 2841 3366 3238 
Q 3366 3525 3220 3729 
Q 3075 3934 2838 4000 
Q 2684 4041 2272 4041 
L 1100 4041 
L 1100 2403 
z
" transform="scale(0.015625)"/>
       </defs>
       <use xlink:href="#ArialMT-41"/>
       <use xlink:href="#ArialMT-41" x="66.699219"/>
       <use xlink:href="#ArialMT-43" x="133.398438"/>
       <use xlink:href="#ArialMT-20" x="205.615234"/>
       <use xlink:href="#ArialMT-2d" x="233.398438"/>
       <use xlink:href="#ArialMT-20" x="266.699219"/>
       <use xlink:href="#ArialMT-50" x="294.482422"/>
       <use xlink:href="#ArialMT-68" x="361.181641"/>
       <use xlink:href="#ArialMT-65" x="416.796875"/>
       <use xlink:href="#ArialMT-6e" x="472.412109"/>
       <use xlink:href="#ArialMT-79" x="528.027344"/>
       <use xlink:href="#ArialMT-6c" x="578.027344"/>
       <use xlink:href="#ArialMT-61" x="600.244141"/>
       <use xlink:href="#ArialMT-6c" x="655.859375"/>
       <use xlink:href="#ArialMT-61" x="678.076172"/>
       <use xlink:href="#ArialMT-6e" x="733.691406"/>
       <use xlink:href="#ArialMT-69" x="789.306641"/>
       <use xlink:href="#ArialMT-6e" x="811.523438"/>
       <use xlink:href="#ArialMT-65" x="867.138672"/>
      </g>
     </g>
    </g>
    <g id="ytick_9">
     <g id="text_18">
      <!-- Transition Secondary Structure: Helix/Strand -->
      <g style="fill: #262626" transform="translate(25.8325 286.203844) scale(0.14 -0.14)">
       <defs>
        <path id="ArialMT-48" d="M 513 0 
L 513 4581 
L 1119 4581 
L 1119 2700 
L 3500 2700 
L 3500 4581 
L 4106 4581 
L 4106 0 
L 3500 0 
L 3500 2159 
L 1119 2159 
L 1119 0 
L 513 0 
z
" transform="scale(0.015625)"/>
        <path id="ArialMT-78" d="M 47 0 
L 1259 1725 
L 138 3319 
L 841 3319 
L 1350 2541 
Q 1494 2319 1581 2169 
Q 1719 2375 1834 2534 
L 2394 3319 
L 3066 3319 
L 1919 1756 
L 3153 0 
L 2463 0 
L 1781 1031 
L 1600 1309 
L 728 0 
L 47 0 
z
" transform="scale(0.015625)"/>
       </defs>
       <use xlink:href="#ArialMT-54"/>
       <use xlink:href="#ArialMT-72" x="57.333984"/>
       <use xlink:href="#ArialMT-61" x="90.634766"/>
       <use xlink:href="#ArialMT-6e" x="146.25"/>
       <use xlink:href="#ArialMT-73" x="201.865234"/>
       <use xlink:href="#ArialMT-69" x="251.865234"/>
       <use xlink:href="#ArialMT-74" x="274.082031"/>
       <use xlink:href="#ArialMT-69" x="301.865234"/>
       <use xlink:href="#ArialMT-6f" x="324.082031"/>
       <use xlink:href="#ArialMT-6e" x="379.697266"/>
       <use xlink:href="#ArialMT-20" x="435.3125"/>
       <use xlink:href="#ArialMT-53" x="463.095703"/>
       <use xlink:href="#ArialMT-65" x="529.794922"/>
       <use xlink:href="#ArialMT-63" x="585.410156"/>
       <use xlink:href="#ArialMT-6f" x="635.410156"/>
       <use xlink:href="#ArialMT-6e" x="691.025391"/>
       <use xlink:href="#ArialMT-64" x="746.640625"/>
       <use xlink:href="#ArialMT-61" x="802.255859"/>
       <use xlink:href="#ArialMT-72" x="857.871094"/>
       <use xlink:href="#ArialMT-79" x="891.171875"/>
       <use xlink:href="#ArialMT-20" x="941.171875"/>
       <use xlink:href="#ArialMT-53" x="968.955078"/>
       <use xlink:href="#ArialMT-74" x="1035.654297"/>
       <use xlink:href="#ArialMT-72" x="1063.4375"/>
       <use xlink:href="#ArialMT-75" x="1096.738281"/>
       <use xlink:href="#ArialMT-63" x="1152.353516"/>
       <use xlink:href="#ArialMT-74" x="1202.353516"/>
       <use xlink:href="#ArialMT-75" x="1230.136719"/>
       <use xlink:href="#ArialMT-72" x="1285.751953"/>
       <use xlink:href="#ArialMT-65" x="1319.052734"/>
       <use xlink:href="#ArialMT-3a" x="1374.667969"/>
       <use xlink:href="#ArialMT-20" x="1402.451172"/>
       <use xlink:href="#ArialMT-48" x="1430.234375"/>
       <use xlink:href="#ArialMT-65" x="1502.451172"/>
       <use xlink:href="#ArialMT-6c" x="1558.066406"/>
       <use xlink:href="#ArialMT-69" x="1580.283203"/>
       <use xlink:href="#ArialMT-78" x="1602.5"/>
       <use xlink:href="#ArialMT-2f" x="1652.5"/>
       <use xlink:href="#ArialMT-53" x="1680.283203"/>
       <use xlink:href="#ArialMT-74" x="1746.982422"/>
       <use xlink:href="#ArialMT-72" x="1774.765625"/>
       <use xlink:href="#ArialMT-61" x="1808.066406"/>
       <use xlink:href="#ArialMT-6e" x="1863.681641"/>
       <use xlink:href="#ArialMT-64" x="1919.296875"/>
      </g>
     </g>
    </g>
    <g id="ytick_10">
     <g id="text_19">
      <!-- AAC - Cysteine -->
      <g style="fill: #262626" transform="translate(206.609687 264.027844) scale(0.14 -0.14)">
       <use xlink:href="#ArialMT-41"/>
       <use xlink:href="#ArialMT-41" x="66.699219"/>
       <use xlink:href="#ArialMT-43" x="133.398438"/>
       <use xlink:href="#ArialMT-20" x="205.615234"/>
       <use xlink:href="#ArialMT-2d" x="233.398438"/>
       <use xlink:href="#ArialMT-20" x="266.699219"/>
       <use xlink:href="#ArialMT-43" x="294.482422"/>
       <use xlink:href="#ArialMT-79" x="366.699219"/>
       <use xlink:href="#ArialMT-73" x="416.699219"/>
       <use xlink:href="#ArialMT-74" x="466.699219"/>
       <use xlink:href="#ArialMT-65" x="494.482422"/>
       <use xlink:href="#ArialMT-69" x="550.097656"/>
       <use xlink:href="#ArialMT-6e" x="572.314453"/>
       <use xlink:href="#ArialMT-65" x="627.929688"/>
      </g>
     </g>
    </g>
    <g id="ytick_11">
     <g id="text_20">
      <!-- Net Charge -->
      <g style="fill: #262626" transform="translate(230.715937 241.851844) scale(0.14 -0.14)">
       <defs>
        <path id="ArialMT-4e" d="M 488 0 
L 488 4581 
L 1109 4581 
L 3516 984 
L 3516 4581 
L 4097 4581 
L 4097 0 
L 3475 0 
L 1069 3600 
L 1069 0 
L 488 0 
z
" transform="scale(0.015625)"/>
       </defs>
       <use xlink:href="#ArialMT-4e"/>
       <use xlink:href="#ArialMT-65" x="72.216797"/>
       <use xlink:href="#ArialMT-74" x="127.832031"/>
       <use xlink:href="#ArialMT-20" x="155.615234"/>
       <use xlink:href="#ArialMT-43" x="183.398438"/>
       <use xlink:href="#ArialMT-68" x="255.615234"/>
       <use xlink:href="#ArialMT-61" x="311.230469"/>
       <use xlink:href="#ArialMT-72" x="366.845703"/>
       <use xlink:href="#ArialMT-67" x="400.146484"/>
       <use xlink:href="#ArialMT-65" x="455.761719"/>
      </g>
     </g>
    </g>
    <g id="ytick_12">
     <g id="text_21">
      <!-- Protein Level (Liver) -->
      <g style="fill: #262626" transform="translate(177.036875 219.675844) scale(0.14 -0.14)">
       <defs>
        <path id="ArialMT-76" d="M 1344 0 
L 81 3319 
L 675 3319 
L 1388 1331 
Q 1503 1009 1600 663 
Q 1675 925 1809 1294 
L 2547 3319 
L 3125 3319 
L 1869 0 
L 1344 0 
z
" transform="scale(0.015625)"/>
       </defs>
       <use xlink:href="#ArialMT-50"/>
       <use xlink:href="#ArialMT-72" x="66.699219"/>
       <use xlink:href="#ArialMT-6f" x="100"/>
       <use xlink:href="#ArialMT-74" x="155.615234"/>
       <use xlink:href="#ArialMT-65" x="183.398438"/>
       <use xlink:href="#ArialMT-69" x="239.013672"/>
       <use xlink:href="#ArialMT-6e" x="261.230469"/>
       <use xlink:href="#ArialMT-20" x="316.845703"/>
       <use xlink:href="#ArialMT-4c" x="344.628906"/>
       <use xlink:href="#ArialMT-65" x="400.244141"/>
       <use xlink:href="#ArialMT-76" x="455.859375"/>
       <use xlink:href="#ArialMT-65" x="505.859375"/>
       <use xlink:href="#ArialMT-6c" x="561.474609"/>
       <use xlink:href="#ArialMT-20" x="583.691406"/>
       <use xlink:href="#ArialMT-28" x="611.474609"/>
       <use xlink:href="#ArialMT-4c" x="644.775391"/>
       <use xlink:href="#ArialMT-69" x="700.390625"/>
       <use xlink:href="#ArialMT-76" x="722.607422"/>
       <use xlink:href="#ArialMT-65" x="772.607422"/>
       <use xlink:href="#ArialMT-72" x="828.222656"/>
       <use xlink:href="#ArialMT-29" x="861.523438"/>
      </g>
     </g>
    </g>
    <g id="ytick_13">
     <g id="text_22">
      <!-- Ubiquitination -->
      <g style="fill: #262626" transform="translate(217.475 197.414531) scale(0.14 -0.14)">
       <defs>
        <path id="ArialMT-55" d="M 3500 4581 
L 4106 4581 
L 4106 1934 
Q 4106 1244 3950 837 
Q 3794 431 3386 176 
Q 2978 -78 2316 -78 
Q 1672 -78 1262 144 
Q 853 366 678 786 
Q 503 1206 503 1934 
L 503 4581 
L 1109 4581 
L 1109 1938 
Q 1109 1341 1220 1058 
Q 1331 775 1601 622 
Q 1872 469 2263 469 
Q 2931 469 3215 772 
Q 3500 1075 3500 1938 
L 3500 4581 
z
" transform="scale(0.015625)"/>
        <path id="ArialMT-62" d="M 941 0 
L 419 0 
L 419 4581 
L 981 4581 
L 981 2947 
Q 1338 3394 1891 3394 
Q 2197 3394 2470 3270 
Q 2744 3147 2920 2923 
Q 3097 2700 3197 2384 
Q 3297 2069 3297 1709 
Q 3297 856 2875 390 
Q 2453 -75 1863 -75 
Q 1275 -75 941 416 
L 941 0 
z
M 934 1684 
Q 934 1088 1097 822 
Q 1363 388 1816 388 
Q 2184 388 2453 708 
Q 2722 1028 2722 1663 
Q 2722 2313 2464 2622 
Q 2206 2931 1841 2931 
Q 1472 2931 1203 2611 
Q 934 2291 934 1684 
z
" transform="scale(0.015625)"/>
        <path id="ArialMT-71" d="M 2538 -1272 
L 2538 353 
Q 2406 169 2170 47 
Q 1934 -75 1669 -75 
Q 1078 -75 651 397 
Q 225 869 225 1691 
Q 225 2191 398 2587 
Q 572 2984 901 3189 
Q 1231 3394 1625 3394 
Q 2241 3394 2594 2875 
L 2594 3319 
L 3100 3319 
L 3100 -1272 
L 2538 -1272 
z
M 803 1669 
Q 803 1028 1072 708 
Q 1341 388 1716 388 
Q 2075 388 2334 692 
Q 2594 997 2594 1619 
Q 2594 2281 2320 2615 
Q 2047 2950 1678 2950 
Q 1313 2950 1058 2639 
Q 803 2328 803 1669 
z
" transform="scale(0.015625)"/>
       </defs>
       <use xlink:href="#ArialMT-55"/>
       <use xlink:href="#ArialMT-62" x="72.216797"/>
       <use xlink:href="#ArialMT-69" x="127.832031"/>
       <use xlink:href="#ArialMT-71" x="150.048828"/>
       <use xlink:href="#ArialMT-75" x="205.664062"/>
       <use xlink:href="#ArialMT-69" x="261.279297"/>
       <use xlink:href="#ArialMT-74" x="283.496094"/>
       <use xlink:href="#ArialMT-69" x="311.279297"/>
       <use xlink:href="#ArialMT-6e" x="333.496094"/>
       <use xlink:href="#ArialMT-61" x="389.111328"/>
       <use xlink:href="#ArialMT-74" x="444.726562"/>
       <use xlink:href="#ArialMT-69" x="472.509766"/>
       <use xlink:href="#ArialMT-6f" x="494.726562"/>
       <use xlink:href="#ArialMT-6e" x="550.341797"/>
      </g>
     </g>
    </g>
    <g id="ytick_14">
     <g id="text_23">
      <!-- AAC - Alanine -->
      <g style="fill: #262626" transform="translate(215.145312 175.238531) scale(0.14 -0.14)">
       <use xlink:href="#ArialMT-41"/>
       <use xlink:href="#ArialMT-41" x="66.699219"/>
       <use xlink:href="#ArialMT-43" x="133.398438"/>
       <use xlink:href="#ArialMT-20" x="205.615234"/>
       <use xlink:href="#ArialMT-2d" x="233.398438"/>
       <use xlink:href="#ArialMT-20" x="266.699219"/>
       <use xlink:href="#ArialMT-41" x="288.982422"/>
       <use xlink:href="#ArialMT-6c" x="355.681641"/>
       <use xlink:href="#ArialMT-61" x="377.898438"/>
       <use xlink:href="#ArialMT-6e" x="433.513672"/>
       <use xlink:href="#ArialMT-69" x="489.128906"/>
       <use xlink:href="#ArialMT-6e" x="511.345703"/>
       <use xlink:href="#ArialMT-65" x="566.960938"/>
      </g>
     </g>
    </g>
    <g id="ytick_15">
     <g id="text_24">
      <!-- AAC - Leucine -->
      <g style="fill: #262626" transform="translate(212.039062 153.062531) scale(0.14 -0.14)">
       <use xlink:href="#ArialMT-41"/>
       <use xlink:href="#ArialMT-41" x="66.699219"/>
       <use xlink:href="#ArialMT-43" x="133.398438"/>
       <use xlink:href="#ArialMT-20" x="205.615234"/>
       <use xlink:href="#ArialMT-2d" x="233.398438"/>
       <use xlink:href="#ArialMT-20" x="266.699219"/>
       <use xlink:href="#ArialMT-4c" x="294.482422"/>
       <use xlink:href="#ArialMT-65" x="350.097656"/>
       <use xlink:href="#ArialMT-75" x="405.712891"/>
       <use xlink:href="#ArialMT-63" x="461.328125"/>
       <use xlink:href="#ArialMT-69" x="511.328125"/>
       <use xlink:href="#ArialMT-6e" x="533.544922"/>
       <use xlink:href="#ArialMT-65" x="589.160156"/>
      </g>
     </g>
    </g>
    <g id="ytick_16">
     <g id="text_25">
      <!-- AAC - Aliphatic Residues (%) -->
      <g style="fill: #262626" transform="translate(121.017187 130.971844) scale(0.14 -0.14)">
       <defs>
        <path id="ArialMT-70" d="M 422 -1272 
L 422 3319 
L 934 3319 
L 934 2888 
Q 1116 3141 1344 3267 
Q 1572 3394 1897 3394 
Q 2322 3394 2647 3175 
Q 2972 2956 3137 2557 
Q 3303 2159 3303 1684 
Q 3303 1175 3120 767 
Q 2938 359 2589 142 
Q 2241 -75 1856 -75 
Q 1575 -75 1351 44 
Q 1128 163 984 344 
L 984 -1272 
L 422 -1272 
z
M 931 1641 
Q 931 1000 1190 694 
Q 1450 388 1819 388 
Q 2194 388 2461 705 
Q 2728 1022 2728 1688 
Q 2728 2322 2467 2637 
Q 2206 2953 1844 2953 
Q 1484 2953 1207 2617 
Q 931 2281 931 1641 
z
" transform="scale(0.015625)"/>
       </defs>
       <use xlink:href="#ArialMT-41"/>
       <use xlink:href="#ArialMT-41" x="66.699219"/>
       <use xlink:href="#ArialMT-43" x="133.398438"/>
       <use xlink:href="#ArialMT-20" x="205.615234"/>
       <use xlink:href="#ArialMT-2d" x="233.398438"/>
       <use xlink:href="#ArialMT-20" x="266.699219"/>
       <use xlink:href="#ArialMT-41" x="288.982422"/>
       <use xlink:href="#ArialMT-6c" x="355.681641"/>
       <use xlink:href="#ArialMT-69" x="377.898438"/>
       <use xlink:href="#ArialMT-70" x="400.115234"/>
       <use xlink:href="#ArialMT-68" x="455.730469"/>
       <use xlink:href="#ArialMT-61" x="511.345703"/>
       <use xlink:href="#ArialMT-74" x="566.960938"/>
       <use xlink:href="#ArialMT-69" x="594.744141"/>
       <use xlink:href="#ArialMT-63" x="616.960938"/>
       <use xlink:href="#ArialMT-20" x="666.960938"/>
       <use xlink:href="#ArialMT-52" x="694.744141"/>
       <use xlink:href="#ArialMT-65" x="766.960938"/>
       <use xlink:href="#ArialMT-73" x="822.576172"/>
       <use xlink:href="#ArialMT-69" x="872.576172"/>
       <use xlink:href="#ArialMT-64" x="894.792969"/>
       <use xlink:href="#ArialMT-75" x="950.408203"/>
       <use xlink:href="#ArialMT-65" x="1006.023438"/>
       <use xlink:href="#ArialMT-73" x="1061.638672"/>
       <use xlink:href="#ArialMT-20" x="1111.638672"/>
       <use xlink:href="#ArialMT-28" x="1139.421875"/>
       <use xlink:href="#ArialMT-25" x="1172.722656"/>
       <use xlink:href="#ArialMT-29" x="1261.638672"/>
      </g>
     </g>
    </g>
    <g id="ytick_17">
     <g id="text_26">
      <!-- Transition Polarizability: Low/Medium -->
      <g style="fill: #262626" transform="translate(71.7525 108.795844) scale(0.14 -0.14)">
       <defs>
        <path id="ArialMT-7a" d="M 125 0 
L 125 456 
L 2238 2881 
Q 1878 2863 1603 2863 
L 250 2863 
L 250 3319 
L 2963 3319 
L 2963 2947 
L 1166 841 
L 819 456 
Q 1197 484 1528 484 
L 3063 484 
L 3063 0 
L 125 0 
z
" transform="scale(0.015625)"/>
        <path id="ArialMT-77" d="M 1034 0 
L 19 3319 
L 600 3319 
L 1128 1403 
L 1325 691 
Q 1338 744 1497 1375 
L 2025 3319 
L 2603 3319 
L 3100 1394 
L 3266 759 
L 3456 1400 
L 4025 3319 
L 4572 3319 
L 3534 0 
L 2950 0 
L 2422 1988 
L 2294 2553 
L 1622 0 
L 1034 0 
z
" transform="scale(0.015625)"/>
       </defs>
       <use xlink:href="#ArialMT-54"/>
       <use xlink:href="#ArialMT-72" x="57.333984"/>
       <use xlink:href="#ArialMT-61" x="90.634766"/>
       <use xlink:href="#ArialMT-6e" x="146.25"/>
       <use xlink:href="#ArialMT-73" x="201.865234"/>
       <use xlink:href="#ArialMT-69" x="251.865234"/>
       <use xlink:href="#ArialMT-74" x="274.082031"/>
       <use xlink:href="#ArialMT-69" x="301.865234"/>
       <use xlink:href="#ArialMT-6f" x="324.082031"/>
       <use xlink:href="#ArialMT-6e" x="379.697266"/>
       <use xlink:href="#ArialMT-20" x="435.3125"/>
       <use xlink:href="#ArialMT-50" x="463.095703"/>
       <use xlink:href="#ArialMT-6f" x="529.794922"/>
       <use xlink:href="#ArialMT-6c" x="585.410156"/>
       <use xlink:href="#ArialMT-61" x="607.626953"/>
       <use xlink:href="#ArialMT-72" x="663.242188"/>
       <use xlink:href="#ArialMT-69" x="696.542969"/>
       <use xlink:href="#ArialMT-7a" x="718.759766"/>
       <use xlink:href="#ArialMT-61" x="768.759766"/>
       <use xlink:href="#ArialMT-62" x="824.375"/>
       <use xlink:href="#ArialMT-69" x="879.990234"/>
       <use xlink:href="#ArialMT-6c" x="902.207031"/>
       <use xlink:href="#ArialMT-69" x="924.423828"/>
       <use xlink:href="#ArialMT-74" x="946.640625"/>
       <use xlink:href="#ArialMT-79" x="974.423828"/>
       <use xlink:href="#ArialMT-3a" x="1024.423828"/>
       <use xlink:href="#ArialMT-20" x="1052.207031"/>
       <use xlink:href="#ArialMT-4c" x="1079.990234"/>
       <use xlink:href="#ArialMT-6f" x="1135.605469"/>
       <use xlink:href="#ArialMT-77" x="1191.220703"/>
       <use xlink:href="#ArialMT-2f" x="1263.4375"/>
       <use xlink:href="#ArialMT-4d" x="1291.220703"/>
       <use xlink:href="#ArialMT-65" x="1374.521484"/>
       <use xlink:href="#ArialMT-64" x="1430.136719"/>
       <use xlink:href="#ArialMT-69" x="1485.751953"/>
       <use xlink:href="#ArialMT-75" x="1507.96875"/>
       <use xlink:href="#ArialMT-6d" x="1563.583984"/>
      </g>
     </g>
    </g>
    <g id="ytick_18">
     <g id="text_27">
      <!-- Secondary Structure: Helix (%) -->
      <g style="fill: #262626" transform="translate(110.134375 86.619844) scale(0.14 -0.14)">
       <use xlink:href="#ArialMT-53"/>
       <use xlink:href="#ArialMT-65" x="66.699219"/>
       <use xlink:href="#ArialMT-63" x="122.314453"/>
       <use xlink:href="#ArialMT-6f" x="172.314453"/>
       <use xlink:href="#ArialMT-6e" x="227.929688"/>
       <use xlink:href="#ArialMT-64" x="283.544922"/>
       <use xlink:href="#ArialMT-61" x="339.160156"/>
       <use xlink:href="#ArialMT-72" x="394.775391"/>
       <use xlink:href="#ArialMT-79" x="428.076172"/>
       <use xlink:href="#ArialMT-20" x="478.076172"/>
       <use xlink:href="#ArialMT-53" x="505.859375"/>
       <use xlink:href="#ArialMT-74" x="572.558594"/>
       <use xlink:href="#ArialMT-72" x="600.341797"/>
       <use xlink:href="#ArialMT-75" x="633.642578"/>
       <use xlink:href="#ArialMT-63" x="689.257812"/>
       <use xlink:href="#ArialMT-74" x="739.257812"/>
       <use xlink:href="#ArialMT-75" x="767.041016"/>
       <use xlink:href="#ArialMT-72" x="822.65625"/>
       <use xlink:href="#ArialMT-65" x="855.957031"/>
       <use xlink:href="#ArialMT-3a" x="911.572266"/>
       <use xlink:href="#ArialMT-20" x="939.355469"/>
       <use xlink:href="#ArialMT-48" x="967.138672"/>
       <use xlink:href="#ArialMT-65" x="1039.355469"/>
       <use xlink:href="#ArialMT-6c" x="1094.970703"/>
       <use xlink:href="#ArialMT-69" x="1117.1875"/>
       <use xlink:href="#ArialMT-78" x="1139.404297"/>
       <use xlink:href="#ArialMT-20" x="1189.404297"/>
       <use xlink:href="#ArialMT-28" x="1217.1875"/>
       <use xlink:href="#ArialMT-25" x="1250.488281"/>
       <use xlink:href="#ArialMT-29" x="1339.404297"/>
      </g>
     </g>
    </g>
    <g id="ytick_19">
     <g id="text_28">
      <!-- Transition Secondary Structure: Helix/Coil -->
      <g style="fill: #262626" transform="translate(42.960625 64.443844) scale(0.14 -0.14)">
       <use xlink:href="#ArialMT-54"/>
       <use xlink:href="#ArialMT-72" x="57.333984"/>
       <use xlink:href="#ArialMT-61" x="90.634766"/>
       <use xlink:href="#ArialMT-6e" x="146.25"/>
       <use xlink:href="#ArialMT-73" x="201.865234"/>
       <use xlink:href="#ArialMT-69" x="251.865234"/>
       <use xlink:href="#ArialMT-74" x="274.082031"/>
       <use xlink:href="#ArialMT-69" x="301.865234"/>
       <use xlink:href="#ArialMT-6f" x="324.082031"/>
       <use xlink:href="#ArialMT-6e" x="379.697266"/>
       <use xlink:href="#ArialMT-20" x="435.3125"/>
       <use xlink:href="#ArialMT-53" x="463.095703"/>
       <use xlink:href="#ArialMT-65" x="529.794922"/>
       <use xlink:href="#ArialMT-63" x="585.410156"/>
       <use xlink:href="#ArialMT-6f" x="635.410156"/>
       <use xlink:href="#ArialMT-6e" x="691.025391"/>
       <use xlink:href="#ArialMT-64" x="746.640625"/>
       <use xlink:href="#ArialMT-61" x="802.255859"/>
       <use xlink:href="#ArialMT-72" x="857.871094"/>
       <use xlink:href="#ArialMT-79" x="891.171875"/>
       <use xlink:href="#ArialMT-20" x="941.171875"/>
       <use xlink:href="#ArialMT-53" x="968.955078"/>
       <use xlink:href="#ArialMT-74" x="1035.654297"/>
       <use xlink:href="#ArialMT-72" x="1063.4375"/>
       <use xlink:href="#ArialMT-75" x="1096.738281"/>
       <use xlink:href="#ArialMT-63" x="1152.353516"/>
       <use xlink:href="#ArialMT-74" x="1202.353516"/>
       <use xlink:href="#ArialMT-75" x="1230.136719"/>
       <use xlink:href="#ArialMT-72" x="1285.751953"/>
       <use xlink:href="#ArialMT-65" x="1319.052734"/>
       <use xlink:href="#ArialMT-3a" x="1374.667969"/>
       <use xlink:href="#ArialMT-20" x="1402.451172"/>
       <use xlink:href="#ArialMT-48" x="1430.234375"/>
       <use xlink:href="#ArialMT-65" x="1502.451172"/>
       <use xlink:href="#ArialMT-6c" x="1558.066406"/>
       <use xlink:href="#ArialMT-69" x="1580.283203"/>
       <use xlink:href="#ArialMT-78" x="1602.5"/>
       <use xlink:href="#ArialMT-2f" x="1652.5"/>
       <use xlink:href="#ArialMT-43" x="1680.283203"/>
       <use xlink:href="#ArialMT-6f" x="1752.5"/>
       <use xlink:href="#ArialMT-69" x="1808.115234"/>
       <use xlink:href="#ArialMT-6c" x="1830.332031"/>
      </g>
     </g>
    </g>
    <g id="ytick_20">
     <g id="text_29">
      <!-- Transition Volume: Small/Medium -->
      <g style="fill: #262626" transform="translate(94.314375 42.182531) scale(0.14 -0.14)">
       <use xlink:href="#ArialMT-54"/>
       <use xlink:href="#ArialMT-72" x="57.333984"/>
       <use xlink:href="#ArialMT-61" x="90.634766"/>
       <use xlink:href="#ArialMT-6e" x="146.25"/>
       <use xlink:href="#ArialMT-73" x="201.865234"/>
       <use xlink:href="#ArialMT-69" x="251.865234"/>
       <use xlink:href="#ArialMT-74" x="274.082031"/>
       <use xlink:href="#ArialMT-69" x="301.865234"/>
       <use xlink:href="#ArialMT-6f" x="324.082031"/>
       <use xlink:href="#ArialMT-6e" x="379.697266"/>
       <use xlink:href="#ArialMT-20" x="435.3125"/>
       <use xlink:href="#ArialMT-56" x="463.095703"/>
       <use xlink:href="#ArialMT-6f" x="524.294922"/>
       <use xlink:href="#ArialMT-6c" x="579.910156"/>
       <use xlink:href="#ArialMT-75" x="602.126953"/>
       <use xlink:href="#ArialMT-6d" x="657.742188"/>
       <use xlink:href="#ArialMT-65" x="741.042969"/>
       <use xlink:href="#ArialMT-3a" x="796.658203"/>
       <use xlink:href="#ArialMT-20" x="824.441406"/>
       <use xlink:href="#ArialMT-53" x="852.224609"/>
       <use xlink:href="#ArialMT-6d" x="918.923828"/>
       <use xlink:href="#ArialMT-61" x="1002.224609"/>
       <use xlink:href="#ArialMT-6c" x="1057.839844"/>
       <use xlink:href="#ArialMT-6c" x="1080.056641"/>
       <use xlink:href="#ArialMT-2f" x="1102.273438"/>
       <use xlink:href="#ArialMT-4d" x="1130.056641"/>
       <use xlink:href="#ArialMT-65" x="1213.357422"/>
       <use xlink:href="#ArialMT-64" x="1268.972656"/>
       <use xlink:href="#ArialMT-69" x="1324.587891"/>
       <use xlink:href="#ArialMT-75" x="1346.804688"/>
       <use xlink:href="#ArialMT-6d" x="1402.419922"/>
      </g>
     </g>
    </g>
    <g id="text_30">
     <!-- Feature -->
     <g style="fill: #262626" transform="translate(18.6525 275.411562) rotate(-90) scale(0.16 -0.16)">
      <defs>
       <path id="ArialMT-46" d="M 525 0 
L 525 4581 
L 3616 4581 
L 3616 4041 
L 1131 4041 
L 1131 2622 
L 3281 2622 
L 3281 2081 
L 1131 2081 
L 1131 0 
L 525 0 
z
" transform="scale(0.015625)"/>
      </defs>
      <use xlink:href="#ArialMT-46"/>
      <use xlink:href="#ArialMT-65" x="61.083984"/>
      <use xlink:href="#ArialMT-61" x="116.699219"/>
      <use xlink:href="#ArialMT-74" x="172.314453"/>
      <use xlink:href="#ArialMT-75" x="200.097656"/>
      <use xlink:href="#ArialMT-72" x="255.712891"/>
      <use xlink:href="#ArialMT-65" x="289.013672"/>
     </g>
    </g>
   </g>
   <g id="patch_3">
    <path d="M 638.156047 464.060062 
L 345.240426 464.060062 
L 345.240426 452.972062 
L 638.156047 452.972062 
z
" clip-path="url(#p8ed8ef399b)" style="fill: #ffa500; stroke: #000000; stroke-width: 1.2; stroke-linejoin: miter"/>
   </g>
   <g id="patch_4">
    <path d="M 638.156047 441.884062 
L 354.61358 441.884062 
L 354.61358 430.796062 
L 638.156047 430.796062 
z
" clip-path="url(#p8ed8ef399b)" style="fill: #ffa500; stroke: #000000; stroke-width: 1.2; stroke-linejoin: miter"/>
   </g>
   <g id="patch_5">
    <path d="M 638.156047 419.708062 
L 395.350562 419.708062 
L 395.350562 408.620062 
L 638.156047 408.620062 
z
" clip-path="url(#p8ed8ef399b)" style="fill: #ffa500; stroke: #000000; stroke-width: 1.2; stroke-linejoin: miter"/>
   </g>
   <g id="patch_6">
    <path d="M 638.156047 397.532062 
L 397.255944 397.532062 
L 397.255944 386.444062 
L 638.156047 386.444062 
z
" clip-path="url(#p8ed8ef399b)" style="fill: #ffa500; stroke: #000000; stroke-width: 1.2; stroke-linejoin: miter"/>
   </g>
   <g id="patch_7">
    <path d="M 638.156047 375.356062 
L 437.474632 375.356062 
L 437.474632 364.268062 
L 638.156047 364.268062 
z
" clip-path="url(#p8ed8ef399b)" style="fill: #ffa500; stroke: #000000; stroke-width: 1.2; stroke-linejoin: miter"/>
   </g>
   <g id="patch_8">
    <path d="M 638.156047 353.180062 
L 451.759398 353.180062 
L 451.759398 342.092062 
L 638.156047 342.092062 
z
" clip-path="url(#p8ed8ef399b)" style="fill: #ffa500; stroke: #000000; stroke-width: 1.2; stroke-linejoin: miter"/>
   </g>
   <g id="patch_9">
    <path d="M 638.156047 331.004062 
L 464.361548 331.004062 
L 464.361548 319.916062 
L 638.156047 319.916062 
z
" clip-path="url(#p8ed8ef399b)" style="fill: #ffa500; stroke: #000000; stroke-width: 1.2; stroke-linejoin: miter"/>
   </g>
   <g id="patch_10">
    <path d="M 638.156047 308.828062 
L 474.923644 308.828062 
L 474.923644 297.740062 
L 638.156047 297.740062 
z
" clip-path="url(#p8ed8ef399b)" style="fill: #ffa500; stroke: #000000; stroke-width: 1.2; stroke-linejoin: miter"/>
   </g>
   <g id="patch_11">
    <path d="M 638.156047 286.652062 
L 479.862746 286.652062 
L 479.862746 275.564062 
L 638.156047 275.564062 
z
" clip-path="url(#p8ed8ef399b)" style="fill: #ffa500; stroke: #000000; stroke-width: 1.2; stroke-linejoin: miter"/>
   </g>
   <g id="patch_12">
    <path d="M 638.156047 264.476062 
L 493.152031 264.476062 
L 493.152031 253.388062 
L 638.156047 253.388062 
z
" clip-path="url(#p8ed8ef399b)" style="fill: #ffa500; stroke: #000000; stroke-width: 1.2; stroke-linejoin: miter"/>
   </g>
   <g id="patch_13">
    <path d="M 638.156047 242.300062 
L 777.100214 242.300062 
L 777.100214 231.212062 
L 638.156047 231.212062 
z
" clip-path="url(#p8ed8ef399b)" style="fill: #4169e1; stroke: #000000; stroke-width: 1.2; stroke-linejoin: miter"/>
   </g>
   <g id="patch_14">
    <path d="M 638.156047 220.124062 
L 797.346679 220.124062 
L 797.346679 209.036062 
L 638.156047 209.036062 
z
" clip-path="url(#p8ed8ef399b)" style="fill: #4169e1; stroke: #000000; stroke-width: 1.2; stroke-linejoin: miter"/>
   </g>
   <g id="patch_15">
    <path d="M 638.156047 197.948062 
L 802.652872 197.948062 
L 802.652872 186.860062 
L 638.156047 186.860062 
z
" clip-path="url(#p8ed8ef399b)" style="fill: #4169e1; stroke: #000000; stroke-width: 1.2; stroke-linejoin: miter"/>
   </g>
   <g id="patch_16">
    <path d="M 638.156047 175.772062 
L 827.145702 175.772062 
L 827.145702 164.684062 
L 638.156047 164.684062 
z
" clip-path="url(#p8ed8ef399b)" style="fill: #4169e1; stroke: #000000; stroke-width: 1.2; stroke-linejoin: miter"/>
   </g>
   <g id="patch_17">
    <path d="M 638.156047 153.596062 
L 851.16995 153.596062 
L 851.16995 142.508062 
L 638.156047 142.508062 
z
" clip-path="url(#p8ed8ef399b)" style="fill: #4169e1; stroke: #000000; stroke-width: 1.2; stroke-linejoin: miter"/>
   </g>
   <g id="patch_18">
    <path d="M 638.156047 131.420062 
L 851.784126 131.420062 
L 851.784126 120.332062 
L 638.156047 120.332062 
z
" clip-path="url(#p8ed8ef399b)" style="fill: #4169e1; stroke: #000000; stroke-width: 1.2; stroke-linejoin: miter"/>
   </g>
   <g id="patch_19">
    <path d="M 638.156047 109.244062 
L 855.849419 109.244062 
L 855.849419 98.156062 
L 638.156047 98.156062 
z
" clip-path="url(#p8ed8ef399b)" style="fill: #4169e1; stroke: #000000; stroke-width: 1.2; stroke-linejoin: miter"/>
   </g>
   <g id="patch_20">
    <path d="M 638.156047 87.068062 
L 865.884826 87.068062 
L 865.884826 75.980062 
L 638.156047 75.980062 
z
" clip-path="url(#p8ed8ef399b)" style="fill: #4169e1; stroke: #000000; stroke-width: 1.2; stroke-linejoin: miter"/>
   </g>
   <g id="patch_21">
    <path d="M 638.156047 64.892062 
L 871.396818 64.892062 
L 871.396818 53.804062 
L 638.156047 53.804062 
z
" clip-path="url(#p8ed8ef399b)" style="fill: #4169e1; stroke: #000000; stroke-width: 1.2; stroke-linejoin: miter"/>
   </g>
   <g id="patch_22">
    <path d="M 638.156047 42.716062 
L 953.967699 42.716062 
L 953.967699 31.628062 
L 638.156047 31.628062 
z
" clip-path="url(#p8ed8ef399b)" style="fill: #4169e1; stroke: #000000; stroke-width: 1.2; stroke-linejoin: miter"/>
   </g>
   <g id="patch_23">
    <path d="M 314.804062 469.604062 
L 314.804062 26.084062 
" style="fill: none; stroke: #cccccc; stroke-width: 1.875; stroke-linejoin: miter; stroke-linecap: square"/>
   </g>
   <g id="patch_24">
    <path d="M 314.804062 469.604062 
L 984.404062 469.604062 
" style="fill: none; stroke: #cccccc; stroke-width: 1.875; stroke-linejoin: miter; stroke-linecap: square"/>
   </g>
   <g id="text_31">
    <!-- Protein Features Pearson Correlations with Cell Growth -->
    <g style="fill: #262626" transform="translate(411.569531 20.084062) scale(0.18 -0.18)">
     <defs>
      <path id="Arial-BoldMT-50" d="M 466 0 
L 466 4581 
L 1950 4581 
Q 2794 4581 3050 4513 
Q 3444 4409 3709 4064 
Q 3975 3719 3975 3172 
Q 3975 2750 3822 2462 
Q 3669 2175 3433 2011 
Q 3197 1847 2953 1794 
Q 2622 1728 1994 1728 
L 1391 1728 
L 1391 0 
L 466 0 
z
M 1391 3806 
L 1391 2506 
L 1897 2506 
Q 2444 2506 2628 2578 
Q 2813 2650 2917 2803 
Q 3022 2956 3022 3159 
Q 3022 3409 2875 3571 
Q 2728 3734 2503 3775 
Q 2338 3806 1838 3806 
L 1391 3806 
z
" transform="scale(0.015625)"/>
      <path id="Arial-BoldMT-72" d="M 1300 0 
L 422 0 
L 422 3319 
L 1238 3319 
L 1238 2847 
Q 1447 3181 1614 3287 
Q 1781 3394 1994 3394 
Q 2294 3394 2572 3228 
L 2300 2463 
Q 2078 2606 1888 2606 
Q 1703 2606 1575 2504 
Q 1447 2403 1373 2137 
Q 1300 1872 1300 1025 
L 1300 0 
z
" transform="scale(0.015625)"/>
      <path id="Arial-BoldMT-6f" d="M 256 1706 
Q 256 2144 472 2553 
Q 688 2963 1083 3178 
Q 1478 3394 1966 3394 
Q 2719 3394 3200 2905 
Q 3681 2416 3681 1669 
Q 3681 916 3195 420 
Q 2709 -75 1972 -75 
Q 1516 -75 1102 131 
Q 688 338 472 736 
Q 256 1134 256 1706 
z
M 1156 1659 
Q 1156 1166 1390 903 
Q 1625 641 1969 641 
Q 2313 641 2545 903 
Q 2778 1166 2778 1666 
Q 2778 2153 2545 2415 
Q 2313 2678 1969 2678 
Q 1625 2678 1390 2415 
Q 1156 2153 1156 1659 
z
" transform="scale(0.015625)"/>
      <path id="Arial-BoldMT-74" d="M 1981 3319 
L 1981 2619 
L 1381 2619 
L 1381 1281 
Q 1381 875 1398 808 
Q 1416 741 1477 697 
Q 1538 653 1625 653 
Q 1747 653 1978 738 
L 2053 56 
Q 1747 -75 1359 -75 
Q 1122 -75 931 4 
Q 741 84 652 211 
Q 563 338 528 553 
Q 500 706 500 1172 
L 500 2619 
L 97 2619 
L 97 3319 
L 500 3319 
L 500 3978 
L 1381 4491 
L 1381 3319 
L 1981 3319 
z
" transform="scale(0.015625)"/>
      <path id="Arial-BoldMT-65" d="M 2381 1056 
L 3256 909 
Q 3088 428 2723 176 
Q 2359 -75 1813 -75 
Q 947 -75 531 491 
Q 203 944 203 1634 
Q 203 2459 634 2926 
Q 1066 3394 1725 3394 
Q 2466 3394 2894 2905 
Q 3322 2416 3303 1406 
L 1103 1406 
Q 1113 1016 1316 798 
Q 1519 581 1822 581 
Q 2028 581 2168 693 
Q 2309 806 2381 1056 
z
M 2431 1944 
Q 2422 2325 2234 2523 
Q 2047 2722 1778 2722 
Q 1491 2722 1303 2513 
Q 1116 2303 1119 1944 
L 2431 1944 
z
" transform="scale(0.015625)"/>
      <path id="Arial-BoldMT-69" d="M 459 3769 
L 459 4581 
L 1338 4581 
L 1338 3769 
L 459 3769 
z
M 459 0 
L 459 3319 
L 1338 3319 
L 1338 0 
L 459 0 
z
" transform="scale(0.015625)"/>
      <path id="Arial-BoldMT-6e" d="M 3478 0 
L 2600 0 
L 2600 1694 
Q 2600 2231 2544 2389 
Q 2488 2547 2361 2634 
Q 2234 2722 2056 2722 
Q 1828 2722 1647 2597 
Q 1466 2472 1398 2265 
Q 1331 2059 1331 1503 
L 1331 0 
L 453 0 
L 453 3319 
L 1269 3319 
L 1269 2831 
Q 1703 3394 2363 3394 
Q 2653 3394 2893 3289 
Q 3134 3184 3257 3021 
Q 3381 2859 3429 2653 
Q 3478 2447 3478 2063 
L 3478 0 
z
" transform="scale(0.015625)"/>
      <path id="Arial-BoldMT-20" transform="scale(0.015625)"/>
      <path id="Arial-BoldMT-46" d="M 472 0 
L 472 4581 
L 3613 4581 
L 3613 3806 
L 1397 3806 
L 1397 2722 
L 3309 2722 
L 3309 1947 
L 1397 1947 
L 1397 0 
L 472 0 
z
" transform="scale(0.015625)"/>
      <path id="Arial-BoldMT-61" d="M 1116 2306 
L 319 2450 
Q 453 2931 781 3162 
Q 1109 3394 1756 3394 
Q 2344 3394 2631 3255 
Q 2919 3116 3036 2902 
Q 3153 2688 3153 2116 
L 3144 1091 
Q 3144 653 3186 445 
Q 3228 238 3344 0 
L 2475 0 
Q 2441 88 2391 259 
Q 2369 338 2359 363 
Q 2134 144 1878 34 
Q 1622 -75 1331 -75 
Q 819 -75 523 203 
Q 228 481 228 906 
Q 228 1188 362 1408 
Q 497 1628 739 1745 
Q 981 1863 1438 1950 
Q 2053 2066 2291 2166 
L 2291 2253 
Q 2291 2506 2166 2614 
Q 2041 2722 1694 2722 
Q 1459 2722 1328 2630 
Q 1197 2538 1116 2306 
z
M 2291 1594 
Q 2122 1538 1756 1459 
Q 1391 1381 1278 1306 
Q 1106 1184 1106 997 
Q 1106 813 1243 678 
Q 1381 544 1594 544 
Q 1831 544 2047 700 
Q 2206 819 2256 991 
Q 2291 1103 2291 1419 
L 2291 1594 
z
" transform="scale(0.015625)"/>
      <path id="Arial-BoldMT-75" d="M 2644 0 
L 2644 497 
Q 2463 231 2167 78 
Q 1872 -75 1544 -75 
Q 1209 -75 943 72 
Q 678 219 559 484 
Q 441 750 441 1219 
L 441 3319 
L 1319 3319 
L 1319 1794 
Q 1319 1094 1367 936 
Q 1416 778 1544 686 
Q 1672 594 1869 594 
Q 2094 594 2272 717 
Q 2450 841 2515 1023 
Q 2581 1206 2581 1919 
L 2581 3319 
L 3459 3319 
L 3459 0 
L 2644 0 
z
" transform="scale(0.015625)"/>
      <path id="Arial-BoldMT-73" d="M 150 947 
L 1031 1081 
Q 1088 825 1259 692 
Q 1431 559 1741 559 
Q 2081 559 2253 684 
Q 2369 772 2369 919 
Q 2369 1019 2306 1084 
Q 2241 1147 2013 1200 
Q 950 1434 666 1628 
Q 272 1897 272 2375 
Q 272 2806 612 3100 
Q 953 3394 1669 3394 
Q 2350 3394 2681 3172 
Q 3013 2950 3138 2516 
L 2309 2363 
Q 2256 2556 2107 2659 
Q 1959 2763 1684 2763 
Q 1338 2763 1188 2666 
Q 1088 2597 1088 2488 
Q 1088 2394 1175 2328 
Q 1294 2241 1995 2081 
Q 2697 1922 2975 1691 
Q 3250 1456 3250 1038 
Q 3250 581 2869 253 
Q 2488 -75 1741 -75 
Q 1063 -75 667 200 
Q 272 475 150 947 
z
" transform="scale(0.015625)"/>
      <path id="Arial-BoldMT-43" d="M 3397 1684 
L 4294 1400 
Q 4088 650 3608 286 
Q 3128 -78 2391 -78 
Q 1478 -78 890 545 
Q 303 1169 303 2250 
Q 303 3394 893 4026 
Q 1484 4659 2447 4659 
Q 3288 4659 3813 4163 
Q 4125 3869 4281 3319 
L 3366 3100 
Q 3284 3456 3026 3662 
Q 2769 3869 2400 3869 
Q 1891 3869 1573 3503 
Q 1256 3138 1256 2319 
Q 1256 1450 1568 1081 
Q 1881 713 2381 713 
Q 2750 713 3015 947 
Q 3281 1181 3397 1684 
z
" transform="scale(0.015625)"/>
      <path id="Arial-BoldMT-6c" d="M 459 0 
L 459 4581 
L 1338 4581 
L 1338 0 
L 459 0 
z
" transform="scale(0.015625)"/>
      <path id="Arial-BoldMT-77" d="M 1078 0 
L 28 3319 
L 881 3319 
L 1503 1144 
L 2075 3319 
L 2922 3319 
L 3475 1144 
L 4109 3319 
L 4975 3319 
L 3909 0 
L 3066 0 
L 2494 2134 
L 1931 0 
L 1078 0 
z
" transform="scale(0.015625)"/>
      <path id="Arial-BoldMT-68" d="M 1334 4581 
L 1334 2897 
Q 1759 3394 2350 3394 
Q 2653 3394 2897 3281 
Q 3141 3169 3264 2994 
Q 3388 2819 3433 2606 
Q 3478 2394 3478 1947 
L 3478 0 
L 2600 0 
L 2600 1753 
Q 2600 2275 2550 2415 
Q 2500 2556 2373 2639 
Q 2247 2722 2056 2722 
Q 1838 2722 1666 2615 
Q 1494 2509 1414 2295 
Q 1334 2081 1334 1663 
L 1334 0 
L 456 0 
L 456 4581 
L 1334 4581 
z
" transform="scale(0.015625)"/>
      <path id="Arial-BoldMT-47" d="M 2597 1684 
L 2597 2456 
L 4591 2456 
L 4591 631 
Q 4300 350 3748 136 
Q 3197 -78 2631 -78 
Q 1913 -78 1378 223 
Q 844 525 575 1086 
Q 306 1647 306 2306 
Q 306 3022 606 3578 
Q 906 4134 1484 4431 
Q 1925 4659 2581 4659 
Q 3434 4659 3914 4301 
Q 4394 3944 4531 3313 
L 3613 3141 
Q 3516 3478 3248 3673 
Q 2981 3869 2581 3869 
Q 1975 3869 1617 3484 
Q 1259 3100 1259 2344 
Q 1259 1528 1621 1120 
Q 1984 713 2572 713 
Q 2863 713 3155 827 
Q 3447 941 3656 1103 
L 3656 1684 
L 2597 1684 
z
" transform="scale(0.015625)"/>
     </defs>
     <use xlink:href="#Arial-BoldMT-50"/>
     <use xlink:href="#Arial-BoldMT-72" x="66.699219"/>
     <use xlink:href="#Arial-BoldMT-6f" x="105.615234"/>
     <use xlink:href="#Arial-BoldMT-74" x="166.699219"/>
     <use xlink:href="#Arial-BoldMT-65" x="200"/>
     <use xlink:href="#Arial-BoldMT-69" x="255.615234"/>
     <use xlink:href="#Arial-BoldMT-6e" x="283.398438"/>
     <use xlink:href="#Arial-BoldMT-20" x="344.482422"/>
     <use xlink:href="#Arial-BoldMT-46" x="372.265625"/>
     <use xlink:href="#Arial-BoldMT-65" x="433.349609"/>
     <use xlink:href="#Arial-BoldMT-61" x="488.964844"/>
     <use xlink:href="#Arial-BoldMT-74" x="544.580078"/>
     <use xlink:href="#Arial-BoldMT-75" x="577.880859"/>
     <use xlink:href="#Arial-BoldMT-72" x="638.964844"/>
     <use xlink:href="#Arial-BoldMT-65" x="677.880859"/>
     <use xlink:href="#Arial-BoldMT-73" x="733.496094"/>
     <use xlink:href="#Arial-BoldMT-20" x="789.111328"/>
     <use xlink:href="#Arial-BoldMT-50" x="816.894531"/>
     <use xlink:href="#Arial-BoldMT-65" x="883.59375"/>
     <use xlink:href="#Arial-BoldMT-61" x="939.208984"/>
     <use xlink:href="#Arial-BoldMT-72" x="994.824219"/>
     <use xlink:href="#Arial-BoldMT-73" x="1033.740234"/>
     <use xlink:href="#Arial-BoldMT-6f" x="1089.355469"/>
     <use xlink:href="#Arial-BoldMT-6e" x="1150.439453"/>
     <use xlink:href="#Arial-BoldMT-20" x="1211.523438"/>
     <use xlink:href="#Arial-BoldMT-43" x="1239.306641"/>
     <use xlink:href="#Arial-BoldMT-6f" x="1311.523438"/>
     <use xlink:href="#Arial-BoldMT-72" x="1372.607422"/>
     <use xlink:href="#Arial-BoldMT-72" x="1411.523438"/>
     <use xlink:href="#Arial-BoldMT-65" x="1450.439453"/>
     <use xlink:href="#Arial-BoldMT-6c" x="1506.054688"/>
     <use xlink:href="#Arial-BoldMT-61" x="1533.837891"/>
     <use xlink:href="#Arial-BoldMT-74" x="1589.453125"/>
     <use xlink:href="#Arial-BoldMT-69" x="1622.753906"/>
     <use xlink:href="#Arial-BoldMT-6f" x="1650.537109"/>
     <use xlink:href="#Arial-BoldMT-6e" x="1711.621094"/>
     <use xlink:href="#Arial-BoldMT-73" x="1772.705078"/>
     <use xlink:href="#Arial-BoldMT-20" x="1828.320312"/>
     <use xlink:href="#Arial-BoldMT-77" x="1856.103516"/>
     <use xlink:href="#Arial-BoldMT-69" x="1933.886719"/>
     <use xlink:href="#Arial-BoldMT-74" x="1961.669922"/>
     <use xlink:href="#Arial-BoldMT-68" x="1994.970703"/>
     <use xlink:href="#Arial-BoldMT-20" x="2056.054688"/>
     <use xlink:href="#Arial-BoldMT-43" x="2083.837891"/>
     <use xlink:href="#Arial-BoldMT-65" x="2156.054688"/>
     <use xlink:href="#Arial-BoldMT-6c" x="2211.669922"/>
     <use xlink:href="#Arial-BoldMT-6c" x="2239.453125"/>
     <use xlink:href="#Arial-BoldMT-20" x="2267.236328"/>
     <use xlink:href="#Arial-BoldMT-47" x="2295.019531"/>
     <use xlink:href="#Arial-BoldMT-72" x="2372.802734"/>
     <use xlink:href="#Arial-BoldMT-6f" x="2411.71875"/>
     <use xlink:href="#Arial-BoldMT-77" x="2472.802734"/>
     <use xlink:href="#Arial-BoldMT-74" x="2550.585938"/>
     <use xlink:href="#Arial-BoldMT-68" x="2583.886719"/>
    </g>
   </g>
  </g>
 </g>
 <defs>
  <clipPath id="p8ed8ef399b">
   <rect x="314.804062" y="26.084062" width="669.6" height="443.52"/>
  </clipPath>
 </defs>
</svg>
