<?xml version="1.0" encoding="utf-8" standalone="no"?>
<!DOCTYPE svg PUBLIC "-//W3C//DTD SVG 1.1//EN"
  "http://www.w3.org/Graphics/SVG/1.1/DTD/svg11.dtd">
<svg xmlns:xlink="http://www.w3.org/1999/xlink" width="1357.699687pt" height="752.010937pt" viewBox="0 0 1357.699687 752.010937" xmlns="http://www.w3.org/2000/svg" version="1.1">
 <metadata>
  <rdf:RDF xmlns:dc="http://purl.org/dc/elements/1.1/" xmlns:cc="http://creativecommons.org/ns#" xmlns:rdf="http://www.w3.org/1999/02/22-rdf-syntax-ns#">
   <cc:Work>
    <dc:type rdf:resource="http://purl.org/dc/dcmitype/StillImage"/>
    <dc:date>2025-09-10T15:04:29.696508</dc:date>
    <dc:format>image/svg+xml</dc:format>
    <dc:creator>
     <cc:Agent>
      <dc:title>Matplotlib v3.10.6, https://matplotlib.org/</dc:title>
     </cc:Agent>
    </dc:creator>
   </cc:Work>
  </rdf:RDF>
 </metadata>
 <defs>
  <style type="text/css">*{stroke-linejoin: round; stroke-linecap: butt}</style>
 </defs>
 <g id="figure_1">
  <g id="patch_1">
   <path d="M 0 752.010937 
L 1357.699687 752.010937 
L 1357.699687 0 
L 0 0 
z
" style="fill: #ffffff"/>
  </g>
  <g id="axes_1">
   <g id="patch_2">
    <path d="M 524.4525 684.447187 
L 1305.6525 684.447187 
L 1305.6525 32.127187 
L 524.4525 32.127187 
z
" style="fill: #ffffff"/>
   </g>
   <g id="matplotlib.axis_1">
    <g id="xtick_1">
     <g id="line2d_1">
      <path d="M 559.548497 684.447187 
L 559.548497 32.127187 
" clip-path="url(#pb8a58e40ac)" style="fill: none; stroke-dasharray: 2.59,1.12; stroke-dashoffset: 0; stroke: #cccccc; stroke-opacity: 0.7; stroke-width: 0.7"/>
     </g>
     <g id="text_1">
      <!-- −0.4 -->
      <g style="fill: #262626" transform="translate(535.859747 714.125937) scale(0.24 -0.24)">
       <defs>
        <path id="ArialMT-2212" d="M 3381 1997 
L 356 1997 
L 356 2522 
L 3381 2522 
L 3381 1997 
z
" transform="scale(0.015625)"/>
        <path id="ArialMT-30" d="M 266 2259 
Q 266 3072 433 3567 
Q 600 4063 929 4331 
Q 1259 4600 1759 4600 
Q 2128 4600 2406 4451 
Q 2684 4303 2865 4023 
Q 3047 3744 3150 3342 
Q 3253 2941 3253 2259 
Q 3253 1453 3087 958 
Q 2922 463 2592 192 
Q 2263 -78 1759 -78 
Q 1097 -78 719 397 
Q 266 969 266 2259 
z
M 844 2259 
Q 844 1131 1108 757 
Q 1372 384 1759 384 
Q 2147 384 2411 759 
Q 2675 1134 2675 2259 
Q 2675 3391 2411 3762 
Q 2147 4134 1753 4134 
Q 1366 4134 1134 3806 
Q 844 3388 844 2259 
z
" transform="scale(0.015625)"/>
        <path id="ArialMT-2e" d="M 581 0 
L 581 641 
L 1222 641 
L 1222 0 
L 581 0 
z
" transform="scale(0.015625)"/>
        <path id="ArialMT-34" d="M 2069 0 
L 2069 1097 
L 81 1097 
L 81 1613 
L 2172 4581 
L 2631 4581 
L 2631 1613 
L 3250 1613 
L 3250 1097 
L 2631 1097 
L 2631 0 
L 2069 0 
z
M 2069 1613 
L 2069 3678 
L 634 1613 
L 2069 1613 
z
" transform="scale(0.015625)"/>
       </defs>
       <use xlink:href="#ArialMT-2212"/>
       <use xlink:href="#ArialMT-30" transform="translate(58.398438 0)"/>
       <use xlink:href="#ArialMT-2e" transform="translate(114.013672 0)"/>
       <use xlink:href="#ArialMT-34" transform="translate(141.796875 0)"/>
      </g>
     </g>
    </g>
    <g id="xtick_2">
     <g id="line2d_2">
      <path d="M 662.044431 684.447187 
L 662.044431 32.127187 
" clip-path="url(#pb8a58e40ac)" style="fill: none; stroke-dasharray: 2.59,1.12; stroke-dashoffset: 0; stroke: #cccccc; stroke-opacity: 0.7; stroke-width: 0.7"/>
     </g>
     <g id="text_2">
      <!-- −0.3 -->
      <g style="fill: #262626" transform="translate(638.355681 714.125937) scale(0.24 -0.24)">
       <defs>
        <path id="ArialMT-33" d="M 269 1209 
L 831 1284 
Q 928 806 1161 595 
Q 1394 384 1728 384 
Q 2125 384 2398 659 
Q 2672 934 2672 1341 
Q 2672 1728 2419 1979 
Q 2166 2231 1775 2231 
Q 1616 2231 1378 2169 
L 1441 2663 
Q 1497 2656 1531 2656 
Q 1891 2656 2178 2843 
Q 2466 3031 2466 3422 
Q 2466 3731 2256 3934 
Q 2047 4138 1716 4138 
Q 1388 4138 1169 3931 
Q 950 3725 888 3313 
L 325 3413 
Q 428 3978 793 4289 
Q 1159 4600 1703 4600 
Q 2078 4600 2393 4439 
Q 2709 4278 2876 4000 
Q 3044 3722 3044 3409 
Q 3044 3113 2884 2869 
Q 2725 2625 2413 2481 
Q 2819 2388 3044 2092 
Q 3269 1797 3269 1353 
Q 3269 753 2831 336 
Q 2394 -81 1725 -81 
Q 1122 -81 723 278 
Q 325 638 269 1209 
z
" transform="scale(0.015625)"/>
       </defs>
       <use xlink:href="#ArialMT-2212"/>
       <use xlink:href="#ArialMT-30" transform="translate(58.398438 0)"/>
       <use xlink:href="#ArialMT-2e" transform="translate(114.013672 0)"/>
       <use xlink:href="#ArialMT-33" transform="translate(141.796875 0)"/>
      </g>
     </g>
    </g>
    <g id="xtick_3">
     <g id="line2d_3">
      <path d="M 764.540365 684.447187 
L 764.540365 32.127187 
" clip-path="url(#pb8a58e40ac)" style="fill: none; stroke-dasharray: 2.59,1.12; stroke-dashoffset: 0; stroke: #cccccc; stroke-opacity: 0.7; stroke-width: 0.7"/>
     </g>
     <g id="text_3">
      <!-- −0.2 -->
      <g style="fill: #262626" transform="translate(740.851615 714.125937) scale(0.24 -0.24)">
       <defs>
        <path id="ArialMT-32" d="M 3222 541 
L 3222 0 
L 194 0 
Q 188 203 259 391 
Q 375 700 629 1000 
Q 884 1300 1366 1694 
Q 2113 2306 2375 2664 
Q 2638 3022 2638 3341 
Q 2638 3675 2398 3904 
Q 2159 4134 1775 4134 
Q 1369 4134 1125 3890 
Q 881 3647 878 3216 
L 300 3275 
Q 359 3922 746 4261 
Q 1134 4600 1788 4600 
Q 2447 4600 2831 4234 
Q 3216 3869 3216 3328 
Q 3216 3053 3103 2787 
Q 2991 2522 2730 2228 
Q 2469 1934 1863 1422 
Q 1356 997 1212 845 
Q 1069 694 975 541 
L 3222 541 
z
" transform="scale(0.015625)"/>
       </defs>
       <use xlink:href="#ArialMT-2212"/>
       <use xlink:href="#ArialMT-30" transform="translate(58.398438 0)"/>
       <use xlink:href="#ArialMT-2e" transform="translate(114.013672 0)"/>
       <use xlink:href="#ArialMT-32" transform="translate(141.796875 0)"/>
      </g>
     </g>
    </g>
    <g id="xtick_4">
     <g id="line2d_4">
      <path d="M 867.036299 684.447187 
L 867.036299 32.127187 
" clip-path="url(#pb8a58e40ac)" style="fill: none; stroke-dasharray: 2.59,1.12; stroke-dashoffset: 0; stroke: #cccccc; stroke-opacity: 0.7; stroke-width: 0.7"/>
     </g>
     <g id="text_4">
      <!-- −0.1 -->
      <g style="fill: #262626" transform="translate(843.347549 714.125937) scale(0.24 -0.24)">
       <defs>
        <path id="ArialMT-31" d="M 2384 0 
L 1822 0 
L 1822 3584 
Q 1619 3391 1289 3197 
Q 959 3003 697 2906 
L 697 3450 
Q 1169 3672 1522 3987 
Q 1875 4303 2022 4600 
L 2384 4600 
L 2384 0 
z
" transform="scale(0.015625)"/>
       </defs>
       <use xlink:href="#ArialMT-2212"/>
       <use xlink:href="#ArialMT-30" transform="translate(58.398438 0)"/>
       <use xlink:href="#ArialMT-2e" transform="translate(114.013672 0)"/>
       <use xlink:href="#ArialMT-31" transform="translate(141.796875 0)"/>
      </g>
     </g>
    </g>
    <g id="xtick_5">
     <g id="line2d_5">
      <path d="M 969.532233 684.447187 
L 969.532233 32.127187 
" clip-path="url(#pb8a58e40ac)" style="fill: none; stroke-dasharray: 2.59,1.12; stroke-dashoffset: 0; stroke: #cccccc; stroke-opacity: 0.7; stroke-width: 0.7"/>
     </g>
     <g id="text_5">
      <!-- 0.0 -->
      <g style="fill: #262626" transform="translate(952.852233 714.125937) scale(0.24 -0.24)">
       <use xlink:href="#ArialMT-30"/>
       <use xlink:href="#ArialMT-2e" transform="translate(55.615234 0)"/>
       <use xlink:href="#ArialMT-30" transform="translate(83.398438 0)"/>
      </g>
     </g>
    </g>
    <g id="xtick_6">
     <g id="line2d_6">
      <path d="M 1072.028167 684.447187 
L 1072.028167 32.127187 
" clip-path="url(#pb8a58e40ac)" style="fill: none; stroke-dasharray: 2.59,1.12; stroke-dashoffset: 0; stroke: #cccccc; stroke-opacity: 0.7; stroke-width: 0.7"/>
     </g>
     <g id="text_6">
      <!-- 0.1 -->
      <g style="fill: #262626" transform="translate(1055.348167 714.125937) scale(0.24 -0.24)">
       <use xlink:href="#ArialMT-30"/>
       <use xlink:href="#ArialMT-2e" transform="translate(55.615234 0)"/>
       <use xlink:href="#ArialMT-31" transform="translate(83.398438 0)"/>
      </g>
     </g>
    </g>
    <g id="xtick_7">
     <g id="line2d_7">
      <path d="M 1174.524102 684.447187 
L 1174.524102 32.127187 
" clip-path="url(#pb8a58e40ac)" style="fill: none; stroke-dasharray: 2.59,1.12; stroke-dashoffset: 0; stroke: #cccccc; stroke-opacity: 0.7; stroke-width: 0.7"/>
     </g>
     <g id="text_7">
      <!-- 0.2 -->
      <g style="fill: #262626" transform="translate(1157.844102 714.125937) scale(0.24 -0.24)">
       <use xlink:href="#ArialMT-30"/>
       <use xlink:href="#ArialMT-2e" transform="translate(55.615234 0)"/>
       <use xlink:href="#ArialMT-32" transform="translate(83.398438 0)"/>
      </g>
     </g>
    </g>
    <g id="xtick_8">
     <g id="line2d_8">
      <path d="M 1277.020036 684.447187 
L 1277.020036 32.127187 
" clip-path="url(#pb8a58e40ac)" style="fill: none; stroke-dasharray: 2.59,1.12; stroke-dashoffset: 0; stroke: #cccccc; stroke-opacity: 0.7; stroke-width: 0.7"/>
     </g>
     <g id="text_8">
      <!-- 0.3 -->
      <g style="fill: #262626" transform="translate(1260.340036 714.125937) scale(0.24 -0.24)">
       <use xlink:href="#ArialMT-30"/>
       <use xlink:href="#ArialMT-2e" transform="translate(55.615234 0)"/>
       <use xlink:href="#ArialMT-33" transform="translate(83.398438 0)"/>
      </g>
     </g>
    </g>
    <g id="text_9">
     <!-- Correlation Coefficient -->
     <g style="fill: #262626" transform="translate(785.715 740.074687) scale(0.24 -0.24)">
      <defs>
       <path id="Arial-BoldMT-43" d="M 3397 1684 
L 4294 1400 
Q 4088 650 3608 286 
Q 3128 -78 2391 -78 
Q 1478 -78 890 545 
Q 303 1169 303 2250 
Q 303 3394 893 4026 
Q 1484 4659 2447 4659 
Q 3288 4659 3813 4163 
Q 4125 3869 4281 3319 
L 3366 3100 
Q 3284 3456 3026 3662 
Q 2769 3869 2400 3869 
Q 1891 3869 1573 3503 
Q 1256 3138 1256 2319 
Q 1256 1450 1568 1081 
Q 1881 713 2381 713 
Q 2750 713 3015 947 
Q 3281 1181 3397 1684 
z
" transform="scale(0.015625)"/>
       <path id="Arial-BoldMT-6f" d="M 256 1706 
Q 256 2144 472 2553 
Q 688 2963 1083 3178 
Q 1478 3394 1966 3394 
Q 2719 3394 3200 2905 
Q 3681 2416 3681 1669 
Q 3681 916 3195 420 
Q 2709 -75 1972 -75 
Q 1516 -75 1102 131 
Q 688 338 472 736 
Q 256 1134 256 1706 
z
M 1156 1659 
Q 1156 1166 1390 903 
Q 1625 641 1969 641 
Q 2313 641 2545 903 
Q 2778 1166 2778 1666 
Q 2778 2153 2545 2415 
Q 2313 2678 1969 2678 
Q 1625 2678 1390 2415 
Q 1156 2153 1156 1659 
z
" transform="scale(0.015625)"/>
       <path id="Arial-BoldMT-72" d="M 1300 0 
L 422 0 
L 422 3319 
L 1238 3319 
L 1238 2847 
Q 1447 3181 1614 3287 
Q 1781 3394 1994 3394 
Q 2294 3394 2572 3228 
L 2300 2463 
Q 2078 2606 1888 2606 
Q 1703 2606 1575 2504 
Q 1447 2403 1373 2137 
Q 1300 1872 1300 1025 
L 1300 0 
z
" transform="scale(0.015625)"/>
       <path id="Arial-BoldMT-65" d="M 2381 1056 
L 3256 909 
Q 3088 428 2723 176 
Q 2359 -75 1813 -75 
Q 947 -75 531 491 
Q 203 944 203 1634 
Q 203 2459 634 2926 
Q 1066 3394 1725 3394 
Q 2466 3394 2894 2905 
Q 3322 2416 3303 1406 
L 1103 1406 
Q 1113 1016 1316 798 
Q 1519 581 1822 581 
Q 2028 581 2168 693 
Q 2309 806 2381 1056 
z
M 2431 1944 
Q 2422 2325 2234 2523 
Q 2047 2722 1778 2722 
Q 1491 2722 1303 2513 
Q 1116 2303 1119 1944 
L 2431 1944 
z
" transform="scale(0.015625)"/>
       <path id="Arial-BoldMT-6c" d="M 459 0 
L 459 4581 
L 1338 4581 
L 1338 0 
L 459 0 
z
" transform="scale(0.015625)"/>
       <path id="Arial-BoldMT-61" d="M 1116 2306 
L 319 2450 
Q 453 2931 781 3162 
Q 1109 3394 1756 3394 
Q 2344 3394 2631 3255 
Q 2919 3116 3036 2902 
Q 3153 2688 3153 2116 
L 3144 1091 
Q 3144 653 3186 445 
Q 3228 238 3344 0 
L 2475 0 
Q 2441 88 2391 259 
Q 2369 338 2359 363 
Q 2134 144 1878 34 
Q 1622 -75 1331 -75 
Q 819 -75 523 203 
Q 228 481 228 906 
Q 228 1188 362 1408 
Q 497 1628 739 1745 
Q 981 1863 1438 1950 
Q 2053 2066 2291 2166 
L 2291 2253 
Q 2291 2506 2166 2614 
Q 2041 2722 1694 2722 
Q 1459 2722 1328 2630 
Q 1197 2538 1116 2306 
z
M 2291 1594 
Q 2122 1538 1756 1459 
Q 1391 1381 1278 1306 
Q 1106 1184 1106 997 
Q 1106 813 1243 678 
Q 1381 544 1594 544 
Q 1831 544 2047 700 
Q 2206 819 2256 991 
Q 2291 1103 2291 1419 
L 2291 1594 
z
" transform="scale(0.015625)"/>
       <path id="Arial-BoldMT-74" d="M 1981 3319 
L 1981 2619 
L 1381 2619 
L 1381 1281 
Q 1381 875 1398 808 
Q 1416 741 1477 697 
Q 1538 653 1625 653 
Q 1747 653 1978 738 
L 2053 56 
Q 1747 -75 1359 -75 
Q 1122 -75 931 4 
Q 741 84 652 211 
Q 563 338 528 553 
Q 500 706 500 1172 
L 500 2619 
L 97 2619 
L 97 3319 
L 500 3319 
L 500 3978 
L 1381 4491 
L 1381 3319 
L 1981 3319 
z
" transform="scale(0.015625)"/>
       <path id="Arial-BoldMT-69" d="M 459 3769 
L 459 4581 
L 1338 4581 
L 1338 3769 
L 459 3769 
z
M 459 0 
L 459 3319 
L 1338 3319 
L 1338 0 
L 459 0 
z
" transform="scale(0.015625)"/>
       <path id="Arial-BoldMT-6e" d="M 3478 0 
L 2600 0 
L 2600 1694 
Q 2600 2231 2544 2389 
Q 2488 2547 2361 2634 
Q 2234 2722 2056 2722 
Q 1828 2722 1647 2597 
Q 1466 2472 1398 2265 
Q 1331 2059 1331 1503 
L 1331 0 
L 453 0 
L 453 3319 
L 1269 3319 
L 1269 2831 
Q 1703 3394 2363 3394 
Q 2653 3394 2893 3289 
Q 3134 3184 3257 3021 
Q 3381 2859 3429 2653 
Q 3478 2447 3478 2063 
L 3478 0 
z
" transform="scale(0.015625)"/>
       <path id="Arial-BoldMT-20" transform="scale(0.015625)"/>
       <path id="Arial-BoldMT-66" d="M 75 3319 
L 563 3319 
L 563 3569 
Q 563 3988 652 4194 
Q 741 4400 980 4529 
Q 1219 4659 1584 4659 
Q 1959 4659 2319 4547 
L 2200 3934 
Q 1991 3984 1797 3984 
Q 1606 3984 1523 3895 
Q 1441 3806 1441 3553 
L 1441 3319 
L 2097 3319 
L 2097 2628 
L 1441 2628 
L 1441 0 
L 563 0 
L 563 2628 
L 75 2628 
L 75 3319 
z
" transform="scale(0.015625)"/>
       <path id="Arial-BoldMT-63" d="M 3353 2338 
L 2488 2181 
Q 2444 2441 2289 2572 
Q 2134 2703 1888 2703 
Q 1559 2703 1364 2476 
Q 1169 2250 1169 1719 
Q 1169 1128 1367 884 
Q 1566 641 1900 641 
Q 2150 641 2309 783 
Q 2469 925 2534 1272 
L 3397 1125 
Q 3263 531 2881 228 
Q 2500 -75 1859 -75 
Q 1131 -75 698 384 
Q 266 844 266 1656 
Q 266 2478 700 2936 
Q 1134 3394 1875 3394 
Q 2481 3394 2839 3133 
Q 3197 2872 3353 2338 
z
" transform="scale(0.015625)"/>
      </defs>
      <use xlink:href="#Arial-BoldMT-43"/>
      <use xlink:href="#Arial-BoldMT-6f" transform="translate(72.216797 0)"/>
      <use xlink:href="#Arial-BoldMT-72" transform="translate(133.300781 0)"/>
      <use xlink:href="#Arial-BoldMT-72" transform="translate(172.216797 0)"/>
      <use xlink:href="#Arial-BoldMT-65" transform="translate(211.132812 0)"/>
      <use xlink:href="#Arial-BoldMT-6c" transform="translate(266.748047 0)"/>
      <use xlink:href="#Arial-BoldMT-61" transform="translate(294.53125 0)"/>
      <use xlink:href="#Arial-BoldMT-74" transform="translate(350.146484 0)"/>
      <use xlink:href="#Arial-BoldMT-69" transform="translate(383.447266 0)"/>
      <use xlink:href="#Arial-BoldMT-6f" transform="translate(411.230469 0)"/>
      <use xlink:href="#Arial-BoldMT-6e" transform="translate(472.314453 0)"/>
      <use xlink:href="#Arial-BoldMT-20" transform="translate(533.398438 0)"/>
      <use xlink:href="#Arial-BoldMT-43" transform="translate(561.181641 0)"/>
      <use xlink:href="#Arial-BoldMT-6f" transform="translate(633.398438 0)"/>
      <use xlink:href="#Arial-BoldMT-65" transform="translate(694.482422 0)"/>
      <use xlink:href="#Arial-BoldMT-66" transform="translate(750.097656 0)"/>
      <use xlink:href="#Arial-BoldMT-66" transform="translate(783.398438 0)"/>
      <use xlink:href="#Arial-BoldMT-69" transform="translate(816.699219 0)"/>
      <use xlink:href="#Arial-BoldMT-63" transform="translate(844.482422 0)"/>
      <use xlink:href="#Arial-BoldMT-69" transform="translate(900.097656 0)"/>
      <use xlink:href="#Arial-BoldMT-65" transform="translate(927.880859 0)"/>
      <use xlink:href="#Arial-BoldMT-6e" transform="translate(983.496094 0)"/>
      <use xlink:href="#Arial-BoldMT-74" transform="translate(1044.580078 0)"/>
     </g>
    </g>
   </g>
   <g id="matplotlib.axis_2">
    <g id="ytick_1">
     <g id="text_10">
      <!-- Large Van der Waals Volume (%) -->
      <g style="fill: #262626" transform="translate(158.47 676.874812) scale(0.24 -0.24)">
       <defs>
        <path id="ArialMT-4c" d="M 469 0 
L 469 4581 
L 1075 4581 
L 1075 541 
L 3331 541 
L 3331 0 
L 469 0 
z
" transform="scale(0.015625)"/>
        <path id="ArialMT-61" d="M 2588 409 
Q 2275 144 1986 34 
Q 1697 -75 1366 -75 
Q 819 -75 525 192 
Q 231 459 231 875 
Q 231 1119 342 1320 
Q 453 1522 633 1644 
Q 813 1766 1038 1828 
Q 1203 1872 1538 1913 
Q 2219 1994 2541 2106 
Q 2544 2222 2544 2253 
Q 2544 2597 2384 2738 
Q 2169 2928 1744 2928 
Q 1347 2928 1158 2789 
Q 969 2650 878 2297 
L 328 2372 
Q 403 2725 575 2942 
Q 747 3159 1072 3276 
Q 1397 3394 1825 3394 
Q 2250 3394 2515 3294 
Q 2781 3194 2906 3042 
Q 3031 2891 3081 2659 
Q 3109 2516 3109 2141 
L 3109 1391 
Q 3109 606 3145 398 
Q 3181 191 3288 0 
L 2700 0 
Q 2613 175 2588 409 
z
M 2541 1666 
Q 2234 1541 1622 1453 
Q 1275 1403 1131 1340 
Q 988 1278 909 1158 
Q 831 1038 831 891 
Q 831 666 1001 516 
Q 1172 366 1500 366 
Q 1825 366 2078 508 
Q 2331 650 2450 897 
Q 2541 1088 2541 1459 
L 2541 1666 
z
" transform="scale(0.015625)"/>
        <path id="ArialMT-72" d="M 416 0 
L 416 3319 
L 922 3319 
L 922 2816 
Q 1116 3169 1280 3281 
Q 1444 3394 1641 3394 
Q 1925 3394 2219 3213 
L 2025 2691 
Q 1819 2813 1613 2813 
Q 1428 2813 1281 2702 
Q 1134 2591 1072 2394 
Q 978 2094 978 1738 
L 978 0 
L 416 0 
z
" transform="scale(0.015625)"/>
        <path id="ArialMT-67" d="M 319 -275 
L 866 -356 
Q 900 -609 1056 -725 
Q 1266 -881 1628 -881 
Q 2019 -881 2231 -725 
Q 2444 -569 2519 -288 
Q 2563 -116 2559 434 
Q 2191 0 1641 0 
Q 956 0 581 494 
Q 206 988 206 1678 
Q 206 2153 378 2554 
Q 550 2956 876 3175 
Q 1203 3394 1644 3394 
Q 2231 3394 2613 2919 
L 2613 3319 
L 3131 3319 
L 3131 450 
Q 3131 -325 2973 -648 
Q 2816 -972 2473 -1159 
Q 2131 -1347 1631 -1347 
Q 1038 -1347 672 -1080 
Q 306 -813 319 -275 
z
M 784 1719 
Q 784 1066 1043 766 
Q 1303 466 1694 466 
Q 2081 466 2343 764 
Q 2606 1063 2606 1700 
Q 2606 2309 2336 2618 
Q 2066 2928 1684 2928 
Q 1309 2928 1046 2623 
Q 784 2319 784 1719 
z
" transform="scale(0.015625)"/>
        <path id="ArialMT-65" d="M 2694 1069 
L 3275 997 
Q 3138 488 2766 206 
Q 2394 -75 1816 -75 
Q 1088 -75 661 373 
Q 234 822 234 1631 
Q 234 2469 665 2931 
Q 1097 3394 1784 3394 
Q 2450 3394 2872 2941 
Q 3294 2488 3294 1666 
Q 3294 1616 3291 1516 
L 816 1516 
Q 847 969 1125 678 
Q 1403 388 1819 388 
Q 2128 388 2347 550 
Q 2566 713 2694 1069 
z
M 847 1978 
L 2700 1978 
Q 2663 2397 2488 2606 
Q 2219 2931 1791 2931 
Q 1403 2931 1139 2672 
Q 875 2413 847 1978 
z
" transform="scale(0.015625)"/>
        <path id="ArialMT-20" transform="scale(0.015625)"/>
        <path id="ArialMT-56" d="M 1803 0 
L 28 4581 
L 684 4581 
L 1875 1253 
Q 2019 853 2116 503 
Q 2222 878 2363 1253 
L 3600 4581 
L 4219 4581 
L 2425 0 
L 1803 0 
z
" transform="scale(0.015625)"/>
        <path id="ArialMT-6e" d="M 422 0 
L 422 3319 
L 928 3319 
L 928 2847 
Q 1294 3394 1984 3394 
Q 2284 3394 2536 3286 
Q 2788 3178 2913 3003 
Q 3038 2828 3088 2588 
Q 3119 2431 3119 2041 
L 3119 0 
L 2556 0 
L 2556 2019 
Q 2556 2363 2490 2533 
Q 2425 2703 2258 2804 
Q 2091 2906 1866 2906 
Q 1506 2906 1245 2678 
Q 984 2450 984 1813 
L 984 0 
L 422 0 
z
" transform="scale(0.015625)"/>
        <path id="ArialMT-64" d="M 2575 0 
L 2575 419 
Q 2259 -75 1647 -75 
Q 1250 -75 917 144 
Q 584 363 401 755 
Q 219 1147 219 1656 
Q 219 2153 384 2558 
Q 550 2963 881 3178 
Q 1213 3394 1622 3394 
Q 1922 3394 2156 3267 
Q 2391 3141 2538 2938 
L 2538 4581 
L 3097 4581 
L 3097 0 
L 2575 0 
z
M 797 1656 
Q 797 1019 1065 703 
Q 1334 388 1700 388 
Q 2069 388 2326 689 
Q 2584 991 2584 1609 
Q 2584 2291 2321 2609 
Q 2059 2928 1675 2928 
Q 1300 2928 1048 2622 
Q 797 2316 797 1656 
z
" transform="scale(0.015625)"/>
        <path id="ArialMT-57" d="M 1294 0 
L 78 4581 
L 700 4581 
L 1397 1578 
Q 1509 1106 1591 641 
Q 1766 1375 1797 1488 
L 2669 4581 
L 3400 4581 
L 4056 2263 
Q 4303 1400 4413 641 
Q 4500 1075 4641 1638 
L 5359 4581 
L 5969 4581 
L 4713 0 
L 4128 0 
L 3163 3491 
Q 3041 3928 3019 4028 
Q 2947 3713 2884 3491 
L 1913 0 
L 1294 0 
z
" transform="scale(0.015625)"/>
        <path id="ArialMT-6c" d="M 409 0 
L 409 4581 
L 972 4581 
L 972 0 
L 409 0 
z
" transform="scale(0.015625)"/>
        <path id="ArialMT-73" d="M 197 991 
L 753 1078 
Q 800 744 1014 566 
Q 1228 388 1613 388 
Q 2000 388 2187 545 
Q 2375 703 2375 916 
Q 2375 1106 2209 1216 
Q 2094 1291 1634 1406 
Q 1016 1563 777 1677 
Q 538 1791 414 1992 
Q 291 2194 291 2438 
Q 291 2659 392 2848 
Q 494 3038 669 3163 
Q 800 3259 1026 3326 
Q 1253 3394 1513 3394 
Q 1903 3394 2198 3281 
Q 2494 3169 2634 2976 
Q 2775 2784 2828 2463 
L 2278 2388 
Q 2241 2644 2061 2787 
Q 1881 2931 1553 2931 
Q 1166 2931 1000 2803 
Q 834 2675 834 2503 
Q 834 2394 903 2306 
Q 972 2216 1119 2156 
Q 1203 2125 1616 2013 
Q 2213 1853 2448 1751 
Q 2684 1650 2818 1456 
Q 2953 1263 2953 975 
Q 2953 694 2789 445 
Q 2625 197 2315 61 
Q 2006 -75 1616 -75 
Q 969 -75 630 194 
Q 291 463 197 991 
z
" transform="scale(0.015625)"/>
        <path id="ArialMT-6f" d="M 213 1659 
Q 213 2581 725 3025 
Q 1153 3394 1769 3394 
Q 2453 3394 2887 2945 
Q 3322 2497 3322 1706 
Q 3322 1066 3130 698 
Q 2938 331 2570 128 
Q 2203 -75 1769 -75 
Q 1072 -75 642 372 
Q 213 819 213 1659 
z
M 791 1659 
Q 791 1022 1069 705 
Q 1347 388 1769 388 
Q 2188 388 2466 706 
Q 2744 1025 2744 1678 
Q 2744 2294 2464 2611 
Q 2184 2928 1769 2928 
Q 1347 2928 1069 2612 
Q 791 2297 791 1659 
z
" transform="scale(0.015625)"/>
        <path id="ArialMT-75" d="M 2597 0 
L 2597 488 
Q 2209 -75 1544 -75 
Q 1250 -75 995 37 
Q 741 150 617 320 
Q 494 491 444 738 
Q 409 903 409 1263 
L 409 3319 
L 972 3319 
L 972 1478 
Q 972 1038 1006 884 
Q 1059 663 1231 536 
Q 1403 409 1656 409 
Q 1909 409 2131 539 
Q 2353 669 2445 892 
Q 2538 1116 2538 1541 
L 2538 3319 
L 3100 3319 
L 3100 0 
L 2597 0 
z
" transform="scale(0.015625)"/>
        <path id="ArialMT-6d" d="M 422 0 
L 422 3319 
L 925 3319 
L 925 2853 
Q 1081 3097 1340 3245 
Q 1600 3394 1931 3394 
Q 2300 3394 2536 3241 
Q 2772 3088 2869 2813 
Q 3263 3394 3894 3394 
Q 4388 3394 4653 3120 
Q 4919 2847 4919 2278 
L 4919 0 
L 4359 0 
L 4359 2091 
Q 4359 2428 4304 2576 
Q 4250 2725 4106 2815 
Q 3963 2906 3769 2906 
Q 3419 2906 3187 2673 
Q 2956 2441 2956 1928 
L 2956 0 
L 2394 0 
L 2394 2156 
Q 2394 2531 2256 2718 
Q 2119 2906 1806 2906 
Q 1569 2906 1367 2781 
Q 1166 2656 1075 2415 
Q 984 2175 984 1722 
L 984 0 
L 422 0 
z
" transform="scale(0.015625)"/>
        <path id="ArialMT-28" d="M 1497 -1347 
Q 1031 -759 709 28 
Q 388 816 388 1659 
Q 388 2403 628 3084 
Q 909 3875 1497 4659 
L 1900 4659 
Q 1522 4009 1400 3731 
Q 1209 3300 1100 2831 
Q 966 2247 966 1656 
Q 966 153 1900 -1347 
L 1497 -1347 
z
" transform="scale(0.015625)"/>
        <path id="ArialMT-25" d="M 372 3481 
Q 372 3972 619 4315 
Q 866 4659 1334 4659 
Q 1766 4659 2048 4351 
Q 2331 4044 2331 3447 
Q 2331 2866 2045 2552 
Q 1759 2238 1341 2238 
Q 925 2238 648 2547 
Q 372 2856 372 3481 
z
M 1350 4272 
Q 1141 4272 1002 4090 
Q 863 3909 863 3425 
Q 863 2984 1003 2804 
Q 1144 2625 1350 2625 
Q 1563 2625 1702 2806 
Q 1841 2988 1841 3469 
Q 1841 3913 1700 4092 
Q 1559 4272 1350 4272 
z
M 1353 -169 
L 3859 4659 
L 4316 4659 
L 1819 -169 
L 1353 -169 
z
M 3334 1075 
Q 3334 1569 3581 1911 
Q 3828 2253 4300 2253 
Q 4731 2253 5014 1945 
Q 5297 1638 5297 1041 
Q 5297 459 5011 145 
Q 4725 -169 4303 -169 
Q 3888 -169 3611 142 
Q 3334 453 3334 1075 
z
M 4316 1866 
Q 4103 1866 3964 1684 
Q 3825 1503 3825 1019 
Q 3825 581 3965 400 
Q 4106 219 4313 219 
Q 4528 219 4667 400 
Q 4806 581 4806 1063 
Q 4806 1506 4665 1686 
Q 4525 1866 4316 1866 
z
" transform="scale(0.015625)"/>
        <path id="ArialMT-29" d="M 791 -1347 
L 388 -1347 
Q 1322 153 1322 1656 
Q 1322 2244 1188 2822 
Q 1081 3291 891 3722 
Q 769 4003 388 4659 
L 791 4659 
Q 1378 3875 1659 3084 
Q 1900 2403 1900 1659 
Q 1900 816 1576 28 
Q 1253 -759 791 -1347 
z
" transform="scale(0.015625)"/>
       </defs>
       <use xlink:href="#ArialMT-4c"/>
       <use xlink:href="#ArialMT-61" transform="translate(55.615234 0)"/>
       <use xlink:href="#ArialMT-72" transform="translate(111.230469 0)"/>
       <use xlink:href="#ArialMT-67" transform="translate(144.53125 0)"/>
       <use xlink:href="#ArialMT-65" transform="translate(200.146484 0)"/>
       <use xlink:href="#ArialMT-20" transform="translate(255.761719 0)"/>
       <use xlink:href="#ArialMT-56" transform="translate(283.544922 0)"/>
       <use xlink:href="#ArialMT-61" transform="translate(342.869141 0)"/>
       <use xlink:href="#ArialMT-6e" transform="translate(398.484375 0)"/>
       <use xlink:href="#ArialMT-20" transform="translate(454.099609 0)"/>
       <use xlink:href="#ArialMT-64" transform="translate(481.882812 0)"/>
       <use xlink:href="#ArialMT-65" transform="translate(537.498047 0)"/>
       <use xlink:href="#ArialMT-72" transform="translate(593.113281 0)"/>
       <use xlink:href="#ArialMT-20" transform="translate(626.414062 0)"/>
       <use xlink:href="#ArialMT-57" transform="translate(654.197266 0)"/>
       <use xlink:href="#ArialMT-61" transform="translate(744.832031 0)"/>
       <use xlink:href="#ArialMT-61" transform="translate(800.447266 0)"/>
       <use xlink:href="#ArialMT-6c" transform="translate(856.0625 0)"/>
       <use xlink:href="#ArialMT-73" transform="translate(878.279297 0)"/>
       <use xlink:href="#ArialMT-20" transform="translate(928.279297 0)"/>
       <use xlink:href="#ArialMT-56" transform="translate(956.0625 0)"/>
       <use xlink:href="#ArialMT-6f" transform="translate(1017.261719 0)"/>
       <use xlink:href="#ArialMT-6c" transform="translate(1072.876953 0)"/>
       <use xlink:href="#ArialMT-75" transform="translate(1095.09375 0)"/>
       <use xlink:href="#ArialMT-6d" transform="translate(1150.708984 0)"/>
       <use xlink:href="#ArialMT-65" transform="translate(1234.009766 0)"/>
       <use xlink:href="#ArialMT-20" transform="translate(1289.625 0)"/>
       <use xlink:href="#ArialMT-28" transform="translate(1317.408203 0)"/>
       <use xlink:href="#ArialMT-25" transform="translate(1350.708984 0)"/>
       <use xlink:href="#ArialMT-29" transform="translate(1439.625 0)"/>
      </g>
     </g>
    </g>
    <g id="ytick_2">
     <g id="text_11">
      <!-- AAC - Tryptophan -->
      <g style="fill: #262626" transform="translate(321.20125 644.258812) scale(0.24 -0.24)">
       <defs>
        <path id="ArialMT-41" d="M -9 0 
L 1750 4581 
L 2403 4581 
L 4278 0 
L 3588 0 
L 3053 1388 
L 1138 1388 
L 634 0 
L -9 0 
z
M 1313 1881 
L 2866 1881 
L 2388 3150 
Q 2169 3728 2063 4100 
Q 1975 3659 1816 3225 
L 1313 1881 
z
" transform="scale(0.015625)"/>
        <path id="ArialMT-43" d="M 3763 1606 
L 4369 1453 
Q 4178 706 3683 314 
Q 3188 -78 2472 -78 
Q 1731 -78 1267 223 
Q 803 525 561 1097 
Q 319 1669 319 2325 
Q 319 3041 592 3573 
Q 866 4106 1370 4382 
Q 1875 4659 2481 4659 
Q 3169 4659 3637 4309 
Q 4106 3959 4291 3325 
L 3694 3184 
Q 3534 3684 3231 3912 
Q 2928 4141 2469 4141 
Q 1941 4141 1586 3887 
Q 1231 3634 1087 3207 
Q 944 2781 944 2328 
Q 944 1744 1114 1308 
Q 1284 872 1643 656 
Q 2003 441 2422 441 
Q 2931 441 3284 734 
Q 3638 1028 3763 1606 
z
" transform="scale(0.015625)"/>
        <path id="ArialMT-2d" d="M 203 1375 
L 203 1941 
L 1931 1941 
L 1931 1375 
L 203 1375 
z
" transform="scale(0.015625)"/>
        <path id="ArialMT-54" d="M 1659 0 
L 1659 4041 
L 150 4041 
L 150 4581 
L 3781 4581 
L 3781 4041 
L 2266 4041 
L 2266 0 
L 1659 0 
z
" transform="scale(0.015625)"/>
        <path id="ArialMT-79" d="M 397 -1278 
L 334 -750 
Q 519 -800 656 -800 
Q 844 -800 956 -737 
Q 1069 -675 1141 -563 
Q 1194 -478 1313 -144 
Q 1328 -97 1363 -6 
L 103 3319 
L 709 3319 
L 1400 1397 
Q 1534 1031 1641 628 
Q 1738 1016 1872 1384 
L 2581 3319 
L 3144 3319 
L 1881 -56 
Q 1678 -603 1566 -809 
Q 1416 -1088 1222 -1217 
Q 1028 -1347 759 -1347 
Q 597 -1347 397 -1278 
z
" transform="scale(0.015625)"/>
        <path id="ArialMT-70" d="M 422 -1272 
L 422 3319 
L 934 3319 
L 934 2888 
Q 1116 3141 1344 3267 
Q 1572 3394 1897 3394 
Q 2322 3394 2647 3175 
Q 2972 2956 3137 2557 
Q 3303 2159 3303 1684 
Q 3303 1175 3120 767 
Q 2938 359 2589 142 
Q 2241 -75 1856 -75 
Q 1575 -75 1351 44 
Q 1128 163 984 344 
L 984 -1272 
L 422 -1272 
z
M 931 1641 
Q 931 1000 1190 694 
Q 1450 388 1819 388 
Q 2194 388 2461 705 
Q 2728 1022 2728 1688 
Q 2728 2322 2467 2637 
Q 2206 2953 1844 2953 
Q 1484 2953 1207 2617 
Q 931 2281 931 1641 
z
" transform="scale(0.015625)"/>
        <path id="ArialMT-74" d="M 1650 503 
L 1731 6 
Q 1494 -44 1306 -44 
Q 1000 -44 831 53 
Q 663 150 594 308 
Q 525 466 525 972 
L 525 2881 
L 113 2881 
L 113 3319 
L 525 3319 
L 525 4141 
L 1084 4478 
L 1084 3319 
L 1650 3319 
L 1650 2881 
L 1084 2881 
L 1084 941 
Q 1084 700 1114 631 
Q 1144 563 1211 522 
Q 1278 481 1403 481 
Q 1497 481 1650 503 
z
" transform="scale(0.015625)"/>
        <path id="ArialMT-68" d="M 422 0 
L 422 4581 
L 984 4581 
L 984 2938 
Q 1378 3394 1978 3394 
Q 2347 3394 2619 3248 
Q 2891 3103 3008 2847 
Q 3125 2591 3125 2103 
L 3125 0 
L 2563 0 
L 2563 2103 
Q 2563 2525 2380 2717 
Q 2197 2909 1863 2909 
Q 1613 2909 1392 2779 
Q 1172 2650 1078 2428 
Q 984 2206 984 1816 
L 984 0 
L 422 0 
z
" transform="scale(0.015625)"/>
       </defs>
       <use xlink:href="#ArialMT-41"/>
       <use xlink:href="#ArialMT-41" transform="translate(66.699219 0)"/>
       <use xlink:href="#ArialMT-43" transform="translate(133.398438 0)"/>
       <use xlink:href="#ArialMT-20" transform="translate(205.615234 0)"/>
       <use xlink:href="#ArialMT-2d" transform="translate(233.398438 0)"/>
       <use xlink:href="#ArialMT-20" transform="translate(266.699219 0)"/>
       <use xlink:href="#ArialMT-54" transform="translate(292.732422 0)"/>
       <use xlink:href="#ArialMT-72" transform="translate(350.066406 0)"/>
       <use xlink:href="#ArialMT-79" transform="translate(383.367188 0)"/>
       <use xlink:href="#ArialMT-70" transform="translate(433.367188 0)"/>
       <use xlink:href="#ArialMT-74" transform="translate(488.982422 0)"/>
       <use xlink:href="#ArialMT-6f" transform="translate(516.765625 0)"/>
       <use xlink:href="#ArialMT-70" transform="translate(572.380859 0)"/>
       <use xlink:href="#ArialMT-68" transform="translate(627.996094 0)"/>
       <use xlink:href="#ArialMT-61" transform="translate(683.611328 0)"/>
       <use xlink:href="#ArialMT-6e" transform="translate(739.226562 0)"/>
      </g>
     </g>
    </g>
    <g id="ytick_3">
     <g id="text_12">
      <!-- AAC - Aromatic Residues (%) -->
      <g style="fill: #262626" transform="translate(197.20375 611.642812) scale(0.24 -0.24)">
       <defs>
        <path id="ArialMT-69" d="M 425 3934 
L 425 4581 
L 988 4581 
L 988 3934 
L 425 3934 
z
M 425 0 
L 425 3319 
L 988 3319 
L 988 0 
L 425 0 
z
" transform="scale(0.015625)"/>
        <path id="ArialMT-63" d="M 2588 1216 
L 3141 1144 
Q 3050 572 2676 248 
Q 2303 -75 1759 -75 
Q 1078 -75 664 370 
Q 250 816 250 1647 
Q 250 2184 428 2587 
Q 606 2991 970 3192 
Q 1334 3394 1763 3394 
Q 2303 3394 2647 3120 
Q 2991 2847 3088 2344 
L 2541 2259 
Q 2463 2594 2264 2762 
Q 2066 2931 1784 2931 
Q 1359 2931 1093 2626 
Q 828 2322 828 1663 
Q 828 994 1084 691 
Q 1341 388 1753 388 
Q 2084 388 2306 591 
Q 2528 794 2588 1216 
z
" transform="scale(0.015625)"/>
        <path id="ArialMT-52" d="M 503 0 
L 503 4581 
L 2534 4581 
Q 3147 4581 3465 4457 
Q 3784 4334 3975 4021 
Q 4166 3709 4166 3331 
Q 4166 2844 3850 2509 
Q 3534 2175 2875 2084 
Q 3116 1969 3241 1856 
Q 3506 1613 3744 1247 
L 4541 0 
L 3778 0 
L 3172 953 
Q 2906 1366 2734 1584 
Q 2563 1803 2427 1890 
Q 2291 1978 2150 2013 
Q 2047 2034 1813 2034 
L 1109 2034 
L 1109 0 
L 503 0 
z
M 1109 2559 
L 2413 2559 
Q 2828 2559 3062 2645 
Q 3297 2731 3419 2920 
Q 3541 3109 3541 3331 
Q 3541 3656 3305 3865 
Q 3069 4075 2559 4075 
L 1109 4075 
L 1109 2559 
z
" transform="scale(0.015625)"/>
       </defs>
       <use xlink:href="#ArialMT-41"/>
       <use xlink:href="#ArialMT-41" transform="translate(66.699219 0)"/>
       <use xlink:href="#ArialMT-43" transform="translate(133.398438 0)"/>
       <use xlink:href="#ArialMT-20" transform="translate(205.615234 0)"/>
       <use xlink:href="#ArialMT-2d" transform="translate(233.398438 0)"/>
       <use xlink:href="#ArialMT-20" transform="translate(266.699219 0)"/>
       <use xlink:href="#ArialMT-41" transform="translate(288.982422 0)"/>
       <use xlink:href="#ArialMT-72" transform="translate(355.681641 0)"/>
       <use xlink:href="#ArialMT-6f" transform="translate(388.982422 0)"/>
       <use xlink:href="#ArialMT-6d" transform="translate(444.597656 0)"/>
       <use xlink:href="#ArialMT-61" transform="translate(527.898438 0)"/>
       <use xlink:href="#ArialMT-74" transform="translate(583.513672 0)"/>
       <use xlink:href="#ArialMT-69" transform="translate(611.296875 0)"/>
       <use xlink:href="#ArialMT-63" transform="translate(633.513672 0)"/>
       <use xlink:href="#ArialMT-20" transform="translate(683.513672 0)"/>
       <use xlink:href="#ArialMT-52" transform="translate(711.296875 0)"/>
       <use xlink:href="#ArialMT-65" transform="translate(783.513672 0)"/>
       <use xlink:href="#ArialMT-73" transform="translate(839.128906 0)"/>
       <use xlink:href="#ArialMT-69" transform="translate(889.128906 0)"/>
       <use xlink:href="#ArialMT-64" transform="translate(911.345703 0)"/>
       <use xlink:href="#ArialMT-75" transform="translate(966.960938 0)"/>
       <use xlink:href="#ArialMT-65" transform="translate(1022.576172 0)"/>
       <use xlink:href="#ArialMT-73" transform="translate(1078.191406 0)"/>
       <use xlink:href="#ArialMT-20" transform="translate(1128.191406 0)"/>
       <use xlink:href="#ArialMT-28" transform="translate(1155.974609 0)"/>
       <use xlink:href="#ArialMT-25" transform="translate(1189.275391 0)"/>
       <use xlink:href="#ArialMT-29" transform="translate(1278.191406 0)"/>
      </g>
     </g>
    </g>
    <g id="ytick_4">
     <g id="text_13">
      <!-- Transition Volume: Small/Large -->
      <g style="fill: #262626" transform="translate(179.37625 579.026812) scale(0.24 -0.24)">
       <defs>
        <path id="ArialMT-3a" d="M 578 2678 
L 578 3319 
L 1219 3319 
L 1219 2678 
L 578 2678 
z
M 578 0 
L 578 641 
L 1219 641 
L 1219 0 
L 578 0 
z
" transform="scale(0.015625)"/>
        <path id="ArialMT-53" d="M 288 1472 
L 859 1522 
Q 900 1178 1048 958 
Q 1197 738 1509 602 
Q 1822 466 2213 466 
Q 2559 466 2825 569 
Q 3091 672 3220 851 
Q 3350 1031 3350 1244 
Q 3350 1459 3225 1620 
Q 3100 1781 2813 1891 
Q 2628 1963 1997 2114 
Q 1366 2266 1113 2400 
Q 784 2572 623 2826 
Q 463 3081 463 3397 
Q 463 3744 659 4045 
Q 856 4347 1234 4503 
Q 1613 4659 2075 4659 
Q 2584 4659 2973 4495 
Q 3363 4331 3572 4012 
Q 3781 3694 3797 3291 
L 3216 3247 
Q 3169 3681 2898 3903 
Q 2628 4125 2100 4125 
Q 1550 4125 1298 3923 
Q 1047 3722 1047 3438 
Q 1047 3191 1225 3031 
Q 1400 2872 2139 2705 
Q 2878 2538 3153 2413 
Q 3553 2228 3743 1945 
Q 3934 1663 3934 1294 
Q 3934 928 3725 604 
Q 3516 281 3123 101 
Q 2731 -78 2241 -78 
Q 1619 -78 1198 103 
Q 778 284 539 648 
Q 300 1013 288 1472 
z
" transform="scale(0.015625)"/>
        <path id="ArialMT-2f" d="M 0 -78 
L 1328 4659 
L 1778 4659 
L 453 -78 
L 0 -78 
z
" transform="scale(0.015625)"/>
       </defs>
       <use xlink:href="#ArialMT-54"/>
       <use xlink:href="#ArialMT-72" transform="translate(57.333984 0)"/>
       <use xlink:href="#ArialMT-61" transform="translate(90.634766 0)"/>
       <use xlink:href="#ArialMT-6e" transform="translate(146.25 0)"/>
       <use xlink:href="#ArialMT-73" transform="translate(201.865234 0)"/>
       <use xlink:href="#ArialMT-69" transform="translate(251.865234 0)"/>
       <use xlink:href="#ArialMT-74" transform="translate(274.082031 0)"/>
       <use xlink:href="#ArialMT-69" transform="translate(301.865234 0)"/>
       <use xlink:href="#ArialMT-6f" transform="translate(324.082031 0)"/>
       <use xlink:href="#ArialMT-6e" transform="translate(379.697266 0)"/>
       <use xlink:href="#ArialMT-20" transform="translate(435.3125 0)"/>
       <use xlink:href="#ArialMT-56" transform="translate(463.095703 0)"/>
       <use xlink:href="#ArialMT-6f" transform="translate(524.294922 0)"/>
       <use xlink:href="#ArialMT-6c" transform="translate(579.910156 0)"/>
       <use xlink:href="#ArialMT-75" transform="translate(602.126953 0)"/>
       <use xlink:href="#ArialMT-6d" transform="translate(657.742188 0)"/>
       <use xlink:href="#ArialMT-65" transform="translate(741.042969 0)"/>
       <use xlink:href="#ArialMT-3a" transform="translate(796.658203 0)"/>
       <use xlink:href="#ArialMT-20" transform="translate(824.441406 0)"/>
       <use xlink:href="#ArialMT-53" transform="translate(852.224609 0)"/>
       <use xlink:href="#ArialMT-6d" transform="translate(918.923828 0)"/>
       <use xlink:href="#ArialMT-61" transform="translate(1002.224609 0)"/>
       <use xlink:href="#ArialMT-6c" transform="translate(1057.839844 0)"/>
       <use xlink:href="#ArialMT-6c" transform="translate(1080.056641 0)"/>
       <use xlink:href="#ArialMT-2f" transform="translate(1102.273438 0)"/>
       <use xlink:href="#ArialMT-4c" transform="translate(1130.056641 0)"/>
       <use xlink:href="#ArialMT-61" transform="translate(1185.671875 0)"/>
       <use xlink:href="#ArialMT-72" transform="translate(1241.287109 0)"/>
       <use xlink:href="#ArialMT-67" transform="translate(1274.587891 0)"/>
       <use xlink:href="#ArialMT-65" transform="translate(1330.203125 0)"/>
      </g>
     </g>
    </g>
    <g id="ytick_5">
     <g id="text_14">
      <!-- AAC - Basic Residues (%) -->
      <g style="fill: #262626" transform="translate(231.88 546.410812) scale(0.24 -0.24)">
       <defs>
        <path id="ArialMT-42" d="M 469 0 
L 469 4581 
L 2188 4581 
Q 2713 4581 3030 4442 
Q 3347 4303 3526 4014 
Q 3706 3725 3706 3409 
Q 3706 3116 3547 2856 
Q 3388 2597 3066 2438 
Q 3481 2316 3704 2022 
Q 3928 1728 3928 1328 
Q 3928 1006 3792 729 
Q 3656 453 3456 303 
Q 3256 153 2954 76 
Q 2653 0 2216 0 
L 469 0 
z
M 1075 2656 
L 2066 2656 
Q 2469 2656 2644 2709 
Q 2875 2778 2992 2937 
Q 3109 3097 3109 3338 
Q 3109 3566 3000 3739 
Q 2891 3913 2687 3977 
Q 2484 4041 1991 4041 
L 1075 4041 
L 1075 2656 
z
M 1075 541 
L 2216 541 
Q 2509 541 2628 563 
Q 2838 600 2978 687 
Q 3119 775 3209 942 
Q 3300 1109 3300 1328 
Q 3300 1584 3169 1773 
Q 3038 1963 2805 2039 
Q 2572 2116 2134 2116 
L 1075 2116 
L 1075 541 
z
" transform="scale(0.015625)"/>
       </defs>
       <use xlink:href="#ArialMT-41"/>
       <use xlink:href="#ArialMT-41" transform="translate(66.699219 0)"/>
       <use xlink:href="#ArialMT-43" transform="translate(133.398438 0)"/>
       <use xlink:href="#ArialMT-20" transform="translate(205.615234 0)"/>
       <use xlink:href="#ArialMT-2d" transform="translate(233.398438 0)"/>
       <use xlink:href="#ArialMT-20" transform="translate(266.699219 0)"/>
       <use xlink:href="#ArialMT-42" transform="translate(294.482422 0)"/>
       <use xlink:href="#ArialMT-61" transform="translate(361.181641 0)"/>
       <use xlink:href="#ArialMT-73" transform="translate(416.796875 0)"/>
       <use xlink:href="#ArialMT-69" transform="translate(466.796875 0)"/>
       <use xlink:href="#ArialMT-63" transform="translate(489.013672 0)"/>
       <use xlink:href="#ArialMT-20" transform="translate(539.013672 0)"/>
       <use xlink:href="#ArialMT-52" transform="translate(566.796875 0)"/>
       <use xlink:href="#ArialMT-65" transform="translate(639.013672 0)"/>
       <use xlink:href="#ArialMT-73" transform="translate(694.628906 0)"/>
       <use xlink:href="#ArialMT-69" transform="translate(744.628906 0)"/>
       <use xlink:href="#ArialMT-64" transform="translate(766.845703 0)"/>
       <use xlink:href="#ArialMT-75" transform="translate(822.460938 0)"/>
       <use xlink:href="#ArialMT-65" transform="translate(878.076172 0)"/>
       <use xlink:href="#ArialMT-73" transform="translate(933.691406 0)"/>
       <use xlink:href="#ArialMT-20" transform="translate(983.691406 0)"/>
       <use xlink:href="#ArialMT-28" transform="translate(1011.474609 0)"/>
       <use xlink:href="#ArialMT-25" transform="translate(1044.775391 0)"/>
       <use xlink:href="#ArialMT-29" transform="translate(1133.691406 0)"/>
      </g>
     </g>
    </g>
    <g id="ytick_6">
     <g id="text_15">
      <!-- Protein Level (Liver) -->
      <g style="fill: #262626" transform="translate(297.20875 513.794812) scale(0.24 -0.24)">
       <defs>
        <path id="ArialMT-50" d="M 494 0 
L 494 4581 
L 2222 4581 
Q 2678 4581 2919 4538 
Q 3256 4481 3484 4323 
Q 3713 4166 3852 3881 
Q 3991 3597 3991 3256 
Q 3991 2672 3619 2267 
Q 3247 1863 2275 1863 
L 1100 1863 
L 1100 0 
L 494 0 
z
M 1100 2403 
L 2284 2403 
Q 2872 2403 3119 2622 
Q 3366 2841 3366 3238 
Q 3366 3525 3220 3729 
Q 3075 3934 2838 4000 
Q 2684 4041 2272 4041 
L 1100 4041 
L 1100 2403 
z
" transform="scale(0.015625)"/>
        <path id="ArialMT-76" d="M 1344 0 
L 81 3319 
L 675 3319 
L 1388 1331 
Q 1503 1009 1600 663 
Q 1675 925 1809 1294 
L 2547 3319 
L 3125 3319 
L 1869 0 
L 1344 0 
z
" transform="scale(0.015625)"/>
       </defs>
       <use xlink:href="#ArialMT-50"/>
       <use xlink:href="#ArialMT-72" transform="translate(66.699219 0)"/>
       <use xlink:href="#ArialMT-6f" transform="translate(100 0)"/>
       <use xlink:href="#ArialMT-74" transform="translate(155.615234 0)"/>
       <use xlink:href="#ArialMT-65" transform="translate(183.398438 0)"/>
       <use xlink:href="#ArialMT-69" transform="translate(239.013672 0)"/>
       <use xlink:href="#ArialMT-6e" transform="translate(261.230469 0)"/>
       <use xlink:href="#ArialMT-20" transform="translate(316.845703 0)"/>
       <use xlink:href="#ArialMT-4c" transform="translate(344.628906 0)"/>
       <use xlink:href="#ArialMT-65" transform="translate(400.244141 0)"/>
       <use xlink:href="#ArialMT-76" transform="translate(455.859375 0)"/>
       <use xlink:href="#ArialMT-65" transform="translate(505.859375 0)"/>
       <use xlink:href="#ArialMT-6c" transform="translate(561.474609 0)"/>
       <use xlink:href="#ArialMT-20" transform="translate(583.691406 0)"/>
       <use xlink:href="#ArialMT-28" transform="translate(611.474609 0)"/>
       <use xlink:href="#ArialMT-4c" transform="translate(644.775391 0)"/>
       <use xlink:href="#ArialMT-69" transform="translate(700.390625 0)"/>
       <use xlink:href="#ArialMT-76" transform="translate(722.607422 0)"/>
       <use xlink:href="#ArialMT-65" transform="translate(772.607422 0)"/>
       <use xlink:href="#ArialMT-72" transform="translate(828.222656 0)"/>
       <use xlink:href="#ArialMT-29" transform="translate(861.523438 0)"/>
      </g>
     </g>
    </g>
    <g id="ytick_7">
     <g id="text_16">
      <!-- AAC - Histidine -->
      <g style="fill: #262626" transform="translate(349.24 481.032562) scale(0.24 -0.24)">
       <defs>
        <path id="ArialMT-48" d="M 513 0 
L 513 4581 
L 1119 4581 
L 1119 2700 
L 3500 2700 
L 3500 4581 
L 4106 4581 
L 4106 0 
L 3500 0 
L 3500 2159 
L 1119 2159 
L 1119 0 
L 513 0 
z
" transform="scale(0.015625)"/>
       </defs>
       <use xlink:href="#ArialMT-41"/>
       <use xlink:href="#ArialMT-41" transform="translate(66.699219 0)"/>
       <use xlink:href="#ArialMT-43" transform="translate(133.398438 0)"/>
       <use xlink:href="#ArialMT-20" transform="translate(205.615234 0)"/>
       <use xlink:href="#ArialMT-2d" transform="translate(233.398438 0)"/>
       <use xlink:href="#ArialMT-20" transform="translate(266.699219 0)"/>
       <use xlink:href="#ArialMT-48" transform="translate(294.482422 0)"/>
       <use xlink:href="#ArialMT-69" transform="translate(366.699219 0)"/>
       <use xlink:href="#ArialMT-73" transform="translate(388.916016 0)"/>
       <use xlink:href="#ArialMT-74" transform="translate(438.916016 0)"/>
       <use xlink:href="#ArialMT-69" transform="translate(466.699219 0)"/>
       <use xlink:href="#ArialMT-64" transform="translate(488.916016 0)"/>
       <use xlink:href="#ArialMT-69" transform="translate(544.53125 0)"/>
       <use xlink:href="#ArialMT-6e" transform="translate(566.748047 0)"/>
       <use xlink:href="#ArialMT-65" transform="translate(622.363281 0)"/>
      </g>
     </g>
    </g>
    <g id="ytick_8">
     <g id="text_17">
      <!-- AAC - Arginine -->
      <g style="fill: #262626" transform="translate(354.54625 448.562812) scale(0.24 -0.24)">
       <use xlink:href="#ArialMT-41"/>
       <use xlink:href="#ArialMT-41" transform="translate(66.699219 0)"/>
       <use xlink:href="#ArialMT-43" transform="translate(133.398438 0)"/>
       <use xlink:href="#ArialMT-20" transform="translate(205.615234 0)"/>
       <use xlink:href="#ArialMT-2d" transform="translate(233.398438 0)"/>
       <use xlink:href="#ArialMT-20" transform="translate(266.699219 0)"/>
       <use xlink:href="#ArialMT-41" transform="translate(288.982422 0)"/>
       <use xlink:href="#ArialMT-72" transform="translate(355.681641 0)"/>
       <use xlink:href="#ArialMT-67" transform="translate(388.982422 0)"/>
       <use xlink:href="#ArialMT-69" transform="translate(444.597656 0)"/>
       <use xlink:href="#ArialMT-6e" transform="translate(466.814453 0)"/>
       <use xlink:href="#ArialMT-69" transform="translate(522.429688 0)"/>
       <use xlink:href="#ArialMT-6e" transform="translate(544.646484 0)"/>
       <use xlink:href="#ArialMT-65" transform="translate(600.261719 0)"/>
      </g>
     </g>
    </g>
    <g id="ytick_9">
     <g id="text_18">
      <!-- AAC - Charged Residues (%) -->
      <g style="fill: #262626" transform="translate(198.5125 415.946812) scale(0.24 -0.24)">
       <use xlink:href="#ArialMT-41"/>
       <use xlink:href="#ArialMT-41" transform="translate(66.699219 0)"/>
       <use xlink:href="#ArialMT-43" transform="translate(133.398438 0)"/>
       <use xlink:href="#ArialMT-20" transform="translate(205.615234 0)"/>
       <use xlink:href="#ArialMT-2d" transform="translate(233.398438 0)"/>
       <use xlink:href="#ArialMT-20" transform="translate(266.699219 0)"/>
       <use xlink:href="#ArialMT-43" transform="translate(294.482422 0)"/>
       <use xlink:href="#ArialMT-68" transform="translate(366.699219 0)"/>
       <use xlink:href="#ArialMT-61" transform="translate(422.314453 0)"/>
       <use xlink:href="#ArialMT-72" transform="translate(477.929688 0)"/>
       <use xlink:href="#ArialMT-67" transform="translate(511.230469 0)"/>
       <use xlink:href="#ArialMT-65" transform="translate(566.845703 0)"/>
       <use xlink:href="#ArialMT-64" transform="translate(622.460938 0)"/>
       <use xlink:href="#ArialMT-20" transform="translate(678.076172 0)"/>
       <use xlink:href="#ArialMT-52" transform="translate(705.859375 0)"/>
       <use xlink:href="#ArialMT-65" transform="translate(778.076172 0)"/>
       <use xlink:href="#ArialMT-73" transform="translate(833.691406 0)"/>
       <use xlink:href="#ArialMT-69" transform="translate(883.691406 0)"/>
       <use xlink:href="#ArialMT-64" transform="translate(905.908203 0)"/>
       <use xlink:href="#ArialMT-75" transform="translate(961.523438 0)"/>
       <use xlink:href="#ArialMT-65" transform="translate(1017.138672 0)"/>
       <use xlink:href="#ArialMT-73" transform="translate(1072.753906 0)"/>
       <use xlink:href="#ArialMT-20" transform="translate(1122.753906 0)"/>
       <use xlink:href="#ArialMT-28" transform="translate(1150.537109 0)"/>
       <use xlink:href="#ArialMT-25" transform="translate(1183.837891 0)"/>
       <use xlink:href="#ArialMT-29" transform="translate(1272.753906 0)"/>
      </g>
     </g>
    </g>
    <g id="ytick_10">
     <g id="text_19">
      <!-- Transition Secondary Structure: Strand/Coil -->
      <g style="fill: #262626" transform="translate(50.00125 383.330812) scale(0.24 -0.24)">
       <use xlink:href="#ArialMT-54"/>
       <use xlink:href="#ArialMT-72" transform="translate(57.333984 0)"/>
       <use xlink:href="#ArialMT-61" transform="translate(90.634766 0)"/>
       <use xlink:href="#ArialMT-6e" transform="translate(146.25 0)"/>
       <use xlink:href="#ArialMT-73" transform="translate(201.865234 0)"/>
       <use xlink:href="#ArialMT-69" transform="translate(251.865234 0)"/>
       <use xlink:href="#ArialMT-74" transform="translate(274.082031 0)"/>
       <use xlink:href="#ArialMT-69" transform="translate(301.865234 0)"/>
       <use xlink:href="#ArialMT-6f" transform="translate(324.082031 0)"/>
       <use xlink:href="#ArialMT-6e" transform="translate(379.697266 0)"/>
       <use xlink:href="#ArialMT-20" transform="translate(435.3125 0)"/>
       <use xlink:href="#ArialMT-53" transform="translate(463.095703 0)"/>
       <use xlink:href="#ArialMT-65" transform="translate(529.794922 0)"/>
       <use xlink:href="#ArialMT-63" transform="translate(585.410156 0)"/>
       <use xlink:href="#ArialMT-6f" transform="translate(635.410156 0)"/>
       <use xlink:href="#ArialMT-6e" transform="translate(691.025391 0)"/>
       <use xlink:href="#ArialMT-64" transform="translate(746.640625 0)"/>
       <use xlink:href="#ArialMT-61" transform="translate(802.255859 0)"/>
       <use xlink:href="#ArialMT-72" transform="translate(857.871094 0)"/>
       <use xlink:href="#ArialMT-79" transform="translate(891.171875 0)"/>
       <use xlink:href="#ArialMT-20" transform="translate(941.171875 0)"/>
       <use xlink:href="#ArialMT-53" transform="translate(968.955078 0)"/>
       <use xlink:href="#ArialMT-74" transform="translate(1035.654297 0)"/>
       <use xlink:href="#ArialMT-72" transform="translate(1063.4375 0)"/>
       <use xlink:href="#ArialMT-75" transform="translate(1096.738281 0)"/>
       <use xlink:href="#ArialMT-63" transform="translate(1152.353516 0)"/>
       <use xlink:href="#ArialMT-74" transform="translate(1202.353516 0)"/>
       <use xlink:href="#ArialMT-75" transform="translate(1230.136719 0)"/>
       <use xlink:href="#ArialMT-72" transform="translate(1285.751953 0)"/>
       <use xlink:href="#ArialMT-65" transform="translate(1319.052734 0)"/>
       <use xlink:href="#ArialMT-3a" transform="translate(1374.667969 0)"/>
       <use xlink:href="#ArialMT-20" transform="translate(1402.451172 0)"/>
       <use xlink:href="#ArialMT-53" transform="translate(1430.234375 0)"/>
       <use xlink:href="#ArialMT-74" transform="translate(1496.933594 0)"/>
       <use xlink:href="#ArialMT-72" transform="translate(1524.716797 0)"/>
       <use xlink:href="#ArialMT-61" transform="translate(1558.017578 0)"/>
       <use xlink:href="#ArialMT-6e" transform="translate(1613.632812 0)"/>
       <use xlink:href="#ArialMT-64" transform="translate(1669.248047 0)"/>
       <use xlink:href="#ArialMT-2f" transform="translate(1724.863281 0)"/>
       <use xlink:href="#ArialMT-43" transform="translate(1752.646484 0)"/>
       <use xlink:href="#ArialMT-6f" transform="translate(1824.863281 0)"/>
       <use xlink:href="#ArialMT-69" transform="translate(1880.478516 0)"/>
       <use xlink:href="#ArialMT-6c" transform="translate(1902.695312 0)"/>
      </g>
     </g>
    </g>
    <g id="ytick_11">
     <g id="text_20">
      <!-- Molecular Weight (Da) -->
      <g style="fill: #262626" transform="translate(273.65125 350.714812) scale(0.24 -0.24)">
       <defs>
        <path id="ArialMT-4d" d="M 475 0 
L 475 4581 
L 1388 4581 
L 2472 1338 
Q 2622 884 2691 659 
Q 2769 909 2934 1394 
L 4031 4581 
L 4847 4581 
L 4847 0 
L 4263 0 
L 4263 3834 
L 2931 0 
L 2384 0 
L 1059 3900 
L 1059 0 
L 475 0 
z
" transform="scale(0.015625)"/>
        <path id="ArialMT-44" d="M 494 0 
L 494 4581 
L 2072 4581 
Q 2606 4581 2888 4516 
Q 3281 4425 3559 4188 
Q 3922 3881 4101 3404 
Q 4281 2928 4281 2316 
Q 4281 1794 4159 1391 
Q 4038 988 3847 723 
Q 3656 459 3429 307 
Q 3203 156 2883 78 
Q 2563 0 2147 0 
L 494 0 
z
M 1100 541 
L 2078 541 
Q 2531 541 2789 625 
Q 3047 709 3200 863 
Q 3416 1078 3536 1442 
Q 3656 1806 3656 2325 
Q 3656 3044 3420 3430 
Q 3184 3816 2847 3947 
Q 2603 4041 2063 4041 
L 1100 4041 
L 1100 541 
z
" transform="scale(0.015625)"/>
       </defs>
       <use xlink:href="#ArialMT-4d"/>
       <use xlink:href="#ArialMT-6f" transform="translate(83.300781 0)"/>
       <use xlink:href="#ArialMT-6c" transform="translate(138.916016 0)"/>
       <use xlink:href="#ArialMT-65" transform="translate(161.132812 0)"/>
       <use xlink:href="#ArialMT-63" transform="translate(216.748047 0)"/>
       <use xlink:href="#ArialMT-75" transform="translate(266.748047 0)"/>
       <use xlink:href="#ArialMT-6c" transform="translate(322.363281 0)"/>
       <use xlink:href="#ArialMT-61" transform="translate(344.580078 0)"/>
       <use xlink:href="#ArialMT-72" transform="translate(400.195312 0)"/>
       <use xlink:href="#ArialMT-20" transform="translate(433.496094 0)"/>
       <use xlink:href="#ArialMT-57" transform="translate(461.279297 0)"/>
       <use xlink:href="#ArialMT-65" transform="translate(553.914062 0)"/>
       <use xlink:href="#ArialMT-69" transform="translate(609.529297 0)"/>
       <use xlink:href="#ArialMT-67" transform="translate(631.746094 0)"/>
       <use xlink:href="#ArialMT-68" transform="translate(687.361328 0)"/>
       <use xlink:href="#ArialMT-74" transform="translate(742.976562 0)"/>
       <use xlink:href="#ArialMT-20" transform="translate(770.759766 0)"/>
       <use xlink:href="#ArialMT-28" transform="translate(798.542969 0)"/>
       <use xlink:href="#ArialMT-44" transform="translate(831.84375 0)"/>
       <use xlink:href="#ArialMT-61" transform="translate(904.060547 0)"/>
       <use xlink:href="#ArialMT-29" transform="translate(959.675781 0)"/>
      </g>
     </g>
    </g>
    <g id="ytick_12">
     <g id="text_21">
      <!-- AAC - Proline -->
      <g style="fill: #262626" transform="translate(366.5725 317.952562) scale(0.24 -0.24)">
       <use xlink:href="#ArialMT-41"/>
       <use xlink:href="#ArialMT-41" transform="translate(66.699219 0)"/>
       <use xlink:href="#ArialMT-43" transform="translate(133.398438 0)"/>
       <use xlink:href="#ArialMT-20" transform="translate(205.615234 0)"/>
       <use xlink:href="#ArialMT-2d" transform="translate(233.398438 0)"/>
       <use xlink:href="#ArialMT-20" transform="translate(266.699219 0)"/>
       <use xlink:href="#ArialMT-50" transform="translate(294.482422 0)"/>
       <use xlink:href="#ArialMT-72" transform="translate(361.181641 0)"/>
       <use xlink:href="#ArialMT-6f" transform="translate(394.482422 0)"/>
       <use xlink:href="#ArialMT-6c" transform="translate(450.097656 0)"/>
       <use xlink:href="#ArialMT-69" transform="translate(472.314453 0)"/>
       <use xlink:href="#ArialMT-6e" transform="translate(494.53125 0)"/>
       <use xlink:href="#ArialMT-65" transform="translate(550.146484 0)"/>
      </g>
     </g>
    </g>
    <g id="ytick_13">
     <g id="text_22">
      <!-- AAC - Non-Polar Residues (%) -->
      <g style="fill: #262626" transform="translate(182.52625 285.482812) scale(0.24 -0.24)">
       <defs>
        <path id="ArialMT-4e" d="M 488 0 
L 488 4581 
L 1109 4581 
L 3516 984 
L 3516 4581 
L 4097 4581 
L 4097 0 
L 3475 0 
L 1069 3600 
L 1069 0 
L 488 0 
z
" transform="scale(0.015625)"/>
       </defs>
       <use xlink:href="#ArialMT-41"/>
       <use xlink:href="#ArialMT-41" transform="translate(66.699219 0)"/>
       <use xlink:href="#ArialMT-43" transform="translate(133.398438 0)"/>
       <use xlink:href="#ArialMT-20" transform="translate(205.615234 0)"/>
       <use xlink:href="#ArialMT-2d" transform="translate(233.398438 0)"/>
       <use xlink:href="#ArialMT-20" transform="translate(266.699219 0)"/>
       <use xlink:href="#ArialMT-4e" transform="translate(294.482422 0)"/>
       <use xlink:href="#ArialMT-6f" transform="translate(366.699219 0)"/>
       <use xlink:href="#ArialMT-6e" transform="translate(422.314453 0)"/>
       <use xlink:href="#ArialMT-2d" transform="translate(477.929688 0)"/>
       <use xlink:href="#ArialMT-50" transform="translate(511.230469 0)"/>
       <use xlink:href="#ArialMT-6f" transform="translate(577.929688 0)"/>
       <use xlink:href="#ArialMT-6c" transform="translate(633.544922 0)"/>
       <use xlink:href="#ArialMT-61" transform="translate(655.761719 0)"/>
       <use xlink:href="#ArialMT-72" transform="translate(711.376953 0)"/>
       <use xlink:href="#ArialMT-20" transform="translate(744.677734 0)"/>
       <use xlink:href="#ArialMT-52" transform="translate(772.460938 0)"/>
       <use xlink:href="#ArialMT-65" transform="translate(844.677734 0)"/>
       <use xlink:href="#ArialMT-73" transform="translate(900.292969 0)"/>
       <use xlink:href="#ArialMT-69" transform="translate(950.292969 0)"/>
       <use xlink:href="#ArialMT-64" transform="translate(972.509766 0)"/>
       <use xlink:href="#ArialMT-75" transform="translate(1028.125 0)"/>
       <use xlink:href="#ArialMT-65" transform="translate(1083.740234 0)"/>
       <use xlink:href="#ArialMT-73" transform="translate(1139.355469 0)"/>
       <use xlink:href="#ArialMT-20" transform="translate(1189.355469 0)"/>
       <use xlink:href="#ArialMT-28" transform="translate(1217.138672 0)"/>
       <use xlink:href="#ArialMT-25" transform="translate(1250.439453 0)"/>
       <use xlink:href="#ArialMT-29" transform="translate(1339.355469 0)"/>
      </g>
     </g>
    </g>
    <g id="ytick_14">
     <g id="text_23">
      <!-- Medium Polarizability Residues (%) -->
      <g style="fill: #262626" transform="translate(134.5075 252.866812) scale(0.24 -0.24)">
       <defs>
        <path id="ArialMT-7a" d="M 125 0 
L 125 456 
L 2238 2881 
Q 1878 2863 1603 2863 
L 250 2863 
L 250 3319 
L 2963 3319 
L 2963 2947 
L 1166 841 
L 819 456 
Q 1197 484 1528 484 
L 3063 484 
L 3063 0 
L 125 0 
z
" transform="scale(0.015625)"/>
        <path id="ArialMT-62" d="M 941 0 
L 419 0 
L 419 4581 
L 981 4581 
L 981 2947 
Q 1338 3394 1891 3394 
Q 2197 3394 2470 3270 
Q 2744 3147 2920 2923 
Q 3097 2700 3197 2384 
Q 3297 2069 3297 1709 
Q 3297 856 2875 390 
Q 2453 -75 1863 -75 
Q 1275 -75 941 416 
L 941 0 
z
M 934 1684 
Q 934 1088 1097 822 
Q 1363 388 1816 388 
Q 2184 388 2453 708 
Q 2722 1028 2722 1663 
Q 2722 2313 2464 2622 
Q 2206 2931 1841 2931 
Q 1472 2931 1203 2611 
Q 934 2291 934 1684 
z
" transform="scale(0.015625)"/>
       </defs>
       <use xlink:href="#ArialMT-4d"/>
       <use xlink:href="#ArialMT-65" transform="translate(83.300781 0)"/>
       <use xlink:href="#ArialMT-64" transform="translate(138.916016 0)"/>
       <use xlink:href="#ArialMT-69" transform="translate(194.53125 0)"/>
       <use xlink:href="#ArialMT-75" transform="translate(216.748047 0)"/>
       <use xlink:href="#ArialMT-6d" transform="translate(272.363281 0)"/>
       <use xlink:href="#ArialMT-20" transform="translate(355.664062 0)"/>
       <use xlink:href="#ArialMT-50" transform="translate(383.447266 0)"/>
       <use xlink:href="#ArialMT-6f" transform="translate(450.146484 0)"/>
       <use xlink:href="#ArialMT-6c" transform="translate(505.761719 0)"/>
       <use xlink:href="#ArialMT-61" transform="translate(527.978516 0)"/>
       <use xlink:href="#ArialMT-72" transform="translate(583.59375 0)"/>
       <use xlink:href="#ArialMT-69" transform="translate(616.894531 0)"/>
       <use xlink:href="#ArialMT-7a" transform="translate(639.111328 0)"/>
       <use xlink:href="#ArialMT-61" transform="translate(689.111328 0)"/>
       <use xlink:href="#ArialMT-62" transform="translate(744.726562 0)"/>
       <use xlink:href="#ArialMT-69" transform="translate(800.341797 0)"/>
       <use xlink:href="#ArialMT-6c" transform="translate(822.558594 0)"/>
       <use xlink:href="#ArialMT-69" transform="translate(844.775391 0)"/>
       <use xlink:href="#ArialMT-74" transform="translate(866.992188 0)"/>
       <use xlink:href="#ArialMT-79" transform="translate(894.775391 0)"/>
       <use xlink:href="#ArialMT-20" transform="translate(944.775391 0)"/>
       <use xlink:href="#ArialMT-52" transform="translate(972.558594 0)"/>
       <use xlink:href="#ArialMT-65" transform="translate(1044.775391 0)"/>
       <use xlink:href="#ArialMT-73" transform="translate(1100.390625 0)"/>
       <use xlink:href="#ArialMT-69" transform="translate(1150.390625 0)"/>
       <use xlink:href="#ArialMT-64" transform="translate(1172.607422 0)"/>
       <use xlink:href="#ArialMT-75" transform="translate(1228.222656 0)"/>
       <use xlink:href="#ArialMT-65" transform="translate(1283.837891 0)"/>
       <use xlink:href="#ArialMT-73" transform="translate(1339.453125 0)"/>
       <use xlink:href="#ArialMT-20" transform="translate(1389.453125 0)"/>
       <use xlink:href="#ArialMT-28" transform="translate(1417.236328 0)"/>
       <use xlink:href="#ArialMT-25" transform="translate(1450.537109 0)"/>
       <use xlink:href="#ArialMT-29" transform="translate(1539.453125 0)"/>
      </g>
     </g>
    </g>
    <g id="ytick_15">
     <g id="text_24">
      <!-- AA Composition Correlation with Native CHO -->
      <g style="fill: #262626" transform="translate(33.115 220.258312) scale(0.24 -0.24)">
       <defs>
        <path id="ArialMT-77" d="M 1034 0 
L 19 3319 
L 600 3319 
L 1128 1403 
L 1325 691 
Q 1338 744 1497 1375 
L 2025 3319 
L 2603 3319 
L 3100 1394 
L 3266 759 
L 3456 1400 
L 4025 3319 
L 4572 3319 
L 3534 0 
L 2950 0 
L 2422 1988 
L 2294 2553 
L 1622 0 
L 1034 0 
z
" transform="scale(0.015625)"/>
        <path id="ArialMT-4f" d="M 309 2231 
Q 309 3372 921 4017 
Q 1534 4663 2503 4663 
Q 3138 4663 3647 4359 
Q 4156 4056 4423 3514 
Q 4691 2972 4691 2284 
Q 4691 1588 4409 1038 
Q 4128 488 3612 205 
Q 3097 -78 2500 -78 
Q 1853 -78 1343 234 
Q 834 547 571 1087 
Q 309 1628 309 2231 
z
M 934 2222 
Q 934 1394 1379 917 
Q 1825 441 2497 441 
Q 3181 441 3623 922 
Q 4066 1403 4066 2288 
Q 4066 2847 3877 3264 
Q 3688 3681 3323 3911 
Q 2959 4141 2506 4141 
Q 1863 4141 1398 3698 
Q 934 3256 934 2222 
z
" transform="scale(0.015625)"/>
       </defs>
       <use xlink:href="#ArialMT-41"/>
       <use xlink:href="#ArialMT-41" transform="translate(66.699219 0)"/>
       <use xlink:href="#ArialMT-20" transform="translate(127.898438 0)"/>
       <use xlink:href="#ArialMT-43" transform="translate(155.681641 0)"/>
       <use xlink:href="#ArialMT-6f" transform="translate(227.898438 0)"/>
       <use xlink:href="#ArialMT-6d" transform="translate(283.513672 0)"/>
       <use xlink:href="#ArialMT-70" transform="translate(366.814453 0)"/>
       <use xlink:href="#ArialMT-6f" transform="translate(422.429688 0)"/>
       <use xlink:href="#ArialMT-73" transform="translate(478.044922 0)"/>
       <use xlink:href="#ArialMT-69" transform="translate(528.044922 0)"/>
       <use xlink:href="#ArialMT-74" transform="translate(550.261719 0)"/>
       <use xlink:href="#ArialMT-69" transform="translate(578.044922 0)"/>
       <use xlink:href="#ArialMT-6f" transform="translate(600.261719 0)"/>
       <use xlink:href="#ArialMT-6e" transform="translate(655.876953 0)"/>
       <use xlink:href="#ArialMT-20" transform="translate(711.492188 0)"/>
       <use xlink:href="#ArialMT-43" transform="translate(739.275391 0)"/>
       <use xlink:href="#ArialMT-6f" transform="translate(811.492188 0)"/>
       <use xlink:href="#ArialMT-72" transform="translate(867.107422 0)"/>
       <use xlink:href="#ArialMT-72" transform="translate(900.408203 0)"/>
       <use xlink:href="#ArialMT-65" transform="translate(933.708984 0)"/>
       <use xlink:href="#ArialMT-6c" transform="translate(989.324219 0)"/>
       <use xlink:href="#ArialMT-61" transform="translate(1011.541016 0)"/>
       <use xlink:href="#ArialMT-74" transform="translate(1067.15625 0)"/>
       <use xlink:href="#ArialMT-69" transform="translate(1094.939453 0)"/>
       <use xlink:href="#ArialMT-6f" transform="translate(1117.15625 0)"/>
       <use xlink:href="#ArialMT-6e" transform="translate(1172.771484 0)"/>
       <use xlink:href="#ArialMT-20" transform="translate(1228.386719 0)"/>
       <use xlink:href="#ArialMT-77" transform="translate(1256.169922 0)"/>
       <use xlink:href="#ArialMT-69" transform="translate(1328.386719 0)"/>
       <use xlink:href="#ArialMT-74" transform="translate(1350.603516 0)"/>
       <use xlink:href="#ArialMT-68" transform="translate(1378.386719 0)"/>
       <use xlink:href="#ArialMT-20" transform="translate(1434.001953 0)"/>
       <use xlink:href="#ArialMT-4e" transform="translate(1461.785156 0)"/>
       <use xlink:href="#ArialMT-61" transform="translate(1534.001953 0)"/>
       <use xlink:href="#ArialMT-74" transform="translate(1589.617188 0)"/>
       <use xlink:href="#ArialMT-69" transform="translate(1617.400391 0)"/>
       <use xlink:href="#ArialMT-76" transform="translate(1639.617188 0)"/>
       <use xlink:href="#ArialMT-65" transform="translate(1689.617188 0)"/>
       <use xlink:href="#ArialMT-20" transform="translate(1745.232422 0)"/>
       <use xlink:href="#ArialMT-43" transform="translate(1773.015625 0)"/>
       <use xlink:href="#ArialMT-48" transform="translate(1845.232422 0)"/>
       <use xlink:href="#ArialMT-4f" transform="translate(1917.449219 0)"/>
      </g>
     </g>
    </g>
    <g id="ytick_16">
     <g id="text_25">
      <!-- Protein Level (Soft Tissue) -->
      <g style="fill: #262626" transform="translate(230.50375 187.634812) scale(0.24 -0.24)">
       <defs>
        <path id="ArialMT-66" d="M 556 0 
L 556 2881 
L 59 2881 
L 59 3319 
L 556 3319 
L 556 3672 
Q 556 4006 616 4169 
Q 697 4388 901 4523 
Q 1106 4659 1475 4659 
Q 1713 4659 2000 4603 
L 1916 4113 
Q 1741 4144 1584 4144 
Q 1328 4144 1222 4034 
Q 1116 3925 1116 3625 
L 1116 3319 
L 1763 3319 
L 1763 2881 
L 1116 2881 
L 1116 0 
L 556 0 
z
" transform="scale(0.015625)"/>
       </defs>
       <use xlink:href="#ArialMT-50"/>
       <use xlink:href="#ArialMT-72" transform="translate(66.699219 0)"/>
       <use xlink:href="#ArialMT-6f" transform="translate(100 0)"/>
       <use xlink:href="#ArialMT-74" transform="translate(155.615234 0)"/>
       <use xlink:href="#ArialMT-65" transform="translate(183.398438 0)"/>
       <use xlink:href="#ArialMT-69" transform="translate(239.013672 0)"/>
       <use xlink:href="#ArialMT-6e" transform="translate(261.230469 0)"/>
       <use xlink:href="#ArialMT-20" transform="translate(316.845703 0)"/>
       <use xlink:href="#ArialMT-4c" transform="translate(344.628906 0)"/>
       <use xlink:href="#ArialMT-65" transform="translate(400.244141 0)"/>
       <use xlink:href="#ArialMT-76" transform="translate(455.859375 0)"/>
       <use xlink:href="#ArialMT-65" transform="translate(505.859375 0)"/>
       <use xlink:href="#ArialMT-6c" transform="translate(561.474609 0)"/>
       <use xlink:href="#ArialMT-20" transform="translate(583.691406 0)"/>
       <use xlink:href="#ArialMT-28" transform="translate(611.474609 0)"/>
       <use xlink:href="#ArialMT-53" transform="translate(644.775391 0)"/>
       <use xlink:href="#ArialMT-6f" transform="translate(711.474609 0)"/>
       <use xlink:href="#ArialMT-66" transform="translate(767.089844 0)"/>
       <use xlink:href="#ArialMT-74" transform="translate(794.873047 0)"/>
       <use xlink:href="#ArialMT-20" transform="translate(822.65625 0)"/>
       <use xlink:href="#ArialMT-54" transform="translate(848.689453 0)"/>
       <use xlink:href="#ArialMT-69" transform="translate(906.023438 0)"/>
       <use xlink:href="#ArialMT-73" transform="translate(928.240234 0)"/>
       <use xlink:href="#ArialMT-73" transform="translate(978.240234 0)"/>
       <use xlink:href="#ArialMT-75" transform="translate(1028.240234 0)"/>
       <use xlink:href="#ArialMT-65" transform="translate(1083.855469 0)"/>
       <use xlink:href="#ArialMT-29" transform="translate(1139.470703 0)"/>
      </g>
     </g>
    </g>
    <g id="ytick_17">
     <g id="text_26">
      <!-- AAC - Glycine -->
      <g style="fill: #262626" transform="translate(361.25125 155.018812) scale(0.24 -0.24)">
       <defs>
        <path id="ArialMT-47" d="M 2638 1797 
L 2638 2334 
L 4578 2338 
L 4578 638 
Q 4131 281 3656 101 
Q 3181 -78 2681 -78 
Q 2006 -78 1454 211 
Q 903 500 622 1047 
Q 341 1594 341 2269 
Q 341 2938 620 3517 
Q 900 4097 1425 4378 
Q 1950 4659 2634 4659 
Q 3131 4659 3532 4498 
Q 3934 4338 4162 4050 
Q 4391 3763 4509 3300 
L 3963 3150 
Q 3859 3500 3706 3700 
Q 3553 3900 3268 4020 
Q 2984 4141 2638 4141 
Q 2222 4141 1919 4014 
Q 1616 3888 1430 3681 
Q 1244 3475 1141 3228 
Q 966 2803 966 2306 
Q 966 1694 1177 1281 
Q 1388 869 1791 669 
Q 2194 469 2647 469 
Q 3041 469 3416 620 
Q 3791 772 3984 944 
L 3984 1797 
L 2638 1797 
z
" transform="scale(0.015625)"/>
       </defs>
       <use xlink:href="#ArialMT-41"/>
       <use xlink:href="#ArialMT-41" transform="translate(66.699219 0)"/>
       <use xlink:href="#ArialMT-43" transform="translate(133.398438 0)"/>
       <use xlink:href="#ArialMT-20" transform="translate(205.615234 0)"/>
       <use xlink:href="#ArialMT-2d" transform="translate(233.398438 0)"/>
       <use xlink:href="#ArialMT-20" transform="translate(266.699219 0)"/>
       <use xlink:href="#ArialMT-47" transform="translate(294.482422 0)"/>
       <use xlink:href="#ArialMT-6c" transform="translate(372.265625 0)"/>
       <use xlink:href="#ArialMT-79" transform="translate(394.482422 0)"/>
       <use xlink:href="#ArialMT-63" transform="translate(444.482422 0)"/>
       <use xlink:href="#ArialMT-69" transform="translate(494.482422 0)"/>
       <use xlink:href="#ArialMT-6e" transform="translate(516.699219 0)"/>
       <use xlink:href="#ArialMT-65" transform="translate(572.314453 0)"/>
      </g>
     </g>
    </g>
    <g id="ytick_18">
     <g id="text_27">
      <!-- Transition Secondary Structure: Helix/Coil -->
      <g style="fill: #262626" transform="translate(67.36375 122.402812) scale(0.24 -0.24)">
       <defs>
        <path id="ArialMT-78" d="M 47 0 
L 1259 1725 
L 138 3319 
L 841 3319 
L 1350 2541 
Q 1494 2319 1581 2169 
Q 1719 2375 1834 2534 
L 2394 3319 
L 3066 3319 
L 1919 1756 
L 3153 0 
L 2463 0 
L 1781 1031 
L 1600 1309 
L 728 0 
L 47 0 
z
" transform="scale(0.015625)"/>
       </defs>
       <use xlink:href="#ArialMT-54"/>
       <use xlink:href="#ArialMT-72" transform="translate(57.333984 0)"/>
       <use xlink:href="#ArialMT-61" transform="translate(90.634766 0)"/>
       <use xlink:href="#ArialMT-6e" transform="translate(146.25 0)"/>
       <use xlink:href="#ArialMT-73" transform="translate(201.865234 0)"/>
       <use xlink:href="#ArialMT-69" transform="translate(251.865234 0)"/>
       <use xlink:href="#ArialMT-74" transform="translate(274.082031 0)"/>
       <use xlink:href="#ArialMT-69" transform="translate(301.865234 0)"/>
       <use xlink:href="#ArialMT-6f" transform="translate(324.082031 0)"/>
       <use xlink:href="#ArialMT-6e" transform="translate(379.697266 0)"/>
       <use xlink:href="#ArialMT-20" transform="translate(435.3125 0)"/>
       <use xlink:href="#ArialMT-53" transform="translate(463.095703 0)"/>
       <use xlink:href="#ArialMT-65" transform="translate(529.794922 0)"/>
       <use xlink:href="#ArialMT-63" transform="translate(585.410156 0)"/>
       <use xlink:href="#ArialMT-6f" transform="translate(635.410156 0)"/>
       <use xlink:href="#ArialMT-6e" transform="translate(691.025391 0)"/>
       <use xlink:href="#ArialMT-64" transform="translate(746.640625 0)"/>
       <use xlink:href="#ArialMT-61" transform="translate(802.255859 0)"/>
       <use xlink:href="#ArialMT-72" transform="translate(857.871094 0)"/>
       <use xlink:href="#ArialMT-79" transform="translate(891.171875 0)"/>
       <use xlink:href="#ArialMT-20" transform="translate(941.171875 0)"/>
       <use xlink:href="#ArialMT-53" transform="translate(968.955078 0)"/>
       <use xlink:href="#ArialMT-74" transform="translate(1035.654297 0)"/>
       <use xlink:href="#ArialMT-72" transform="translate(1063.4375 0)"/>
       <use xlink:href="#ArialMT-75" transform="translate(1096.738281 0)"/>
       <use xlink:href="#ArialMT-63" transform="translate(1152.353516 0)"/>
       <use xlink:href="#ArialMT-74" transform="translate(1202.353516 0)"/>
       <use xlink:href="#ArialMT-75" transform="translate(1230.136719 0)"/>
       <use xlink:href="#ArialMT-72" transform="translate(1285.751953 0)"/>
       <use xlink:href="#ArialMT-65" transform="translate(1319.052734 0)"/>
       <use xlink:href="#ArialMT-3a" transform="translate(1374.667969 0)"/>
       <use xlink:href="#ArialMT-20" transform="translate(1402.451172 0)"/>
       <use xlink:href="#ArialMT-48" transform="translate(1430.234375 0)"/>
       <use xlink:href="#ArialMT-65" transform="translate(1502.451172 0)"/>
       <use xlink:href="#ArialMT-6c" transform="translate(1558.066406 0)"/>
       <use xlink:href="#ArialMT-69" transform="translate(1580.283203 0)"/>
       <use xlink:href="#ArialMT-78" transform="translate(1602.5 0)"/>
       <use xlink:href="#ArialMT-2f" transform="translate(1652.5 0)"/>
       <use xlink:href="#ArialMT-43" transform="translate(1680.283203 0)"/>
       <use xlink:href="#ArialMT-6f" transform="translate(1752.5 0)"/>
       <use xlink:href="#ArialMT-69" transform="translate(1808.115234 0)"/>
       <use xlink:href="#ArialMT-6c" transform="translate(1830.332031 0)"/>
      </g>
     </g>
    </g>
    <g id="ytick_19">
     <g id="text_28">
      <!-- Transition Volume: Small/Medium -->
      <g style="fill: #262626" transform="translate(155.39875 89.640562) scale(0.24 -0.24)">
       <use xlink:href="#ArialMT-54"/>
       <use xlink:href="#ArialMT-72" transform="translate(57.333984 0)"/>
       <use xlink:href="#ArialMT-61" transform="translate(90.634766 0)"/>
       <use xlink:href="#ArialMT-6e" transform="translate(146.25 0)"/>
       <use xlink:href="#ArialMT-73" transform="translate(201.865234 0)"/>
       <use xlink:href="#ArialMT-69" transform="translate(251.865234 0)"/>
       <use xlink:href="#ArialMT-74" transform="translate(274.082031 0)"/>
       <use xlink:href="#ArialMT-69" transform="translate(301.865234 0)"/>
       <use xlink:href="#ArialMT-6f" transform="translate(324.082031 0)"/>
       <use xlink:href="#ArialMT-6e" transform="translate(379.697266 0)"/>
       <use xlink:href="#ArialMT-20" transform="translate(435.3125 0)"/>
       <use xlink:href="#ArialMT-56" transform="translate(463.095703 0)"/>
       <use xlink:href="#ArialMT-6f" transform="translate(524.294922 0)"/>
       <use xlink:href="#ArialMT-6c" transform="translate(579.910156 0)"/>
       <use xlink:href="#ArialMT-75" transform="translate(602.126953 0)"/>
       <use xlink:href="#ArialMT-6d" transform="translate(657.742188 0)"/>
       <use xlink:href="#ArialMT-65" transform="translate(741.042969 0)"/>
       <use xlink:href="#ArialMT-3a" transform="translate(796.658203 0)"/>
       <use xlink:href="#ArialMT-20" transform="translate(824.441406 0)"/>
       <use xlink:href="#ArialMT-53" transform="translate(852.224609 0)"/>
       <use xlink:href="#ArialMT-6d" transform="translate(918.923828 0)"/>
       <use xlink:href="#ArialMT-61" transform="translate(1002.224609 0)"/>
       <use xlink:href="#ArialMT-6c" transform="translate(1057.839844 0)"/>
       <use xlink:href="#ArialMT-6c" transform="translate(1080.056641 0)"/>
       <use xlink:href="#ArialMT-2f" transform="translate(1102.273438 0)"/>
       <use xlink:href="#ArialMT-4d" transform="translate(1130.056641 0)"/>
       <use xlink:href="#ArialMT-65" transform="translate(1213.357422 0)"/>
       <use xlink:href="#ArialMT-64" transform="translate(1268.972656 0)"/>
       <use xlink:href="#ArialMT-69" transform="translate(1324.587891 0)"/>
       <use xlink:href="#ArialMT-75" transform="translate(1346.804688 0)"/>
       <use xlink:href="#ArialMT-6d" transform="translate(1402.419922 0)"/>
      </g>
     </g>
    </g>
    <g id="ytick_20">
     <g id="text_29">
      <!-- Transition Polarizability: Low/Medium -->
      <g style="fill: #262626" transform="translate(116.72125 57.170812) scale(0.24 -0.24)">
       <use xlink:href="#ArialMT-54"/>
       <use xlink:href="#ArialMT-72" transform="translate(57.333984 0)"/>
       <use xlink:href="#ArialMT-61" transform="translate(90.634766 0)"/>
       <use xlink:href="#ArialMT-6e" transform="translate(146.25 0)"/>
       <use xlink:href="#ArialMT-73" transform="translate(201.865234 0)"/>
       <use xlink:href="#ArialMT-69" transform="translate(251.865234 0)"/>
       <use xlink:href="#ArialMT-74" transform="translate(274.082031 0)"/>
       <use xlink:href="#ArialMT-69" transform="translate(301.865234 0)"/>
       <use xlink:href="#ArialMT-6f" transform="translate(324.082031 0)"/>
       <use xlink:href="#ArialMT-6e" transform="translate(379.697266 0)"/>
       <use xlink:href="#ArialMT-20" transform="translate(435.3125 0)"/>
       <use xlink:href="#ArialMT-50" transform="translate(463.095703 0)"/>
       <use xlink:href="#ArialMT-6f" transform="translate(529.794922 0)"/>
       <use xlink:href="#ArialMT-6c" transform="translate(585.410156 0)"/>
       <use xlink:href="#ArialMT-61" transform="translate(607.626953 0)"/>
       <use xlink:href="#ArialMT-72" transform="translate(663.242188 0)"/>
       <use xlink:href="#ArialMT-69" transform="translate(696.542969 0)"/>
       <use xlink:href="#ArialMT-7a" transform="translate(718.759766 0)"/>
       <use xlink:href="#ArialMT-61" transform="translate(768.759766 0)"/>
       <use xlink:href="#ArialMT-62" transform="translate(824.375 0)"/>
       <use xlink:href="#ArialMT-69" transform="translate(879.990234 0)"/>
       <use xlink:href="#ArialMT-6c" transform="translate(902.207031 0)"/>
       <use xlink:href="#ArialMT-69" transform="translate(924.423828 0)"/>
       <use xlink:href="#ArialMT-74" transform="translate(946.640625 0)"/>
       <use xlink:href="#ArialMT-79" transform="translate(974.423828 0)"/>
       <use xlink:href="#ArialMT-3a" transform="translate(1024.423828 0)"/>
       <use xlink:href="#ArialMT-20" transform="translate(1052.207031 0)"/>
       <use xlink:href="#ArialMT-4c" transform="translate(1079.990234 0)"/>
       <use xlink:href="#ArialMT-6f" transform="translate(1135.605469 0)"/>
       <use xlink:href="#ArialMT-77" transform="translate(1191.220703 0)"/>
       <use xlink:href="#ArialMT-2f" transform="translate(1263.4375 0)"/>
       <use xlink:href="#ArialMT-4d" transform="translate(1291.220703 0)"/>
       <use xlink:href="#ArialMT-65" transform="translate(1374.521484 0)"/>
       <use xlink:href="#ArialMT-64" transform="translate(1430.136719 0)"/>
       <use xlink:href="#ArialMT-69" transform="translate(1485.751953 0)"/>
       <use xlink:href="#ArialMT-75" transform="translate(1507.96875 0)"/>
       <use xlink:href="#ArialMT-6d" transform="translate(1563.583984 0)"/>
      </g>
     </g>
    </g>
    <g id="text_30">
     <!-- Feature -->
     <g style="fill: #262626" transform="translate(24.37875 401.631562) rotate(-90) scale(0.24 -0.24)">
      <defs>
       <path id="Arial-BoldMT-46" d="M 472 0 
L 472 4581 
L 3613 4581 
L 3613 3806 
L 1397 3806 
L 1397 2722 
L 3309 2722 
L 3309 1947 
L 1397 1947 
L 1397 0 
L 472 0 
z
" transform="scale(0.015625)"/>
       <path id="Arial-BoldMT-75" d="M 2644 0 
L 2644 497 
Q 2463 231 2167 78 
Q 1872 -75 1544 -75 
Q 1209 -75 943 72 
Q 678 219 559 484 
Q 441 750 441 1219 
L 441 3319 
L 1319 3319 
L 1319 1794 
Q 1319 1094 1367 936 
Q 1416 778 1544 686 
Q 1672 594 1869 594 
Q 2094 594 2272 717 
Q 2450 841 2515 1023 
Q 2581 1206 2581 1919 
L 2581 3319 
L 3459 3319 
L 3459 0 
L 2644 0 
z
" transform="scale(0.015625)"/>
      </defs>
      <use xlink:href="#Arial-BoldMT-46"/>
      <use xlink:href="#Arial-BoldMT-65" transform="translate(61.083984 0)"/>
      <use xlink:href="#Arial-BoldMT-61" transform="translate(116.699219 0)"/>
      <use xlink:href="#Arial-BoldMT-74" transform="translate(172.314453 0)"/>
      <use xlink:href="#Arial-BoldMT-75" transform="translate(205.615234 0)"/>
      <use xlink:href="#Arial-BoldMT-72" transform="translate(266.699219 0)"/>
      <use xlink:href="#Arial-BoldMT-65" transform="translate(305.615234 0)"/>
     </g>
    </g>
   </g>
   <g id="patch_3">
    <path d="M 969.532233 676.293187 
L 559.961591 676.293187 
L 559.961591 659.985187 
L 969.532233 659.985187 
z
" clip-path="url(#pb8a58e40ac)" style="fill: #85bf85; stroke: #000000; stroke-width: 1.2; stroke-linejoin: miter"/>
   </g>
   <g id="patch_4">
    <path d="M 969.532233 643.677187 
L 581.939029 643.677187 
L 581.939029 627.369187 
L 969.532233 627.369187 
z
" clip-path="url(#pb8a58e40ac)" style="fill: #85bf85; stroke: #000000; stroke-width: 1.2; stroke-linejoin: miter"/>
   </g>
   <g id="patch_5">
    <path d="M 969.532233 611.061187 
L 612.799584 611.061187 
L 612.799584 594.753187 
L 969.532233 594.753187 
z
" clip-path="url(#pb8a58e40ac)" style="fill: #85bf85; stroke: #000000; stroke-width: 1.2; stroke-linejoin: miter"/>
   </g>
   <g id="patch_6">
    <path d="M 969.532233 578.445187 
L 714.778225 578.445187 
L 714.778225 562.137187 
L 969.532233 562.137187 
z
" clip-path="url(#pb8a58e40ac)" style="fill: #85bf85; stroke: #000000; stroke-width: 1.2; stroke-linejoin: miter"/>
   </g>
   <g id="patch_7">
    <path d="M 969.532233 545.829187 
L 719.219701 545.829187 
L 719.219701 529.521187 
L 969.532233 529.521187 
z
" clip-path="url(#pb8a58e40ac)" style="fill: #85bf85; stroke: #000000; stroke-width: 1.2; stroke-linejoin: miter"/>
   </g>
   <g id="patch_8">
    <path d="M 969.532233 513.213187 
L 719.389492 513.213187 
L 719.389492 496.905187 
L 969.532233 496.905187 
z
" clip-path="url(#pb8a58e40ac)" style="fill: #85bf85; stroke: #000000; stroke-width: 1.2; stroke-linejoin: miter"/>
   </g>
   <g id="patch_9">
    <path d="M 969.532233 480.597187 
L 721.321611 480.597187 
L 721.321611 464.289187 
L 969.532233 464.289187 
z
" clip-path="url(#pb8a58e40ac)" style="fill: #85bf85; stroke: #000000; stroke-width: 1.2; stroke-linejoin: miter"/>
   </g>
   <g id="patch_10">
    <path d="M 969.532233 447.981187 
L 725.562233 447.981187 
L 725.562233 431.673187 
L 969.532233 431.673187 
z
" clip-path="url(#pb8a58e40ac)" style="fill: #85bf85; stroke: #000000; stroke-width: 1.2; stroke-linejoin: miter"/>
   </g>
   <g id="patch_11">
    <path d="M 969.532233 415.365187 
L 759.334434 415.365187 
L 759.334434 399.057187 
L 969.532233 399.057187 
z
" clip-path="url(#pb8a58e40ac)" style="fill: #85bf85; stroke: #000000; stroke-width: 1.2; stroke-linejoin: miter"/>
   </g>
   <g id="patch_12">
    <path d="M 969.532233 382.749187 
L 764.332004 382.749187 
L 764.332004 366.441187 
L 969.532233 366.441187 
z
" clip-path="url(#pb8a58e40ac)" style="fill: #85bf85; stroke: #000000; stroke-width: 1.2; stroke-linejoin: miter"/>
   </g>
   <g id="patch_13">
    <path d="M 969.532233 350.133187 
L 1128.581943 350.133187 
L 1128.581943 333.825187 
L 969.532233 333.825187 
z
" clip-path="url(#pb8a58e40ac)" style="fill: #d58585; stroke: #000000; stroke-width: 1.2; stroke-linejoin: miter"/>
   </g>
   <g id="patch_14">
    <path d="M 969.532233 317.517187 
L 1134.260071 317.517187 
L 1134.260071 301.209187 
L 969.532233 301.209187 
z
" clip-path="url(#pb8a58e40ac)" style="fill: #d58585; stroke: #000000; stroke-width: 1.2; stroke-linejoin: miter"/>
   </g>
   <g id="patch_15">
    <path d="M 969.532233 284.901187 
L 1134.892243 284.901187 
L 1134.892243 268.593187 
L 969.532233 268.593187 
z
" clip-path="url(#pb8a58e40ac)" style="fill: #d58585; stroke: #000000; stroke-width: 1.2; stroke-linejoin: miter"/>
   </g>
   <g id="patch_16">
    <path d="M 969.532233 252.285187 
L 1136.295024 252.285187 
L 1136.295024 235.977187 
L 969.532233 235.977187 
z
" clip-path="url(#pb8a58e40ac)" style="fill: #d58585; stroke: #000000; stroke-width: 1.2; stroke-linejoin: miter"/>
   </g>
   <g id="patch_17">
    <path d="M 969.532233 219.669187 
L 1166.528609 219.669187 
L 1166.528609 203.361187 
L 969.532233 203.361187 
z
" clip-path="url(#pb8a58e40ac)" style="fill: #d58585; stroke: #000000; stroke-width: 1.2; stroke-linejoin: miter"/>
   </g>
   <g id="patch_18">
    <path d="M 969.532233 187.053187 
L 1168.001603 187.053187 
L 1168.001603 170.745187 
L 969.532233 170.745187 
z
" clip-path="url(#pb8a58e40ac)" style="fill: #d58585; stroke: #000000; stroke-width: 1.2; stroke-linejoin: miter"/>
   </g>
   <g id="patch_19">
    <path d="M 969.532233 154.437187 
L 1176.138589 154.437187 
L 1176.138589 138.129187 
L 969.532233 138.129187 
z
" clip-path="url(#pb8a58e40ac)" style="fill: #d58585; stroke: #000000; stroke-width: 1.2; stroke-linejoin: miter"/>
   </g>
   <g id="patch_20">
    <path d="M 969.532233 121.821187 
L 1191.631593 121.821187 
L 1191.631593 105.513187 
L 969.532233 105.513187 
z
" clip-path="url(#pb8a58e40ac)" style="fill: #d58585; stroke: #000000; stroke-width: 1.2; stroke-linejoin: miter"/>
   </g>
   <g id="patch_21">
    <path d="M 969.532233 89.205187 
L 1201.804411 89.205187 
L 1201.804411 72.897187 
L 969.532233 72.897187 
z
" clip-path="url(#pb8a58e40ac)" style="fill: #d58585; stroke: #000000; stroke-width: 1.2; stroke-linejoin: miter"/>
   </g>
   <g id="patch_22">
    <path d="M 969.532233 56.589187 
L 1270.143409 56.589187 
L 1270.143409 40.281187 
L 969.532233 40.281187 
z
" clip-path="url(#pb8a58e40ac)" style="fill: #d58585; stroke: #000000; stroke-width: 1.2; stroke-linejoin: miter"/>
   </g>
   <g id="patch_23">
    <path d="M 524.4525 684.447187 
L 524.4525 32.127187 
" style="fill: none; stroke: #cccccc; stroke-width: 1.875; stroke-linejoin: miter; stroke-linecap: square"/>
   </g>
   <g id="patch_24">
    <path d="M 524.4525 684.447187 
L 1305.6525 684.447187 
" style="fill: none; stroke: #cccccc; stroke-width: 1.875; stroke-linejoin: miter; stroke-linecap: square"/>
   </g>
   <g id="text_31">
    <!-- Protein Features Pearson Correlations with Protein Expression/Cell Viability -->
    <g style="fill: #262626" transform="translate(479.605312 26.127187) scale(0.26 -0.26)">
     <defs>
      <path id="ArialMT-46" d="M 525 0 
L 525 4581 
L 3616 4581 
L 3616 4041 
L 1131 4041 
L 1131 2622 
L 3281 2622 
L 3281 2081 
L 1131 2081 
L 1131 0 
L 525 0 
z
" transform="scale(0.015625)"/>
      <path id="ArialMT-45" d="M 506 0 
L 506 4581 
L 3819 4581 
L 3819 4041 
L 1113 4041 
L 1113 2638 
L 3647 2638 
L 3647 2100 
L 1113 2100 
L 1113 541 
L 3925 541 
L 3925 0 
L 506 0 
z
" transform="scale(0.015625)"/>
     </defs>
     <use xlink:href="#ArialMT-50"/>
     <use xlink:href="#ArialMT-72" transform="translate(66.699219 0)"/>
     <use xlink:href="#ArialMT-6f" transform="translate(100 0)"/>
     <use xlink:href="#ArialMT-74" transform="translate(155.615234 0)"/>
     <use xlink:href="#ArialMT-65" transform="translate(183.398438 0)"/>
     <use xlink:href="#ArialMT-69" transform="translate(239.013672 0)"/>
     <use xlink:href="#ArialMT-6e" transform="translate(261.230469 0)"/>
     <use xlink:href="#ArialMT-20" transform="translate(316.845703 0)"/>
     <use xlink:href="#ArialMT-46" transform="translate(344.628906 0)"/>
     <use xlink:href="#ArialMT-65" transform="translate(405.712891 0)"/>
     <use xlink:href="#ArialMT-61" transform="translate(461.328125 0)"/>
     <use xlink:href="#ArialMT-74" transform="translate(516.943359 0)"/>
     <use xlink:href="#ArialMT-75" transform="translate(544.726562 0)"/>
     <use xlink:href="#ArialMT-72" transform="translate(600.341797 0)"/>
     <use xlink:href="#ArialMT-65" transform="translate(633.642578 0)"/>
     <use xlink:href="#ArialMT-73" transform="translate(689.257812 0)"/>
     <use xlink:href="#ArialMT-20" transform="translate(739.257812 0)"/>
     <use xlink:href="#ArialMT-50" transform="translate(767.041016 0)"/>
     <use xlink:href="#ArialMT-65" transform="translate(833.740234 0)"/>
     <use xlink:href="#ArialMT-61" transform="translate(889.355469 0)"/>
     <use xlink:href="#ArialMT-72" transform="translate(944.970703 0)"/>
     <use xlink:href="#ArialMT-73" transform="translate(978.271484 0)"/>
     <use xlink:href="#ArialMT-6f" transform="translate(1028.271484 0)"/>
     <use xlink:href="#ArialMT-6e" transform="translate(1083.886719 0)"/>
     <use xlink:href="#ArialMT-20" transform="translate(1139.501953 0)"/>
     <use xlink:href="#ArialMT-43" transform="translate(1167.285156 0)"/>
     <use xlink:href="#ArialMT-6f" transform="translate(1239.501953 0)"/>
     <use xlink:href="#ArialMT-72" transform="translate(1295.117188 0)"/>
     <use xlink:href="#ArialMT-72" transform="translate(1328.417969 0)"/>
     <use xlink:href="#ArialMT-65" transform="translate(1361.71875 0)"/>
     <use xlink:href="#ArialMT-6c" transform="translate(1417.333984 0)"/>
     <use xlink:href="#ArialMT-61" transform="translate(1439.550781 0)"/>
     <use xlink:href="#ArialMT-74" transform="translate(1495.166016 0)"/>
     <use xlink:href="#ArialMT-69" transform="translate(1522.949219 0)"/>
     <use xlink:href="#ArialMT-6f" transform="translate(1545.166016 0)"/>
     <use xlink:href="#ArialMT-6e" transform="translate(1600.78125 0)"/>
     <use xlink:href="#ArialMT-73" transform="translate(1656.396484 0)"/>
     <use xlink:href="#ArialMT-20" transform="translate(1706.396484 0)"/>
     <use xlink:href="#ArialMT-77" transform="translate(1734.179688 0)"/>
     <use xlink:href="#ArialMT-69" transform="translate(1806.396484 0)"/>
     <use xlink:href="#ArialMT-74" transform="translate(1828.613281 0)"/>
     <use xlink:href="#ArialMT-68" transform="translate(1856.396484 0)"/>
     <use xlink:href="#ArialMT-20" transform="translate(1912.011719 0)"/>
     <use xlink:href="#ArialMT-50" transform="translate(1939.794922 0)"/>
     <use xlink:href="#ArialMT-72" transform="translate(2006.494141 0)"/>
     <use xlink:href="#ArialMT-6f" transform="translate(2039.794922 0)"/>
     <use xlink:href="#ArialMT-74" transform="translate(2095.410156 0)"/>
     <use xlink:href="#ArialMT-65" transform="translate(2123.193359 0)"/>
     <use xlink:href="#ArialMT-69" transform="translate(2178.808594 0)"/>
     <use xlink:href="#ArialMT-6e" transform="translate(2201.025391 0)"/>
     <use xlink:href="#ArialMT-20" transform="translate(2256.640625 0)"/>
     <use xlink:href="#ArialMT-45" transform="translate(2284.423828 0)"/>
     <use xlink:href="#ArialMT-78" transform="translate(2351.123047 0)"/>
     <use xlink:href="#ArialMT-70" transform="translate(2401.123047 0)"/>
     <use xlink:href="#ArialMT-72" transform="translate(2456.738281 0)"/>
     <use xlink:href="#ArialMT-65" transform="translate(2490.039062 0)"/>
     <use xlink:href="#ArialMT-73" transform="translate(2545.654297 0)"/>
     <use xlink:href="#ArialMT-73" transform="translate(2595.654297 0)"/>
     <use xlink:href="#ArialMT-69" transform="translate(2645.654297 0)"/>
     <use xlink:href="#ArialMT-6f" transform="translate(2667.871094 0)"/>
     <use xlink:href="#ArialMT-6e" transform="translate(2723.486328 0)"/>
     <use xlink:href="#ArialMT-2f" transform="translate(2779.101562 0)"/>
     <use xlink:href="#ArialMT-43" transform="translate(2806.884766 0)"/>
     <use xlink:href="#ArialMT-65" transform="translate(2879.101562 0)"/>
     <use xlink:href="#ArialMT-6c" transform="translate(2934.716797 0)"/>
     <use xlink:href="#ArialMT-6c" transform="translate(2956.933594 0)"/>
     <use xlink:href="#ArialMT-20" transform="translate(2979.150391 0)"/>
     <use xlink:href="#ArialMT-56" transform="translate(3006.933594 0)"/>
     <use xlink:href="#ArialMT-69" transform="translate(3071.882812 0)"/>
     <use xlink:href="#ArialMT-61" transform="translate(3094.099609 0)"/>
     <use xlink:href="#ArialMT-62" transform="translate(3149.714844 0)"/>
     <use xlink:href="#ArialMT-69" transform="translate(3205.330078 0)"/>
     <use xlink:href="#ArialMT-6c" transform="translate(3227.546875 0)"/>
     <use xlink:href="#ArialMT-69" transform="translate(3249.763672 0)"/>
     <use xlink:href="#ArialMT-74" transform="translate(3271.980469 0)"/>
     <use xlink:href="#ArialMT-79" transform="translate(3299.763672 0)"/>
    </g>
   </g>
  </g>
 </g>
 <defs>
  <clipPath id="pb8a58e40ac">
   <rect x="524.4525" y="32.127187" width="781.2" height="652.32"/>
  </clipPath>
 </defs>
</svg>
