<?xml version="1.0" encoding="utf-8" standalone="no"?>
<!DOCTYPE svg PUBLIC "-//W3C//DTD SVG 1.1//EN"
  "http://www.w3.org/Graphics/SVG/1.1/DTD/svg11.dtd">
<svg xmlns:xlink="http://www.w3.org/1999/xlink" width="724.788437pt" height="396.9375pt" viewBox="0 0 724.788437 396.9375" xmlns="http://www.w3.org/2000/svg" version="1.1">
 <metadata>
  <rdf:RDF xmlns:dc="http://purl.org/dc/elements/1.1/" xmlns:cc="http://creativecommons.org/ns#" xmlns:rdf="http://www.w3.org/1999/02/22-rdf-syntax-ns#">
   <cc:Work>
    <dc:type rdf:resource="http://purl.org/dc/dcmitype/StillImage"/>
    <dc:date>2025-09-05T17:42:28.463096</dc:date>
    <dc:format>image/svg+xml</dc:format>
    <dc:creator>
     <cc:Agent>
      <dc:title>Matplotlib v3.9.4, https://matplotlib.org/</dc:title>
     </cc:Agent>
    </dc:creator>
   </cc:Work>
  </rdf:RDF>
 </metadata>
 <defs>
  <style type="text/css">*{stroke-linejoin: round; stroke-linecap: butt}</style>
 </defs>
 <g id="figure_1">
  <g id="patch_1">
   <path d="M 0 396.9375 
L 724.788437 396.9375 
L 724.788437 0 
L 0 0 
z
" style="fill: #ffffff"/>
  </g>
  <g id="axes_1">
   <g id="patch_2">
    <path d="M 92.616875 356.477813 
L 539.016875 356.477813 
L 539.016875 23.837813 
L 92.616875 23.837813 
z
" style="fill: #ffffff"/>
   </g>
   <g id="PathCollection_1">
    <path d="M 518.725966 277.927476 
C 520.506193 277.927476 522.213746 277.220184 523.472556 275.961374 
C 524.731367 274.702563 525.438659 272.99501 525.438659 271.214783 
C 525.438659 269.434556 524.731367 267.727003 523.472556 266.468193 
C 522.213746 265.209382 520.506193 264.502091 518.725966 264.502091 
C 516.945739 264.502091 515.238186 265.209382 513.979375 266.468193 
C 512.720565 267.727003 512.013273 269.434556 512.013273 271.214783 
C 512.013273 272.99501 512.720565 274.702563 513.979375 275.961374 
C 515.238186 277.220184 516.945739 277.927476 518.725966 277.927476 
z
" clip-path="url(#pf40354edcc)" style="fill: #008000; stroke: #ffffff; stroke-width: 0.750037"/>
    <path d="M 497.481068 288.46602 
C 499.078273 288.46602 500.610276 287.831444 501.739671 286.702049 
C 502.869065 285.572655 503.503642 284.040652 503.503642 282.443447 
C 503.503642 280.846242 502.869065 279.314239 501.739671 278.184844 
C 500.610276 277.05545 499.078273 276.420873 497.481068 276.420873 
C 495.883863 276.420873 494.35186 277.05545 493.222466 278.184844 
C 492.093071 279.314239 491.458495 280.846242 491.458495 282.443447 
C 491.458495 284.040652 492.093071 285.572655 493.222466 286.702049 
C 494.35186 287.831444 495.883863 288.46602 497.481068 288.46602 
z
" clip-path="url(#pf40354edcc)" style="fill: #008000; stroke: #ffffff; stroke-width: 0.750037"/>
    <path d="M 481.781608 321.863384 
C 483.322528 321.863384 484.800544 321.25117 485.890139 320.161575 
C 486.979734 319.07198 487.591949 317.593964 487.591949 316.053044 
C 487.591949 314.512123 486.979734 313.034108 485.890139 311.944512 
C 484.800544 310.854917 483.322528 310.242703 481.781608 310.242703 
C 480.240688 310.242703 478.762672 310.854917 477.673077 311.944512 
C 476.583482 313.034108 475.971267 314.512123 475.971267 316.053044 
C 475.971267 317.593964 476.583482 319.07198 477.673077 320.161575 
C 478.762672 321.25117 480.240688 321.863384 481.781608 321.863384 
z
" clip-path="url(#pf40354edcc)" style="fill: #008000; stroke: #ffffff; stroke-width: 0.750037"/>
    <path d="M 473.929823 347.19885 
C 475.478884 347.19885 476.964708 346.583401 478.06006 345.48805 
C 479.155411 344.392698 479.77086 342.906874 479.77086 341.357813 
C 479.77086 339.808751 479.155411 338.322927 478.06006 337.227575 
C 476.964708 336.132224 475.478884 335.516775 473.929823 335.516775 
C 472.380761 335.516775 470.894937 336.132224 469.799585 337.227575 
C 468.704234 338.322927 468.088785 339.808751 468.088785 341.357813 
C 468.088785 342.906874 468.704234 344.392698 469.799585 345.48805 
C 470.894937 346.583401 472.380761 347.19885 473.929823 347.19885 
z
" clip-path="url(#pf40354edcc)" style="fill: #008000; stroke: #ffffff; stroke-width: 0.750037"/>
    <path d="M 472.188213 286.885231 
C 473.5715 286.885231 474.898317 286.335646 475.876448 285.357514 
C 476.85458 284.379383 477.404165 283.052566 477.404165 281.669279 
C 477.404165 280.285992 476.85458 278.959175 475.876448 277.981044 
C 474.898317 277.002913 473.5715 276.453327 472.188213 276.453327 
C 470.804927 276.453327 469.478109 277.002913 468.499978 277.981044 
C 467.521847 278.959175 466.972261 280.285992 466.972261 281.669279 
C 466.972261 283.052566 467.521847 284.379383 468.499978 285.357514 
C 469.478109 286.335646 470.804927 286.885231 472.188213 286.885231 
z
" clip-path="url(#pf40354edcc)" style="fill: #808080; fill-opacity: 0.3; stroke: #ffffff; stroke-opacity: 0.3; stroke-width: 0.750037"/>
    <path d="M 469.948905 326.575399 
C 471.41217 326.575399 472.8157 325.994038 473.850385 324.959354 
C 474.885069 323.924669 475.46643 322.521139 475.46643 321.057874 
C 475.46643 319.59461 474.885069 318.191079 473.850385 317.156395 
C 472.8157 316.121711 471.41217 315.540349 469.948905 315.540349 
C 468.485641 315.540349 467.08211 316.121711 466.047426 317.156395 
C 465.012742 318.191079 464.43138 319.59461 464.43138 321.057874 
C 464.43138 322.521139 465.012742 323.924669 466.047426 324.959354 
C 467.08211 325.994038 468.485641 326.575399 469.948905 326.575399 
z
" clip-path="url(#pf40354edcc)" style="fill: #008000; stroke: #ffffff; stroke-width: 0.750037"/>
    <path d="M 465.641167 223.617663 
C 466.848017 223.617663 468.005601 223.138176 468.858973 222.284804 
C 469.712345 221.431432 470.191832 220.273848 470.191832 219.066998 
C 470.191832 217.860147 469.712345 216.702564 468.858973 215.849192 
C 468.005601 214.99582 466.848017 214.516333 465.641167 214.516333 
C 464.434316 214.516333 463.276733 214.99582 462.423361 215.849192 
C 461.569989 216.702564 461.090502 217.860147 461.090502 219.066998 
C 461.090502 220.273848 461.569989 221.431432 462.423361 222.284804 
C 463.276733 223.138176 464.434316 223.617663 465.641167 223.617663 
z
" clip-path="url(#pf40354edcc)" style="fill: #808080; fill-opacity: 0.3; stroke: #ffffff; stroke-opacity: 0.3; stroke-width: 0.750037"/>
    <path d="M 463.303067 323.18378 
C 464.709323 323.18378 466.058171 322.625069 467.052544 321.630696 
C 468.046917 320.636323 468.605628 319.287474 468.605628 317.881219 
C 468.605628 316.474963 468.046917 315.126114 467.052544 314.131741 
C 466.058171 313.137368 464.709323 312.578657 463.303067 312.578657 
C 461.896811 312.578657 460.547963 313.137368 459.55359 314.131741 
C 458.559217 315.126114 458.000505 316.474963 458.000505 317.881219 
C 458.000505 319.287474 458.559217 320.636323 459.55359 321.630696 
C 460.547963 322.625069 461.896811 323.18378 463.303067 323.18378 
z
" clip-path="url(#pf40354edcc)" style="fill: #808080; fill-opacity: 0.3; stroke: #ffffff; stroke-opacity: 0.3; stroke-width: 0.750037"/>
    <path d="M 199.090467 220.701914 
C 200.028102 220.701914 200.92746 220.329388 201.590467 219.66638 
C 202.253475 219.003372 202.626001 218.104015 202.626001 217.16638 
C 202.626001 216.228745 202.253475 215.329388 201.590467 214.66638 
C 200.92746 214.003372 200.028102 213.630846 199.090467 213.630846 
C 198.152833 213.630846 197.253475 214.003372 196.590467 214.66638 
C 195.92746 215.329388 195.554933 216.228745 195.554933 217.16638 
C 195.554933 218.104015 195.92746 219.003372 196.590467 219.66638 
C 197.253475 220.329388 198.152833 220.701914 199.090467 220.701914 
z
" clip-path="url(#pf40354edcc)" style="fill: #808080; fill-opacity: 0.3; stroke: #ffffff; stroke-opacity: 0.3; stroke-width: 0.750037"/>
    <path d="M 148.686992 127.755185 
C 150.066045 127.755185 151.388801 127.207282 152.363939 126.232144 
C 153.339076 125.257006 153.88698 123.93425 153.88698 122.555197 
C 153.88698 121.176144 153.339076 119.853388 152.363939 118.87825 
C 151.388801 117.903112 150.066045 117.355208 148.686992 117.355208 
C 147.307938 117.355208 145.985182 117.903112 145.010044 118.87825 
C 144.034907 119.853388 143.487003 121.176144 143.487003 122.555197 
C 143.487003 123.93425 144.034907 125.257006 145.010044 126.232144 
C 145.985182 127.207282 147.307938 127.755185 148.686992 127.755185 
z
" clip-path="url(#pf40354edcc)" style="fill: #808080; fill-opacity: 0.3; stroke: #ffffff; stroke-opacity: 0.3; stroke-width: 0.750037"/>
    <path d="M 134.668019 71.922232 
C 136.283079 71.922232 137.832208 71.280562 138.974228 70.138542 
C 140.116248 68.996522 140.757918 67.447393 140.757918 65.832333 
C 140.757918 64.217273 140.116248 62.668144 138.974228 61.526124 
C 137.832208 60.384104 136.283079 59.742434 134.668019 59.742434 
C 133.052959 59.742434 131.50383 60.384104 130.36181 61.526124 
C 129.21979 62.668144 128.57812 64.217273 128.57812 65.832333 
C 128.57812 67.447393 129.21979 68.996522 130.36181 70.138542 
C 131.50383 71.280562 133.052959 71.922232 134.668019 71.922232 
z
" clip-path="url(#pf40354edcc)" style="fill: #ff0000; stroke: #ffffff; stroke-width: 0.750037"/>
    <path d="M 128.980429 131.66461 
C 130.530547 131.66461 132.017385 131.048742 133.113484 129.952643 
C 134.209583 128.856544 134.825451 127.369706 134.825451 125.819588 
C 134.825451 124.26947 134.209583 122.782633 133.113484 121.686534 
C 132.017385 120.590435 130.530547 119.974566 128.980429 119.974566 
C 127.430311 119.974566 125.943474 120.590435 124.847375 121.686534 
C 123.751276 122.782633 123.135407 124.26947 123.135407 125.819588 
C 123.135407 127.369706 123.751276 128.856544 124.847375 129.952643 
C 125.943474 131.048742 127.430311 131.66461 128.980429 131.66461 
z
" clip-path="url(#pf40354edcc)" style="fill: #ff0000; stroke: #ffffff; stroke-width: 0.750037"/>
    <path d="M 112.907784 46.02888 
C 114.783053 46.02888 116.581769 45.283828 117.907784 43.957813 
C 119.2338 42.631797 119.978852 40.833082 119.978852 38.957813 
C 119.978852 37.082543 119.2338 35.283828 117.907784 33.957813 
C 116.581769 32.631797 114.783053 31.886745 112.907784 31.886745 
C 111.032515 31.886745 109.2338 32.631797 107.907784 33.957813 
C 106.581769 35.283828 105.836716 37.082543 105.836716 38.957813 
C 105.836716 40.833082 106.581769 42.631797 107.907784 43.957813 
C 109.2338 45.283828 111.032515 46.02888 112.907784 46.02888 
z
" clip-path="url(#pf40354edcc)" style="fill: #ff0000; stroke: #ffffff; stroke-width: 0.750037"/>
   </g>
   <g id="PathCollection_2"/>
   <g id="PathCollection_3"/>
   <g id="PathCollection_4"/>
   <g id="matplotlib.axis_1">
    <g id="xtick_1">
     <g id="line2d_1">
      <defs>
       <path id="mfb7c0bef32" d="M 0 0 
L 0 3.5 
" style="stroke: #000000; stroke-width: 0.8"/>
      </defs>
      <g>
       <use xlink:href="#mfb7c0bef32" x="126.613149" y="356.477813" style="stroke: #000000; stroke-width: 0.8"/>
      </g>
     </g>
     <g id="text_1">
      <!-- −0.6 -->
      <g transform="translate(114.471743 371.07625) scale(0.1 -0.1)">
       <defs>
        <path id="DejaVuSans-2212" d="M 678 2272 
L 4684 2272 
L 4684 1741 
L 678 1741 
L 678 2272 
z
" transform="scale(0.015625)"/>
        <path id="DejaVuSans-30" d="M 2034 4250 
Q 1547 4250 1301 3770 
Q 1056 3291 1056 2328 
Q 1056 1369 1301 889 
Q 1547 409 2034 409 
Q 2525 409 2770 889 
Q 3016 1369 3016 2328 
Q 3016 3291 2770 3770 
Q 2525 4250 2034 4250 
z
M 2034 4750 
Q 2819 4750 3233 4129 
Q 3647 3509 3647 2328 
Q 3647 1150 3233 529 
Q 2819 -91 2034 -91 
Q 1250 -91 836 529 
Q 422 1150 422 2328 
Q 422 3509 836 4129 
Q 1250 4750 2034 4750 
z
" transform="scale(0.015625)"/>
        <path id="DejaVuSans-2e" d="M 684 794 
L 1344 794 
L 1344 0 
L 684 0 
L 684 794 
z
" transform="scale(0.015625)"/>
        <path id="DejaVuSans-36" d="M 2113 2584 
Q 1688 2584 1439 2293 
Q 1191 2003 1191 1497 
Q 1191 994 1439 701 
Q 1688 409 2113 409 
Q 2538 409 2786 701 
Q 3034 994 3034 1497 
Q 3034 2003 2786 2293 
Q 2538 2584 2113 2584 
z
M 3366 4563 
L 3366 3988 
Q 3128 4100 2886 4159 
Q 2644 4219 2406 4219 
Q 1781 4219 1451 3797 
Q 1122 3375 1075 2522 
Q 1259 2794 1537 2939 
Q 1816 3084 2150 3084 
Q 2853 3084 3261 2657 
Q 3669 2231 3669 1497 
Q 3669 778 3244 343 
Q 2819 -91 2113 -91 
Q 1303 -91 875 529 
Q 447 1150 447 2328 
Q 447 3434 972 4092 
Q 1497 4750 2381 4750 
Q 2619 4750 2861 4703 
Q 3103 4656 3366 4563 
z
" transform="scale(0.015625)"/>
       </defs>
       <use xlink:href="#DejaVuSans-2212"/>
       <use xlink:href="#DejaVuSans-30" x="83.789062"/>
       <use xlink:href="#DejaVuSans-2e" x="147.412109"/>
       <use xlink:href="#DejaVuSans-36" x="179.199219"/>
      </g>
     </g>
    </g>
    <g id="xtick_2">
     <g id="line2d_2">
      <g>
       <use xlink:href="#mfb7c0bef32" x="189.320588" y="356.477813" style="stroke: #000000; stroke-width: 0.8"/>
      </g>
     </g>
     <g id="text_2">
      <!-- −0.4 -->
      <g transform="translate(177.179181 371.07625) scale(0.1 -0.1)">
       <defs>
        <path id="DejaVuSans-34" d="M 2419 4116 
L 825 1625 
L 2419 1625 
L 2419 4116 
z
M 2253 4666 
L 3047 4666 
L 3047 1625 
L 3713 1625 
L 3713 1100 
L 3047 1100 
L 3047 0 
L 2419 0 
L 2419 1100 
L 313 1100 
L 313 1709 
L 2253 4666 
z
" transform="scale(0.015625)"/>
       </defs>
       <use xlink:href="#DejaVuSans-2212"/>
       <use xlink:href="#DejaVuSans-30" x="83.789062"/>
       <use xlink:href="#DejaVuSans-2e" x="147.412109"/>
       <use xlink:href="#DejaVuSans-34" x="179.199219"/>
      </g>
     </g>
    </g>
    <g id="xtick_3">
     <g id="line2d_3">
      <g>
       <use xlink:href="#mfb7c0bef32" x="252.028026" y="356.477813" style="stroke: #000000; stroke-width: 0.8"/>
      </g>
     </g>
     <g id="text_3">
      <!-- −0.2 -->
      <g transform="translate(239.88662 371.07625) scale(0.1 -0.1)">
       <defs>
        <path id="DejaVuSans-32" d="M 1228 531 
L 3431 531 
L 3431 0 
L 469 0 
L 469 531 
Q 828 903 1448 1529 
Q 2069 2156 2228 2338 
Q 2531 2678 2651 2914 
Q 2772 3150 2772 3378 
Q 2772 3750 2511 3984 
Q 2250 4219 1831 4219 
Q 1534 4219 1204 4116 
Q 875 4013 500 3803 
L 500 4441 
Q 881 4594 1212 4672 
Q 1544 4750 1819 4750 
Q 2544 4750 2975 4387 
Q 3406 4025 3406 3419 
Q 3406 3131 3298 2873 
Q 3191 2616 2906 2266 
Q 2828 2175 2409 1742 
Q 1991 1309 1228 531 
z
" transform="scale(0.015625)"/>
       </defs>
       <use xlink:href="#DejaVuSans-2212"/>
       <use xlink:href="#DejaVuSans-30" x="83.789062"/>
       <use xlink:href="#DejaVuSans-2e" x="147.412109"/>
       <use xlink:href="#DejaVuSans-32" x="179.199219"/>
      </g>
     </g>
    </g>
    <g id="xtick_4">
     <g id="line2d_4">
      <g>
       <use xlink:href="#mfb7c0bef32" x="314.735464" y="356.477813" style="stroke: #000000; stroke-width: 0.8"/>
      </g>
     </g>
     <g id="text_4">
      <!-- 0.0 -->
      <g transform="translate(306.783902 371.07625) scale(0.1 -0.1)">
       <use xlink:href="#DejaVuSans-30"/>
       <use xlink:href="#DejaVuSans-2e" x="63.623047"/>
       <use xlink:href="#DejaVuSans-30" x="95.410156"/>
      </g>
     </g>
    </g>
    <g id="xtick_5">
     <g id="line2d_5">
      <g>
       <use xlink:href="#mfb7c0bef32" x="377.442903" y="356.477813" style="stroke: #000000; stroke-width: 0.8"/>
      </g>
     </g>
     <g id="text_5">
      <!-- 0.2 -->
      <g transform="translate(369.49134 371.07625) scale(0.1 -0.1)">
       <use xlink:href="#DejaVuSans-30"/>
       <use xlink:href="#DejaVuSans-2e" x="63.623047"/>
       <use xlink:href="#DejaVuSans-32" x="95.410156"/>
      </g>
     </g>
    </g>
    <g id="xtick_6">
     <g id="line2d_6">
      <g>
       <use xlink:href="#mfb7c0bef32" x="440.150341" y="356.477813" style="stroke: #000000; stroke-width: 0.8"/>
      </g>
     </g>
     <g id="text_6">
      <!-- 0.4 -->
      <g transform="translate(432.198779 371.07625) scale(0.1 -0.1)">
       <use xlink:href="#DejaVuSans-30"/>
       <use xlink:href="#DejaVuSans-2e" x="63.623047"/>
       <use xlink:href="#DejaVuSans-34" x="95.410156"/>
      </g>
     </g>
    </g>
    <g id="xtick_7">
     <g id="line2d_7">
      <g>
       <use xlink:href="#mfb7c0bef32" x="502.85778" y="356.477813" style="stroke: #000000; stroke-width: 0.8"/>
      </g>
     </g>
     <g id="text_7">
      <!-- 0.6 -->
      <g transform="translate(494.906217 371.07625) scale(0.1 -0.1)">
       <use xlink:href="#DejaVuSans-30"/>
       <use xlink:href="#DejaVuSans-2e" x="63.623047"/>
       <use xlink:href="#DejaVuSans-36" x="95.410156"/>
      </g>
     </g>
    </g>
    <g id="text_8">
     <!-- Correlation with Protein Production -->
     <g transform="translate(202.630547 387.033906) scale(0.13 -0.13)">
      <defs>
       <path id="DejaVuSans-43" d="M 4122 4306 
L 4122 3641 
Q 3803 3938 3442 4084 
Q 3081 4231 2675 4231 
Q 1875 4231 1450 3742 
Q 1025 3253 1025 2328 
Q 1025 1406 1450 917 
Q 1875 428 2675 428 
Q 3081 428 3442 575 
Q 3803 722 4122 1019 
L 4122 359 
Q 3791 134 3420 21 
Q 3050 -91 2638 -91 
Q 1578 -91 968 557 
Q 359 1206 359 2328 
Q 359 3453 968 4101 
Q 1578 4750 2638 4750 
Q 3056 4750 3426 4639 
Q 3797 4528 4122 4306 
z
" transform="scale(0.015625)"/>
       <path id="DejaVuSans-6f" d="M 1959 3097 
Q 1497 3097 1228 2736 
Q 959 2375 959 1747 
Q 959 1119 1226 758 
Q 1494 397 1959 397 
Q 2419 397 2687 759 
Q 2956 1122 2956 1747 
Q 2956 2369 2687 2733 
Q 2419 3097 1959 3097 
z
M 1959 3584 
Q 2709 3584 3137 3096 
Q 3566 2609 3566 1747 
Q 3566 888 3137 398 
Q 2709 -91 1959 -91 
Q 1206 -91 779 398 
Q 353 888 353 1747 
Q 353 2609 779 3096 
Q 1206 3584 1959 3584 
z
" transform="scale(0.015625)"/>
       <path id="DejaVuSans-72" d="M 2631 2963 
Q 2534 3019 2420 3045 
Q 2306 3072 2169 3072 
Q 1681 3072 1420 2755 
Q 1159 2438 1159 1844 
L 1159 0 
L 581 0 
L 581 3500 
L 1159 3500 
L 1159 2956 
Q 1341 3275 1631 3429 
Q 1922 3584 2338 3584 
Q 2397 3584 2469 3576 
Q 2541 3569 2628 3553 
L 2631 2963 
z
" transform="scale(0.015625)"/>
       <path id="DejaVuSans-65" d="M 3597 1894 
L 3597 1613 
L 953 1613 
Q 991 1019 1311 708 
Q 1631 397 2203 397 
Q 2534 397 2845 478 
Q 3156 559 3463 722 
L 3463 178 
Q 3153 47 2828 -22 
Q 2503 -91 2169 -91 
Q 1331 -91 842 396 
Q 353 884 353 1716 
Q 353 2575 817 3079 
Q 1281 3584 2069 3584 
Q 2775 3584 3186 3129 
Q 3597 2675 3597 1894 
z
M 3022 2063 
Q 3016 2534 2758 2815 
Q 2500 3097 2075 3097 
Q 1594 3097 1305 2825 
Q 1016 2553 972 2059 
L 3022 2063 
z
" transform="scale(0.015625)"/>
       <path id="DejaVuSans-6c" d="M 603 4863 
L 1178 4863 
L 1178 0 
L 603 0 
L 603 4863 
z
" transform="scale(0.015625)"/>
       <path id="DejaVuSans-61" d="M 2194 1759 
Q 1497 1759 1228 1600 
Q 959 1441 959 1056 
Q 959 750 1161 570 
Q 1363 391 1709 391 
Q 2188 391 2477 730 
Q 2766 1069 2766 1631 
L 2766 1759 
L 2194 1759 
z
M 3341 1997 
L 3341 0 
L 2766 0 
L 2766 531 
Q 2569 213 2275 61 
Q 1981 -91 1556 -91 
Q 1019 -91 701 211 
Q 384 513 384 1019 
Q 384 1609 779 1909 
Q 1175 2209 1959 2209 
L 2766 2209 
L 2766 2266 
Q 2766 2663 2505 2880 
Q 2244 3097 1772 3097 
Q 1472 3097 1187 3025 
Q 903 2953 641 2809 
L 641 3341 
Q 956 3463 1253 3523 
Q 1550 3584 1831 3584 
Q 2591 3584 2966 3190 
Q 3341 2797 3341 1997 
z
" transform="scale(0.015625)"/>
       <path id="DejaVuSans-74" d="M 1172 4494 
L 1172 3500 
L 2356 3500 
L 2356 3053 
L 1172 3053 
L 1172 1153 
Q 1172 725 1289 603 
Q 1406 481 1766 481 
L 2356 481 
L 2356 0 
L 1766 0 
Q 1100 0 847 248 
Q 594 497 594 1153 
L 594 3053 
L 172 3053 
L 172 3500 
L 594 3500 
L 594 4494 
L 1172 4494 
z
" transform="scale(0.015625)"/>
       <path id="DejaVuSans-69" d="M 603 3500 
L 1178 3500 
L 1178 0 
L 603 0 
L 603 3500 
z
M 603 4863 
L 1178 4863 
L 1178 4134 
L 603 4134 
L 603 4863 
z
" transform="scale(0.015625)"/>
       <path id="DejaVuSans-6e" d="M 3513 2113 
L 3513 0 
L 2938 0 
L 2938 2094 
Q 2938 2591 2744 2837 
Q 2550 3084 2163 3084 
Q 1697 3084 1428 2787 
Q 1159 2491 1159 1978 
L 1159 0 
L 581 0 
L 581 3500 
L 1159 3500 
L 1159 2956 
Q 1366 3272 1645 3428 
Q 1925 3584 2291 3584 
Q 2894 3584 3203 3211 
Q 3513 2838 3513 2113 
z
" transform="scale(0.015625)"/>
       <path id="DejaVuSans-20" transform="scale(0.015625)"/>
       <path id="DejaVuSans-77" d="M 269 3500 
L 844 3500 
L 1563 769 
L 2278 3500 
L 2956 3500 
L 3675 769 
L 4391 3500 
L 4966 3500 
L 4050 0 
L 3372 0 
L 2619 2869 
L 1863 0 
L 1184 0 
L 269 3500 
z
" transform="scale(0.015625)"/>
       <path id="DejaVuSans-68" d="M 3513 2113 
L 3513 0 
L 2938 0 
L 2938 2094 
Q 2938 2591 2744 2837 
Q 2550 3084 2163 3084 
Q 1697 3084 1428 2787 
Q 1159 2491 1159 1978 
L 1159 0 
L 581 0 
L 581 4863 
L 1159 4863 
L 1159 2956 
Q 1366 3272 1645 3428 
Q 1925 3584 2291 3584 
Q 2894 3584 3203 3211 
Q 3513 2838 3513 2113 
z
" transform="scale(0.015625)"/>
       <path id="DejaVuSans-50" d="M 1259 4147 
L 1259 2394 
L 2053 2394 
Q 2494 2394 2734 2622 
Q 2975 2850 2975 3272 
Q 2975 3691 2734 3919 
Q 2494 4147 2053 4147 
L 1259 4147 
z
M 628 4666 
L 2053 4666 
Q 2838 4666 3239 4311 
Q 3641 3956 3641 3272 
Q 3641 2581 3239 2228 
Q 2838 1875 2053 1875 
L 1259 1875 
L 1259 0 
L 628 0 
L 628 4666 
z
" transform="scale(0.015625)"/>
       <path id="DejaVuSans-64" d="M 2906 2969 
L 2906 4863 
L 3481 4863 
L 3481 0 
L 2906 0 
L 2906 525 
Q 2725 213 2448 61 
Q 2172 -91 1784 -91 
Q 1150 -91 751 415 
Q 353 922 353 1747 
Q 353 2572 751 3078 
Q 1150 3584 1784 3584 
Q 2172 3584 2448 3432 
Q 2725 3281 2906 2969 
z
M 947 1747 
Q 947 1113 1208 752 
Q 1469 391 1925 391 
Q 2381 391 2643 752 
Q 2906 1113 2906 1747 
Q 2906 2381 2643 2742 
Q 2381 3103 1925 3103 
Q 1469 3103 1208 2742 
Q 947 2381 947 1747 
z
" transform="scale(0.015625)"/>
       <path id="DejaVuSans-75" d="M 544 1381 
L 544 3500 
L 1119 3500 
L 1119 1403 
Q 1119 906 1312 657 
Q 1506 409 1894 409 
Q 2359 409 2629 706 
Q 2900 1003 2900 1516 
L 2900 3500 
L 3475 3500 
L 3475 0 
L 2900 0 
L 2900 538 
Q 2691 219 2414 64 
Q 2138 -91 1772 -91 
Q 1169 -91 856 284 
Q 544 659 544 1381 
z
M 1991 3584 
L 1991 3584 
z
" transform="scale(0.015625)"/>
       <path id="DejaVuSans-63" d="M 3122 3366 
L 3122 2828 
Q 2878 2963 2633 3030 
Q 2388 3097 2138 3097 
Q 1578 3097 1268 2742 
Q 959 2388 959 1747 
Q 959 1106 1268 751 
Q 1578 397 2138 397 
Q 2388 397 2633 464 
Q 2878 531 3122 666 
L 3122 134 
Q 2881 22 2623 -34 
Q 2366 -91 2075 -91 
Q 1284 -91 818 406 
Q 353 903 353 1747 
Q 353 2603 823 3093 
Q 1294 3584 2113 3584 
Q 2378 3584 2631 3529 
Q 2884 3475 3122 3366 
z
" transform="scale(0.015625)"/>
      </defs>
      <use xlink:href="#DejaVuSans-43"/>
      <use xlink:href="#DejaVuSans-6f" x="69.824219"/>
      <use xlink:href="#DejaVuSans-72" x="131.005859"/>
      <use xlink:href="#DejaVuSans-72" x="170.369141"/>
      <use xlink:href="#DejaVuSans-65" x="209.232422"/>
      <use xlink:href="#DejaVuSans-6c" x="270.755859"/>
      <use xlink:href="#DejaVuSans-61" x="298.539062"/>
      <use xlink:href="#DejaVuSans-74" x="359.818359"/>
      <use xlink:href="#DejaVuSans-69" x="399.027344"/>
      <use xlink:href="#DejaVuSans-6f" x="426.810547"/>
      <use xlink:href="#DejaVuSans-6e" x="487.992188"/>
      <use xlink:href="#DejaVuSans-20" x="551.371094"/>
      <use xlink:href="#DejaVuSans-77" x="583.158203"/>
      <use xlink:href="#DejaVuSans-69" x="664.945312"/>
      <use xlink:href="#DejaVuSans-74" x="692.728516"/>
      <use xlink:href="#DejaVuSans-68" x="731.9375"/>
      <use xlink:href="#DejaVuSans-20" x="795.316406"/>
      <use xlink:href="#DejaVuSans-50" x="827.103516"/>
      <use xlink:href="#DejaVuSans-72" x="885.65625"/>
      <use xlink:href="#DejaVuSans-6f" x="924.519531"/>
      <use xlink:href="#DejaVuSans-74" x="985.701172"/>
      <use xlink:href="#DejaVuSans-65" x="1024.910156"/>
      <use xlink:href="#DejaVuSans-69" x="1086.433594"/>
      <use xlink:href="#DejaVuSans-6e" x="1114.216797"/>
      <use xlink:href="#DejaVuSans-20" x="1177.595703"/>
      <use xlink:href="#DejaVuSans-50" x="1209.382812"/>
      <use xlink:href="#DejaVuSans-72" x="1267.935547"/>
      <use xlink:href="#DejaVuSans-6f" x="1306.798828"/>
      <use xlink:href="#DejaVuSans-64" x="1367.980469"/>
      <use xlink:href="#DejaVuSans-75" x="1431.457031"/>
      <use xlink:href="#DejaVuSans-63" x="1494.835938"/>
      <use xlink:href="#DejaVuSans-74" x="1549.816406"/>
      <use xlink:href="#DejaVuSans-69" x="1589.025391"/>
      <use xlink:href="#DejaVuSans-6f" x="1616.808594"/>
      <use xlink:href="#DejaVuSans-6e" x="1677.990234"/>
     </g>
    </g>
   </g>
   <g id="matplotlib.axis_2">
    <g id="ytick_1">
     <g id="line2d_8">
      <defs>
       <path id="meace171feb" d="M 0 0 
L -3.5 0 
" style="stroke: #000000; stroke-width: 0.8"/>
      </defs>
      <g>
       <use xlink:href="#meace171feb" x="92.616875" y="322.404129" style="stroke: #000000; stroke-width: 0.8"/>
      </g>
     </g>
     <g id="text_9">
      <!-- −0.3 -->
      <g transform="translate(61.334063 326.203348) scale(0.1 -0.1)">
       <defs>
        <path id="DejaVuSans-33" d="M 2597 2516 
Q 3050 2419 3304 2112 
Q 3559 1806 3559 1356 
Q 3559 666 3084 287 
Q 2609 -91 1734 -91 
Q 1441 -91 1130 -33 
Q 819 25 488 141 
L 488 750 
Q 750 597 1062 519 
Q 1375 441 1716 441 
Q 2309 441 2620 675 
Q 2931 909 2931 1356 
Q 2931 1769 2642 2001 
Q 2353 2234 1838 2234 
L 1294 2234 
L 1294 2753 
L 1863 2753 
Q 2328 2753 2575 2939 
Q 2822 3125 2822 3475 
Q 2822 3834 2567 4026 
Q 2313 4219 1838 4219 
Q 1578 4219 1281 4162 
Q 984 4106 628 3988 
L 628 4550 
Q 988 4650 1302 4700 
Q 1616 4750 1894 4750 
Q 2613 4750 3031 4423 
Q 3450 4097 3450 3541 
Q 3450 3153 3228 2886 
Q 3006 2619 2597 2516 
z
" transform="scale(0.015625)"/>
       </defs>
       <use xlink:href="#DejaVuSans-2212"/>
       <use xlink:href="#DejaVuSans-30" x="83.789062"/>
       <use xlink:href="#DejaVuSans-2e" x="147.412109"/>
       <use xlink:href="#DejaVuSans-33" x="179.199219"/>
      </g>
     </g>
    </g>
    <g id="ytick_2">
     <g id="line2d_9">
      <g>
       <use xlink:href="#meace171feb" x="92.616875" y="276.211198" style="stroke: #000000; stroke-width: 0.8"/>
      </g>
     </g>
     <g id="text_10">
      <!-- −0.2 -->
      <g transform="translate(61.334063 280.010417) scale(0.1 -0.1)">
       <use xlink:href="#DejaVuSans-2212"/>
       <use xlink:href="#DejaVuSans-30" x="83.789062"/>
       <use xlink:href="#DejaVuSans-2e" x="147.412109"/>
       <use xlink:href="#DejaVuSans-32" x="179.199219"/>
      </g>
     </g>
    </g>
    <g id="ytick_3">
     <g id="line2d_10">
      <g>
       <use xlink:href="#meace171feb" x="92.616875" y="230.018267" style="stroke: #000000; stroke-width: 0.8"/>
      </g>
     </g>
     <g id="text_11">
      <!-- −0.1 -->
      <g transform="translate(61.334063 233.817486) scale(0.1 -0.1)">
       <defs>
        <path id="DejaVuSans-31" d="M 794 531 
L 1825 531 
L 1825 4091 
L 703 3866 
L 703 4441 
L 1819 4666 
L 2450 4666 
L 2450 531 
L 3481 531 
L 3481 0 
L 794 0 
L 794 531 
z
" transform="scale(0.015625)"/>
       </defs>
       <use xlink:href="#DejaVuSans-2212"/>
       <use xlink:href="#DejaVuSans-30" x="83.789062"/>
       <use xlink:href="#DejaVuSans-2e" x="147.412109"/>
       <use xlink:href="#DejaVuSans-31" x="179.199219"/>
      </g>
     </g>
    </g>
    <g id="ytick_4">
     <g id="line2d_11">
      <g>
       <use xlink:href="#meace171feb" x="92.616875" y="183.825336" style="stroke: #000000; stroke-width: 0.8"/>
      </g>
     </g>
     <g id="text_12">
      <!-- 0.0 -->
      <g transform="translate(69.71375 187.624555) scale(0.1 -0.1)">
       <use xlink:href="#DejaVuSans-30"/>
       <use xlink:href="#DejaVuSans-2e" x="63.623047"/>
       <use xlink:href="#DejaVuSans-30" x="95.410156"/>
      </g>
     </g>
    </g>
    <g id="ytick_5">
     <g id="line2d_12">
      <g>
       <use xlink:href="#meace171feb" x="92.616875" y="137.632405" style="stroke: #000000; stroke-width: 0.8"/>
      </g>
     </g>
     <g id="text_13">
      <!-- 0.1 -->
      <g transform="translate(69.71375 141.431624) scale(0.1 -0.1)">
       <use xlink:href="#DejaVuSans-30"/>
       <use xlink:href="#DejaVuSans-2e" x="63.623047"/>
       <use xlink:href="#DejaVuSans-31" x="95.410156"/>
      </g>
     </g>
    </g>
    <g id="ytick_6">
     <g id="line2d_13">
      <g>
       <use xlink:href="#meace171feb" x="92.616875" y="91.439474" style="stroke: #000000; stroke-width: 0.8"/>
      </g>
     </g>
     <g id="text_14">
      <!-- 0.2 -->
      <g transform="translate(69.71375 95.238693) scale(0.1 -0.1)">
       <use xlink:href="#DejaVuSans-30"/>
       <use xlink:href="#DejaVuSans-2e" x="63.623047"/>
       <use xlink:href="#DejaVuSans-32" x="95.410156"/>
      </g>
     </g>
    </g>
    <g id="ytick_7">
     <g id="line2d_14">
      <g>
       <use xlink:href="#meace171feb" x="92.616875" y="45.246543" style="stroke: #000000; stroke-width: 0.8"/>
      </g>
     </g>
     <g id="text_15">
      <!-- 0.3 -->
      <g transform="translate(69.71375 49.045762) scale(0.1 -0.1)">
       <use xlink:href="#DejaVuSans-30"/>
       <use xlink:href="#DejaVuSans-2e" x="63.623047"/>
       <use xlink:href="#DejaVuSans-33" x="95.410156"/>
      </g>
     </g>
    </g>
    <g id="text_16">
     <!-- Correlation with Cysteine Composition -->
     <g transform="translate(54.630469 314.821719) rotate(-90) scale(0.13 -0.13)">
      <defs>
       <path id="DejaVuSans-79" d="M 2059 -325 
Q 1816 -950 1584 -1140 
Q 1353 -1331 966 -1331 
L 506 -1331 
L 506 -850 
L 844 -850 
Q 1081 -850 1212 -737 
Q 1344 -625 1503 -206 
L 1606 56 
L 191 3500 
L 800 3500 
L 1894 763 
L 2988 3500 
L 3597 3500 
L 2059 -325 
z
" transform="scale(0.015625)"/>
       <path id="DejaVuSans-73" d="M 2834 3397 
L 2834 2853 
Q 2591 2978 2328 3040 
Q 2066 3103 1784 3103 
Q 1356 3103 1142 2972 
Q 928 2841 928 2578 
Q 928 2378 1081 2264 
Q 1234 2150 1697 2047 
L 1894 2003 
Q 2506 1872 2764 1633 
Q 3022 1394 3022 966 
Q 3022 478 2636 193 
Q 2250 -91 1575 -91 
Q 1294 -91 989 -36 
Q 684 19 347 128 
L 347 722 
Q 666 556 975 473 
Q 1284 391 1588 391 
Q 1994 391 2212 530 
Q 2431 669 2431 922 
Q 2431 1156 2273 1281 
Q 2116 1406 1581 1522 
L 1381 1569 
Q 847 1681 609 1914 
Q 372 2147 372 2553 
Q 372 3047 722 3315 
Q 1072 3584 1716 3584 
Q 2034 3584 2315 3537 
Q 2597 3491 2834 3397 
z
" transform="scale(0.015625)"/>
       <path id="DejaVuSans-6d" d="M 3328 2828 
Q 3544 3216 3844 3400 
Q 4144 3584 4550 3584 
Q 5097 3584 5394 3201 
Q 5691 2819 5691 2113 
L 5691 0 
L 5113 0 
L 5113 2094 
Q 5113 2597 4934 2840 
Q 4756 3084 4391 3084 
Q 3944 3084 3684 2787 
Q 3425 2491 3425 1978 
L 3425 0 
L 2847 0 
L 2847 2094 
Q 2847 2600 2669 2842 
Q 2491 3084 2119 3084 
Q 1678 3084 1418 2786 
Q 1159 2488 1159 1978 
L 1159 0 
L 581 0 
L 581 3500 
L 1159 3500 
L 1159 2956 
Q 1356 3278 1631 3431 
Q 1906 3584 2284 3584 
Q 2666 3584 2933 3390 
Q 3200 3197 3328 2828 
z
" transform="scale(0.015625)"/>
       <path id="DejaVuSans-70" d="M 1159 525 
L 1159 -1331 
L 581 -1331 
L 581 3500 
L 1159 3500 
L 1159 2969 
Q 1341 3281 1617 3432 
Q 1894 3584 2278 3584 
Q 2916 3584 3314 3078 
Q 3713 2572 3713 1747 
Q 3713 922 3314 415 
Q 2916 -91 2278 -91 
Q 1894 -91 1617 61 
Q 1341 213 1159 525 
z
M 3116 1747 
Q 3116 2381 2855 2742 
Q 2594 3103 2138 3103 
Q 1681 3103 1420 2742 
Q 1159 2381 1159 1747 
Q 1159 1113 1420 752 
Q 1681 391 2138 391 
Q 2594 391 2855 752 
Q 3116 1113 3116 1747 
z
" transform="scale(0.015625)"/>
      </defs>
      <use xlink:href="#DejaVuSans-43"/>
      <use xlink:href="#DejaVuSans-6f" x="69.824219"/>
      <use xlink:href="#DejaVuSans-72" x="131.005859"/>
      <use xlink:href="#DejaVuSans-72" x="170.369141"/>
      <use xlink:href="#DejaVuSans-65" x="209.232422"/>
      <use xlink:href="#DejaVuSans-6c" x="270.755859"/>
      <use xlink:href="#DejaVuSans-61" x="298.539062"/>
      <use xlink:href="#DejaVuSans-74" x="359.818359"/>
      <use xlink:href="#DejaVuSans-69" x="399.027344"/>
      <use xlink:href="#DejaVuSans-6f" x="426.810547"/>
      <use xlink:href="#DejaVuSans-6e" x="487.992188"/>
      <use xlink:href="#DejaVuSans-20" x="551.371094"/>
      <use xlink:href="#DejaVuSans-77" x="583.158203"/>
      <use xlink:href="#DejaVuSans-69" x="664.945312"/>
      <use xlink:href="#DejaVuSans-74" x="692.728516"/>
      <use xlink:href="#DejaVuSans-68" x="731.9375"/>
      <use xlink:href="#DejaVuSans-20" x="795.316406"/>
      <use xlink:href="#DejaVuSans-43" x="827.103516"/>
      <use xlink:href="#DejaVuSans-79" x="896.927734"/>
      <use xlink:href="#DejaVuSans-73" x="956.107422"/>
      <use xlink:href="#DejaVuSans-74" x="1008.207031"/>
      <use xlink:href="#DejaVuSans-65" x="1047.416016"/>
      <use xlink:href="#DejaVuSans-69" x="1108.939453"/>
      <use xlink:href="#DejaVuSans-6e" x="1136.722656"/>
      <use xlink:href="#DejaVuSans-65" x="1200.101562"/>
      <use xlink:href="#DejaVuSans-20" x="1261.625"/>
      <use xlink:href="#DejaVuSans-43" x="1293.412109"/>
      <use xlink:href="#DejaVuSans-6f" x="1363.236328"/>
      <use xlink:href="#DejaVuSans-6d" x="1424.417969"/>
      <use xlink:href="#DejaVuSans-70" x="1521.830078"/>
      <use xlink:href="#DejaVuSans-6f" x="1585.306641"/>
      <use xlink:href="#DejaVuSans-73" x="1646.488281"/>
      <use xlink:href="#DejaVuSans-69" x="1698.587891"/>
      <use xlink:href="#DejaVuSans-74" x="1726.371094"/>
      <use xlink:href="#DejaVuSans-69" x="1765.580078"/>
      <use xlink:href="#DejaVuSans-6f" x="1793.363281"/>
      <use xlink:href="#DejaVuSans-6e" x="1854.544922"/>
     </g>
    </g>
   </g>
   <g id="line2d_15">
    <path d="M 92.616875 183.825336 
L 539.016875 183.825336 
" clip-path="url(#pf40354edcc)" style="fill: none; stroke-dasharray: 1.85,0.8; stroke-dashoffset: 0; stroke: #000000; stroke-width: 0.5"/>
   </g>
   <g id="line2d_16">
    <path d="M 314.735464 356.477813 
L 314.735464 23.837813 
" clip-path="url(#pf40354edcc)" style="fill: none; stroke-dasharray: 1.85,0.8; stroke-dashoffset: 0; stroke: #000000; stroke-width: 0.5"/>
   </g>
   <g id="patch_3">
    <path d="M 92.616875 356.477813 
L 92.616875 23.837813 
" style="fill: none; stroke: #000000; stroke-width: 0.8; stroke-linejoin: miter; stroke-linecap: square"/>
   </g>
   <g id="patch_4">
    <path d="M 539.016875 356.477813 
L 539.016875 23.837813 
" style="fill: none; stroke: #000000; stroke-width: 0.8; stroke-linejoin: miter; stroke-linecap: square"/>
   </g>
   <g id="patch_5">
    <path d="M 92.616875 356.477813 
L 539.016875 356.477813 
" style="fill: none; stroke: #000000; stroke-width: 0.8; stroke-linejoin: miter; stroke-linecap: square"/>
   </g>
   <g id="patch_6">
    <path d="M 92.616875 23.837813 
L 539.016875 23.837813 
" style="fill: none; stroke: #000000; stroke-width: 0.8; stroke-linejoin: miter; stroke-linecap: square"/>
   </g>
   <g id="text_17">
    <!-- Slc11a2 -->
    <g transform="translate(521.861338 266.59549) scale(0.09 -0.09)">
     <defs>
      <path id="DejaVuSans-53" d="M 3425 4513 
L 3425 3897 
Q 3066 4069 2747 4153 
Q 2428 4238 2131 4238 
Q 1616 4238 1336 4038 
Q 1056 3838 1056 3469 
Q 1056 3159 1242 3001 
Q 1428 2844 1947 2747 
L 2328 2669 
Q 3034 2534 3370 2195 
Q 3706 1856 3706 1288 
Q 3706 609 3251 259 
Q 2797 -91 1919 -91 
Q 1588 -91 1214 -16 
Q 841 59 441 206 
L 441 856 
Q 825 641 1194 531 
Q 1563 422 1919 422 
Q 2459 422 2753 634 
Q 3047 847 3047 1241 
Q 3047 1584 2836 1778 
Q 2625 1972 2144 2069 
L 1759 2144 
Q 1053 2284 737 2584 
Q 422 2884 422 3419 
Q 422 4038 858 4394 
Q 1294 4750 2059 4750 
Q 2388 4750 2728 4690 
Q 3069 4631 3425 4513 
z
" transform="scale(0.015625)"/>
     </defs>
     <use xlink:href="#DejaVuSans-53"/>
     <use xlink:href="#DejaVuSans-6c" x="63.476562"/>
     <use xlink:href="#DejaVuSans-63" x="91.259766"/>
     <use xlink:href="#DejaVuSans-31" x="146.240234"/>
     <use xlink:href="#DejaVuSans-31" x="209.863281"/>
     <use xlink:href="#DejaVuSans-61" x="273.486328"/>
     <use xlink:href="#DejaVuSans-32" x="334.765625"/>
    </g>
   </g>
   <g id="text_18">
    <!-- Slc7a11 -->
    <g transform="translate(500.61644 277.824154) scale(0.09 -0.09)">
     <defs>
      <path id="DejaVuSans-37" d="M 525 4666 
L 3525 4666 
L 3525 4397 
L 1831 0 
L 1172 0 
L 2766 4134 
L 525 4134 
L 525 4666 
z
" transform="scale(0.015625)"/>
     </defs>
     <use xlink:href="#DejaVuSans-53"/>
     <use xlink:href="#DejaVuSans-6c" x="63.476562"/>
     <use xlink:href="#DejaVuSans-63" x="91.259766"/>
     <use xlink:href="#DejaVuSans-37" x="146.240234"/>
     <use xlink:href="#DejaVuSans-61" x="209.863281"/>
     <use xlink:href="#DejaVuSans-31" x="271.142578"/>
     <use xlink:href="#DejaVuSans-31" x="334.765625"/>
    </g>
   </g>
   <g id="text_19">
    <!-- Slc25a24 -->
    <g transform="translate(484.91698 311.433751) scale(0.09 -0.09)">
     <defs>
      <path id="DejaVuSans-35" d="M 691 4666 
L 3169 4666 
L 3169 4134 
L 1269 4134 
L 1269 2991 
Q 1406 3038 1543 3061 
Q 1681 3084 1819 3084 
Q 2600 3084 3056 2656 
Q 3513 2228 3513 1497 
Q 3513 744 3044 326 
Q 2575 -91 1722 -91 
Q 1428 -91 1123 -41 
Q 819 9 494 109 
L 494 744 
Q 775 591 1075 516 
Q 1375 441 1709 441 
Q 2250 441 2565 725 
Q 2881 1009 2881 1497 
Q 2881 1984 2565 2268 
Q 2250 2553 1709 2553 
Q 1456 2553 1204 2497 
Q 953 2441 691 2322 
L 691 4666 
z
" transform="scale(0.015625)"/>
     </defs>
     <use xlink:href="#DejaVuSans-53"/>
     <use xlink:href="#DejaVuSans-6c" x="63.476562"/>
     <use xlink:href="#DejaVuSans-63" x="91.259766"/>
     <use xlink:href="#DejaVuSans-32" x="146.240234"/>
     <use xlink:href="#DejaVuSans-35" x="209.863281"/>
     <use xlink:href="#DejaVuSans-61" x="273.486328"/>
     <use xlink:href="#DejaVuSans-32" x="334.765625"/>
     <use xlink:href="#DejaVuSans-34" x="398.388672"/>
    </g>
   </g>
   <g id="text_20">
    <!-- Zfand1 -->
    <g transform="translate(477.065194 336.738519) scale(0.09 -0.09)">
     <defs>
      <path id="DejaVuSans-5a" d="M 359 4666 
L 4025 4666 
L 4025 4184 
L 1075 531 
L 4097 531 
L 4097 0 
L 288 0 
L 288 481 
L 3238 4134 
L 359 4134 
L 359 4666 
z
" transform="scale(0.015625)"/>
      <path id="DejaVuSans-66" d="M 2375 4863 
L 2375 4384 
L 1825 4384 
Q 1516 4384 1395 4259 
Q 1275 4134 1275 3809 
L 1275 3500 
L 2222 3500 
L 2222 3053 
L 1275 3053 
L 1275 0 
L 697 0 
L 697 3053 
L 147 3053 
L 147 3500 
L 697 3500 
L 697 3744 
Q 697 4328 969 4595 
Q 1241 4863 1831 4863 
L 2375 4863 
z
" transform="scale(0.015625)"/>
     </defs>
     <use xlink:href="#DejaVuSans-5a"/>
     <use xlink:href="#DejaVuSans-66" x="68.505859"/>
     <use xlink:href="#DejaVuSans-61" x="103.710938"/>
     <use xlink:href="#DejaVuSans-6e" x="164.990234"/>
     <use xlink:href="#DejaVuSans-64" x="228.369141"/>
     <use xlink:href="#DejaVuSans-31" x="291.845703"/>
    </g>
   </g>
   <g id="text_21">
    <!-- Gskip -->
    <g transform="translate(473.084277 316.438581) scale(0.09 -0.09)">
     <defs>
      <path id="DejaVuSans-47" d="M 3809 666 
L 3809 1919 
L 2778 1919 
L 2778 2438 
L 4434 2438 
L 4434 434 
Q 4069 175 3628 42 
Q 3188 -91 2688 -91 
Q 1594 -91 976 548 
Q 359 1188 359 2328 
Q 359 3472 976 4111 
Q 1594 4750 2688 4750 
Q 3144 4750 3555 4637 
Q 3966 4525 4313 4306 
L 4313 3634 
Q 3963 3931 3569 4081 
Q 3175 4231 2741 4231 
Q 1884 4231 1454 3753 
Q 1025 3275 1025 2328 
Q 1025 1384 1454 906 
Q 1884 428 2741 428 
Q 3075 428 3337 486 
Q 3600 544 3809 666 
z
" transform="scale(0.015625)"/>
      <path id="DejaVuSans-6b" d="M 581 4863 
L 1159 4863 
L 1159 1991 
L 2875 3500 
L 3609 3500 
L 1753 1863 
L 3688 0 
L 2938 0 
L 1159 1709 
L 1159 0 
L 581 0 
L 581 4863 
z
" transform="scale(0.015625)"/>
     </defs>
     <use xlink:href="#DejaVuSans-47"/>
     <use xlink:href="#DejaVuSans-73" x="77.490234"/>
     <use xlink:href="#DejaVuSans-6b" x="129.589844"/>
     <use xlink:href="#DejaVuSans-69" x="187.5"/>
     <use xlink:href="#DejaVuSans-70" x="215.283203"/>
    </g>
   </g>
   <g id="text_22">
    <!-- Endog -->
    <g transform="translate(137.803391 61.21304) scale(0.09 -0.09)">
     <defs>
      <path id="DejaVuSans-45" d="M 628 4666 
L 3578 4666 
L 3578 4134 
L 1259 4134 
L 1259 2753 
L 3481 2753 
L 3481 2222 
L 1259 2222 
L 1259 531 
L 3634 531 
L 3634 0 
L 628 0 
L 628 4666 
z
" transform="scale(0.015625)"/>
      <path id="DejaVuSans-67" d="M 2906 1791 
Q 2906 2416 2648 2759 
Q 2391 3103 1925 3103 
Q 1463 3103 1205 2759 
Q 947 2416 947 1791 
Q 947 1169 1205 825 
Q 1463 481 1925 481 
Q 2391 481 2648 825 
Q 2906 1169 2906 1791 
z
M 3481 434 
Q 3481 -459 3084 -895 
Q 2688 -1331 1869 -1331 
Q 1566 -1331 1297 -1286 
Q 1028 -1241 775 -1147 
L 775 -588 
Q 1028 -725 1275 -790 
Q 1522 -856 1778 -856 
Q 2344 -856 2625 -561 
Q 2906 -266 2906 331 
L 2906 616 
Q 2728 306 2450 153 
Q 2172 0 1784 0 
Q 1141 0 747 490 
Q 353 981 353 1791 
Q 353 2603 747 3093 
Q 1141 3584 1784 3584 
Q 2172 3584 2450 3431 
Q 2728 3278 2906 2969 
L 2906 3500 
L 3481 3500 
L 3481 434 
z
" transform="scale(0.015625)"/>
     </defs>
     <use xlink:href="#DejaVuSans-45"/>
     <use xlink:href="#DejaVuSans-6e" x="63.183594"/>
     <use xlink:href="#DejaVuSans-64" x="126.5625"/>
     <use xlink:href="#DejaVuSans-6f" x="190.039062"/>
     <use xlink:href="#DejaVuSans-67" x="251.220703"/>
    </g>
   </g>
   <g id="text_23">
    <!-- Trex1 -->
    <g transform="translate(132.115801 121.200295) scale(0.09 -0.09)">
     <defs>
      <path id="DejaVuSans-54" d="M -19 4666 
L 3928 4666 
L 3928 4134 
L 2272 4134 
L 2272 0 
L 1638 0 
L 1638 4134 
L -19 4134 
L -19 4666 
z
" transform="scale(0.015625)"/>
      <path id="DejaVuSans-78" d="M 3513 3500 
L 2247 1797 
L 3578 0 
L 2900 0 
L 1881 1375 
L 863 0 
L 184 0 
L 1544 1831 
L 300 3500 
L 978 3500 
L 1906 2253 
L 2834 3500 
L 3513 3500 
z
" transform="scale(0.015625)"/>
     </defs>
     <use xlink:href="#DejaVuSans-54"/>
     <use xlink:href="#DejaVuSans-72" x="46.333984"/>
     <use xlink:href="#DejaVuSans-65" x="85.197266"/>
     <use xlink:href="#DejaVuSans-78" x="144.970703"/>
     <use xlink:href="#DejaVuSans-31" x="204.150391"/>
    </g>
   </g>
   <g id="text_24">
    <!-- Keap1 -->
    <g transform="translate(116.043156 34.338519) scale(0.09 -0.09)">
     <defs>
      <path id="DejaVuSans-4b" d="M 628 4666 
L 1259 4666 
L 1259 2694 
L 3353 4666 
L 4166 4666 
L 1850 2491 
L 4331 0 
L 3500 0 
L 1259 2247 
L 1259 0 
L 628 0 
L 628 4666 
z
" transform="scale(0.015625)"/>
     </defs>
     <use xlink:href="#DejaVuSans-4b"/>
     <use xlink:href="#DejaVuSans-65" x="60.576172"/>
     <use xlink:href="#DejaVuSans-61" x="122.099609"/>
     <use xlink:href="#DejaVuSans-70" x="183.378906"/>
     <use xlink:href="#DejaVuSans-31" x="246.855469"/>
    </g>
   </g>
   <g id="text_25">
    <!-- Correlation of Oxidative Stress Genes with Protein Production and Cysteine Composition -->
    <g transform="translate(7.2 17.837813) scale(0.14 -0.14)">
     <defs>
      <path id="DejaVuSans-4f" d="M 2522 4238 
Q 1834 4238 1429 3725 
Q 1025 3213 1025 2328 
Q 1025 1447 1429 934 
Q 1834 422 2522 422 
Q 3209 422 3611 934 
Q 4013 1447 4013 2328 
Q 4013 3213 3611 3725 
Q 3209 4238 2522 4238 
z
M 2522 4750 
Q 3503 4750 4090 4092 
Q 4678 3434 4678 2328 
Q 4678 1225 4090 567 
Q 3503 -91 2522 -91 
Q 1538 -91 948 565 
Q 359 1222 359 2328 
Q 359 3434 948 4092 
Q 1538 4750 2522 4750 
z
" transform="scale(0.015625)"/>
      <path id="DejaVuSans-76" d="M 191 3500 
L 800 3500 
L 1894 563 
L 2988 3500 
L 3597 3500 
L 2284 0 
L 1503 0 
L 191 3500 
z
" transform="scale(0.015625)"/>
     </defs>
     <use xlink:href="#DejaVuSans-43"/>
     <use xlink:href="#DejaVuSans-6f" x="69.824219"/>
     <use xlink:href="#DejaVuSans-72" x="131.005859"/>
     <use xlink:href="#DejaVuSans-72" x="170.369141"/>
     <use xlink:href="#DejaVuSans-65" x="209.232422"/>
     <use xlink:href="#DejaVuSans-6c" x="270.755859"/>
     <use xlink:href="#DejaVuSans-61" x="298.539062"/>
     <use xlink:href="#DejaVuSans-74" x="359.818359"/>
     <use xlink:href="#DejaVuSans-69" x="399.027344"/>
     <use xlink:href="#DejaVuSans-6f" x="426.810547"/>
     <use xlink:href="#DejaVuSans-6e" x="487.992188"/>
     <use xlink:href="#DejaVuSans-20" x="551.371094"/>
     <use xlink:href="#DejaVuSans-6f" x="583.158203"/>
     <use xlink:href="#DejaVuSans-66" x="644.339844"/>
     <use xlink:href="#DejaVuSans-20" x="679.544922"/>
     <use xlink:href="#DejaVuSans-4f" x="711.332031"/>
     <use xlink:href="#DejaVuSans-78" x="790.042969"/>
     <use xlink:href="#DejaVuSans-69" x="849.222656"/>
     <use xlink:href="#DejaVuSans-64" x="877.005859"/>
     <use xlink:href="#DejaVuSans-61" x="940.482422"/>
     <use xlink:href="#DejaVuSans-74" x="1001.761719"/>
     <use xlink:href="#DejaVuSans-69" x="1040.970703"/>
     <use xlink:href="#DejaVuSans-76" x="1068.753906"/>
     <use xlink:href="#DejaVuSans-65" x="1127.933594"/>
     <use xlink:href="#DejaVuSans-20" x="1189.457031"/>
     <use xlink:href="#DejaVuSans-53" x="1221.244141"/>
     <use xlink:href="#DejaVuSans-74" x="1284.720703"/>
     <use xlink:href="#DejaVuSans-72" x="1323.929688"/>
     <use xlink:href="#DejaVuSans-65" x="1362.792969"/>
     <use xlink:href="#DejaVuSans-73" x="1424.316406"/>
     <use xlink:href="#DejaVuSans-73" x="1476.416016"/>
     <use xlink:href="#DejaVuSans-20" x="1528.515625"/>
     <use xlink:href="#DejaVuSans-47" x="1560.302734"/>
     <use xlink:href="#DejaVuSans-65" x="1637.792969"/>
     <use xlink:href="#DejaVuSans-6e" x="1699.316406"/>
     <use xlink:href="#DejaVuSans-65" x="1762.695312"/>
     <use xlink:href="#DejaVuSans-73" x="1824.21875"/>
     <use xlink:href="#DejaVuSans-20" x="1876.318359"/>
     <use xlink:href="#DejaVuSans-77" x="1908.105469"/>
     <use xlink:href="#DejaVuSans-69" x="1989.892578"/>
     <use xlink:href="#DejaVuSans-74" x="2017.675781"/>
     <use xlink:href="#DejaVuSans-68" x="2056.884766"/>
     <use xlink:href="#DejaVuSans-20" x="2120.263672"/>
     <use xlink:href="#DejaVuSans-50" x="2152.050781"/>
     <use xlink:href="#DejaVuSans-72" x="2210.603516"/>
     <use xlink:href="#DejaVuSans-6f" x="2249.466797"/>
     <use xlink:href="#DejaVuSans-74" x="2310.648438"/>
     <use xlink:href="#DejaVuSans-65" x="2349.857422"/>
     <use xlink:href="#DejaVuSans-69" x="2411.380859"/>
     <use xlink:href="#DejaVuSans-6e" x="2439.164062"/>
     <use xlink:href="#DejaVuSans-20" x="2502.542969"/>
     <use xlink:href="#DejaVuSans-50" x="2534.330078"/>
     <use xlink:href="#DejaVuSans-72" x="2592.882812"/>
     <use xlink:href="#DejaVuSans-6f" x="2631.746094"/>
     <use xlink:href="#DejaVuSans-64" x="2692.927734"/>
     <use xlink:href="#DejaVuSans-75" x="2756.404297"/>
     <use xlink:href="#DejaVuSans-63" x="2819.783203"/>
     <use xlink:href="#DejaVuSans-74" x="2874.763672"/>
     <use xlink:href="#DejaVuSans-69" x="2913.972656"/>
     <use xlink:href="#DejaVuSans-6f" x="2941.755859"/>
     <use xlink:href="#DejaVuSans-6e" x="3002.9375"/>
     <use xlink:href="#DejaVuSans-20" x="3066.316406"/>
     <use xlink:href="#DejaVuSans-61" x="3098.103516"/>
     <use xlink:href="#DejaVuSans-6e" x="3159.382812"/>
     <use xlink:href="#DejaVuSans-64" x="3222.761719"/>
     <use xlink:href="#DejaVuSans-20" x="3286.238281"/>
     <use xlink:href="#DejaVuSans-43" x="3318.025391"/>
     <use xlink:href="#DejaVuSans-79" x="3387.849609"/>
     <use xlink:href="#DejaVuSans-73" x="3447.029297"/>
     <use xlink:href="#DejaVuSans-74" x="3499.128906"/>
     <use xlink:href="#DejaVuSans-65" x="3538.337891"/>
     <use xlink:href="#DejaVuSans-69" x="3599.861328"/>
     <use xlink:href="#DejaVuSans-6e" x="3627.644531"/>
     <use xlink:href="#DejaVuSans-65" x="3691.023438"/>
     <use xlink:href="#DejaVuSans-20" x="3752.546875"/>
     <use xlink:href="#DejaVuSans-43" x="3784.333984"/>
     <use xlink:href="#DejaVuSans-6f" x="3854.158203"/>
     <use xlink:href="#DejaVuSans-6d" x="3915.339844"/>
     <use xlink:href="#DejaVuSans-70" x="4012.751953"/>
     <use xlink:href="#DejaVuSans-6f" x="4076.228516"/>
     <use xlink:href="#DejaVuSans-73" x="4137.410156"/>
     <use xlink:href="#DejaVuSans-69" x="4189.509766"/>
     <use xlink:href="#DejaVuSans-74" x="4217.292969"/>
     <use xlink:href="#DejaVuSans-69" x="4256.501953"/>
     <use xlink:href="#DejaVuSans-6f" x="4284.285156"/>
     <use xlink:href="#DejaVuSans-6e" x="4345.466797"/>
    </g>
   </g>
   <g id="legend_1">
    <g id="patch_7">
     <path d="M 568.336875 90.550313 
L 767.016563 90.550313 
Q 769.016563 90.550313 769.016563 88.550313 
L 769.016563 30.837813 
Q 769.016563 28.837813 767.016563 28.837813 
L 568.336875 28.837813 
Q 566.336875 28.837813 566.336875 30.837813 
L 566.336875 88.550313 
Q 566.336875 90.550313 568.336875 90.550313 
z
" style="fill: #ffffff; opacity: 0.8; stroke: #cccccc; stroke-linejoin: miter"/>
    </g>
    <g id="text_26">
     <!-- Correlation Category -->
     <g transform="translate(615.678281 40.43625) scale(0.1 -0.1)">
      <use xlink:href="#DejaVuSans-43"/>
      <use xlink:href="#DejaVuSans-6f" x="69.824219"/>
      <use xlink:href="#DejaVuSans-72" x="131.005859"/>
      <use xlink:href="#DejaVuSans-72" x="170.369141"/>
      <use xlink:href="#DejaVuSans-65" x="209.232422"/>
      <use xlink:href="#DejaVuSans-6c" x="270.755859"/>
      <use xlink:href="#DejaVuSans-61" x="298.539062"/>
      <use xlink:href="#DejaVuSans-74" x="359.818359"/>
      <use xlink:href="#DejaVuSans-69" x="399.027344"/>
      <use xlink:href="#DejaVuSans-6f" x="426.810547"/>
      <use xlink:href="#DejaVuSans-6e" x="487.992188"/>
      <use xlink:href="#DejaVuSans-20" x="551.371094"/>
      <use xlink:href="#DejaVuSans-43" x="583.158203"/>
      <use xlink:href="#DejaVuSans-61" x="652.982422"/>
      <use xlink:href="#DejaVuSans-74" x="714.261719"/>
      <use xlink:href="#DejaVuSans-65" x="753.470703"/>
      <use xlink:href="#DejaVuSans-67" x="814.994141"/>
      <use xlink:href="#DejaVuSans-6f" x="878.470703"/>
      <use xlink:href="#DejaVuSans-72" x="939.652344"/>
      <use xlink:href="#DejaVuSans-79" x="980.765625"/>
     </g>
    </g>
    <g id="patch_8">
     <path d="M 570.336875 55.114375 
L 590.336875 55.114375 
L 590.336875 48.114375 
L 570.336875 48.114375 
z
" style="fill: #008000; stroke: #008000; stroke-linejoin: miter"/>
    </g>
    <g id="text_27">
     <!-- Overexpressed in High producers -->
     <g transform="translate(598.336875 55.114375) scale(0.1 -0.1)">
      <defs>
       <path id="DejaVuSans-48" d="M 628 4666 
L 1259 4666 
L 1259 2753 
L 3553 2753 
L 3553 4666 
L 4184 4666 
L 4184 0 
L 3553 0 
L 3553 2222 
L 1259 2222 
L 1259 0 
L 628 0 
L 628 4666 
z
" transform="scale(0.015625)"/>
      </defs>
      <use xlink:href="#DejaVuSans-4f"/>
      <use xlink:href="#DejaVuSans-76" x="78.710938"/>
      <use xlink:href="#DejaVuSans-65" x="137.890625"/>
      <use xlink:href="#DejaVuSans-72" x="199.414062"/>
      <use xlink:href="#DejaVuSans-65" x="238.277344"/>
      <use xlink:href="#DejaVuSans-78" x="298.050781"/>
      <use xlink:href="#DejaVuSans-70" x="357.230469"/>
      <use xlink:href="#DejaVuSans-72" x="420.707031"/>
      <use xlink:href="#DejaVuSans-65" x="459.570312"/>
      <use xlink:href="#DejaVuSans-73" x="521.09375"/>
      <use xlink:href="#DejaVuSans-73" x="573.193359"/>
      <use xlink:href="#DejaVuSans-65" x="625.292969"/>
      <use xlink:href="#DejaVuSans-64" x="686.816406"/>
      <use xlink:href="#DejaVuSans-20" x="750.292969"/>
      <use xlink:href="#DejaVuSans-69" x="782.080078"/>
      <use xlink:href="#DejaVuSans-6e" x="809.863281"/>
      <use xlink:href="#DejaVuSans-20" x="873.242188"/>
      <use xlink:href="#DejaVuSans-48" x="905.029297"/>
      <use xlink:href="#DejaVuSans-69" x="980.224609"/>
      <use xlink:href="#DejaVuSans-67" x="1008.007812"/>
      <use xlink:href="#DejaVuSans-68" x="1071.484375"/>
      <use xlink:href="#DejaVuSans-20" x="1134.863281"/>
      <use xlink:href="#DejaVuSans-70" x="1166.650391"/>
      <use xlink:href="#DejaVuSans-72" x="1230.126953"/>
      <use xlink:href="#DejaVuSans-6f" x="1268.990234"/>
      <use xlink:href="#DejaVuSans-64" x="1330.171875"/>
      <use xlink:href="#DejaVuSans-75" x="1393.648438"/>
      <use xlink:href="#DejaVuSans-63" x="1457.027344"/>
      <use xlink:href="#DejaVuSans-65" x="1512.007812"/>
      <use xlink:href="#DejaVuSans-72" x="1573.53125"/>
      <use xlink:href="#DejaVuSans-73" x="1614.644531"/>
     </g>
    </g>
    <g id="patch_9">
     <path d="M 570.336875 69.7925 
L 590.336875 69.7925 
L 590.336875 62.7925 
L 570.336875 62.7925 
z
" style="fill: #ff0000; stroke: #ff0000; stroke-linejoin: miter"/>
    </g>
    <g id="text_28">
     <!-- Overexpressed in Non-producers -->
     <g transform="translate(598.336875 69.7925) scale(0.1 -0.1)">
      <defs>
       <path id="DejaVuSans-4e" d="M 628 4666 
L 1478 4666 
L 3547 763 
L 3547 4666 
L 4159 4666 
L 4159 0 
L 3309 0 
L 1241 3903 
L 1241 0 
L 628 0 
L 628 4666 
z
" transform="scale(0.015625)"/>
       <path id="DejaVuSans-2d" d="M 313 2009 
L 1997 2009 
L 1997 1497 
L 313 1497 
L 313 2009 
z
" transform="scale(0.015625)"/>
      </defs>
      <use xlink:href="#DejaVuSans-4f"/>
      <use xlink:href="#DejaVuSans-76" x="78.710938"/>
      <use xlink:href="#DejaVuSans-65" x="137.890625"/>
      <use xlink:href="#DejaVuSans-72" x="199.414062"/>
      <use xlink:href="#DejaVuSans-65" x="238.277344"/>
      <use xlink:href="#DejaVuSans-78" x="298.050781"/>
      <use xlink:href="#DejaVuSans-70" x="357.230469"/>
      <use xlink:href="#DejaVuSans-72" x="420.707031"/>
      <use xlink:href="#DejaVuSans-65" x="459.570312"/>
      <use xlink:href="#DejaVuSans-73" x="521.09375"/>
      <use xlink:href="#DejaVuSans-73" x="573.193359"/>
      <use xlink:href="#DejaVuSans-65" x="625.292969"/>
      <use xlink:href="#DejaVuSans-64" x="686.816406"/>
      <use xlink:href="#DejaVuSans-20" x="750.292969"/>
      <use xlink:href="#DejaVuSans-69" x="782.080078"/>
      <use xlink:href="#DejaVuSans-6e" x="809.863281"/>
      <use xlink:href="#DejaVuSans-20" x="873.242188"/>
      <use xlink:href="#DejaVuSans-4e" x="905.029297"/>
      <use xlink:href="#DejaVuSans-6f" x="979.833984"/>
      <use xlink:href="#DejaVuSans-6e" x="1041.015625"/>
      <use xlink:href="#DejaVuSans-2d" x="1104.394531"/>
      <use xlink:href="#DejaVuSans-70" x="1140.478516"/>
      <use xlink:href="#DejaVuSans-72" x="1203.955078"/>
      <use xlink:href="#DejaVuSans-6f" x="1242.818359"/>
      <use xlink:href="#DejaVuSans-64" x="1304"/>
      <use xlink:href="#DejaVuSans-75" x="1367.476562"/>
      <use xlink:href="#DejaVuSans-63" x="1430.855469"/>
      <use xlink:href="#DejaVuSans-65" x="1485.835938"/>
      <use xlink:href="#DejaVuSans-72" x="1547.359375"/>
      <use xlink:href="#DejaVuSans-73" x="1588.472656"/>
     </g>
    </g>
    <g id="patch_10">
     <path d="M 570.336875 84.470625 
L 590.336875 84.470625 
L 590.336875 77.470625 
L 570.336875 77.470625 
z
" style="fill: #808080; stroke: #808080; stroke-linejoin: miter"/>
    </g>
    <g id="text_29">
     <!-- Non-Significant -->
     <g transform="translate(598.336875 84.470625) scale(0.1 -0.1)">
      <use xlink:href="#DejaVuSans-4e"/>
      <use xlink:href="#DejaVuSans-6f" x="74.804688"/>
      <use xlink:href="#DejaVuSans-6e" x="135.986328"/>
      <use xlink:href="#DejaVuSans-2d" x="199.365234"/>
      <use xlink:href="#DejaVuSans-53" x="235.449219"/>
      <use xlink:href="#DejaVuSans-69" x="298.925781"/>
      <use xlink:href="#DejaVuSans-67" x="326.708984"/>
      <use xlink:href="#DejaVuSans-6e" x="390.185547"/>
      <use xlink:href="#DejaVuSans-69" x="453.564453"/>
      <use xlink:href="#DejaVuSans-66" x="481.347656"/>
      <use xlink:href="#DejaVuSans-69" x="516.552734"/>
      <use xlink:href="#DejaVuSans-63" x="544.335938"/>
      <use xlink:href="#DejaVuSans-61" x="599.316406"/>
      <use xlink:href="#DejaVuSans-6e" x="660.595703"/>
      <use xlink:href="#DejaVuSans-74" x="723.974609"/>
     </g>
    </g>
   </g>
   <g id="legend_2">
    <g id="patch_11">
     <path d="M 568.336875 157.078312 
L 715.588438 157.078312 
Q 717.588438 157.078312 717.588438 155.078312 
L 717.588438 97.365812 
Q 717.588438 95.365812 715.588438 95.365812 
L 568.336875 95.365812 
Q 566.336875 95.365812 566.336875 97.365812 
L 566.336875 155.078312 
Q 566.336875 157.078312 568.336875 157.078312 
z
" style="fill: #ffffff; opacity: 0.8; stroke: #cccccc; stroke-linejoin: miter"/>
    </g>
    <g id="text_30">
     <!-- Significance (-log10 p-value) -->
     <g transform="translate(570.336875 106.96425) scale(0.1 -0.1)">
      <defs>
       <path id="DejaVuSans-28" d="M 1984 4856 
Q 1566 4138 1362 3434 
Q 1159 2731 1159 2009 
Q 1159 1288 1364 580 
Q 1569 -128 1984 -844 
L 1484 -844 
Q 1016 -109 783 600 
Q 550 1309 550 2009 
Q 550 2706 781 3412 
Q 1013 4119 1484 4856 
L 1984 4856 
z
" transform="scale(0.015625)"/>
       <path id="DejaVuSans-29" d="M 513 4856 
L 1013 4856 
Q 1481 4119 1714 3412 
Q 1947 2706 1947 2009 
Q 1947 1309 1714 600 
Q 1481 -109 1013 -844 
L 513 -844 
Q 928 -128 1133 580 
Q 1338 1288 1338 2009 
Q 1338 2731 1133 3434 
Q 928 4138 513 4856 
z
" transform="scale(0.015625)"/>
      </defs>
      <use xlink:href="#DejaVuSans-53"/>
      <use xlink:href="#DejaVuSans-69" x="63.476562"/>
      <use xlink:href="#DejaVuSans-67" x="91.259766"/>
      <use xlink:href="#DejaVuSans-6e" x="154.736328"/>
      <use xlink:href="#DejaVuSans-69" x="218.115234"/>
      <use xlink:href="#DejaVuSans-66" x="245.898438"/>
      <use xlink:href="#DejaVuSans-69" x="281.103516"/>
      <use xlink:href="#DejaVuSans-63" x="308.886719"/>
      <use xlink:href="#DejaVuSans-61" x="363.867188"/>
      <use xlink:href="#DejaVuSans-6e" x="425.146484"/>
      <use xlink:href="#DejaVuSans-63" x="488.525391"/>
      <use xlink:href="#DejaVuSans-65" x="543.505859"/>
      <use xlink:href="#DejaVuSans-20" x="605.029297"/>
      <use xlink:href="#DejaVuSans-28" x="636.816406"/>
      <use xlink:href="#DejaVuSans-2d" x="675.830078"/>
      <use xlink:href="#DejaVuSans-6c" x="711.914062"/>
      <use xlink:href="#DejaVuSans-6f" x="739.697266"/>
      <use xlink:href="#DejaVuSans-67" x="800.878906"/>
      <use xlink:href="#DejaVuSans-31" x="864.355469"/>
      <use xlink:href="#DejaVuSans-30" x="927.978516"/>
      <use xlink:href="#DejaVuSans-20" x="991.601562"/>
      <use xlink:href="#DejaVuSans-70" x="1023.388672"/>
      <use xlink:href="#DejaVuSans-2d" x="1086.865234"/>
      <use xlink:href="#DejaVuSans-76" x="1120.324219"/>
      <use xlink:href="#DejaVuSans-61" x="1179.503906"/>
      <use xlink:href="#DejaVuSans-6c" x="1240.783203"/>
      <use xlink:href="#DejaVuSans-75" x="1268.566406"/>
      <use xlink:href="#DejaVuSans-65" x="1331.945312"/>
      <use xlink:href="#DejaVuSans-29" x="1393.46875"/>
     </g>
    </g>
    <g id="PathCollection_5">
     <defs>
      <path id="m2b01d43bf8" d="M 0 5 
C 1.326016 5 2.597899 4.473168 3.535534 3.535534 
C 4.473168 2.597899 5 1.326016 5 0 
C 5 -1.326016 4.473168 -2.597899 3.535534 -3.535534 
C 2.597899 -4.473168 1.326016 -5 0 -5 
C -1.326016 -5 -2.597899 -4.473168 -3.535534 -3.535534 
C -4.473168 -2.597899 -5 -1.326016 -5 0 
C -5 1.326016 -4.473168 2.597899 -3.535534 3.535534 
C -2.597899 4.473168 -1.326016 5 0 5 
z
" style="stroke: #000000; stroke-opacity: 0.7"/>
     </defs>
     <g>
      <use xlink:href="#m2b01d43bf8" x="616.287656" y="119.017375" style="fill-opacity: 0.7; stroke: #000000; stroke-opacity: 0.7"/>
     </g>
    </g>
    <g id="text_31">
     <!-- p ≤ 0.01 -->
     <g transform="translate(634.287656 121.642375) scale(0.1 -0.1)">
      <defs>
       <path id="DejaVuSans-2264" d="M 4684 3175 
L 1684 2309 
L 4684 1453 
L 4684 897 
L 678 2047 
L 678 2578 
L 4684 3725 
L 4684 3175 
z
M 678 531 
L 4684 531 
L 4684 0 
L 678 0 
L 678 531 
z
" transform="scale(0.015625)"/>
      </defs>
      <use xlink:href="#DejaVuSans-70"/>
      <use xlink:href="#DejaVuSans-20" x="63.476562"/>
      <use xlink:href="#DejaVuSans-2264" x="95.263672"/>
      <use xlink:href="#DejaVuSans-20" x="179.052734"/>
      <use xlink:href="#DejaVuSans-30" x="210.839844"/>
      <use xlink:href="#DejaVuSans-2e" x="274.462891"/>
      <use xlink:href="#DejaVuSans-30" x="306.25"/>
      <use xlink:href="#DejaVuSans-31" x="369.873047"/>
     </g>
    </g>
    <g id="PathCollection_6">
     <defs>
      <path id="m52a836416b" d="M 0 4.032725 
C 1.069491 4.032725 2.095323 3.607812 2.851568 2.851568 
C 3.607812 2.095323 4.032725 1.069491 4.032725 0 
C 4.032725 -1.069491 3.607812 -2.095323 2.851568 -2.851568 
C 2.095323 -3.607812 1.069491 -4.032725 0 -4.032725 
C -1.069491 -4.032725 -2.095323 -3.607812 -2.851568 -2.851568 
C -3.607812 -2.095323 -4.032725 -1.069491 -4.032725 0 
C -4.032725 1.069491 -3.607812 2.095323 -2.851568 2.851568 
C -2.095323 3.607812 -1.069491 4.032725 0 4.032725 
z
" style="stroke: #000000; stroke-opacity: 0.7"/>
     </defs>
     <g>
      <use xlink:href="#m52a836416b" x="616.287656" y="133.6955" style="fill-opacity: 0.7; stroke: #000000; stroke-opacity: 0.7"/>
     </g>
    </g>
    <g id="text_32">
     <!-- p ≤ 0.05 -->
     <g transform="translate(634.287656 136.3205) scale(0.1 -0.1)">
      <use xlink:href="#DejaVuSans-70"/>
      <use xlink:href="#DejaVuSans-20" x="63.476562"/>
      <use xlink:href="#DejaVuSans-2264" x="95.263672"/>
      <use xlink:href="#DejaVuSans-20" x="179.052734"/>
      <use xlink:href="#DejaVuSans-30" x="210.839844"/>
      <use xlink:href="#DejaVuSans-2e" x="274.462891"/>
      <use xlink:href="#DejaVuSans-30" x="306.25"/>
      <use xlink:href="#DejaVuSans-35" x="369.873047"/>
     </g>
    </g>
    <g id="PathCollection_7">
     <defs>
      <path id="m281e673711" d="M 0 3.535534 
C 0.937635 3.535534 1.836992 3.163008 2.5 2.5 
C 3.163008 1.836992 3.535534 0.937635 3.535534 0 
C 3.535534 -0.937635 3.163008 -1.836992 2.5 -2.5 
C 1.836992 -3.163008 0.937635 -3.535534 0 -3.535534 
C -0.937635 -3.535534 -1.836992 -3.163008 -2.5 -2.5 
C -3.163008 -1.836992 -3.535534 -0.937635 -3.535534 0 
C -3.535534 0.937635 -3.163008 1.836992 -2.5 2.5 
C -1.836992 3.163008 -0.937635 3.535534 0 3.535534 
z
" style="stroke: #000000; stroke-opacity: 0.7"/>
     </defs>
     <g>
      <use xlink:href="#m281e673711" x="616.287656" y="148.373625" style="fill-opacity: 0.7; stroke: #000000; stroke-opacity: 0.7"/>
     </g>
    </g>
    <g id="text_33">
     <!-- p ≤ 0.1 -->
     <g transform="translate(634.287656 150.998625) scale(0.1 -0.1)">
      <use xlink:href="#DejaVuSans-70"/>
      <use xlink:href="#DejaVuSans-20" x="63.476562"/>
      <use xlink:href="#DejaVuSans-2264" x="95.263672"/>
      <use xlink:href="#DejaVuSans-20" x="179.052734"/>
      <use xlink:href="#DejaVuSans-30" x="210.839844"/>
      <use xlink:href="#DejaVuSans-2e" x="274.462891"/>
      <use xlink:href="#DejaVuSans-31" x="306.25"/>
     </g>
    </g>
   </g>
  </g>
 </g>
 <defs>
  <clipPath id="pf40354edcc">
   <rect x="92.616875" y="23.837813" width="446.4" height="332.64"/>
  </clipPath>
 </defs>
</svg>
