<?xml version="1.0" encoding="utf-8" standalone="no"?>
<!DOCTYPE svg PUBLIC "-//W3C//DTD SVG 1.1//EN"
  "http://www.w3.org/Graphics/SVG/1.1/DTD/svg11.dtd">
<svg xmlns:xlink="http://www.w3.org/1999/xlink" width="679.379375pt" height="392.714375pt" viewBox="0 0 679.379375 392.714375" xmlns="http://www.w3.org/2000/svg" version="1.1">
 <metadata>
  <rdf:RDF xmlns:dc="http://purl.org/dc/elements/1.1/" xmlns:cc="http://creativecommons.org/ns#" xmlns:rdf="http://www.w3.org/1999/02/22-rdf-syntax-ns#">
   <cc:Work>
    <dc:type rdf:resource="http://purl.org/dc/dcmitype/StillImage"/>
    <dc:date>2025-02-07T14:00:47.774799</dc:date>
    <dc:format>image/svg+xml</dc:format>
    <dc:creator>
     <cc:Agent>
      <dc:title>Matplotlib v3.8.4, https://matplotlib.org/</dc:title>
     </cc:Agent>
    </dc:creator>
   </cc:Work>
  </rdf:RDF>
 </metadata>
 <defs>
  <style type="text/css">*{stroke-linejoin: round; stroke-linecap: butt}</style>
 </defs>
 <g id="figure_1">
  <g id="patch_1">
   <path d="M 0 392.714375 
L 679.379375 392.714375 
L 679.379375 0 
L 0 0 
z
" style="fill: #ffffff"/>
  </g>
  <g id="axes_1">
   <g id="patch_2">
    <path d="M 51.603125 355.239375 
L 498.003125 355.239375 
L 498.003125 22.599375 
L 51.603125 22.599375 
z
" style="fill: #ffffff"/>
   </g>
   <g id="PathCollection_1">
    <path d="M 477.712216 273.51188 
C 478.64985 273.51188 479.549208 273.139354 480.212216 272.476346 
C 480.875224 271.813338 481.24775 270.91398 481.24775 269.976346 
C 481.24775 269.038711 480.875224 268.139354 480.212216 267.476346 
C 479.549208 266.813338 478.64985 266.440812 477.712216 266.440812 
C 476.774581 266.440812 475.875224 266.813338 475.212216 267.476346 
C 474.549208 268.139354 474.176682 269.038711 474.176682 269.976346 
C 474.176682 270.91398 474.549208 271.813338 475.212216 272.476346 
C 475.875224 273.139354 476.774581 273.51188 477.712216 273.51188 
z
" clip-path="url(#p089ca1e957)" style="fill: #008000; stroke: #ffffff; stroke-width: 0.594468"/>
    <path d="M 456.467318 285.435722 
C 457.589316 285.435722 458.665511 284.989948 459.458884 284.196575 
C 460.252257 283.403203 460.698031 282.327007 460.698031 281.205009 
C 460.698031 280.083011 460.252257 279.006816 459.458884 278.213443 
C 458.665511 277.420071 457.589316 276.974296 456.467318 276.974296 
C 455.34532 276.974296 454.269125 277.420071 453.475752 278.213443 
C 452.68238 279.006816 452.236605 280.083011 452.236605 281.205009 
C 452.236605 282.327007 452.68238 283.403203 453.475752 284.196575 
C 454.269125 284.989948 455.34532 285.435722 456.467318 285.435722 
z
" clip-path="url(#p089ca1e957)" style="fill: #008000; stroke: #ffffff; stroke-width: 0.594468"/>
    <path d="M 440.767858 319.59753 
C 442.036304 319.59753 443.252969 319.093571 444.149896 318.196644 
C 445.046823 317.299717 445.550782 316.083052 445.550782 314.814606 
C 445.550782 313.54616 445.046823 312.329495 444.149896 311.432569 
C 443.252969 310.535642 442.036304 310.031683 440.767858 310.031683 
C 439.499412 310.031683 438.282747 310.535642 437.38582 311.432569 
C 436.488893 312.329495 435.984934 313.54616 435.984934 314.814606 
C 435.984934 316.083052 436.488893 317.299717 437.38582 318.196644 
C 438.282747 319.093571 439.499412 319.59753 440.767858 319.59753 
z
" clip-path="url(#p089ca1e957)" style="fill: #008000; stroke: #ffffff; stroke-width: 0.594468"/>
    <path d="M 432.916073 345.196608 
C 434.26257 345.196608 435.5541 344.661638 436.506218 343.709521 
C 437.458336 342.757403 437.993305 341.465873 437.993305 340.119375 
C 437.993305 338.772877 437.458336 337.481347 436.506218 336.529229 
C 435.5541 335.577112 434.26257 335.042142 432.916073 335.042142 
C 431.569575 335.042142 430.278045 335.577112 429.325927 336.529229 
C 428.373809 337.481347 427.83884 338.772877 427.83884 340.119375 
C 427.83884 341.465873 428.373809 342.757403 429.325927 343.709521 
C 430.278045 344.661638 431.569575 345.196608 432.916073 345.196608 
z
" clip-path="url(#p089ca1e957)" style="fill: #008000; stroke: #ffffff; stroke-width: 0.594468"/>
    <path d="M 431.174463 285.575324 
C 432.538796 285.575324 433.847433 285.033269 434.812162 284.06854 
C 435.776891 283.103811 436.318946 281.795174 436.318946 280.430842 
C 436.318946 279.066509 435.776891 277.757872 434.812162 276.793143 
C 433.847433 275.828414 432.538796 275.286359 431.174463 275.286359 
C 429.81013 275.286359 428.501493 275.828414 427.536765 276.793143 
C 426.572036 277.757872 426.02998 279.066509 426.02998 280.430842 
C 426.02998 281.795174 426.572036 283.103811 427.536765 284.06854 
C 428.501493 285.033269 429.81013 285.575324 431.174463 285.575324 
z
" clip-path="url(#p089ca1e957)" style="fill: #008000; stroke: #ffffff; stroke-width: 0.594468"/>
    <path d="M 428.935155 325.051529 
C 430.322722 325.051529 431.653645 324.500243 432.634803 323.519085 
C 433.615961 322.537927 434.167247 321.207004 434.167247 319.819437 
C 434.167247 318.43187 433.615961 317.100947 432.634803 316.119789 
C 431.653645 315.138631 430.322722 314.587345 428.935155 314.587345 
C 427.547588 314.587345 426.216666 315.138631 425.235507 316.119789 
C 424.254349 317.100947 423.703063 318.43187 423.703063 319.819437 
C 423.703063 321.207004 424.254349 322.537927 425.235507 323.519085 
C 426.216666 324.500243 427.547588 325.051529 428.935155 325.051529 
z
" clip-path="url(#p089ca1e957)" style="fill: #008000; stroke: #ffffff; stroke-width: 0.594468"/>
    <path d="M 424.627417 223.23301 
C 426.060694 223.23301 427.43546 222.663563 428.44894 221.650083 
C 429.46242 220.636604 430.031867 219.261837 430.031867 217.82856 
C 430.031867 216.395283 429.46242 215.020517 428.44894 214.007037 
C 427.43546 212.993557 426.060694 212.424111 424.627417 212.424111 
C 423.19414 212.424111 421.819373 212.993557 420.805894 214.007037 
C 419.792414 215.020517 419.222967 216.395283 419.222967 217.82856 
C 419.222967 219.261837 419.792414 220.636604 420.805894 221.650083 
C 421.819373 222.663563 423.19414 223.23301 424.627417 223.23301 
z
" clip-path="url(#p089ca1e957)" style="fill: #008000; stroke: #ffffff; stroke-width: 0.594468"/>
    <path d="M 422.289317 322.14302 
C 423.747997 322.14302 425.14713 321.56348 426.178573 320.532037 
C 427.210016 319.500594 427.789556 318.101461 427.789556 316.642781 
C 427.789556 315.184101 427.210016 313.784968 426.178573 312.753525 
C 425.14713 311.722082 423.747997 311.142542 422.289317 311.142542 
C 420.830636 311.142542 419.431503 311.722082 418.400061 312.753525 
C 417.368618 313.784968 416.789078 315.184101 416.789078 316.642781 
C 416.789078 318.101461 417.368618 319.500594 418.400061 320.532037 
C 419.431503 321.56348 420.830636 322.14302 422.289317 322.14302 
z
" clip-path="url(#p089ca1e957)" style="fill: #008000; stroke: #ffffff; stroke-width: 0.594468"/>
    <path d="M 158.076717 222.99901 
C 159.951986 222.99901 161.750702 222.253958 163.076717 220.927943 
C 164.402733 219.601927 165.147785 217.803212 165.147785 215.927943 
C 165.147785 214.052673 164.402733 212.253958 163.076717 210.927943 
C 161.750702 209.601927 159.951986 208.856875 158.076717 208.856875 
C 156.201448 208.856875 154.402733 209.601927 153.076717 210.927943 
C 151.750702 212.253958 151.00565 214.052673 151.00565 215.927943 
C 151.00565 217.803212 151.750702 219.601927 153.076717 220.927943 
C 154.402733 222.253958 156.201448 222.99901 158.076717 222.99901 
z
" clip-path="url(#p089ca1e957)" style="fill: #ff0000; stroke: #ffffff; stroke-width: 0.594468"/>
    <path d="M 107.673242 126.136321 
C 108.951404 126.136321 110.177389 125.628502 111.081186 124.724704 
C 111.984984 123.820907 112.492803 122.594922 112.492803 121.316759 
C 112.492803 120.038597 111.984984 118.812612 111.081186 117.908815 
C 110.177389 117.005017 108.951404 116.497198 107.673242 116.497198 
C 106.395079 116.497198 105.169094 117.005017 104.265297 117.908815 
C 103.361499 118.812612 102.85368 120.038597 102.85368 121.316759 
C 102.85368 122.594922 103.361499 123.820907 104.265297 124.724704 
C 105.169094 125.628502 106.395079 126.136321 107.673242 126.136321 
z
" clip-path="url(#p089ca1e957)" style="fill: #ff0000; stroke: #ffffff; stroke-width: 0.594468"/>
    <path d="M 93.654269 68.915925 
C 94.800485 68.915925 95.899909 68.460529 96.710406 67.650032 
C 97.520902 66.839535 97.976299 65.740111 97.976299 64.593895 
C 97.976299 63.44768 97.520902 62.348256 96.710406 61.537759 
C 95.899909 60.727262 94.800485 60.271866 93.654269 60.271866 
C 92.508053 60.271866 91.408629 60.727262 90.598133 61.537759 
C 89.787636 62.348256 89.332239 63.44768 89.332239 64.593895 
C 89.332239 65.740111 89.787636 66.839535 90.598133 67.650032 
C 91.408629 68.460529 92.508053 68.915925 93.654269 68.915925 
z
" clip-path="url(#p089ca1e957)" style="fill: #ff0000; stroke: #ffffff; stroke-width: 0.594468"/>
    <path d="M 87.966679 128.710445 
C 89.061781 128.710445 90.112178 128.275357 90.886531 127.501003 
C 91.660885 126.726649 92.095974 125.676253 92.095974 124.581151 
C 92.095974 123.486049 91.660885 122.435653 90.886531 121.661299 
C 90.112178 120.886945 89.061781 120.451856 87.966679 120.451856 
C 86.871578 120.451856 85.821181 120.886945 85.046827 121.661299 
C 84.272474 122.435653 83.837385 123.486049 83.837385 124.581151 
C 83.837385 125.676253 84.272474 126.726649 85.046827 127.501003 
C 85.821181 128.275357 86.871578 128.710445 87.966679 128.710445 
z
" clip-path="url(#p089ca1e957)" style="fill: #ff0000; stroke: #ffffff; stroke-width: 0.594468"/>
    <path d="M 71.894034 41.323917 
C 72.84997 41.323917 73.766882 40.94412 74.44283 40.268171 
C 75.118779 39.592222 75.498576 38.675311 75.498576 37.719375 
C 75.498576 36.763439 75.118779 35.846528 74.44283 35.170579 
C 73.766882 34.49463 72.84997 34.114833 71.894034 34.114833 
C 70.938098 34.114833 70.021187 34.49463 69.345238 35.170579 
C 68.669289 35.846528 68.289492 36.763439 68.289492 37.719375 
C 68.289492 38.675311 68.669289 39.592222 69.345238 40.268171 
C 70.021187 40.94412 70.938098 41.323917 71.894034 41.323917 
z
" clip-path="url(#p089ca1e957)" style="fill: #ff0000; stroke: #ffffff; stroke-width: 0.594468"/>
   </g>
   <g id="matplotlib.axis_1">
    <g id="xtick_1">
     <g id="line2d_1">
      <defs>
       <path id="md912e4db51" d="M 0 0 
L 0 3.5 
" style="stroke: #000000; stroke-width: 0.8"/>
      </defs>
      <g>
       <use xlink:href="#md912e4db51" x="85.599399" y="355.239375" style="stroke: #000000; stroke-width: 0.8"/>
      </g>
     </g>
     <g id="text_1">
      <!-- −0.6 -->
      <g transform="translate(73.716587 369.94875) scale(0.1 -0.1)">
       <defs>
        <path id="LucidaGrande-2212" d="M 694 1619 
L 694 2081 
L 4394 2081 
L 4394 1619 
L 694 1619 
z
" transform="scale(0.015625)"/>
        <path id="LucidaGrande-30" d="M 2006 -116 
Q 1291 -116 848 557 
Q 406 1231 406 2316 
Q 406 3409 851 4075 
Q 1297 4741 2025 4741 
Q 2753 4741 3198 4075 
Q 3644 3409 3644 2325 
Q 3644 1213 3198 548 
Q 2753 -116 2006 -116 
z
M 2013 347 
Q 2991 347 2991 2334 
Q 2991 4278 2025 4278 
Q 1063 4278 1063 2316 
Q 1063 347 2013 347 
z
" transform="scale(0.015625)"/>
        <path id="LucidaGrande-2e" d="M 625 0 
L 625 772 
L 1397 772 
L 1397 0 
L 625 0 
z
" transform="scale(0.015625)"/>
        <path id="LucidaGrande-36" d="M 1100 2397 
Q 1541 2969 2209 2969 
Q 2816 2969 3202 2567 
Q 3588 2166 3588 1538 
Q 3588 816 3155 350 
Q 2722 -116 2056 -116 
Q 1291 -116 859 500 
Q 428 1116 428 2209 
Q 428 3413 923 4078 
Q 1419 4744 2319 4744 
Q 2731 4744 3350 4569 
L 3350 4031 
Q 2697 4281 2281 4281 
Q 1100 4281 1100 2397 
z
M 2969 1400 
Q 2969 1925 2733 2225 
Q 2497 2525 2078 2525 
Q 1688 2525 1406 2262 
Q 1125 2000 1125 1631 
Q 1125 1050 1392 698 
Q 1659 347 2100 347 
Q 2497 347 2733 633 
Q 2969 919 2969 1400 
z
" transform="scale(0.015625)"/>
       </defs>
       <use xlink:href="#LucidaGrande-2212"/>
       <use xlink:href="#LucidaGrande-30" x="79.541016"/>
       <use xlink:href="#LucidaGrande-2e" x="142.773438"/>
       <use xlink:href="#LucidaGrande-36" x="174.414062"/>
      </g>
     </g>
    </g>
    <g id="xtick_2">
     <g id="line2d_2">
      <g>
       <use xlink:href="#md912e4db51" x="148.306838" y="355.239375" style="stroke: #000000; stroke-width: 0.8"/>
      </g>
     </g>
     <g id="text_2">
      <!-- −0.4 -->
      <g transform="translate(136.424025 369.94875) scale(0.1 -0.1)">
       <defs>
        <path id="LucidaGrande-34" d="M 2409 0 
L 2409 1309 
L 328 1309 
L 328 1775 
L 2409 4625 
L 2988 4625 
L 2988 1813 
L 3606 1813 
L 3606 1309 
L 2988 1309 
L 2988 0 
L 2409 0 
z
M 931 1813 
L 2450 1813 
L 2450 3869 
L 931 1813 
z
" transform="scale(0.015625)"/>
       </defs>
       <use xlink:href="#LucidaGrande-2212"/>
       <use xlink:href="#LucidaGrande-30" x="79.541016"/>
       <use xlink:href="#LucidaGrande-2e" x="142.773438"/>
       <use xlink:href="#LucidaGrande-34" x="174.414062"/>
      </g>
     </g>
    </g>
    <g id="xtick_3">
     <g id="line2d_3">
      <g>
       <use xlink:href="#md912e4db51" x="211.014276" y="355.239375" style="stroke: #000000; stroke-width: 0.8"/>
      </g>
     </g>
     <g id="text_3">
      <!-- −0.2 -->
      <g transform="translate(199.131463 369.94875) scale(0.1 -0.1)">
       <defs>
        <path id="LucidaGrande-32" d="M 531 0 
L 531 541 
Q 800 1169 1619 1909 
L 1972 2225 
Q 2653 2841 2653 3447 
Q 2653 3834 2420 4056 
Q 2188 4278 1781 4278 
Q 1300 4278 647 3906 
L 647 4450 
Q 1263 4741 1869 4741 
Q 2519 4741 2912 4391 
Q 3306 4041 3306 3463 
Q 3306 3047 3107 2725 
Q 2909 2403 2369 1944 
L 2131 1741 
Q 1391 1113 1275 541 
L 3284 541 
L 3284 0 
L 531 0 
z
" transform="scale(0.015625)"/>
       </defs>
       <use xlink:href="#LucidaGrande-2212"/>
       <use xlink:href="#LucidaGrande-30" x="79.541016"/>
       <use xlink:href="#LucidaGrande-2e" x="142.773438"/>
       <use xlink:href="#LucidaGrande-32" x="174.414062"/>
      </g>
     </g>
    </g>
    <g id="xtick_4">
     <g id="line2d_4">
      <g>
       <use xlink:href="#md912e4db51" x="273.721714" y="355.239375" style="stroke: #000000; stroke-width: 0.8"/>
      </g>
     </g>
     <g id="text_4">
      <!-- 0.0 -->
      <g transform="translate(265.816246 369.94875) scale(0.1 -0.1)">
       <use xlink:href="#LucidaGrande-30"/>
       <use xlink:href="#LucidaGrande-2e" x="63.232422"/>
       <use xlink:href="#LucidaGrande-30" x="94.873047"/>
      </g>
     </g>
    </g>
    <g id="xtick_5">
     <g id="line2d_5">
      <g>
       <use xlink:href="#md912e4db51" x="336.429153" y="355.239375" style="stroke: #000000; stroke-width: 0.8"/>
      </g>
     </g>
     <g id="text_5">
      <!-- 0.2 -->
      <g transform="translate(328.523684 369.94875) scale(0.1 -0.1)">
       <use xlink:href="#LucidaGrande-30"/>
       <use xlink:href="#LucidaGrande-2e" x="63.232422"/>
       <use xlink:href="#LucidaGrande-32" x="94.873047"/>
      </g>
     </g>
    </g>
    <g id="xtick_6">
     <g id="line2d_6">
      <g>
       <use xlink:href="#md912e4db51" x="399.136591" y="355.239375" style="stroke: #000000; stroke-width: 0.8"/>
      </g>
     </g>
     <g id="text_6">
      <!-- 0.4 -->
      <g transform="translate(391.231123 369.94875) scale(0.1 -0.1)">
       <use xlink:href="#LucidaGrande-30"/>
       <use xlink:href="#LucidaGrande-2e" x="63.232422"/>
       <use xlink:href="#LucidaGrande-34" x="94.873047"/>
      </g>
     </g>
    </g>
    <g id="xtick_7">
     <g id="line2d_7">
      <g>
       <use xlink:href="#md912e4db51" x="461.84403" y="355.239375" style="stroke: #000000; stroke-width: 0.8"/>
      </g>
     </g>
     <g id="text_7">
      <!-- 0.6 -->
      <g transform="translate(453.938561 369.94875) scale(0.1 -0.1)">
       <use xlink:href="#LucidaGrande-30"/>
       <use xlink:href="#LucidaGrande-2e" x="63.232422"/>
       <use xlink:href="#LucidaGrande-36" x="94.873047"/>
      </g>
     </g>
    </g>
    <g id="text_8">
     <!-- Correlation with Protein Production -->
     <g transform="translate(189.413281 383.58625) scale(0.1 -0.1)">
      <defs>
       <path id="LucidaGrande-43" d="M 2578 -116 
Q 1500 -116 912 517 
Q 325 1150 325 2309 
Q 325 3466 923 4103 
Q 1522 4741 2609 4741 
Q 3231 4741 4066 4538 
L 4066 3922 
Q 3116 4250 2600 4250 
Q 1847 4250 1434 3740 
Q 1022 3231 1022 2303 
Q 1022 1419 1462 908 
Q 1903 397 2666 397 
Q 3322 397 4072 800 
L 4072 238 
Q 3388 -116 2578 -116 
z
" transform="scale(0.015625)"/>
       <path id="LucidaGrande-6f" d="M 1944 -78 
Q 1216 -78 781 405 
Q 347 888 347 1697 
Q 347 2516 783 2992 
Q 1219 3469 1966 3469 
Q 2713 3469 3148 2992 
Q 3584 2516 3584 1703 
Q 3584 872 3146 397 
Q 2709 -78 1944 -78 
z
M 1953 384 
Q 2931 384 2931 1703 
Q 2931 3006 1966 3006 
Q 1003 3006 1003 1697 
Q 1003 384 1953 384 
z
" transform="scale(0.015625)"/>
       <path id="LucidaGrande-72" d="M 616 0 
L 616 3394 
L 1231 3394 
L 1231 2756 
Q 1597 3469 2294 3469 
Q 2388 3469 2491 3453 
L 2491 2878 
Q 2331 2931 2209 2931 
Q 1625 2931 1231 2238 
L 1231 0 
L 616 0 
z
" transform="scale(0.015625)"/>
       <path id="LucidaGrande-65" d="M 3103 109 
Q 2484 -78 2044 -78 
Q 1294 -78 820 420 
Q 347 919 347 1713 
Q 347 2484 764 2978 
Q 1181 3472 1831 3472 
Q 2447 3472 2783 3034 
Q 3119 2597 3119 1791 
L 3116 1600 
L 975 1600 
Q 1109 391 2159 391 
Q 2544 391 3103 597 
L 3103 109 
z
M 1003 2063 
L 2500 2063 
Q 2500 3009 1794 3009 
Q 1084 3009 1003 2063 
z
" transform="scale(0.015625)"/>
       <path id="LucidaGrande-6c" d="M 616 0 
L 616 4934 
L 1231 4934 
L 1231 0 
L 616 0 
z
" transform="scale(0.015625)"/>
       <path id="LucidaGrande-61" d="M 2366 431 
Q 1813 -78 1300 -78 
Q 878 -78 600 186 
Q 322 450 322 853 
Q 322 1409 789 1707 
Q 1256 2006 2128 2006 
L 2275 2006 
L 2275 2416 
Q 2275 3006 1669 3006 
Q 1181 3006 616 2706 
L 616 3216 
Q 1238 3469 1781 3469 
Q 2350 3469 2620 3212 
Q 2891 2956 2891 2416 
L 2891 878 
Q 2891 350 3216 350 
Q 3256 350 3334 363 
L 3378 22 
Q 3169 -78 2916 -78 
Q 2484 -78 2366 431 
z
M 2275 766 
L 2275 1644 
L 2069 1650 
Q 1563 1650 1250 1458 
Q 938 1266 938 953 
Q 938 731 1094 578 
Q 1250 425 1475 425 
Q 1859 425 2275 766 
z
" transform="scale(0.015625)"/>
       <path id="LucidaGrande-74" d="M 1634 -78 
Q 1166 -78 903 190 
Q 641 459 641 938 
L 641 2931 
L 216 2931 
L 216 3394 
L 641 3394 
L 641 4009 
L 1256 4069 
L 1256 3394 
L 2144 3394 
L 2144 2931 
L 1256 2931 
L 1256 1050 
Q 1256 384 1831 384 
Q 1953 384 2128 425 
L 2128 0 
Q 1844 -78 1634 -78 
z
" transform="scale(0.015625)"/>
       <path id="LucidaGrande-69" d="M 616 0 
L 616 3394 
L 1231 3394 
L 1231 0 
L 616 0 
z
M 616 4009 
L 616 4625 
L 1231 4625 
L 1231 4009 
L 616 4009 
z
" transform="scale(0.015625)"/>
       <path id="LucidaGrande-6e" d="M 616 0 
L 616 3394 
L 1231 3394 
L 1231 2756 
Q 1719 3469 2425 3469 
Q 2866 3469 3128 3189 
Q 3391 2909 3391 2438 
L 3391 0 
L 2775 0 
L 2775 2238 
Q 2775 2616 2664 2777 
Q 2553 2938 2297 2938 
Q 1731 2938 1231 2197 
L 1231 0 
L 616 0 
z
" transform="scale(0.015625)"/>
       <path id="LucidaGrande-20" transform="scale(0.015625)"/>
       <path id="LucidaGrande-77" d="M 1009 0 
L 38 3394 
L 641 3394 
L 1384 766 
L 2188 3394 
L 2803 3394 
L 3506 766 
L 4359 3394 
L 4888 3394 
L 3781 0 
L 3163 0 
L 2444 2628 
L 1631 0 
L 1009 0 
z
" transform="scale(0.015625)"/>
       <path id="LucidaGrande-68" d="M 616 0 
L 616 4934 
L 1231 4934 
L 1231 2756 
Q 1719 3469 2425 3469 
Q 2866 3469 3128 3189 
Q 3391 2909 3391 2438 
L 3391 0 
L 2775 0 
L 2775 2238 
Q 2775 2616 2664 2777 
Q 2553 2938 2297 2938 
Q 1731 2938 1231 2197 
L 1231 0 
L 616 0 
z
" transform="scale(0.015625)"/>
       <path id="LucidaGrande-50" d="M 597 0 
L 597 4625 
L 1856 4625 
Q 2694 4625 3059 4342 
Q 3425 4059 3425 3413 
Q 3425 2675 2925 2256 
Q 2425 1838 1538 1838 
L 1247 1838 
L 1247 0 
L 597 0 
z
M 1247 2334 
L 1513 2334 
Q 2097 2334 2415 2603 
Q 2734 2872 2734 3363 
Q 2734 3778 2484 3956 
Q 2234 4134 1650 4134 
L 1247 4134 
L 1247 2334 
z
" transform="scale(0.015625)"/>
       <path id="LucidaGrande-64" d="M 2794 0 
L 2794 638 
Q 2419 -78 1663 -78 
Q 1050 -78 698 369 
Q 347 816 347 1591 
Q 347 2438 745 2953 
Q 1144 3469 1794 3469 
Q 2397 3469 2794 3006 
L 2794 4934 
L 3413 4934 
L 3413 0 
L 2794 0 
z
M 2794 2584 
Q 2316 3006 1888 3006 
Q 1003 3006 1003 1653 
Q 1003 463 1791 463 
Q 2303 463 2794 1022 
L 2794 2584 
z
" transform="scale(0.015625)"/>
       <path id="LucidaGrande-75" d="M 2738 0 
L 2738 638 
Q 2247 -78 1547 -78 
Q 1103 -78 840 201 
Q 578 481 578 956 
L 578 3394 
L 1194 3394 
L 1194 1156 
Q 1194 775 1305 614 
Q 1416 453 1675 453 
Q 2238 453 2738 1194 
L 2738 3394 
L 3353 3394 
L 3353 0 
L 2738 0 
z
" transform="scale(0.015625)"/>
       <path id="LucidaGrande-63" d="M 1941 -78 
Q 1253 -78 800 431 
Q 347 941 347 1716 
Q 347 2544 795 3006 
Q 1244 3469 2047 3469 
Q 2444 3469 2934 3359 
L 2934 2844 
Q 2413 2997 2084 2997 
Q 1613 2997 1327 2642 
Q 1041 2288 1041 1697 
Q 1041 1125 1334 772 
Q 1628 419 2103 419 
Q 2525 419 2972 634 
L 2972 103 
Q 2375 -78 1941 -78 
z
" transform="scale(0.015625)"/>
      </defs>
      <use xlink:href="#LucidaGrande-43"/>
      <use xlink:href="#LucidaGrande-6f" x="69.189453"/>
      <use xlink:href="#LucidaGrande-72" x="130.615234"/>
      <use xlink:href="#LucidaGrande-72" x="171.533203"/>
      <use xlink:href="#LucidaGrande-65" x="212.451172"/>
      <use xlink:href="#LucidaGrande-6c" x="268.164062"/>
      <use xlink:href="#LucidaGrande-61" x="297.070312"/>
      <use xlink:href="#LucidaGrande-74" x="352.294922"/>
      <use xlink:href="#LucidaGrande-69" x="389.697266"/>
      <use xlink:href="#LucidaGrande-6f" x="418.603516"/>
      <use xlink:href="#LucidaGrande-6e" x="480.029297"/>
      <use xlink:href="#LucidaGrande-20" x="542.089844"/>
      <use xlink:href="#LucidaGrande-77" x="573.730469"/>
      <use xlink:href="#LucidaGrande-69" x="650.78125"/>
      <use xlink:href="#LucidaGrande-74" x="679.6875"/>
      <use xlink:href="#LucidaGrande-68" x="717.089844"/>
      <use xlink:href="#LucidaGrande-20" x="779.150391"/>
      <use xlink:href="#LucidaGrande-50" x="810.791016"/>
      <use xlink:href="#LucidaGrande-72" x="866.064453"/>
      <use xlink:href="#LucidaGrande-6f" x="906.982422"/>
      <use xlink:href="#LucidaGrande-74" x="968.408203"/>
      <use xlink:href="#LucidaGrande-65" x="1005.810547"/>
      <use xlink:href="#LucidaGrande-69" x="1061.523438"/>
      <use xlink:href="#LucidaGrande-6e" x="1090.429688"/>
      <use xlink:href="#LucidaGrande-20" x="1152.490234"/>
      <use xlink:href="#LucidaGrande-50" x="1184.130859"/>
      <use xlink:href="#LucidaGrande-72" x="1239.404297"/>
      <use xlink:href="#LucidaGrande-6f" x="1280.322266"/>
      <use xlink:href="#LucidaGrande-64" x="1341.748047"/>
      <use xlink:href="#LucidaGrande-75" x="1404.6875"/>
      <use xlink:href="#LucidaGrande-63" x="1466.748047"/>
      <use xlink:href="#LucidaGrande-74" x="1517.96875"/>
      <use xlink:href="#LucidaGrande-69" x="1555.371094"/>
      <use xlink:href="#LucidaGrande-6f" x="1584.277344"/>
      <use xlink:href="#LucidaGrande-6e" x="1645.703125"/>
     </g>
    </g>
   </g>
   <g id="matplotlib.axis_2">
    <g id="ytick_1">
     <g id="line2d_8">
      <defs>
       <path id="m47398d4652" d="M 0 0 
L -3.5 0 
" style="stroke: #000000; stroke-width: 0.8"/>
      </defs>
      <g>
       <use xlink:href="#m47398d4652" x="51.603125" y="321.165692" style="stroke: #000000; stroke-width: 0.8"/>
      </g>
     </g>
     <g id="text_9">
      <!-- −0.3 -->
      <g transform="translate(20.8375 325.020379) scale(0.1 -0.1)">
       <defs>
        <path id="LucidaGrande-33" d="M 650 34 
L 650 609 
Q 1313 347 1694 347 
Q 2134 347 2411 605 
Q 2688 863 2688 1272 
Q 2688 2247 1322 2247 
L 1078 2247 
L 1078 2663 
L 1294 2666 
Q 2575 2666 2575 3569 
Q 2575 4278 1731 4278 
Q 1269 4278 713 4019 
L 713 4556 
Q 1259 4741 1775 4741 
Q 3194 4741 3194 3669 
Q 3194 2853 2228 2506 
Q 3347 2247 3347 1281 
Q 3347 628 2915 256 
Q 2484 -116 1731 -116 
Q 1303 -116 650 34 
z
" transform="scale(0.015625)"/>
       </defs>
       <use xlink:href="#LucidaGrande-2212"/>
       <use xlink:href="#LucidaGrande-30" x="79.541016"/>
       <use xlink:href="#LucidaGrande-2e" x="142.773438"/>
       <use xlink:href="#LucidaGrande-33" x="174.414062"/>
      </g>
     </g>
    </g>
    <g id="ytick_2">
     <g id="line2d_9">
      <g>
       <use xlink:href="#m47398d4652" x="51.603125" y="274.972761" style="stroke: #000000; stroke-width: 0.8"/>
      </g>
     </g>
     <g id="text_10">
      <!-- −0.2 -->
      <g transform="translate(20.8375 278.827448) scale(0.1 -0.1)">
       <use xlink:href="#LucidaGrande-2212"/>
       <use xlink:href="#LucidaGrande-30" x="79.541016"/>
       <use xlink:href="#LucidaGrande-2e" x="142.773438"/>
       <use xlink:href="#LucidaGrande-32" x="174.414062"/>
      </g>
     </g>
    </g>
    <g id="ytick_3">
     <g id="line2d_10">
      <g>
       <use xlink:href="#m47398d4652" x="51.603125" y="228.77983" style="stroke: #000000; stroke-width: 0.8"/>
      </g>
     </g>
     <g id="text_11">
      <!-- −0.1 -->
      <g transform="translate(20.8375 232.634517) scale(0.1 -0.1)">
       <defs>
        <path id="LucidaGrande-31" d="M 963 0 
L 963 463 
L 1888 463 
L 1888 4113 
L 963 3881 
L 963 4356 
L 2506 4741 
L 2506 463 
L 3431 463 
L 3431 0 
L 963 0 
z
" transform="scale(0.015625)"/>
       </defs>
       <use xlink:href="#LucidaGrande-2212"/>
       <use xlink:href="#LucidaGrande-30" x="79.541016"/>
       <use xlink:href="#LucidaGrande-2e" x="142.773438"/>
       <use xlink:href="#LucidaGrande-31" x="174.414062"/>
      </g>
     </g>
    </g>
    <g id="ytick_4">
     <g id="line2d_11">
      <g>
       <use xlink:href="#m47398d4652" x="51.603125" y="182.586899" style="stroke: #000000; stroke-width: 0.8"/>
      </g>
     </g>
     <g id="text_12">
      <!-- 0.0 -->
      <g transform="translate(28.792188 186.441586) scale(0.1 -0.1)">
       <use xlink:href="#LucidaGrande-30"/>
       <use xlink:href="#LucidaGrande-2e" x="63.232422"/>
       <use xlink:href="#LucidaGrande-30" x="94.873047"/>
      </g>
     </g>
    </g>
    <g id="ytick_5">
     <g id="line2d_12">
      <g>
       <use xlink:href="#m47398d4652" x="51.603125" y="136.393968" style="stroke: #000000; stroke-width: 0.8"/>
      </g>
     </g>
     <g id="text_13">
      <!-- 0.1 -->
      <g transform="translate(28.792188 140.248655) scale(0.1 -0.1)">
       <use xlink:href="#LucidaGrande-30"/>
       <use xlink:href="#LucidaGrande-2e" x="63.232422"/>
       <use xlink:href="#LucidaGrande-31" x="94.873047"/>
      </g>
     </g>
    </g>
    <g id="ytick_6">
     <g id="line2d_13">
      <g>
       <use xlink:href="#m47398d4652" x="51.603125" y="90.201037" style="stroke: #000000; stroke-width: 0.8"/>
      </g>
     </g>
     <g id="text_14">
      <!-- 0.2 -->
      <g transform="translate(28.792188 94.055724) scale(0.1 -0.1)">
       <use xlink:href="#LucidaGrande-30"/>
       <use xlink:href="#LucidaGrande-2e" x="63.232422"/>
       <use xlink:href="#LucidaGrande-32" x="94.873047"/>
      </g>
     </g>
    </g>
    <g id="ytick_7">
     <g id="line2d_14">
      <g>
       <use xlink:href="#m47398d4652" x="51.603125" y="44.008106" style="stroke: #000000; stroke-width: 0.8"/>
      </g>
     </g>
     <g id="text_15">
      <!-- 0.3 -->
      <g transform="translate(28.792188 47.862793) scale(0.1 -0.1)">
       <use xlink:href="#LucidaGrande-30"/>
       <use xlink:href="#LucidaGrande-2e" x="63.232422"/>
       <use xlink:href="#LucidaGrande-33" x="94.873047"/>
      </g>
     </g>
    </g>
    <g id="text_16">
     <!-- Correlation with Cysteine Composition -->
     <g transform="translate(14.909375 282.55375) rotate(-90) scale(0.1 -0.1)">
      <defs>
       <path id="LucidaGrande-79" d="M 813 -1234 
L 1363 0 
L 50 3394 
L 716 3394 
L 1688 838 
L 2725 3394 
L 3306 3394 
L 1453 -1234 
L 813 -1234 
z
" transform="scale(0.015625)"/>
       <path id="LucidaGrande-73" d="M 1516 -78 
Q 1094 -78 491 119 
L 491 684 
Q 1094 384 1541 384 
Q 1806 384 1981 528 
Q 2156 672 2156 888 
Q 2156 1203 1666 1409 
L 1306 1563 
Q 509 1894 509 2516 
Q 509 2959 823 3214 
Q 1138 3469 1684 3469 
Q 1969 3469 2388 3391 
L 2516 3366 
L 2516 2853 
Q 2000 3006 1697 3006 
Q 1103 3006 1103 2575 
Q 1103 2297 1553 2106 
L 1850 1981 
Q 2353 1769 2562 1533 
Q 2772 1297 2772 944 
Q 2772 497 2419 209 
Q 2066 -78 1516 -78 
z
" transform="scale(0.015625)"/>
       <path id="LucidaGrande-6d" d="M 616 0 
L 616 3394 
L 1231 3394 
L 1231 2756 
Q 1681 3469 2388 3469 
Q 3069 3469 3316 2756 
Q 3753 3472 4453 3472 
Q 4903 3472 5150 3208 
Q 5397 2944 5397 2469 
L 5397 0 
L 4778 0 
L 4778 2372 
Q 4778 2953 4319 2953 
Q 3841 2953 3316 2275 
L 3316 0 
L 2697 0 
L 2697 2372 
Q 2697 2956 2228 2956 
Q 1763 2956 1231 2275 
L 1231 0 
L 616 0 
z
" transform="scale(0.015625)"/>
       <path id="LucidaGrande-70" d="M 616 -1234 
L 616 3394 
L 1231 3394 
L 1231 2756 
Q 1609 3469 2366 3469 
Q 2978 3469 3329 3022 
Q 3681 2575 3681 1800 
Q 3681 956 3282 439 
Q 2884 -78 2234 -78 
Q 1631 -78 1231 384 
L 1231 -1234 
L 616 -1234 
z
M 1231 809 
Q 1706 384 2138 384 
Q 3025 384 3025 1738 
Q 3025 2931 2238 2931 
Q 1722 2931 1231 2372 
L 1231 809 
z
" transform="scale(0.015625)"/>
      </defs>
      <use xlink:href="#LucidaGrande-43"/>
      <use xlink:href="#LucidaGrande-6f" x="69.189453"/>
      <use xlink:href="#LucidaGrande-72" x="130.615234"/>
      <use xlink:href="#LucidaGrande-72" x="171.533203"/>
      <use xlink:href="#LucidaGrande-65" x="212.451172"/>
      <use xlink:href="#LucidaGrande-6c" x="268.164062"/>
      <use xlink:href="#LucidaGrande-61" x="297.070312"/>
      <use xlink:href="#LucidaGrande-74" x="352.294922"/>
      <use xlink:href="#LucidaGrande-69" x="389.697266"/>
      <use xlink:href="#LucidaGrande-6f" x="418.603516"/>
      <use xlink:href="#LucidaGrande-6e" x="480.029297"/>
      <use xlink:href="#LucidaGrande-20" x="542.089844"/>
      <use xlink:href="#LucidaGrande-77" x="573.730469"/>
      <use xlink:href="#LucidaGrande-69" x="650.78125"/>
      <use xlink:href="#LucidaGrande-74" x="679.6875"/>
      <use xlink:href="#LucidaGrande-68" x="717.089844"/>
      <use xlink:href="#LucidaGrande-20" x="779.150391"/>
      <use xlink:href="#LucidaGrande-43" x="810.791016"/>
      <use xlink:href="#LucidaGrande-79" x="879.980469"/>
      <use xlink:href="#LucidaGrande-73" x="932.226562"/>
      <use xlink:href="#LucidaGrande-74" x="983.203125"/>
      <use xlink:href="#LucidaGrande-65" x="1020.605469"/>
      <use xlink:href="#LucidaGrande-69" x="1076.318359"/>
      <use xlink:href="#LucidaGrande-6e" x="1105.224609"/>
      <use xlink:href="#LucidaGrande-65" x="1167.285156"/>
      <use xlink:href="#LucidaGrande-20" x="1222.998047"/>
      <use xlink:href="#LucidaGrande-43" x="1254.638672"/>
      <use xlink:href="#LucidaGrande-6f" x="1323.828125"/>
      <use xlink:href="#LucidaGrande-6d" x="1385.253906"/>
      <use xlink:href="#LucidaGrande-70" x="1478.613281"/>
      <use xlink:href="#LucidaGrande-6f" x="1541.552734"/>
      <use xlink:href="#LucidaGrande-73" x="1602.978516"/>
      <use xlink:href="#LucidaGrande-69" x="1653.955078"/>
      <use xlink:href="#LucidaGrande-74" x="1682.861328"/>
      <use xlink:href="#LucidaGrande-69" x="1720.263672"/>
      <use xlink:href="#LucidaGrande-6f" x="1749.169922"/>
      <use xlink:href="#LucidaGrande-6e" x="1810.595703"/>
     </g>
    </g>
   </g>
   <g id="line2d_15"/>
   <g id="line2d_16"/>
   <g id="line2d_17"/>
   <g id="line2d_18"/>
   <g id="line2d_19"/>
   <g id="line2d_20"/>
   <g id="line2d_21"/>
   <g id="line2d_22"/>
   <g id="line2d_23"/>
   <g id="line2d_24">
    <path d="M 51.603125 182.586899 
L 498.003125 182.586899 
" clip-path="url(#p089ca1e957)" style="fill: none; stroke-dasharray: 1.85,0.8; stroke-dashoffset: 0; stroke: #000000; stroke-width: 0.5"/>
   </g>
   <g id="line2d_25">
    <path d="M 273.721714 355.239375 
L 273.721714 22.599375 
" clip-path="url(#p089ca1e957)" style="fill: none; stroke-dasharray: 1.85,0.8; stroke-dashoffset: 0; stroke: #000000; stroke-width: 0.5"/>
   </g>
   <g id="patch_3">
    <path d="M 51.603125 355.239375 
L 51.603125 22.599375 
" style="fill: none; stroke: #000000; stroke-width: 0.8; stroke-linejoin: miter; stroke-linecap: square"/>
   </g>
   <g id="patch_4">
    <path d="M 498.003125 355.239375 
L 498.003125 22.599375 
" style="fill: none; stroke: #000000; stroke-width: 0.8; stroke-linejoin: miter; stroke-linecap: square"/>
   </g>
   <g id="patch_5">
    <path d="M 51.603125 355.239375 
L 498.003125 355.239375 
" style="fill: none; stroke: #000000; stroke-width: 0.8; stroke-linejoin: miter; stroke-linecap: square"/>
   </g>
   <g id="patch_6">
    <path d="M 51.603125 22.599375 
L 498.003125 22.599375 
" style="fill: none; stroke: #000000; stroke-width: 0.8; stroke-linejoin: miter; stroke-linecap: square"/>
   </g>
   <g id="text_17">
    <!-- Slc11a2 -->
    <g transform="translate(483.98296 260.73776) scale(0.09 -0.09)">
     <defs>
      <path id="LucidaGrande-53" d="M 1503 -116 
Q 1038 -116 313 88 
L 313 738 
Q 1094 375 1597 375 
Q 1984 375 2220 578 
Q 2456 781 2456 1113 
Q 2456 1384 2301 1575 
Q 2147 1766 1731 2000 
L 1413 2184 
Q 822 2522 580 2820 
Q 338 3119 338 3516 
Q 338 4050 725 4395 
Q 1113 4741 1713 4741 
Q 2247 4741 2841 4563 
L 2841 3963 
Q 2109 4250 1750 4250 
Q 1409 4250 1187 4069 
Q 966 3888 966 3613 
Q 966 3381 1128 3203 
Q 1291 3025 1722 2778 
L 2053 2591 
Q 2653 2250 2890 1947 
Q 3128 1644 3128 1219 
Q 3128 616 2683 250 
Q 2238 -116 1503 -116 
z
" transform="scale(0.015625)"/>
     </defs>
     <use xlink:href="#LucidaGrande-53"/>
     <use xlink:href="#LucidaGrande-6c" x="53.857422"/>
     <use xlink:href="#LucidaGrande-63" x="82.763672"/>
     <use xlink:href="#LucidaGrande-31" x="133.984375"/>
     <use xlink:href="#LucidaGrande-31" x="197.216797"/>
     <use xlink:href="#LucidaGrande-61" x="260.449219"/>
     <use xlink:href="#LucidaGrande-32" x="315.673828"/>
    </g>
   </g>
   <g id="text_18">
    <!-- Slc7a11 -->
    <g transform="translate(462.738062 271.966423) scale(0.09 -0.09)">
     <defs>
      <path id="LucidaGrande-37" d="M 963 0 
Q 1053 541 1220 934 
Q 1388 1328 1813 2016 
L 3075 4047 
L 694 4047 
L 694 4625 
L 3663 4625 
L 3663 4047 
Q 1884 1425 1672 0 
L 963 0 
z
" transform="scale(0.015625)"/>
     </defs>
     <use xlink:href="#LucidaGrande-53"/>
     <use xlink:href="#LucidaGrande-6c" x="53.857422"/>
     <use xlink:href="#LucidaGrande-63" x="82.763672"/>
     <use xlink:href="#LucidaGrande-37" x="133.984375"/>
     <use xlink:href="#LucidaGrande-61" x="197.216797"/>
     <use xlink:href="#LucidaGrande-31" x="252.441406"/>
     <use xlink:href="#LucidaGrande-31" x="315.673828"/>
    </g>
   </g>
   <g id="text_19">
    <!-- LOC100754168 -->
    <g transform="translate(447.038602 305.57602) scale(0.09 -0.09)">
     <defs>
      <path id="LucidaGrande-4c" d="M 597 0 
L 597 4625 
L 1253 4625 
L 1253 491 
L 3334 491 
L 3334 0 
L 597 0 
z
" transform="scale(0.015625)"/>
      <path id="LucidaGrande-4f" d="M 2459 -116 
Q 1497 -116 911 551 
Q 325 1219 325 2316 
Q 325 3419 914 4080 
Q 1503 4741 2488 4741 
Q 3469 4741 4059 4081 
Q 4650 3422 4650 2322 
Q 4650 1200 4059 542 
Q 3469 -116 2459 -116 
z
M 2469 375 
Q 3178 375 3565 886 
Q 3953 1397 3953 2328 
Q 3953 3231 3564 3740 
Q 3175 4250 2488 4250 
Q 1797 4250 1409 3739 
Q 1022 3228 1022 2319 
Q 1022 1413 1406 894 
Q 1791 375 2469 375 
z
" transform="scale(0.015625)"/>
      <path id="LucidaGrande-35" d="M 778 -19 
L 778 531 
Q 1238 347 1653 347 
Q 2109 347 2370 615 
Q 2631 884 2631 1356 
Q 2631 2397 1197 2397 
Q 1034 2397 856 2375 
L 856 4625 
L 3197 4625 
L 3197 4088 
L 1397 4088 
L 1397 2869 
Q 2288 2869 2788 2459 
Q 3288 2050 3288 1325 
Q 3288 650 2833 267 
Q 2378 -116 1572 -116 
Q 1222 -116 778 -19 
z
" transform="scale(0.015625)"/>
      <path id="LucidaGrande-38" d="M 1472 2519 
Q 794 2991 794 3563 
Q 794 4088 1178 4416 
Q 1563 4744 2181 4744 
Q 2753 4744 3108 4466 
Q 3463 4188 3463 3744 
Q 3463 3072 2600 2519 
Q 3647 2006 3647 1197 
Q 3647 616 3208 250 
Q 2769 -116 2075 -116 
Q 1394 -116 973 229 
Q 553 575 553 1138 
Q 553 1969 1472 2519 
z
M 2256 2713 
Q 2903 3138 2903 3659 
Q 2903 3938 2687 4108 
Q 2472 4278 2119 4278 
Q 1778 4278 1565 4111 
Q 1353 3944 1353 3678 
Q 1353 3419 1545 3214 
Q 1738 3009 2256 2713 
z
M 1806 2269 
Q 1434 1981 1301 1767 
Q 1169 1553 1169 1234 
Q 1169 838 1425 592 
Q 1681 347 2100 347 
Q 2503 347 2758 556 
Q 3013 766 3013 1100 
Q 3013 1369 2855 1555 
Q 2697 1741 2244 2009 
L 1806 2269 
z
" transform="scale(0.015625)"/>
     </defs>
     <use xlink:href="#LucidaGrande-4c"/>
     <use xlink:href="#LucidaGrande-4f" x="53.320312"/>
     <use xlink:href="#LucidaGrande-43" x="131.005859"/>
     <use xlink:href="#LucidaGrande-31" x="200.195312"/>
     <use xlink:href="#LucidaGrande-30" x="263.427734"/>
     <use xlink:href="#LucidaGrande-30" x="326.660156"/>
     <use xlink:href="#LucidaGrande-37" x="389.892578"/>
     <use xlink:href="#LucidaGrande-35" x="453.125"/>
     <use xlink:href="#LucidaGrande-34" x="516.357422"/>
     <use xlink:href="#LucidaGrande-31" x="579.589844"/>
     <use xlink:href="#LucidaGrande-36" x="642.822266"/>
     <use xlink:href="#LucidaGrande-38" x="706.054688"/>
    </g>
   </g>
   <g id="text_20">
    <!-- Zfand1 -->
    <g transform="translate(439.186816 330.880789) scale(0.09 -0.09)">
     <defs>
      <path id="LucidaGrande-5a" d="M 297 0 
L 297 525 
L 2781 4134 
L 450 4134 
L 450 4625 
L 3569 4625 
L 3569 4134 
L 1084 525 
L 3569 525 
L 3569 0 
L 297 0 
z
" transform="scale(0.015625)"/>
      <path id="LucidaGrande-66" d="M 1350 2931 
L 1350 0 
L 731 0 
L 731 2931 
L 250 2931 
L 250 3394 
L 731 3394 
L 731 3800 
Q 731 5013 1838 5013 
Q 2147 5013 2541 4909 
L 2541 4422 
Q 2125 4550 1875 4550 
Q 1572 4550 1461 4404 
Q 1350 4259 1350 3866 
L 1350 3394 
L 2197 3394 
L 2197 2931 
L 1350 2931 
z
" transform="scale(0.015625)"/>
     </defs>
     <use xlink:href="#LucidaGrande-5a"/>
     <use xlink:href="#LucidaGrande-66" x="60.449219"/>
     <use xlink:href="#LucidaGrande-61" x="97.216797"/>
     <use xlink:href="#LucidaGrande-6e" x="152.441406"/>
     <use xlink:href="#LucidaGrande-64" x="214.501953"/>
     <use xlink:href="#LucidaGrande-31" x="277.441406"/>
    </g>
   </g>
   <g id="text_21">
    <!-- Hif1a -->
    <g transform="translate(437.445207 271.192255) scale(0.09 -0.09)">
     <defs>
      <path id="LucidaGrande-48" d="M 597 0 
L 597 4625 
L 1253 4625 
L 1253 2675 
L 3453 2675 
L 3453 4625 
L 4109 4625 
L 4109 0 
L 3453 0 
L 3453 2184 
L 1253 2184 
L 1253 0 
L 597 0 
z
" transform="scale(0.015625)"/>
     </defs>
     <use xlink:href="#LucidaGrande-48"/>
     <use xlink:href="#LucidaGrande-69" x="73.486328"/>
     <use xlink:href="#LucidaGrande-66" x="102.392578"/>
     <use xlink:href="#LucidaGrande-31" x="139.160156"/>
     <use xlink:href="#LucidaGrande-61" x="202.392578"/>
    </g>
   </g>
   <g id="text_22">
    <!-- Gskip -->
    <g transform="translate(435.205899 310.580851) scale(0.09 -0.09)">
     <defs>
      <path id="LucidaGrande-47" d="M 4072 125 
Q 3231 -116 2606 -116 
Q 1503 -116 914 512 
Q 325 1141 325 2313 
Q 325 3463 922 4102 
Q 1519 4741 2597 4741 
Q 3303 4741 4066 4531 
L 4066 3925 
Q 3109 4250 2600 4250 
Q 1850 4250 1436 3740 
Q 1022 3231 1022 2306 
Q 1022 1391 1465 883 
Q 1909 375 2709 375 
Q 3038 375 3419 491 
L 3419 1997 
L 4072 1997 
L 4072 125 
z
" transform="scale(0.015625)"/>
      <path id="LucidaGrande-6b" d="M 616 0 
L 616 4934 
L 1231 4934 
L 1231 1747 
L 2669 3394 
L 3331 3394 
L 1959 1809 
L 3616 0 
L 2828 0 
L 1231 1741 
L 1231 0 
L 616 0 
z
" transform="scale(0.015625)"/>
     </defs>
     <use xlink:href="#LucidaGrande-47"/>
     <use xlink:href="#LucidaGrande-73" x="72.265625"/>
     <use xlink:href="#LucidaGrande-6b" x="123.242188"/>
     <use xlink:href="#LucidaGrande-69" x="181.689453"/>
     <use xlink:href="#LucidaGrande-70" x="210.595703"/>
    </g>
   </g>
   <g id="text_23">
    <!-- Gba -->
    <g transform="translate(430.898161 208.589974) scale(0.09 -0.09)">
     <defs>
      <path id="LucidaGrande-62" d="M 616 -38 
L 616 4934 
L 1231 4934 
L 1231 2756 
Q 1609 3469 2366 3469 
Q 2978 3469 3329 3022 
Q 3681 2575 3681 1800 
Q 3681 956 3282 439 
Q 2884 -78 2234 -78 
Q 1631 -78 1231 384 
L 1156 -38 
L 616 -38 
z
M 1231 809 
Q 1706 384 2138 384 
Q 3025 384 3025 1738 
Q 3025 2931 2238 2931 
Q 1722 2931 1231 2372 
L 1231 809 
z
" transform="scale(0.015625)"/>
     </defs>
     <use xlink:href="#LucidaGrande-47"/>
     <use xlink:href="#LucidaGrande-62" x="72.265625"/>
     <use xlink:href="#LucidaGrande-61" x="135.205078"/>
    </g>
   </g>
   <g id="text_24">
    <!-- Bcl2 -->
    <g transform="translate(428.560061 307.404195) scale(0.09 -0.09)">
     <defs>
      <path id="LucidaGrande-42" d="M 597 0 
L 597 4625 
L 1797 4625 
Q 2491 4625 2861 4362 
Q 3231 4100 3231 3606 
Q 3231 2766 2281 2409 
Q 3416 2063 3416 1156 
Q 3416 594 3041 297 
Q 2666 0 1959 0 
L 597 0 
z
M 1247 491 
L 1381 491 
Q 2103 491 2316 581 
Q 2722 753 2722 1219 
Q 2722 1631 2353 1904 
Q 1984 2178 1431 2178 
L 1247 2178 
L 1247 491 
z
M 1247 2594 
L 1456 2594 
Q 1981 2594 2270 2819 
Q 2559 3044 2559 3453 
Q 2559 4134 1503 4134 
L 1247 4134 
L 1247 2594 
z
" transform="scale(0.015625)"/>
     </defs>
     <use xlink:href="#LucidaGrande-42"/>
     <use xlink:href="#LucidaGrande-63" x="57.519531"/>
     <use xlink:href="#LucidaGrande-6c" x="108.740234"/>
     <use xlink:href="#LucidaGrande-32" x="137.646484"/>
    </g>
   </g>
   <g id="text_25">
    <!-- Fancc -->
    <g transform="translate(164.347461 206.689356) scale(0.09 -0.09)">
     <defs>
      <path id="LucidaGrande-46" d="M 597 0 
L 597 4625 
L 3181 4625 
L 3181 4134 
L 1253 4134 
L 1253 2584 
L 2872 2584 
L 2872 2100 
L 1253 2100 
L 1253 0 
L 597 0 
z
" transform="scale(0.015625)"/>
     </defs>
     <use xlink:href="#LucidaGrande-46"/>
     <use xlink:href="#LucidaGrande-61" x="53.613281"/>
     <use xlink:href="#LucidaGrande-6e" x="108.837891"/>
     <use xlink:href="#LucidaGrande-63" x="170.898438"/>
     <use xlink:href="#LucidaGrande-63" x="222.119141"/>
    </g>
   </g>
   <g id="text_26">
    <!-- Gpx1 -->
    <g transform="translate(113.943985 112.078173) scale(0.09 -0.09)">
     <defs>
      <path id="LucidaGrande-78" d="M 275 0 
L 1566 1753 
L 313 3394 
L 1044 3394 
L 2034 2088 
L 2931 3394 
L 3531 3394 
L 2356 1672 
L 3634 0 
L 2903 0 
L 1881 1344 
L 894 0 
L 275 0 
z
" transform="scale(0.015625)"/>
     </defs>
     <use xlink:href="#LucidaGrande-47"/>
     <use xlink:href="#LucidaGrande-70" x="72.265625"/>
     <use xlink:href="#LucidaGrande-78" x="135.205078"/>
     <use xlink:href="#LucidaGrande-31" x="196.533203"/>
    </g>
   </g>
   <g id="text_27">
    <!-- Endog -->
    <g transform="translate(99.925013 55.355309) scale(0.09 -0.09)">
     <defs>
      <path id="LucidaGrande-45" d="M 597 0 
L 597 4625 
L 3181 4625 
L 3181 4134 
L 1253 4134 
L 1253 2650 
L 2869 2650 
L 2869 2166 
L 1253 2166 
L 1253 491 
L 3316 491 
L 3316 0 
L 597 0 
z
" transform="scale(0.015625)"/>
      <path id="LucidaGrande-67" d="M 628 -1128 
L 700 -594 
Q 1234 -847 1753 -847 
Q 2794 -847 2794 256 
L 2794 791 
Q 2453 78 1675 78 
Q 1066 78 706 522 
Q 347 966 347 1719 
Q 347 2494 756 2981 
Q 1166 3469 1816 3469 
Q 2384 3469 2794 3006 
L 2794 3394 
L 3413 3394 
L 3413 925 
Q 3413 128 3330 -255 
Q 3247 -638 3019 -881 
Q 2616 -1309 1766 -1309 
Q 1172 -1309 628 -1128 
z
M 2794 1175 
L 2794 2584 
Q 2388 3006 1909 3006 
Q 1484 3006 1243 2665 
Q 1003 2325 1003 1731 
Q 1003 616 1788 616 
Q 2322 616 2794 1175 
z
" transform="scale(0.015625)"/>
     </defs>
     <use xlink:href="#LucidaGrande-45"/>
     <use xlink:href="#LucidaGrande-6e" x="54.199219"/>
     <use xlink:href="#LucidaGrande-64" x="116.259766"/>
     <use xlink:href="#LucidaGrande-6f" x="179.199219"/>
     <use xlink:href="#LucidaGrande-67" x="240.625"/>
    </g>
   </g>
   <g id="text_28">
    <!-- Trex1 -->
    <g transform="translate(94.237423 115.342565) scale(0.09 -0.09)">
     <defs>
      <path id="LucidaGrande-54" d="M 1697 0 
L 1697 4134 
L 56 4134 
L 56 4625 
L 3994 4625 
L 3994 4134 
L 2353 4134 
L 2353 0 
L 1697 0 
z
" transform="scale(0.015625)"/>
     </defs>
     <use xlink:href="#LucidaGrande-54"/>
     <use xlink:href="#LucidaGrande-72" x="63.232422"/>
     <use xlink:href="#LucidaGrande-65" x="104.150391"/>
     <use xlink:href="#LucidaGrande-78" x="159.863281"/>
     <use xlink:href="#LucidaGrande-31" x="221.191406"/>
    </g>
   </g>
   <g id="text_29">
    <!-- Keap1 -->
    <g transform="translate(78.164778 28.480789) scale(0.09 -0.09)">
     <defs>
      <path id="LucidaGrande-4b" d="M 597 0 
L 597 4625 
L 1213 4625 
L 1213 2350 
L 3084 4625 
L 3744 4625 
L 1931 2419 
L 4066 0 
L 3234 0 
L 1213 2344 
L 1213 0 
L 597 0 
z
" transform="scale(0.015625)"/>
     </defs>
     <use xlink:href="#LucidaGrande-4b"/>
     <use xlink:href="#LucidaGrande-65" x="65.283203"/>
     <use xlink:href="#LucidaGrande-61" x="120.996094"/>
     <use xlink:href="#LucidaGrande-70" x="176.220703"/>
     <use xlink:href="#LucidaGrande-31" x="239.160156"/>
    </g>
   </g>
   <g id="text_30">
    <!-- Correlation of Oxidative Stress Genes with Protein Production and Cysteine Composition -->
    <g transform="translate(17.736875 16.599375) scale(0.12 -0.12)">
     <defs>
      <path id="LucidaGrande-76" d="M 1319 0 
L 56 3394 
L 672 3394 
L 1659 753 
L 2700 3394 
L 3275 3394 
L 1934 0 
L 1319 0 
z
" transform="scale(0.015625)"/>
     </defs>
     <use xlink:href="#LucidaGrande-43"/>
     <use xlink:href="#LucidaGrande-6f" x="69.189453"/>
     <use xlink:href="#LucidaGrande-72" x="130.615234"/>
     <use xlink:href="#LucidaGrande-72" x="171.533203"/>
     <use xlink:href="#LucidaGrande-65" x="212.451172"/>
     <use xlink:href="#LucidaGrande-6c" x="268.164062"/>
     <use xlink:href="#LucidaGrande-61" x="297.070312"/>
     <use xlink:href="#LucidaGrande-74" x="352.294922"/>
     <use xlink:href="#LucidaGrande-69" x="389.697266"/>
     <use xlink:href="#LucidaGrande-6f" x="418.603516"/>
     <use xlink:href="#LucidaGrande-6e" x="480.029297"/>
     <use xlink:href="#LucidaGrande-20" x="542.089844"/>
     <use xlink:href="#LucidaGrande-6f" x="573.730469"/>
     <use xlink:href="#LucidaGrande-66" x="635.15625"/>
     <use xlink:href="#LucidaGrande-20" x="671.923828"/>
     <use xlink:href="#LucidaGrande-4f" x="703.564453"/>
     <use xlink:href="#LucidaGrande-78" x="781.25"/>
     <use xlink:href="#LucidaGrande-69" x="842.578125"/>
     <use xlink:href="#LucidaGrande-64" x="871.484375"/>
     <use xlink:href="#LucidaGrande-61" x="934.423828"/>
     <use xlink:href="#LucidaGrande-74" x="989.648438"/>
     <use xlink:href="#LucidaGrande-69" x="1027.050781"/>
     <use xlink:href="#LucidaGrande-76" x="1055.957031"/>
     <use xlink:href="#LucidaGrande-65" x="1107.714844"/>
     <use xlink:href="#LucidaGrande-20" x="1163.427734"/>
     <use xlink:href="#LucidaGrande-53" x="1195.068359"/>
     <use xlink:href="#LucidaGrande-74" x="1248.925781"/>
     <use xlink:href="#LucidaGrande-72" x="1286.328125"/>
     <use xlink:href="#LucidaGrande-65" x="1327.246094"/>
     <use xlink:href="#LucidaGrande-73" x="1382.958984"/>
     <use xlink:href="#LucidaGrande-73" x="1433.935547"/>
     <use xlink:href="#LucidaGrande-20" x="1484.912109"/>
     <use xlink:href="#LucidaGrande-47" x="1516.552734"/>
     <use xlink:href="#LucidaGrande-65" x="1588.818359"/>
     <use xlink:href="#LucidaGrande-6e" x="1644.53125"/>
     <use xlink:href="#LucidaGrande-65" x="1706.591797"/>
     <use xlink:href="#LucidaGrande-73" x="1762.304688"/>
     <use xlink:href="#LucidaGrande-20" x="1813.28125"/>
     <use xlink:href="#LucidaGrande-77" x="1844.921875"/>
     <use xlink:href="#LucidaGrande-69" x="1921.972656"/>
     <use xlink:href="#LucidaGrande-74" x="1950.878906"/>
     <use xlink:href="#LucidaGrande-68" x="1988.28125"/>
     <use xlink:href="#LucidaGrande-20" x="2050.341797"/>
     <use xlink:href="#LucidaGrande-50" x="2081.982422"/>
     <use xlink:href="#LucidaGrande-72" x="2137.255859"/>
     <use xlink:href="#LucidaGrande-6f" x="2178.173828"/>
     <use xlink:href="#LucidaGrande-74" x="2239.599609"/>
     <use xlink:href="#LucidaGrande-65" x="2277.001953"/>
     <use xlink:href="#LucidaGrande-69" x="2332.714844"/>
     <use xlink:href="#LucidaGrande-6e" x="2361.621094"/>
     <use xlink:href="#LucidaGrande-20" x="2423.681641"/>
     <use xlink:href="#LucidaGrande-50" x="2455.322266"/>
     <use xlink:href="#LucidaGrande-72" x="2510.595703"/>
     <use xlink:href="#LucidaGrande-6f" x="2551.513672"/>
     <use xlink:href="#LucidaGrande-64" x="2612.939453"/>
     <use xlink:href="#LucidaGrande-75" x="2675.878906"/>
     <use xlink:href="#LucidaGrande-63" x="2737.939453"/>
     <use xlink:href="#LucidaGrande-74" x="2789.160156"/>
     <use xlink:href="#LucidaGrande-69" x="2826.5625"/>
     <use xlink:href="#LucidaGrande-6f" x="2855.46875"/>
     <use xlink:href="#LucidaGrande-6e" x="2916.894531"/>
     <use xlink:href="#LucidaGrande-20" x="2978.955078"/>
     <use xlink:href="#LucidaGrande-61" x="3010.595703"/>
     <use xlink:href="#LucidaGrande-6e" x="3065.820312"/>
     <use xlink:href="#LucidaGrande-64" x="3127.880859"/>
     <use xlink:href="#LucidaGrande-20" x="3190.820312"/>
     <use xlink:href="#LucidaGrande-43" x="3222.460938"/>
     <use xlink:href="#LucidaGrande-79" x="3291.650391"/>
     <use xlink:href="#LucidaGrande-73" x="3343.896484"/>
     <use xlink:href="#LucidaGrande-74" x="3394.873047"/>
     <use xlink:href="#LucidaGrande-65" x="3432.275391"/>
     <use xlink:href="#LucidaGrande-69" x="3487.988281"/>
     <use xlink:href="#LucidaGrande-6e" x="3516.894531"/>
     <use xlink:href="#LucidaGrande-65" x="3578.955078"/>
     <use xlink:href="#LucidaGrande-20" x="3634.667969"/>
     <use xlink:href="#LucidaGrande-43" x="3666.308594"/>
     <use xlink:href="#LucidaGrande-6f" x="3735.498047"/>
     <use xlink:href="#LucidaGrande-6d" x="3796.923828"/>
     <use xlink:href="#LucidaGrande-70" x="3890.283203"/>
     <use xlink:href="#LucidaGrande-6f" x="3953.222656"/>
     <use xlink:href="#LucidaGrande-73" x="4014.648438"/>
     <use xlink:href="#LucidaGrande-69" x="4065.625"/>
     <use xlink:href="#LucidaGrande-74" x="4094.53125"/>
     <use xlink:href="#LucidaGrande-69" x="4131.933594"/>
     <use xlink:href="#LucidaGrande-6f" x="4160.839844"/>
     <use xlink:href="#LucidaGrande-6e" x="4222.265625"/>
    </g>
   </g>
   <g id="legend_1">
    <g id="patch_7">
     <path d="M 527.323125 177.091563 
L 670.179375 177.091563 
Q 672.179375 177.091563 672.179375 175.091563 
L 672.179375 29.599375 
Q 672.179375 27.599375 670.179375 27.599375 
L 527.323125 27.599375 
Q 525.323125 27.599375 525.323125 29.599375 
L 525.323125 175.091563 
Q 525.323125 177.091563 527.323125 177.091563 
z
" style="fill: #ffffff; opacity: 0.8; stroke: #cccccc; stroke-linejoin: miter"/>
    </g>
    <g id="text_31">
     <!-- Protein Correlation Direction -->
     <g transform="translate(529.323125 39.30875) scale(0.1 -0.1)">
      <defs>
       <path id="LucidaGrande-44" d="M 597 0 
L 597 4625 
L 2134 4625 
Q 2822 4625 3245 4472 
Q 3669 4319 3978 3953 
Q 4469 3372 4469 2422 
Q 4469 1269 3859 634 
Q 3250 0 2144 0 
L 597 0 
z
M 1253 491 
L 2094 491 
Q 2994 491 3369 975 
Q 3772 1491 3772 2359 
Q 3772 3175 3375 3641 
Q 3134 3925 2800 4029 
Q 2466 4134 1794 4134 
L 1253 4134 
L 1253 491 
z
" transform="scale(0.015625)"/>
      </defs>
      <use xlink:href="#LucidaGrande-50"/>
      <use xlink:href="#LucidaGrande-72" x="55.273438"/>
      <use xlink:href="#LucidaGrande-6f" x="96.191406"/>
      <use xlink:href="#LucidaGrande-74" x="157.617188"/>
      <use xlink:href="#LucidaGrande-65" x="195.019531"/>
      <use xlink:href="#LucidaGrande-69" x="250.732422"/>
      <use xlink:href="#LucidaGrande-6e" x="279.638672"/>
      <use xlink:href="#LucidaGrande-20" x="341.699219"/>
      <use xlink:href="#LucidaGrande-43" x="373.339844"/>
      <use xlink:href="#LucidaGrande-6f" x="442.529297"/>
      <use xlink:href="#LucidaGrande-72" x="503.955078"/>
      <use xlink:href="#LucidaGrande-72" x="544.873047"/>
      <use xlink:href="#LucidaGrande-65" x="585.791016"/>
      <use xlink:href="#LucidaGrande-6c" x="641.503906"/>
      <use xlink:href="#LucidaGrande-61" x="670.410156"/>
      <use xlink:href="#LucidaGrande-74" x="725.634766"/>
      <use xlink:href="#LucidaGrande-69" x="763.037109"/>
      <use xlink:href="#LucidaGrande-6f" x="791.943359"/>
      <use xlink:href="#LucidaGrande-6e" x="853.369141"/>
      <use xlink:href="#LucidaGrande-20" x="915.429688"/>
      <use xlink:href="#LucidaGrande-44" x="947.070312"/>
      <use xlink:href="#LucidaGrande-69" x="1021.972656"/>
      <use xlink:href="#LucidaGrande-72" x="1050.878906"/>
      <use xlink:href="#LucidaGrande-65" x="1091.796875"/>
      <use xlink:href="#LucidaGrande-63" x="1147.509766"/>
      <use xlink:href="#LucidaGrande-74" x="1198.730469"/>
      <use xlink:href="#LucidaGrande-69" x="1236.132812"/>
      <use xlink:href="#LucidaGrande-6f" x="1265.039062"/>
      <use xlink:href="#LucidaGrande-6e" x="1326.464844"/>
     </g>
    </g>
    <g id="line2d_26"/>
    <g id="text_32">
     <!-- Correlation_Protein -->
     <g transform="translate(566.060625 53.94625) scale(0.1 -0.1)">
      <defs>
       <path id="LucidaGrande-5f" d="M 0 -1078 
L 0 -616 
L 3200 -616 
L 3200 -1078 
L 0 -1078 
z
" transform="scale(0.015625)"/>
      </defs>
      <use xlink:href="#LucidaGrande-43"/>
      <use xlink:href="#LucidaGrande-6f" x="69.189453"/>
      <use xlink:href="#LucidaGrande-72" x="130.615234"/>
      <use xlink:href="#LucidaGrande-72" x="171.533203"/>
      <use xlink:href="#LucidaGrande-65" x="212.451172"/>
      <use xlink:href="#LucidaGrande-6c" x="268.164062"/>
      <use xlink:href="#LucidaGrande-61" x="297.070312"/>
      <use xlink:href="#LucidaGrande-74" x="352.294922"/>
      <use xlink:href="#LucidaGrande-69" x="389.697266"/>
      <use xlink:href="#LucidaGrande-6f" x="418.603516"/>
      <use xlink:href="#LucidaGrande-6e" x="480.029297"/>
      <use xlink:href="#LucidaGrande-5f" x="542.089844"/>
      <use xlink:href="#LucidaGrande-50" x="592.089844"/>
      <use xlink:href="#LucidaGrande-72" x="647.363281"/>
      <use xlink:href="#LucidaGrande-6f" x="688.28125"/>
      <use xlink:href="#LucidaGrande-74" x="749.707031"/>
      <use xlink:href="#LucidaGrande-65" x="787.109375"/>
      <use xlink:href="#LucidaGrande-69" x="842.822266"/>
      <use xlink:href="#LucidaGrande-6e" x="871.728516"/>
     </g>
    </g>
    <g id="line2d_27">
     <defs>
      <path id="m8893d6dd00" d="M 0 3 
C 0.795609 3 1.55874 2.683901 2.12132 2.12132 
C 2.683901 1.55874 3 0.795609 3 0 
C 3 -0.795609 2.683901 -1.55874 2.12132 -2.12132 
C 1.55874 -2.683901 0.795609 -3 0 -3 
C -0.795609 -3 -1.55874 -2.683901 -2.12132 -2.12132 
C -2.683901 -1.55874 -3 -0.795609 -3 0 
C -3 0.795609 -2.683901 1.55874 -2.12132 2.12132 
C -1.55874 2.683901 -0.795609 3 0 3 
z
" style="stroke: #ffffff; stroke-width: 0.594468"/>
     </defs>
     <g>
      <use xlink:href="#m8893d6dd00" x="548.060625" y="65.08375" style="fill: #008000; stroke: #ffffff; stroke-width: 0.594468"/>
     </g>
    </g>
    <g id="text_33">
     <!-- Positive -->
     <g transform="translate(566.060625 68.58375) scale(0.1 -0.1)">
      <use xlink:href="#LucidaGrande-50"/>
      <use xlink:href="#LucidaGrande-6f" x="55.273438"/>
      <use xlink:href="#LucidaGrande-73" x="116.699219"/>
      <use xlink:href="#LucidaGrande-69" x="167.675781"/>
      <use xlink:href="#LucidaGrande-74" x="196.582031"/>
      <use xlink:href="#LucidaGrande-69" x="233.984375"/>
      <use xlink:href="#LucidaGrande-76" x="262.890625"/>
      <use xlink:href="#LucidaGrande-65" x="314.648438"/>
     </g>
    </g>
    <g id="line2d_28">
     <defs>
      <path id="m84a8045204" d="M 0 3 
C 0.795609 3 1.55874 2.683901 2.12132 2.12132 
C 2.683901 1.55874 3 0.795609 3 0 
C 3 -0.795609 2.683901 -1.55874 2.12132 -2.12132 
C 1.55874 -2.683901 0.795609 -3 0 -3 
C -0.795609 -3 -1.55874 -2.683901 -2.12132 -2.12132 
C -2.683901 -1.55874 -3 -0.795609 -3 0 
C -3 0.795609 -2.683901 1.55874 -2.12132 2.12132 
C -1.55874 2.683901 -0.795609 3 0 3 
z
" style="stroke: #ffffff; stroke-width: 0.594468"/>
     </defs>
     <g>
      <use xlink:href="#m84a8045204" x="548.060625" y="79.72125" style="fill: #ff0000; stroke: #ffffff; stroke-width: 0.594468"/>
     </g>
    </g>
    <g id="text_34">
     <!-- Negative -->
     <g transform="translate(566.060625 83.22125) scale(0.1 -0.1)">
      <defs>
       <path id="LucidaGrande-4e" d="M 597 0 
L 597 4625 
L 1241 4625 
L 3569 1053 
L 3569 4625 
L 4131 4625 
L 4131 0 
L 3491 0 
L 1159 3572 
L 1159 0 
L 597 0 
z
" transform="scale(0.015625)"/>
      </defs>
      <use xlink:href="#LucidaGrande-4e"/>
      <use xlink:href="#LucidaGrande-65" x="73.876953"/>
      <use xlink:href="#LucidaGrande-67" x="129.589844"/>
      <use xlink:href="#LucidaGrande-61" x="191.943359"/>
      <use xlink:href="#LucidaGrande-74" x="247.167969"/>
      <use xlink:href="#LucidaGrande-69" x="284.570312"/>
      <use xlink:href="#LucidaGrande-76" x="313.476562"/>
      <use xlink:href="#LucidaGrande-65" x="365.234375"/>
     </g>
    </g>
    <g id="line2d_29"/>
    <g id="text_35">
     <!-- P-Value_Protein -->
     <g transform="translate(566.060625 97.975938) scale(0.1 -0.1)">
      <defs>
       <path id="LucidaGrande-2d" d="M 463 1619 
L 463 2081 
L 3238 2081 
L 3238 1619 
L 463 1619 
z
" transform="scale(0.015625)"/>
       <path id="LucidaGrande-56" d="M 1859 0 
L 113 4625 
L 769 4625 
L 2200 838 
L 3581 4625 
L 4156 4625 
L 2478 0 
L 1859 0 
z
" transform="scale(0.015625)"/>
      </defs>
      <use xlink:href="#LucidaGrande-50"/>
      <use xlink:href="#LucidaGrande-2d" x="55.273438"/>
      <use xlink:href="#LucidaGrande-56" x="113.134766"/>
      <use xlink:href="#LucidaGrande-61" x="178.515625"/>
      <use xlink:href="#LucidaGrande-6c" x="233.740234"/>
      <use xlink:href="#LucidaGrande-75" x="262.646484"/>
      <use xlink:href="#LucidaGrande-65" x="324.707031"/>
      <use xlink:href="#LucidaGrande-5f" x="380.419922"/>
      <use xlink:href="#LucidaGrande-50" x="430.419922"/>
      <use xlink:href="#LucidaGrande-72" x="485.693359"/>
      <use xlink:href="#LucidaGrande-6f" x="526.611328"/>
      <use xlink:href="#LucidaGrande-74" x="588.037109"/>
      <use xlink:href="#LucidaGrande-65" x="625.439453"/>
      <use xlink:href="#LucidaGrande-69" x="681.152344"/>
      <use xlink:href="#LucidaGrande-6e" x="710.058594"/>
     </g>
    </g>
    <g id="line2d_30">
     <defs>
      <path id="m634a091b5a" d="M 0 3.991867 
C 1.058656 3.991867 2.074094 3.571259 2.822676 2.822676 
C 3.571259 2.074094 3.991867 1.058656 3.991867 0 
C 3.991867 -1.058656 3.571259 -2.074094 2.822676 -2.822676 
C 2.074094 -3.571259 1.058656 -3.991867 0 -3.991867 
C -1.058656 -3.991867 -2.074094 -3.571259 -2.822676 -2.822676 
C -3.571259 -2.074094 -3.991867 -1.058656 -3.991867 0 
C -3.991867 1.058656 -3.571259 2.074094 -2.822676 2.822676 
C -2.074094 3.571259 -1.058656 3.991867 0 3.991867 
z
" style="stroke: #ffffff; stroke-width: 0.594468"/>
     </defs>
     <g>
      <use xlink:href="#m634a091b5a" x="548.060625" y="109.113438" style="fill: #333333; stroke: #ffffff; stroke-width: 0.594468"/>
     </g>
    </g>
    <g id="text_36">
     <!-- 0.45 -->
     <g transform="translate(566.060625 112.613438) scale(0.1 -0.1)">
      <use xlink:href="#LucidaGrande-30"/>
      <use xlink:href="#LucidaGrande-2e" x="63.232422"/>
      <use xlink:href="#LucidaGrande-34" x="94.873047"/>
      <use xlink:href="#LucidaGrande-35" x="158.105469"/>
     </g>
    </g>
    <g id="line2d_31">
     <defs>
      <path id="mfbd8de005d" d="M 0 4.894795 
C 1.298115 4.894795 2.543237 4.379048 3.461142 3.461142 
C 4.379048 2.543237 4.894795 1.298115 4.894795 0 
C 4.894795 -1.298115 4.379048 -2.543237 3.461142 -3.461142 
C 2.543237 -4.379048 1.298115 -4.894795 0 -4.894795 
C -1.298115 -4.894795 -2.543237 -4.379048 -3.461142 -3.461142 
C -4.379048 -2.543237 -4.894795 -1.298115 -4.894795 0 
C -4.894795 1.298115 -4.379048 2.543237 -3.461142 3.461142 
C -2.543237 4.379048 -1.298115 4.894795 0 4.894795 
z
" style="stroke: #ffffff; stroke-width: 0.594468"/>
     </defs>
     <g>
      <use xlink:href="#mfbd8de005d" x="548.060625" y="123.750938" style="fill: #333333; stroke: #ffffff; stroke-width: 0.594468"/>
     </g>
    </g>
    <g id="text_37">
     <!-- 0.60 -->
     <g transform="translate(566.060625 127.250938) scale(0.1 -0.1)">
      <use xlink:href="#LucidaGrande-30"/>
      <use xlink:href="#LucidaGrande-2e" x="63.232422"/>
      <use xlink:href="#LucidaGrande-36" x="94.873047"/>
      <use xlink:href="#LucidaGrande-30" x="158.105469"/>
     </g>
    </g>
    <g id="line2d_32">
     <defs>
      <path id="m23b3c2a7d2" d="M 0 5.655353 
C 1.499817 5.655353 2.938408 5.05947 3.998939 3.998939 
C 5.05947 2.938408 5.655353 1.499817 5.655353 0 
C 5.655353 -1.499817 5.05947 -2.938408 3.998939 -3.998939 
C 2.938408 -5.05947 1.499817 -5.655353 0 -5.655353 
C -1.499817 -5.655353 -2.938408 -5.05947 -3.998939 -3.998939 
C -5.05947 -2.938408 -5.655353 -1.499817 -5.655353 0 
C -5.655353 1.499817 -5.05947 2.938408 -3.998939 3.998939 
C -2.938408 5.05947 -1.499817 5.655353 0 5.655353 
z
" style="stroke: #ffffff; stroke-width: 0.594468"/>
     </defs>
     <g>
      <use xlink:href="#m23b3c2a7d2" x="548.060625" y="138.388438" style="fill: #333333; stroke: #ffffff; stroke-width: 0.594468"/>
     </g>
    </g>
    <g id="text_38">
     <!-- 0.75 -->
     <g transform="translate(566.060625 141.888438) scale(0.1 -0.1)">
      <use xlink:href="#LucidaGrande-30"/>
      <use xlink:href="#LucidaGrande-2e" x="63.232422"/>
      <use xlink:href="#LucidaGrande-37" x="94.873047"/>
      <use xlink:href="#LucidaGrande-35" x="158.105469"/>
     </g>
    </g>
    <g id="line2d_33">
     <defs>
      <path id="m98bb59ee4c" d="M 0 6.325111 
C 1.677439 6.325111 3.2864 5.658658 4.472529 4.472529 
C 5.658658 3.2864 6.325111 1.677439 6.325111 0 
C 6.325111 -1.677439 5.658658 -3.2864 4.472529 -4.472529 
C 3.2864 -5.658658 1.677439 -6.325111 0 -6.325111 
C -1.677439 -6.325111 -3.2864 -5.658658 -4.472529 -4.472529 
C -5.658658 -3.2864 -6.325111 -1.677439 -6.325111 0 
C -6.325111 1.677439 -5.658658 3.2864 -4.472529 4.472529 
C -3.2864 5.658658 -1.677439 6.325111 0 6.325111 
z
" style="stroke: #ffffff; stroke-width: 0.594468"/>
     </defs>
     <g>
      <use xlink:href="#m98bb59ee4c" x="548.060625" y="153.025938" style="fill: #333333; stroke: #ffffff; stroke-width: 0.594468"/>
     </g>
    </g>
    <g id="text_39">
     <!-- 0.90 -->
     <g transform="translate(566.060625 156.525938) scale(0.1 -0.1)">
      <defs>
       <path id="LucidaGrande-39" d="M 728 28 
L 728 550 
Q 1316 347 1728 347 
Q 2303 347 2626 836 
Q 2950 1325 2950 2197 
Q 2481 1619 1884 1619 
Q 1300 1619 894 2048 
Q 488 2478 488 3097 
Q 488 3806 920 4273 
Q 1353 4741 2009 4741 
Q 2763 4741 3197 4136 
Q 3631 3531 3631 2481 
Q 3631 1288 3101 586 
Q 2572 -116 1669 -116 
Q 1306 -116 728 28 
z
M 1103 3219 
Q 1103 2681 1342 2372 
Q 1581 2063 1997 2063 
Q 2388 2063 2664 2328 
Q 2941 2594 2941 2969 
Q 2941 3559 2673 3920 
Q 2406 4281 1972 4281 
Q 1569 4281 1336 3995 
Q 1103 3709 1103 3219 
z
" transform="scale(0.015625)"/>
      </defs>
      <use xlink:href="#LucidaGrande-30"/>
      <use xlink:href="#LucidaGrande-2e" x="63.232422"/>
      <use xlink:href="#LucidaGrande-39" x="94.873047"/>
      <use xlink:href="#LucidaGrande-30" x="158.105469"/>
     </g>
    </g>
    <g id="line2d_34">
     <defs>
      <path id="mf8edcaf42b" d="M 0 6.930443 
C 1.837975 6.930443 3.600919 6.200208 4.900563 4.900563 
C 6.200208 3.600919 6.930443 1.837975 6.930443 0 
C 6.930443 -1.837975 6.200208 -3.600919 4.900563 -4.900563 
C 3.600919 -6.200208 1.837975 -6.930443 0 -6.930443 
C -1.837975 -6.930443 -3.600919 -6.200208 -4.900563 -4.900563 
C -6.200208 -3.600919 -6.930443 -1.837975 -6.930443 0 
C -6.930443 1.837975 -6.200208 3.600919 -4.900563 4.900563 
C -3.600919 6.200208 -1.837975 6.930443 0 6.930443 
z
" style="stroke: #ffffff; stroke-width: 0.594468"/>
     </defs>
     <g>
      <use xlink:href="#mf8edcaf42b" x="548.060625" y="167.663438" style="fill: #333333; stroke: #ffffff; stroke-width: 0.594468"/>
     </g>
    </g>
    <g id="text_40">
     <!-- 1.05 -->
     <g transform="translate(566.060625 171.163438) scale(0.1 -0.1)">
      <use xlink:href="#LucidaGrande-31"/>
      <use xlink:href="#LucidaGrande-2e" x="63.232422"/>
      <use xlink:href="#LucidaGrande-30" x="94.873047"/>
      <use xlink:href="#LucidaGrande-35" x="158.105469"/>
     </g>
    </g>
   </g>
  </g>
 </g>
 <defs>
  <clipPath id="p089ca1e957">
   <rect x="51.603125" y="22.599375" width="446.4" height="332.64"/>
  </clipPath>
 </defs>
</svg>
