<?xml version="1.0" encoding="utf-8" standalone="no"?>
<!DOCTYPE svg PUBLIC "-//W3C//DTD SVG 1.1//EN"
  "http://www.w3.org/Graphics/SVG/1.1/DTD/svg11.dtd">
<svg xmlns:xlink="http://www.w3.org/1999/xlink" width="399.199375pt" height="325.8275pt" viewBox="0 0 399.199375 325.8275" xmlns="http://www.w3.org/2000/svg" version="1.1">
 <metadata>
  <rdf:RDF xmlns:dc="http://purl.org/dc/elements/1.1/" xmlns:cc="http://creativecommons.org/ns#" xmlns:rdf="http://www.w3.org/1999/02/22-rdf-syntax-ns#">
   <cc:Work>
    <dc:type rdf:resource="http://purl.org/dc/dcmitype/StillImage"/>
    <dc:date>2025-01-15T15:26:19.587099</dc:date>
    <dc:format>image/svg+xml</dc:format>
    <dc:creator>
     <cc:Agent>
      <dc:title>Matplotlib v3.9.2, https://matplotlib.org/</dc:title>
     </cc:Agent>
    </dc:creator>
   </cc:Work>
  </rdf:RDF>
 </metadata>
 <defs>
  <style type="text/css">*{stroke-linejoin: round; stroke-linecap: butt}</style>
 </defs>
 <g id="figure_1">
  <g id="patch_1">
   <path d="M 0 325.8275 
L 399.199375 325.8275 
L 399.199375 0 
L 0 0 
z
" style="fill: #ffffff"/>
  </g>
  <g id="axes_1">
   <g id="patch_2">
    <path d="M 57.199375 284.4 
L 391.999375 284.4 
L 391.999375 7.2 
L 57.199375 7.2 
z
" style="fill: #ffffff"/>
   </g>
   <g id="PathCollection_1">
    <defs>
     <path id="mcebf51c5d7" d="M 0 3.535534 
C 0.937635 3.535534 1.836992 3.163008 2.5 2.5 
C 3.163008 1.836992 3.535534 0.937635 3.535534 0 
C 3.535534 -0.937635 3.163008 -1.836992 2.5 -2.5 
C 1.836992 -3.163008 0.937635 -3.535534 0 -3.535534 
C -0.937635 -3.535534 -1.836992 -3.163008 -2.5 -2.5 
C -3.163008 -1.836992 -3.535534 -0.937635 -3.535534 0 
C -3.535534 0.937635 -3.163008 1.836992 -2.5 2.5 
C -1.836992 3.163008 -0.937635 3.535534 0 3.535534 
z
" style="stroke: #000000; stroke-opacity: 0.7"/>
    </defs>
    <g clip-path="url(#p62bf6b5689)">
     <use xlink:href="#mcebf51c5d7" x="240.995941" y="239.481514" style="fill: #1f77b4; fill-opacity: 0.7; stroke: #000000; stroke-opacity: 0.7"/>
     <use xlink:href="#mcebf51c5d7" x="234.377237" y="261.65078" style="fill: #1f77b4; fill-opacity: 0.7; stroke: #000000; stroke-opacity: 0.7"/>
     <use xlink:href="#mcebf51c5d7" x="203.9312" y="238.686414" style="fill: #1f77b4; fill-opacity: 0.7; stroke: #000000; stroke-opacity: 0.7"/>
     <use xlink:href="#mcebf51c5d7" x="237.075632" y="262.165256" style="fill: #1f77b4; fill-opacity: 0.7; stroke: #000000; stroke-opacity: 0.7"/>
     <use xlink:href="#mcebf51c5d7" x="249.905734" y="248.274388" style="fill: #1f77b4; fill-opacity: 0.7; stroke: #000000; stroke-opacity: 0.7"/>
     <use xlink:href="#mcebf51c5d7" x="269.50728" y="225.684187" style="fill: #1f77b4; fill-opacity: 0.7; stroke: #000000; stroke-opacity: 0.7"/>
     <use xlink:href="#mcebf51c5d7" x="248.581993" y="259.218708" style="fill: #1f77b4; fill-opacity: 0.7; stroke: #000000; stroke-opacity: 0.7"/>
     <use xlink:href="#mcebf51c5d7" x="280.300858" y="226.993764" style="fill: #1f77b4; fill-opacity: 0.7; stroke: #000000; stroke-opacity: 0.7"/>
     <use xlink:href="#mcebf51c5d7" x="219.917915" y="258.657461" style="fill: #1f77b4; fill-opacity: 0.7; stroke: #000000; stroke-opacity: 0.7"/>
     <use xlink:href="#mcebf51c5d7" x="114.700891" y="245.561693" style="fill: #1f77b4; fill-opacity: 0.7; stroke: #000000; stroke-opacity: 0.7"/>
     <use xlink:href="#mcebf51c5d7" x="205.509506" y="261.557238" style="fill: #1f77b4; fill-opacity: 0.7; stroke: #000000; stroke-opacity: 0.7"/>
     <use xlink:href="#mcebf51c5d7" x="249.549342" y="265.065033" style="fill: #1f77b4; fill-opacity: 0.7; stroke: #000000; stroke-opacity: 0.7"/>
     <use xlink:href="#mcebf51c5d7" x="256.524438" y="218.434744" style="fill: #1f77b4; fill-opacity: 0.7; stroke: #000000; stroke-opacity: 0.7"/>
     <use xlink:href="#mcebf51c5d7" x="240.792288" y="230.127394" style="fill: #1f77b4; fill-opacity: 0.7; stroke: #000000; stroke-opacity: 0.7"/>
     <use xlink:href="#mcebf51c5d7" x="228.471317" y="260.90245" style="fill: #1f77b4; fill-opacity: 0.7; stroke: #000000; stroke-opacity: 0.7"/>
     <use xlink:href="#mcebf51c5d7" x="238.093894" y="247.806682" style="fill: #1f77b4; fill-opacity: 0.7; stroke: #000000; stroke-opacity: 0.7"/>
     <use xlink:href="#mcebf51c5d7" x="244.407119" y="261.042762" style="fill: #1f77b4; fill-opacity: 0.7; stroke: #000000; stroke-opacity: 0.7"/>
     <use xlink:href="#mcebf51c5d7" x="234.377237" y="265.205345" style="fill: #1f77b4; fill-opacity: 0.7; stroke: #000000; stroke-opacity: 0.7"/>
     <use xlink:href="#mcebf51c5d7" x="200.876413" y="261.510468" style="fill: #1f77b4; fill-opacity: 0.7; stroke: #000000; stroke-opacity: 0.7"/>
     <use xlink:href="#mcebf51c5d7" x="205.611332" y="247.759911" style="fill: #1f77b4; fill-opacity: 0.7; stroke: #000000; stroke-opacity: 0.7"/>
     <use xlink:href="#mcebf51c5d7" x="285.341256" y="240.510468" style="fill: #1f77b4; fill-opacity: 0.7; stroke: #000000; stroke-opacity: 0.7"/>
     <use xlink:href="#mcebf51c5d7" x="242.116029" y="237.002673" style="fill: #1f77b4; fill-opacity: 0.7; stroke: #000000; stroke-opacity: 0.7"/>
     <use xlink:href="#mcebf51c5d7" x="219.765176" y="224.982628" style="fill: #1f77b4; fill-opacity: 0.7; stroke: #000000; stroke-opacity: 0.7"/>
     <use xlink:href="#mcebf51c5d7" x="222.158092" y="255.897996" style="fill: #1f77b4; fill-opacity: 0.7; stroke: #000000; stroke-opacity: 0.7"/>
     <use xlink:href="#mcebf51c5d7" x="206.527768" y="261.370156" style="fill: #1f77b4; fill-opacity: 0.7; stroke: #000000; stroke-opacity: 0.7"/>
     <use xlink:href="#mcebf51c5d7" x="218.543261" y="241.866815" style="fill: #1f77b4; fill-opacity: 0.7; stroke: #000000; stroke-opacity: 0.7"/>
     <use xlink:href="#mcebf51c5d7" x="206.731421" y="258.751002" style="fill: #1f77b4; fill-opacity: 0.7; stroke: #000000; stroke-opacity: 0.7"/>
     <use xlink:href="#mcebf51c5d7" x="202.556546" y="265.252116" style="fill: #1f77b4; fill-opacity: 0.7; stroke: #000000; stroke-opacity: 0.7"/>
     <use xlink:href="#mcebf51c5d7" x="240.945028" y="256.459243" style="fill: #1f77b4; fill-opacity: 0.7; stroke: #000000; stroke-opacity: 0.7"/>
     <use xlink:href="#mcebf51c5d7" x="246.596382" y="244.392428" style="fill: #1f77b4; fill-opacity: 0.7; stroke: #000000; stroke-opacity: 0.7"/>
     <use xlink:href="#mcebf51c5d7" x="240.894114" y="252.811136" style="fill: #1f77b4; fill-opacity: 0.7; stroke: #000000; stroke-opacity: 0.7"/>
     <use xlink:href="#mcebf51c5d7" x="251.534953" y="245.093987" style="fill: #1f77b4; fill-opacity: 0.7; stroke: #000000; stroke-opacity: 0.7"/>
     <use xlink:href="#mcebf51c5d7" x="206.88416" y="255.43029" style="fill: #1f77b4; fill-opacity: 0.7; stroke: #000000; stroke-opacity: 0.7"/>
     <use xlink:href="#mcebf51c5d7" x="230.864233" y="234.196437" style="fill: #1f77b4; fill-opacity: 0.7; stroke: #000000; stroke-opacity: 0.7"/>
     <use xlink:href="#mcebf51c5d7" x="203.9312" y="262.726503" style="fill: #1f77b4; fill-opacity: 0.7; stroke: #000000; stroke-opacity: 0.7"/>
     <use xlink:href="#mcebf51c5d7" x="198.407128" y="218.995991" style="fill: #1f77b4; fill-opacity: 0.7; stroke: #000000; stroke-opacity: 0.7"/>
     <use xlink:href="#mcebf51c5d7" x="242.62516" y="247.292205" style="fill: #1f77b4; fill-opacity: 0.7; stroke: #000000; stroke-opacity: 0.7"/>
     <use xlink:href="#mcebf51c5d7" x="274.140372" y="181.906904" style="fill: #1f77b4; fill-opacity: 0.7; stroke: #000000; stroke-opacity: 0.7"/>
     <use xlink:href="#mcebf51c5d7" x="230.711493" y="160.018263" style="fill: #1f77b4; fill-opacity: 0.7; stroke: #000000; stroke-opacity: 0.7"/>
     <use xlink:href="#mcebf51c5d7" x="241.250506" y="124.706459" style="fill: #1f77b4; fill-opacity: 0.7; stroke: #000000; stroke-opacity: 0.7"/>
     <use xlink:href="#mcebf51c5d7" x="175.394404" y="118.439198" style="fill: #1f77b4; fill-opacity: 0.7; stroke: #000000; stroke-opacity: 0.7"/>
     <use xlink:href="#mcebf51c5d7" x="221.190743" y="19.8" style="fill: #1f77b4; fill-opacity: 0.7; stroke: #000000; stroke-opacity: 0.7"/>
     <use xlink:href="#mcebf51c5d7" x="207.036899" y="210.109577" style="fill: #1f77b4; fill-opacity: 0.7; stroke: #000000; stroke-opacity: 0.7"/>
     <use xlink:href="#mcebf51c5d7" x="179.742383" y="207.583964" style="fill: #1f77b4; fill-opacity: 0.7; stroke: #000000; stroke-opacity: 0.7"/>
     <use xlink:href="#mcebf51c5d7" x="207.036899" y="206.695323" style="fill: #1f77b4; fill-opacity: 0.7; stroke: #000000; stroke-opacity: 0.7"/>
     <use xlink:href="#mcebf51c5d7" x="224.856486" y="204.216481" style="fill: #1f77b4; fill-opacity: 0.7; stroke: #000000; stroke-opacity: 0.7"/>
     <use xlink:href="#mcebf51c5d7" x="272.663892" y="193.552784" style="fill: #1f77b4; fill-opacity: 0.7; stroke: #000000; stroke-opacity: 0.7"/>
     <use xlink:href="#mcebf51c5d7" x="175.791526" y="191.588419" style="fill: #1f77b4; fill-opacity: 0.7; stroke: #000000; stroke-opacity: 0.7"/>
     <use xlink:href="#mcebf51c5d7" x="151.373601" y="191.354566" style="fill: #1f77b4; fill-opacity: 0.7; stroke: #000000; stroke-opacity: 0.7"/>
     <use xlink:href="#mcebf51c5d7" x="301.124318" y="190.606236" style="fill: #1f77b4; fill-opacity: 0.7; stroke: #000000; stroke-opacity: 0.7"/>
     <use xlink:href="#mcebf51c5d7" x="203.523895" y="211.278842" style="fill: #1f77b4; fill-opacity: 0.7; stroke: #000000; stroke-opacity: 0.7"/>
     <use xlink:href="#mcebf51c5d7" x="241.606898" y="211.091759" style="fill: #1f77b4; fill-opacity: 0.7; stroke: #000000; stroke-opacity: 0.7"/>
     <use xlink:href="#mcebf51c5d7" x="239.163069" y="270.443653" style="fill: #1f77b4; fill-opacity: 0.7; stroke: #000000; stroke-opacity: 0.7"/>
     <use xlink:href="#mcebf51c5d7" x="182.048747" y="270.25657" style="fill: #1f77b4; fill-opacity: 0.7; stroke: #000000; stroke-opacity: 0.7"/>
     <use xlink:href="#mcebf51c5d7" x="134.404263" y="269.508241" style="fill: #1f77b4; fill-opacity: 0.7; stroke: #000000; stroke-opacity: 0.7"/>
     <use xlink:href="#mcebf51c5d7" x="226.536619" y="269.46147" style="fill: #1f77b4; fill-opacity: 0.7; stroke: #000000; stroke-opacity: 0.7"/>
     <use xlink:href="#mcebf51c5d7" x="212.79008" y="268.759911" style="fill: #1f77b4; fill-opacity: 0.7; stroke: #000000; stroke-opacity: 0.7"/>
     <use xlink:href="#mcebf51c5d7" x="198.081284" y="268.151893" style="fill: #1f77b4; fill-opacity: 0.7; stroke: #000000; stroke-opacity: 0.7"/>
     <use xlink:href="#mcebf51c5d7" x="151.760541" y="268.105122" style="fill: #1f77b4; fill-opacity: 0.7; stroke: #000000; stroke-opacity: 0.7"/>
     <use xlink:href="#mcebf51c5d7" x="197.633249" y="268.011581" style="fill: #1f77b4; fill-opacity: 0.7; stroke: #000000; stroke-opacity: 0.7"/>
     <use xlink:href="#mcebf51c5d7" x="182.506965" y="267.91804" style="fill: #1f77b4; fill-opacity: 0.7; stroke: #000000; stroke-opacity: 0.7"/>
     <use xlink:href="#mcebf51c5d7" x="257.797265" y="267.871269" style="fill: #1f77b4; fill-opacity: 0.7; stroke: #000000; stroke-opacity: 0.7"/>
     <use xlink:href="#mcebf51c5d7" x="234.529976" y="267.824499" style="fill: #1f77b4; fill-opacity: 0.7; stroke: #000000; stroke-opacity: 0.7"/>
     <use xlink:href="#mcebf51c5d7" x="262.023053" y="267.684187" style="fill: #1f77b4; fill-opacity: 0.7; stroke: #000000; stroke-opacity: 0.7"/>
     <use xlink:href="#mcebf51c5d7" x="229.235013" y="267.637416" style="fill: #1f77b4; fill-opacity: 0.7; stroke: #000000; stroke-opacity: 0.7"/>
     <use xlink:href="#mcebf51c5d7" x="259.121006" y="267.450334" style="fill: #1f77b4; fill-opacity: 0.7; stroke: #000000; stroke-opacity: 0.7"/>
     <use xlink:href="#mcebf51c5d7" x="187.776471" y="267.450334" style="fill: #1f77b4; fill-opacity: 0.7; stroke: #000000; stroke-opacity: 0.7"/>
     <use xlink:href="#mcebf51c5d7" x="180.409345" y="267.029399" style="fill: #1f77b4; fill-opacity: 0.7; stroke: #000000; stroke-opacity: 0.7"/>
     <use xlink:href="#mcebf51c5d7" x="145.274211" y="266.889087" style="fill: #1f77b4; fill-opacity: 0.7; stroke: #000000; stroke-opacity: 0.7"/>
     <use xlink:href="#mcebf51c5d7" x="226.434792" y="266.561693" style="fill: #1f77b4; fill-opacity: 0.7; stroke: #000000; stroke-opacity: 0.7"/>
     <use xlink:href="#mcebf51c5d7" x="170.104532" y="266.421381" style="fill: #1f77b4; fill-opacity: 0.7; stroke: #000000; stroke-opacity: 0.7"/>
     <use xlink:href="#mcebf51c5d7" x="376.781193" y="254.915813" style="fill: #1f77b4; fill-opacity: 0.7; stroke: #000000; stroke-opacity: 0.7"/>
     <use xlink:href="#mcebf51c5d7" x="237.024718" y="233.541648" style="fill: #1f77b4; fill-opacity: 0.7; stroke: #000000; stroke-opacity: 0.7"/>
     <use xlink:href="#mcebf51c5d7" x="190.164296" y="260.715367" style="fill: #1f77b4; fill-opacity: 0.7; stroke: #000000; stroke-opacity: 0.7"/>
     <use xlink:href="#mcebf51c5d7" x="187.791745" y="182.935857" style="fill: #1f77b4; fill-opacity: 0.7; stroke: #000000; stroke-opacity: 0.7"/>
     <use xlink:href="#mcebf51c5d7" x="169.671771" y="265.953675" style="fill: #1f77b4; fill-opacity: 0.7; stroke: #000000; stroke-opacity: 0.7"/>
     <use xlink:href="#mcebf51c5d7" x="246.647295" y="258.61069" style="fill: #1f77b4; fill-opacity: 0.7; stroke: #000000; stroke-opacity: 0.7"/>
     <use xlink:href="#mcebf51c5d7" x="234.122671" y="247.105122" style="fill: #1f77b4; fill-opacity: 0.7; stroke: #000000; stroke-opacity: 0.7"/>
     <use xlink:href="#mcebf51c5d7" x="238.908503" y="257.254343" style="fill: #1f77b4; fill-opacity: 0.7; stroke: #000000; stroke-opacity: 0.7"/>
     <use xlink:href="#mcebf51c5d7" x="240.741375" y="255.757684" style="fill: #1f77b4; fill-opacity: 0.7; stroke: #000000; stroke-opacity: 0.7"/>
     <use xlink:href="#mcebf51c5d7" x="138.767516" y="231.624053" style="fill: #1f77b4; fill-opacity: 0.7; stroke: #000000; stroke-opacity: 0.7"/>
     <use xlink:href="#mcebf51c5d7" x="344.145893" y="266.047216" style="fill: #1f77b4; fill-opacity: 0.7; stroke: #000000; stroke-opacity: 0.7"/>
     <use xlink:href="#mcebf51c5d7" x="358.19791" y="255.383519" style="fill: #1f77b4; fill-opacity: 0.7; stroke: #000000; stroke-opacity: 0.7"/>
     <use xlink:href="#mcebf51c5d7" x="173.35788" y="251.220935" style="fill: #1f77b4; fill-opacity: 0.7; stroke: #000000; stroke-opacity: 0.7"/>
     <use xlink:href="#mcebf51c5d7" x="209.277076" y="261.791091" style="fill: #1f77b4; fill-opacity: 0.7; stroke: #000000; stroke-opacity: 0.7"/>
     <use xlink:href="#mcebf51c5d7" x="279.638988" y="251.174165" style="fill: #1f77b4; fill-opacity: 0.7; stroke: #000000; stroke-opacity: 0.7"/>
     <use xlink:href="#mcebf51c5d7" x="376.475715" y="249.817817" style="fill: #1f77b4; fill-opacity: 0.7; stroke: #000000; stroke-opacity: 0.7"/>
     <use xlink:href="#mcebf51c5d7" x="211.262687" y="258.844543" style="fill: #1f77b4; fill-opacity: 0.7; stroke: #000000; stroke-opacity: 0.7"/>
     <use xlink:href="#mcebf51c5d7" x="332.537704" y="250.519376" style="fill: #1f77b4; fill-opacity: 0.7; stroke: #000000; stroke-opacity: 0.7"/>
     <use xlink:href="#mcebf51c5d7" x="320.82769" y="267.403563" style="fill: #1f77b4; fill-opacity: 0.7; stroke: #000000; stroke-opacity: 0.7"/>
     <use xlink:href="#mcebf51c5d7" x="281.420946" y="228.163029" style="fill: #1f77b4; fill-opacity: 0.7; stroke: #000000; stroke-opacity: 0.7"/>
     <use xlink:href="#mcebf51c5d7" x="246.952774" y="271.8" style="fill: #1f77b4; fill-opacity: 0.7; stroke: #000000; stroke-opacity: 0.7"/>
     <use xlink:href="#mcebf51c5d7" x="133.009244" y="271.8" style="fill: #1f77b4; fill-opacity: 0.7; stroke: #000000; stroke-opacity: 0.7"/>
     <use xlink:href="#mcebf51c5d7" x="176.010453" y="271.8" style="fill: #1f77b4; fill-opacity: 0.7; stroke: #000000; stroke-opacity: 0.7"/>
     <use xlink:href="#mcebf51c5d7" x="72.417557" y="271.8" style="fill: #1f77b4; fill-opacity: 0.7; stroke: #000000; stroke-opacity: 0.7"/>
    </g>
   </g>
   <g id="PolyCollection_1">
    <path d="M 72.417557 224.287083 
L 72.417557 264.311285 
L 75.491937 263.809674 
L 78.566317 263.308063 
L 81.640697 262.806453 
L 84.715077 262.392547 
L 87.789458 262.040997 
L 90.863838 261.689447 
L 93.938218 261.337898 
L 97.012598 260.986348 
L 100.086978 260.634798 
L 103.161358 260.283249 
L 106.235739 259.931699 
L 109.310119 259.57761 
L 112.384499 259.164936 
L 115.458879 258.755256 
L 118.533259 258.333346 
L 121.607639 258.044213 
L 124.68202 257.759371 
L 127.7564 257.341431 
L 130.83078 257.005234 
L 133.90516 256.725227 
L 136.97954 256.415613 
L 140.05392 256.063505 
L 143.128301 255.713103 
L 146.202681 255.39433 
L 149.277061 255.079191 
L 152.351441 254.857725 
L 155.425821 254.644485 
L 158.500201 254.319913 
L 161.574582 253.925924 
L 164.648962 253.633296 
L 167.723342 253.344899 
L 170.797722 253.039109 
L 173.872102 252.760645 
L 176.946482 252.516262 
L 180.020863 252.255324 
L 183.095243 251.942015 
L 186.169623 251.605154 
L 189.244003 251.381082 
L 192.318383 251.192963 
L 195.392763 250.946972 
L 198.467144 250.722754 
L 201.541524 250.482547 
L 204.615904 250.24896 
L 207.690284 250.048105 
L 210.764664 249.786295 
L 213.839044 249.563405 
L 216.913425 249.409031 
L 219.987805 249.205547 
L 223.062185 249.093557 
L 226.136565 248.993643 
L 229.210945 248.882278 
L 232.285325 248.812214 
L 235.359706 248.61122 
L 238.434086 248.406286 
L 241.508466 248.280146 
L 244.582846 248.236562 
L 247.657226 248.163095 
L 250.731606 248.192286 
L 253.805987 248.106942 
L 256.880367 248.083003 
L 259.954747 248.163462 
L 263.029127 248.251887 
L 266.103507 248.36279 
L 269.177887 248.464751 
L 272.252268 248.521378 
L 275.326648 248.434819 
L 278.401028 248.422811 
L 281.475408 248.566601 
L 284.549788 248.644057 
L 287.624168 248.832563 
L 290.698549 249.022599 
L 293.772929 249.158794 
L 296.847309 249.306551 
L 299.921689 249.505717 
L 302.996069 249.674689 
L 306.070449 249.845642 
L 309.14483 249.937403 
L 312.21921 250.107104 
L 315.29359 250.195824 
L 318.36797 250.3444 
L 321.44235 250.579907 
L 324.51673 250.845871 
L 327.591111 251.034432 
L 330.665491 251.133182 
L 333.739871 251.324455 
L 336.814251 251.62448 
L 339.888631 251.762846 
L 342.963011 252.011371 
L 346.037392 252.246606 
L 349.111772 252.471513 
L 352.186152 252.673832 
L 355.260532 252.914147 
L 358.334912 253.1575 
L 361.409292 253.40279 
L 364.483673 253.649502 
L 367.558053 253.896215 
L 370.632433 254.142927 
L 373.706813 254.389223 
L 376.781193 254.634599 
L 376.781193 221.076495 
L 376.781193 221.076495 
L 373.706813 221.435716 
L 370.632433 221.89741 
L 367.558053 222.342456 
L 364.483673 222.703995 
L 361.409292 223.160923 
L 358.334912 223.601834 
L 355.260532 223.954955 
L 352.186152 224.294931 
L 349.111772 224.634907 
L 346.037392 224.974883 
L 342.963011 225.314859 
L 339.888631 225.654835 
L 336.814251 225.974001 
L 333.739871 226.257695 
L 330.665491 226.552914 
L 327.591111 226.992107 
L 324.51673 227.255539 
L 321.44235 227.507594 
L 318.36797 227.768515 
L 315.29359 228.081069 
L 312.21921 228.416699 
L 309.14483 228.582986 
L 306.070449 228.827505 
L 302.996069 229.089848 
L 299.921689 229.367131 
L 296.847309 229.65944 
L 293.772929 230.095349 
L 290.698549 230.40406 
L 287.624168 230.644994 
L 284.549788 230.845095 
L 281.475408 231.060062 
L 278.401028 231.345089 
L 275.326648 231.60676 
L 272.252268 231.85045 
L 269.177887 232.090372 
L 266.103507 232.39764 
L 263.029127 232.571854 
L 259.954747 232.787651 
L 256.880367 233.013181 
L 253.805987 233.251515 
L 250.731606 233.411588 
L 247.657226 233.568153 
L 244.582846 233.685946 
L 241.508466 233.881647 
L 238.434086 234.071811 
L 235.359706 234.199764 
L 232.285325 234.313133 
L 229.210945 234.249046 
L 226.136565 234.126832 
L 223.062185 234.037461 
L 219.987805 233.983487 
L 216.913425 233.980552 
L 213.839044 233.77727 
L 210.764664 233.545651 
L 207.690284 233.392972 
L 204.615904 233.377697 
L 201.541524 233.343007 
L 198.467144 233.043719 
L 195.392763 232.902655 
L 192.318383 232.730296 
L 189.244003 232.657292 
L 186.169623 232.620852 
L 183.095243 232.411605 
L 180.020863 232.284412 
L 176.946482 232.02721 
L 173.872102 231.761461 
L 170.797722 231.497896 
L 167.723342 231.195615 
L 164.648962 230.918909 
L 161.574582 230.730797 
L 158.500201 230.575658 
L 155.425821 230.324595 
L 152.351441 230.066259 
L 149.277061 229.889452 
L 146.202681 229.652812 
L 143.128301 229.37122 
L 140.05392 229.089829 
L 136.97954 228.808035 
L 133.90516 228.526443 
L 130.83078 228.290936 
L 127.7564 228.065653 
L 124.68202 227.816835 
L 121.607639 227.547391 
L 118.533259 227.367591 
L 115.458879 227.188432 
L 112.384499 227.021811 
L 109.310119 226.866527 
L 106.235739 226.711244 
L 103.161358 226.55596 
L 100.086978 226.400676 
L 97.012598 226.245392 
L 93.938218 226.090108 
L 90.863838 225.924407 
L 87.789458 225.639911 
L 84.715077 225.38465 
L 81.640697 225.101511 
L 78.566317 224.96919 
L 75.491937 224.628029 
L 72.417557 224.287083 
z
" clip-path="url(#p62bf6b5689)" style="fill: #1f77b4; fill-opacity: 0.15"/>
   </g>
   <g id="matplotlib.axis_1">
    <g id="xtick_1">
     <g id="line2d_1">
      <defs>
       <path id="m1adc5c53ac" d="M 0 0 
L 0 3.5 
" style="stroke: #000000; stroke-width: 0.8"/>
      </defs>
      <g>
       <use xlink:href="#m1adc5c53ac" x="96.708199" y="284.4" style="stroke: #000000; stroke-width: 0.8"/>
      </g>
     </g>
     <g id="text_1">
      <!-- 0.8 -->
      <g transform="translate(88.756637 298.998438) scale(0.1 -0.1)">
       <defs>
        <path id="DejaVuSans-30" d="M 2034 4250 
Q 1547 4250 1301 3770 
Q 1056 3291 1056 2328 
Q 1056 1369 1301 889 
Q 1547 409 2034 409 
Q 2525 409 2770 889 
Q 3016 1369 3016 2328 
Q 3016 3291 2770 3770 
Q 2525 4250 2034 4250 
z
M 2034 4750 
Q 2819 4750 3233 4129 
Q 3647 3509 3647 2328 
Q 3647 1150 3233 529 
Q 2819 -91 2034 -91 
Q 1250 -91 836 529 
Q 422 1150 422 2328 
Q 422 3509 836 4129 
Q 1250 4750 2034 4750 
z
" transform="scale(0.015625)"/>
        <path id="DejaVuSans-2e" d="M 684 794 
L 1344 794 
L 1344 0 
L 684 0 
L 684 794 
z
" transform="scale(0.015625)"/>
        <path id="DejaVuSans-38" d="M 2034 2216 
Q 1584 2216 1326 1975 
Q 1069 1734 1069 1313 
Q 1069 891 1326 650 
Q 1584 409 2034 409 
Q 2484 409 2743 651 
Q 3003 894 3003 1313 
Q 3003 1734 2745 1975 
Q 2488 2216 2034 2216 
z
M 1403 2484 
Q 997 2584 770 2862 
Q 544 3141 544 3541 
Q 544 4100 942 4425 
Q 1341 4750 2034 4750 
Q 2731 4750 3128 4425 
Q 3525 4100 3525 3541 
Q 3525 3141 3298 2862 
Q 3072 2584 2669 2484 
Q 3125 2378 3379 2068 
Q 3634 1759 3634 1313 
Q 3634 634 3220 271 
Q 2806 -91 2034 -91 
Q 1263 -91 848 271 
Q 434 634 434 1313 
Q 434 1759 690 2068 
Q 947 2378 1403 2484 
z
M 1172 3481 
Q 1172 3119 1398 2916 
Q 1625 2713 2034 2713 
Q 2441 2713 2670 2916 
Q 2900 3119 2900 3481 
Q 2900 3844 2670 4047 
Q 2441 4250 2034 4250 
Q 1625 4250 1398 4047 
Q 1172 3844 1172 3481 
z
" transform="scale(0.015625)"/>
       </defs>
       <use xlink:href="#DejaVuSans-30"/>
       <use xlink:href="#DejaVuSans-2e" x="63.623047"/>
       <use xlink:href="#DejaVuSans-38" x="95.410156"/>
      </g>
     </g>
    </g>
    <g id="xtick_2">
     <g id="line2d_2">
      <g>
       <use xlink:href="#m1adc5c53ac" x="147.621305" y="284.4" style="stroke: #000000; stroke-width: 0.8"/>
      </g>
     </g>
     <g id="text_2">
      <!-- 0.9 -->
      <g transform="translate(139.669743 298.998438) scale(0.1 -0.1)">
       <defs>
        <path id="DejaVuSans-39" d="M 703 97 
L 703 672 
Q 941 559 1184 500 
Q 1428 441 1663 441 
Q 2288 441 2617 861 
Q 2947 1281 2994 2138 
Q 2813 1869 2534 1725 
Q 2256 1581 1919 1581 
Q 1219 1581 811 2004 
Q 403 2428 403 3163 
Q 403 3881 828 4315 
Q 1253 4750 1959 4750 
Q 2769 4750 3195 4129 
Q 3622 3509 3622 2328 
Q 3622 1225 3098 567 
Q 2575 -91 1691 -91 
Q 1453 -91 1209 -44 
Q 966 3 703 97 
z
M 1959 2075 
Q 2384 2075 2632 2365 
Q 2881 2656 2881 3163 
Q 2881 3666 2632 3958 
Q 2384 4250 1959 4250 
Q 1534 4250 1286 3958 
Q 1038 3666 1038 3163 
Q 1038 2656 1286 2365 
Q 1534 2075 1959 2075 
z
" transform="scale(0.015625)"/>
       </defs>
       <use xlink:href="#DejaVuSans-30"/>
       <use xlink:href="#DejaVuSans-2e" x="63.623047"/>
       <use xlink:href="#DejaVuSans-39" x="95.410156"/>
      </g>
     </g>
    </g>
    <g id="xtick_3">
     <g id="line2d_3">
      <g>
       <use xlink:href="#m1adc5c53ac" x="198.534411" y="284.4" style="stroke: #000000; stroke-width: 0.8"/>
      </g>
     </g>
     <g id="text_3">
      <!-- 1.0 -->
      <g transform="translate(190.582848 298.998438) scale(0.1 -0.1)">
       <defs>
        <path id="DejaVuSans-31" d="M 794 531 
L 1825 531 
L 1825 4091 
L 703 3866 
L 703 4441 
L 1819 4666 
L 2450 4666 
L 2450 531 
L 3481 531 
L 3481 0 
L 794 0 
L 794 531 
z
" transform="scale(0.015625)"/>
       </defs>
       <use xlink:href="#DejaVuSans-31"/>
       <use xlink:href="#DejaVuSans-2e" x="63.623047"/>
       <use xlink:href="#DejaVuSans-30" x="95.410156"/>
      </g>
     </g>
    </g>
    <g id="xtick_4">
     <g id="line2d_4">
      <g>
       <use xlink:href="#m1adc5c53ac" x="249.447516" y="284.4" style="stroke: #000000; stroke-width: 0.8"/>
      </g>
     </g>
     <g id="text_4">
      <!-- 1.1 -->
      <g transform="translate(241.495954 298.998438) scale(0.1 -0.1)">
       <use xlink:href="#DejaVuSans-31"/>
       <use xlink:href="#DejaVuSans-2e" x="63.623047"/>
       <use xlink:href="#DejaVuSans-31" x="95.410156"/>
      </g>
     </g>
    </g>
    <g id="xtick_5">
     <g id="line2d_5">
      <g>
       <use xlink:href="#m1adc5c53ac" x="300.360622" y="284.4" style="stroke: #000000; stroke-width: 0.8"/>
      </g>
     </g>
     <g id="text_5">
      <!-- 1.2 -->
      <g transform="translate(292.409059 298.998438) scale(0.1 -0.1)">
       <defs>
        <path id="DejaVuSans-32" d="M 1228 531 
L 3431 531 
L 3431 0 
L 469 0 
L 469 531 
Q 828 903 1448 1529 
Q 2069 2156 2228 2338 
Q 2531 2678 2651 2914 
Q 2772 3150 2772 3378 
Q 2772 3750 2511 3984 
Q 2250 4219 1831 4219 
Q 1534 4219 1204 4116 
Q 875 4013 500 3803 
L 500 4441 
Q 881 4594 1212 4672 
Q 1544 4750 1819 4750 
Q 2544 4750 2975 4387 
Q 3406 4025 3406 3419 
Q 3406 3131 3298 2873 
Q 3191 2616 2906 2266 
Q 2828 2175 2409 1742 
Q 1991 1309 1228 531 
z
" transform="scale(0.015625)"/>
       </defs>
       <use xlink:href="#DejaVuSans-31"/>
       <use xlink:href="#DejaVuSans-2e" x="63.623047"/>
       <use xlink:href="#DejaVuSans-32" x="95.410156"/>
      </g>
     </g>
    </g>
    <g id="xtick_6">
     <g id="line2d_6">
      <g>
       <use xlink:href="#m1adc5c53ac" x="351.273727" y="284.4" style="stroke: #000000; stroke-width: 0.8"/>
      </g>
     </g>
     <g id="text_6">
      <!-- 1.3 -->
      <g transform="translate(343.322165 298.998438) scale(0.1 -0.1)">
       <defs>
        <path id="DejaVuSans-33" d="M 2597 2516 
Q 3050 2419 3304 2112 
Q 3559 1806 3559 1356 
Q 3559 666 3084 287 
Q 2609 -91 1734 -91 
Q 1441 -91 1130 -33 
Q 819 25 488 141 
L 488 750 
Q 750 597 1062 519 
Q 1375 441 1716 441 
Q 2309 441 2620 675 
Q 2931 909 2931 1356 
Q 2931 1769 2642 2001 
Q 2353 2234 1838 2234 
L 1294 2234 
L 1294 2753 
L 1863 2753 
Q 2328 2753 2575 2939 
Q 2822 3125 2822 3475 
Q 2822 3834 2567 4026 
Q 2313 4219 1838 4219 
Q 1578 4219 1281 4162 
Q 984 4106 628 3988 
L 628 4550 
Q 988 4650 1302 4700 
Q 1616 4750 1894 4750 
Q 2613 4750 3031 4423 
Q 3450 4097 3450 3541 
Q 3450 3153 3228 2886 
Q 3006 2619 2597 2516 
z
" transform="scale(0.015625)"/>
       </defs>
       <use xlink:href="#DejaVuSans-31"/>
       <use xlink:href="#DejaVuSans-2e" x="63.623047"/>
       <use xlink:href="#DejaVuSans-33" x="95.410156"/>
      </g>
     </g>
    </g>
    <g id="text_7">
     <!-- Cysteine synthesis (need serine and methionine) Score -->
     <g transform="translate(30.975 315.715938) scale(0.14 -0.14)">
      <defs>
       <path id="DejaVuSans-43" d="M 4122 4306 
L 4122 3641 
Q 3803 3938 3442 4084 
Q 3081 4231 2675 4231 
Q 1875 4231 1450 3742 
Q 1025 3253 1025 2328 
Q 1025 1406 1450 917 
Q 1875 428 2675 428 
Q 3081 428 3442 575 
Q 3803 722 4122 1019 
L 4122 359 
Q 3791 134 3420 21 
Q 3050 -91 2638 -91 
Q 1578 -91 968 557 
Q 359 1206 359 2328 
Q 359 3453 968 4101 
Q 1578 4750 2638 4750 
Q 3056 4750 3426 4639 
Q 3797 4528 4122 4306 
z
" transform="scale(0.015625)"/>
       <path id="DejaVuSans-79" d="M 2059 -325 
Q 1816 -950 1584 -1140 
Q 1353 -1331 966 -1331 
L 506 -1331 
L 506 -850 
L 844 -850 
Q 1081 -850 1212 -737 
Q 1344 -625 1503 -206 
L 1606 56 
L 191 3500 
L 800 3500 
L 1894 763 
L 2988 3500 
L 3597 3500 
L 2059 -325 
z
" transform="scale(0.015625)"/>
       <path id="DejaVuSans-73" d="M 2834 3397 
L 2834 2853 
Q 2591 2978 2328 3040 
Q 2066 3103 1784 3103 
Q 1356 3103 1142 2972 
Q 928 2841 928 2578 
Q 928 2378 1081 2264 
Q 1234 2150 1697 2047 
L 1894 2003 
Q 2506 1872 2764 1633 
Q 3022 1394 3022 966 
Q 3022 478 2636 193 
Q 2250 -91 1575 -91 
Q 1294 -91 989 -36 
Q 684 19 347 128 
L 347 722 
Q 666 556 975 473 
Q 1284 391 1588 391 
Q 1994 391 2212 530 
Q 2431 669 2431 922 
Q 2431 1156 2273 1281 
Q 2116 1406 1581 1522 
L 1381 1569 
Q 847 1681 609 1914 
Q 372 2147 372 2553 
Q 372 3047 722 3315 
Q 1072 3584 1716 3584 
Q 2034 3584 2315 3537 
Q 2597 3491 2834 3397 
z
" transform="scale(0.015625)"/>
       <path id="DejaVuSans-74" d="M 1172 4494 
L 1172 3500 
L 2356 3500 
L 2356 3053 
L 1172 3053 
L 1172 1153 
Q 1172 725 1289 603 
Q 1406 481 1766 481 
L 2356 481 
L 2356 0 
L 1766 0 
Q 1100 0 847 248 
Q 594 497 594 1153 
L 594 3053 
L 172 3053 
L 172 3500 
L 594 3500 
L 594 4494 
L 1172 4494 
z
" transform="scale(0.015625)"/>
       <path id="DejaVuSans-65" d="M 3597 1894 
L 3597 1613 
L 953 1613 
Q 991 1019 1311 708 
Q 1631 397 2203 397 
Q 2534 397 2845 478 
Q 3156 559 3463 722 
L 3463 178 
Q 3153 47 2828 -22 
Q 2503 -91 2169 -91 
Q 1331 -91 842 396 
Q 353 884 353 1716 
Q 353 2575 817 3079 
Q 1281 3584 2069 3584 
Q 2775 3584 3186 3129 
Q 3597 2675 3597 1894 
z
M 3022 2063 
Q 3016 2534 2758 2815 
Q 2500 3097 2075 3097 
Q 1594 3097 1305 2825 
Q 1016 2553 972 2059 
L 3022 2063 
z
" transform="scale(0.015625)"/>
       <path id="DejaVuSans-69" d="M 603 3500 
L 1178 3500 
L 1178 0 
L 603 0 
L 603 3500 
z
M 603 4863 
L 1178 4863 
L 1178 4134 
L 603 4134 
L 603 4863 
z
" transform="scale(0.015625)"/>
       <path id="DejaVuSans-6e" d="M 3513 2113 
L 3513 0 
L 2938 0 
L 2938 2094 
Q 2938 2591 2744 2837 
Q 2550 3084 2163 3084 
Q 1697 3084 1428 2787 
Q 1159 2491 1159 1978 
L 1159 0 
L 581 0 
L 581 3500 
L 1159 3500 
L 1159 2956 
Q 1366 3272 1645 3428 
Q 1925 3584 2291 3584 
Q 2894 3584 3203 3211 
Q 3513 2838 3513 2113 
z
" transform="scale(0.015625)"/>
       <path id="DejaVuSans-20" transform="scale(0.015625)"/>
       <path id="DejaVuSans-68" d="M 3513 2113 
L 3513 0 
L 2938 0 
L 2938 2094 
Q 2938 2591 2744 2837 
Q 2550 3084 2163 3084 
Q 1697 3084 1428 2787 
Q 1159 2491 1159 1978 
L 1159 0 
L 581 0 
L 581 4863 
L 1159 4863 
L 1159 2956 
Q 1366 3272 1645 3428 
Q 1925 3584 2291 3584 
Q 2894 3584 3203 3211 
Q 3513 2838 3513 2113 
z
" transform="scale(0.015625)"/>
       <path id="DejaVuSans-28" d="M 1984 4856 
Q 1566 4138 1362 3434 
Q 1159 2731 1159 2009 
Q 1159 1288 1364 580 
Q 1569 -128 1984 -844 
L 1484 -844 
Q 1016 -109 783 600 
Q 550 1309 550 2009 
Q 550 2706 781 3412 
Q 1013 4119 1484 4856 
L 1984 4856 
z
" transform="scale(0.015625)"/>
       <path id="DejaVuSans-64" d="M 2906 2969 
L 2906 4863 
L 3481 4863 
L 3481 0 
L 2906 0 
L 2906 525 
Q 2725 213 2448 61 
Q 2172 -91 1784 -91 
Q 1150 -91 751 415 
Q 353 922 353 1747 
Q 353 2572 751 3078 
Q 1150 3584 1784 3584 
Q 2172 3584 2448 3432 
Q 2725 3281 2906 2969 
z
M 947 1747 
Q 947 1113 1208 752 
Q 1469 391 1925 391 
Q 2381 391 2643 752 
Q 2906 1113 2906 1747 
Q 2906 2381 2643 2742 
Q 2381 3103 1925 3103 
Q 1469 3103 1208 2742 
Q 947 2381 947 1747 
z
" transform="scale(0.015625)"/>
       <path id="DejaVuSans-72" d="M 2631 2963 
Q 2534 3019 2420 3045 
Q 2306 3072 2169 3072 
Q 1681 3072 1420 2755 
Q 1159 2438 1159 1844 
L 1159 0 
L 581 0 
L 581 3500 
L 1159 3500 
L 1159 2956 
Q 1341 3275 1631 3429 
Q 1922 3584 2338 3584 
Q 2397 3584 2469 3576 
Q 2541 3569 2628 3553 
L 2631 2963 
z
" transform="scale(0.015625)"/>
       <path id="DejaVuSans-61" d="M 2194 1759 
Q 1497 1759 1228 1600 
Q 959 1441 959 1056 
Q 959 750 1161 570 
Q 1363 391 1709 391 
Q 2188 391 2477 730 
Q 2766 1069 2766 1631 
L 2766 1759 
L 2194 1759 
z
M 3341 1997 
L 3341 0 
L 2766 0 
L 2766 531 
Q 2569 213 2275 61 
Q 1981 -91 1556 -91 
Q 1019 -91 701 211 
Q 384 513 384 1019 
Q 384 1609 779 1909 
Q 1175 2209 1959 2209 
L 2766 2209 
L 2766 2266 
Q 2766 2663 2505 2880 
Q 2244 3097 1772 3097 
Q 1472 3097 1187 3025 
Q 903 2953 641 2809 
L 641 3341 
Q 956 3463 1253 3523 
Q 1550 3584 1831 3584 
Q 2591 3584 2966 3190 
Q 3341 2797 3341 1997 
z
" transform="scale(0.015625)"/>
       <path id="DejaVuSans-6d" d="M 3328 2828 
Q 3544 3216 3844 3400 
Q 4144 3584 4550 3584 
Q 5097 3584 5394 3201 
Q 5691 2819 5691 2113 
L 5691 0 
L 5113 0 
L 5113 2094 
Q 5113 2597 4934 2840 
Q 4756 3084 4391 3084 
Q 3944 3084 3684 2787 
Q 3425 2491 3425 1978 
L 3425 0 
L 2847 0 
L 2847 2094 
Q 2847 2600 2669 2842 
Q 2491 3084 2119 3084 
Q 1678 3084 1418 2786 
Q 1159 2488 1159 1978 
L 1159 0 
L 581 0 
L 581 3500 
L 1159 3500 
L 1159 2956 
Q 1356 3278 1631 3431 
Q 1906 3584 2284 3584 
Q 2666 3584 2933 3390 
Q 3200 3197 3328 2828 
z
" transform="scale(0.015625)"/>
       <path id="DejaVuSans-6f" d="M 1959 3097 
Q 1497 3097 1228 2736 
Q 959 2375 959 1747 
Q 959 1119 1226 758 
Q 1494 397 1959 397 
Q 2419 397 2687 759 
Q 2956 1122 2956 1747 
Q 2956 2369 2687 2733 
Q 2419 3097 1959 3097 
z
M 1959 3584 
Q 2709 3584 3137 3096 
Q 3566 2609 3566 1747 
Q 3566 888 3137 398 
Q 2709 -91 1959 -91 
Q 1206 -91 779 398 
Q 353 888 353 1747 
Q 353 2609 779 3096 
Q 1206 3584 1959 3584 
z
" transform="scale(0.015625)"/>
       <path id="DejaVuSans-29" d="M 513 4856 
L 1013 4856 
Q 1481 4119 1714 3412 
Q 1947 2706 1947 2009 
Q 1947 1309 1714 600 
Q 1481 -109 1013 -844 
L 513 -844 
Q 928 -128 1133 580 
Q 1338 1288 1338 2009 
Q 1338 2731 1133 3434 
Q 928 4138 513 4856 
z
" transform="scale(0.015625)"/>
       <path id="DejaVuSans-53" d="M 3425 4513 
L 3425 3897 
Q 3066 4069 2747 4153 
Q 2428 4238 2131 4238 
Q 1616 4238 1336 4038 
Q 1056 3838 1056 3469 
Q 1056 3159 1242 3001 
Q 1428 2844 1947 2747 
L 2328 2669 
Q 3034 2534 3370 2195 
Q 3706 1856 3706 1288 
Q 3706 609 3251 259 
Q 2797 -91 1919 -91 
Q 1588 -91 1214 -16 
Q 841 59 441 206 
L 441 856 
Q 825 641 1194 531 
Q 1563 422 1919 422 
Q 2459 422 2753 634 
Q 3047 847 3047 1241 
Q 3047 1584 2836 1778 
Q 2625 1972 2144 2069 
L 1759 2144 
Q 1053 2284 737 2584 
Q 422 2884 422 3419 
Q 422 4038 858 4394 
Q 1294 4750 2059 4750 
Q 2388 4750 2728 4690 
Q 3069 4631 3425 4513 
z
" transform="scale(0.015625)"/>
       <path id="DejaVuSans-63" d="M 3122 3366 
L 3122 2828 
Q 2878 2963 2633 3030 
Q 2388 3097 2138 3097 
Q 1578 3097 1268 2742 
Q 959 2388 959 1747 
Q 959 1106 1268 751 
Q 1578 397 2138 397 
Q 2388 397 2633 464 
Q 2878 531 3122 666 
L 3122 134 
Q 2881 22 2623 -34 
Q 2366 -91 2075 -91 
Q 1284 -91 818 406 
Q 353 903 353 1747 
Q 353 2603 823 3093 
Q 1294 3584 2113 3584 
Q 2378 3584 2631 3529 
Q 2884 3475 3122 3366 
z
" transform="scale(0.015625)"/>
      </defs>
      <use xlink:href="#DejaVuSans-43"/>
      <use xlink:href="#DejaVuSans-79" x="69.824219"/>
      <use xlink:href="#DejaVuSans-73" x="129.003906"/>
      <use xlink:href="#DejaVuSans-74" x="181.103516"/>
      <use xlink:href="#DejaVuSans-65" x="220.3125"/>
      <use xlink:href="#DejaVuSans-69" x="281.835938"/>
      <use xlink:href="#DejaVuSans-6e" x="309.619141"/>
      <use xlink:href="#DejaVuSans-65" x="372.998047"/>
      <use xlink:href="#DejaVuSans-20" x="434.521484"/>
      <use xlink:href="#DejaVuSans-73" x="466.308594"/>
      <use xlink:href="#DejaVuSans-79" x="518.408203"/>
      <use xlink:href="#DejaVuSans-6e" x="577.587891"/>
      <use xlink:href="#DejaVuSans-74" x="640.966797"/>
      <use xlink:href="#DejaVuSans-68" x="680.175781"/>
      <use xlink:href="#DejaVuSans-65" x="743.554688"/>
      <use xlink:href="#DejaVuSans-73" x="805.078125"/>
      <use xlink:href="#DejaVuSans-69" x="857.177734"/>
      <use xlink:href="#DejaVuSans-73" x="884.960938"/>
      <use xlink:href="#DejaVuSans-20" x="937.060547"/>
      <use xlink:href="#DejaVuSans-28" x="968.847656"/>
      <use xlink:href="#DejaVuSans-6e" x="1007.861328"/>
      <use xlink:href="#DejaVuSans-65" x="1071.240234"/>
      <use xlink:href="#DejaVuSans-65" x="1132.763672"/>
      <use xlink:href="#DejaVuSans-64" x="1194.287109"/>
      <use xlink:href="#DejaVuSans-20" x="1257.763672"/>
      <use xlink:href="#DejaVuSans-73" x="1289.550781"/>
      <use xlink:href="#DejaVuSans-65" x="1341.650391"/>
      <use xlink:href="#DejaVuSans-72" x="1403.173828"/>
      <use xlink:href="#DejaVuSans-69" x="1444.287109"/>
      <use xlink:href="#DejaVuSans-6e" x="1472.070312"/>
      <use xlink:href="#DejaVuSans-65" x="1535.449219"/>
      <use xlink:href="#DejaVuSans-20" x="1596.972656"/>
      <use xlink:href="#DejaVuSans-61" x="1628.759766"/>
      <use xlink:href="#DejaVuSans-6e" x="1690.039062"/>
      <use xlink:href="#DejaVuSans-64" x="1753.417969"/>
      <use xlink:href="#DejaVuSans-20" x="1816.894531"/>
      <use xlink:href="#DejaVuSans-6d" x="1848.681641"/>
      <use xlink:href="#DejaVuSans-65" x="1946.09375"/>
      <use xlink:href="#DejaVuSans-74" x="2007.617188"/>
      <use xlink:href="#DejaVuSans-68" x="2046.826172"/>
      <use xlink:href="#DejaVuSans-69" x="2110.205078"/>
      <use xlink:href="#DejaVuSans-6f" x="2137.988281"/>
      <use xlink:href="#DejaVuSans-6e" x="2199.169922"/>
      <use xlink:href="#DejaVuSans-69" x="2262.548828"/>
      <use xlink:href="#DejaVuSans-6e" x="2290.332031"/>
      <use xlink:href="#DejaVuSans-65" x="2353.710938"/>
      <use xlink:href="#DejaVuSans-29" x="2415.234375"/>
      <use xlink:href="#DejaVuSans-20" x="2454.248047"/>
      <use xlink:href="#DejaVuSans-53" x="2486.035156"/>
      <use xlink:href="#DejaVuSans-63" x="2549.511719"/>
      <use xlink:href="#DejaVuSans-6f" x="2604.492188"/>
      <use xlink:href="#DejaVuSans-72" x="2665.673828"/>
      <use xlink:href="#DejaVuSans-65" x="2704.537109"/>
     </g>
    </g>
   </g>
   <g id="matplotlib.axis_2">
    <g id="ytick_1">
     <g id="line2d_7">
      <defs>
       <path id="m3a8776ff9a" d="M 0 0 
L -3.5 0 
" style="stroke: #000000; stroke-width: 0.8"/>
      </defs>
      <g>
       <use xlink:href="#m3a8776ff9a" x="57.199375" y="271.8" style="stroke: #000000; stroke-width: 0.8"/>
      </g>
     </g>
     <g id="text_8">
      <!-- 0 -->
      <g transform="translate(43.836875 275.599219) scale(0.1 -0.1)">
       <use xlink:href="#DejaVuSans-30"/>
      </g>
     </g>
    </g>
    <g id="ytick_2">
     <g id="line2d_8">
      <g>
       <use xlink:href="#m3a8776ff9a" x="57.199375" y="225.029399" style="stroke: #000000; stroke-width: 0.8"/>
      </g>
     </g>
     <g id="text_9">
      <!-- 1000 -->
      <g transform="translate(24.749375 228.828617) scale(0.1 -0.1)">
       <use xlink:href="#DejaVuSans-31"/>
       <use xlink:href="#DejaVuSans-30" x="63.623047"/>
       <use xlink:href="#DejaVuSans-30" x="127.246094"/>
       <use xlink:href="#DejaVuSans-30" x="190.869141"/>
      </g>
     </g>
    </g>
    <g id="ytick_3">
     <g id="line2d_9">
      <g>
       <use xlink:href="#m3a8776ff9a" x="57.199375" y="178.258797" style="stroke: #000000; stroke-width: 0.8"/>
      </g>
     </g>
     <g id="text_10">
      <!-- 2000 -->
      <g transform="translate(24.749375 182.058016) scale(0.1 -0.1)">
       <use xlink:href="#DejaVuSans-32"/>
       <use xlink:href="#DejaVuSans-30" x="63.623047"/>
       <use xlink:href="#DejaVuSans-30" x="127.246094"/>
       <use xlink:href="#DejaVuSans-30" x="190.869141"/>
      </g>
     </g>
    </g>
    <g id="ytick_4">
     <g id="line2d_10">
      <g>
       <use xlink:href="#m3a8776ff9a" x="57.199375" y="131.488196" style="stroke: #000000; stroke-width: 0.8"/>
      </g>
     </g>
     <g id="text_11">
      <!-- 3000 -->
      <g transform="translate(24.749375 135.287415) scale(0.1 -0.1)">
       <use xlink:href="#DejaVuSans-33"/>
       <use xlink:href="#DejaVuSans-30" x="63.623047"/>
       <use xlink:href="#DejaVuSans-30" x="127.246094"/>
       <use xlink:href="#DejaVuSans-30" x="190.869141"/>
      </g>
     </g>
    </g>
    <g id="ytick_5">
     <g id="line2d_11">
      <g>
       <use xlink:href="#m3a8776ff9a" x="57.199375" y="84.717595" style="stroke: #000000; stroke-width: 0.8"/>
      </g>
     </g>
     <g id="text_12">
      <!-- 4000 -->
      <g transform="translate(24.749375 88.516813) scale(0.1 -0.1)">
       <defs>
        <path id="DejaVuSans-34" d="M 2419 4116 
L 825 1625 
L 2419 1625 
L 2419 4116 
z
M 2253 4666 
L 3047 4666 
L 3047 1625 
L 3713 1625 
L 3713 1100 
L 3047 1100 
L 3047 0 
L 2419 0 
L 2419 1100 
L 313 1100 
L 313 1709 
L 2253 4666 
z
" transform="scale(0.015625)"/>
       </defs>
       <use xlink:href="#DejaVuSans-34"/>
       <use xlink:href="#DejaVuSans-30" x="63.623047"/>
       <use xlink:href="#DejaVuSans-30" x="127.246094"/>
       <use xlink:href="#DejaVuSans-30" x="190.869141"/>
      </g>
     </g>
    </g>
    <g id="ytick_6">
     <g id="line2d_12">
      <g>
       <use xlink:href="#m3a8776ff9a" x="57.199375" y="37.946993" style="stroke: #000000; stroke-width: 0.8"/>
      </g>
     </g>
     <g id="text_13">
      <!-- 5000 -->
      <g transform="translate(24.749375 41.746212) scale(0.1 -0.1)">
       <defs>
        <path id="DejaVuSans-35" d="M 691 4666 
L 3169 4666 
L 3169 4134 
L 1269 4134 
L 1269 2991 
Q 1406 3038 1543 3061 
Q 1681 3084 1819 3084 
Q 2600 3084 3056 2656 
Q 3513 2228 3513 1497 
Q 3513 744 3044 326 
Q 2575 -91 1722 -91 
Q 1428 -91 1123 -41 
Q 819 9 494 109 
L 494 744 
Q 775 591 1075 516 
Q 1375 441 1709 441 
Q 2250 441 2565 725 
Q 2881 1009 2881 1497 
Q 2881 1984 2565 2268 
Q 2250 2553 1709 2553 
Q 1456 2553 1204 2497 
Q 953 2441 691 2322 
L 691 4666 
z
" transform="scale(0.015625)"/>
       </defs>
       <use xlink:href="#DejaVuSans-35"/>
       <use xlink:href="#DejaVuSans-30" x="63.623047"/>
       <use xlink:href="#DejaVuSans-30" x="127.246094"/>
       <use xlink:href="#DejaVuSans-30" x="190.869141"/>
      </g>
     </g>
    </g>
    <g id="text_14">
     <!-- Protein Yield (µg) -->
     <g transform="translate(17.837813 205.805313) rotate(-90) scale(0.14 -0.14)">
      <defs>
       <path id="DejaVuSans-50" d="M 1259 4147 
L 1259 2394 
L 2053 2394 
Q 2494 2394 2734 2622 
Q 2975 2850 2975 3272 
Q 2975 3691 2734 3919 
Q 2494 4147 2053 4147 
L 1259 4147 
z
M 628 4666 
L 2053 4666 
Q 2838 4666 3239 4311 
Q 3641 3956 3641 3272 
Q 3641 2581 3239 2228 
Q 2838 1875 2053 1875 
L 1259 1875 
L 1259 0 
L 628 0 
L 628 4666 
z
" transform="scale(0.015625)"/>
       <path id="DejaVuSans-59" d="M -13 4666 
L 666 4666 
L 1959 2747 
L 3244 4666 
L 3922 4666 
L 2272 2222 
L 2272 0 
L 1638 0 
L 1638 2222 
L -13 4666 
z
" transform="scale(0.015625)"/>
       <path id="DejaVuSans-6c" d="M 603 4863 
L 1178 4863 
L 1178 0 
L 603 0 
L 603 4863 
z
" transform="scale(0.015625)"/>
       <path id="DejaVuSans-b5" d="M 544 -1331 
L 544 3500 
L 1119 3500 
L 1119 1325 
Q 1119 872 1334 640 
Q 1550 409 1972 409 
Q 2434 409 2667 671 
Q 2900 934 2900 1459 
L 2900 3500 
L 3475 3500 
L 3475 806 
Q 3475 619 3529 530 
Q 3584 441 3700 441 
Q 3728 441 3778 458 
Q 3828 475 3916 513 
L 3916 50 
Q 3788 -22 3673 -56 
Q 3559 -91 3450 -91 
Q 3234 -91 3106 31 
Q 2978 153 2931 403 
Q 2775 156 2548 32 
Q 2322 -91 2016 -91 
Q 1697 -91 1473 31 
Q 1250 153 1119 397 
L 1119 -1331 
L 544 -1331 
z
" transform="scale(0.015625)"/>
       <path id="DejaVuSans-67" d="M 2906 1791 
Q 2906 2416 2648 2759 
Q 2391 3103 1925 3103 
Q 1463 3103 1205 2759 
Q 947 2416 947 1791 
Q 947 1169 1205 825 
Q 1463 481 1925 481 
Q 2391 481 2648 825 
Q 2906 1169 2906 1791 
z
M 3481 434 
Q 3481 -459 3084 -895 
Q 2688 -1331 1869 -1331 
Q 1566 -1331 1297 -1286 
Q 1028 -1241 775 -1147 
L 775 -588 
Q 1028 -725 1275 -790 
Q 1522 -856 1778 -856 
Q 2344 -856 2625 -561 
Q 2906 -266 2906 331 
L 2906 616 
Q 2728 306 2450 153 
Q 2172 0 1784 0 
Q 1141 0 747 490 
Q 353 981 353 1791 
Q 353 2603 747 3093 
Q 1141 3584 1784 3584 
Q 2172 3584 2450 3431 
Q 2728 3278 2906 2969 
L 2906 3500 
L 3481 3500 
L 3481 434 
z
" transform="scale(0.015625)"/>
      </defs>
      <use xlink:href="#DejaVuSans-50"/>
      <use xlink:href="#DejaVuSans-72" x="58.552734"/>
      <use xlink:href="#DejaVuSans-6f" x="97.416016"/>
      <use xlink:href="#DejaVuSans-74" x="158.597656"/>
      <use xlink:href="#DejaVuSans-65" x="197.806641"/>
      <use xlink:href="#DejaVuSans-69" x="259.330078"/>
      <use xlink:href="#DejaVuSans-6e" x="287.113281"/>
      <use xlink:href="#DejaVuSans-20" x="350.492188"/>
      <use xlink:href="#DejaVuSans-59" x="382.279297"/>
      <use xlink:href="#DejaVuSans-69" x="439.738281"/>
      <use xlink:href="#DejaVuSans-65" x="467.521484"/>
      <use xlink:href="#DejaVuSans-6c" x="529.044922"/>
      <use xlink:href="#DejaVuSans-64" x="556.828125"/>
      <use xlink:href="#DejaVuSans-20" x="620.304688"/>
      <use xlink:href="#DejaVuSans-28" x="652.091797"/>
      <use xlink:href="#DejaVuSans-b5" x="691.105469"/>
      <use xlink:href="#DejaVuSans-67" x="754.728516"/>
      <use xlink:href="#DejaVuSans-29" x="818.205078"/>
     </g>
    </g>
   </g>
   <g id="line2d_13">
    <path d="M 72.417557 244.739441 
L 75.491937 244.682595 
L 78.566317 244.625748 
L 81.640697 244.568901 
L 84.715077 244.512054 
L 87.789458 244.455207 
L 90.863838 244.398361 
L 93.938218 244.341514 
L 97.012598 244.284667 
L 100.086978 244.22782 
L 103.161358 244.170973 
L 106.235739 244.114126 
L 109.310119 244.05728 
L 112.384499 244.000433 
L 115.458879 243.943586 
L 118.533259 243.886739 
L 121.607639 243.829892 
L 124.68202 243.773045 
L 127.7564 243.716199 
L 130.83078 243.659352 
L 133.90516 243.602505 
L 136.97954 243.545658 
L 140.05392 243.488811 
L 143.128301 243.431965 
L 146.202681 243.375118 
L 149.277061 243.318271 
L 152.351441 243.261424 
L 155.425821 243.204577 
L 158.500201 243.14773 
L 161.574582 243.090884 
L 164.648962 243.034037 
L 167.723342 242.97719 
L 170.797722 242.920343 
L 173.872102 242.863496 
L 176.946482 242.806649 
L 180.020863 242.749803 
L 183.095243 242.692956 
L 186.169623 242.636109 
L 189.244003 242.579262 
L 192.318383 242.522415 
L 195.392763 242.465569 
L 198.467144 242.408722 
L 201.541524 242.351875 
L 204.615904 242.295028 
L 207.690284 242.238181 
L 210.764664 242.181334 
L 213.839044 242.124488 
L 216.913425 242.067641 
L 219.987805 242.010794 
L 223.062185 241.953947 
L 226.136565 241.8971 
L 229.210945 241.840253 
L 232.285325 241.783407 
L 235.359706 241.72656 
L 238.434086 241.669713 
L 241.508466 241.612866 
L 244.582846 241.556019 
L 247.657226 241.499173 
L 250.731606 241.442326 
L 253.805987 241.385479 
L 256.880367 241.328632 
L 259.954747 241.271785 
L 263.029127 241.214938 
L 266.103507 241.158092 
L 269.177887 241.101245 
L 272.252268 241.044398 
L 275.326648 240.987551 
L 278.401028 240.930704 
L 281.475408 240.873857 
L 284.549788 240.817011 
L 287.624168 240.760164 
L 290.698549 240.703317 
L 293.772929 240.64647 
L 296.847309 240.589623 
L 299.921689 240.532777 
L 302.996069 240.47593 
L 306.070449 240.419083 
L 309.14483 240.362236 
L 312.21921 240.305389 
L 315.29359 240.248542 
L 318.36797 240.191696 
L 321.44235 240.134849 
L 324.51673 240.078002 
L 327.591111 240.021155 
L 330.665491 239.964308 
L 333.739871 239.907461 
L 336.814251 239.850615 
L 339.888631 239.793768 
L 342.963011 239.736921 
L 346.037392 239.680074 
L 349.111772 239.623227 
L 352.186152 239.566381 
L 355.260532 239.509534 
L 358.334912 239.452687 
L 361.409292 239.39584 
L 364.483673 239.338993 
L 367.558053 239.282146 
L 370.632433 239.2253 
L 373.706813 239.168453 
L 376.781193 239.111606 
" clip-path="url(#p62bf6b5689)" style="fill: none; stroke: #1f77b4; stroke-width: 2; stroke-linecap: square"/>
   </g>
   <g id="patch_3">
    <path d="M 57.199375 284.4 
L 57.199375 7.2 
" style="fill: none; stroke: #000000; stroke-width: 0.8; stroke-linejoin: miter; stroke-linecap: square"/>
   </g>
   <g id="patch_4">
    <path d="M 391.999375 284.4 
L 391.999375 7.2 
" style="fill: none; stroke: #000000; stroke-width: 0.8; stroke-linejoin: miter; stroke-linecap: square"/>
   </g>
   <g id="patch_5">
    <path d="M 57.199375 284.4 
L 391.999375 284.4 
" style="fill: none; stroke: #000000; stroke-width: 0.8; stroke-linejoin: miter; stroke-linecap: square"/>
   </g>
   <g id="patch_6">
    <path d="M 57.199375 7.2 
L 391.999375 7.2 
" style="fill: none; stroke: #000000; stroke-width: 0.8; stroke-linejoin: miter; stroke-linecap: square"/>
   </g>
   <g id="text_15">
    <g id="patch_7">
     <path d="M 73.939375 36.27375 
L 123.739375 36.27375 
Q 127.339375 36.27375 127.339375 32.67375 
L 127.339375 21.06 
Q 127.339375 17.46 123.739375 17.46 
L 73.939375 17.46 
Q 70.339375 17.46 70.339375 21.06 
L 70.339375 32.67375 
Q 70.339375 36.27375 73.939375 36.27375 
z
" style="fill: #ffffff; opacity: 0.5; stroke: #000000; stroke-linejoin: miter"/>
    </g>
    <!-- $R = 0.02$ -->
    <g transform="translate(73.939375 30.178125) scale(0.12 -0.12)">
     <defs>
      <path id="DejaVuSans-Oblique-52" d="M 1613 4147 
L 1294 2491 
L 2106 2491 
Q 2584 2491 2879 2755 
Q 3175 3019 3175 3444 
Q 3175 3784 2976 3965 
Q 2778 4147 2406 4147 
L 1613 4147 
z
M 2772 2241 
Q 2972 2194 3105 2009 
Q 3238 1825 3413 1275 
L 3809 0 
L 3144 0 
L 2778 1197 
Q 2638 1659 2453 1815 
Q 2269 1972 1888 1972 
L 1191 1972 
L 806 0 
L 172 0 
L 1081 4666 
L 2503 4666 
Q 3150 4666 3495 4373 
Q 3841 4081 3841 3531 
Q 3841 3044 3547 2687 
Q 3253 2331 2772 2241 
z
" transform="scale(0.015625)"/>
      <path id="DejaVuSans-3d" d="M 678 2906 
L 4684 2906 
L 4684 2381 
L 678 2381 
L 678 2906 
z
M 678 1631 
L 4684 1631 
L 4684 1100 
L 678 1100 
L 678 1631 
z
" transform="scale(0.015625)"/>
     </defs>
     <use xlink:href="#DejaVuSans-Oblique-52" transform="translate(0 0.78125)"/>
     <use xlink:href="#DejaVuSans-3d" transform="translate(88.964844 0.78125)"/>
     <use xlink:href="#DejaVuSans-30" transform="translate(192.236328 0.78125)"/>
     <use xlink:href="#DejaVuSans-2e" transform="translate(255.859375 0.78125)"/>
     <use xlink:href="#DejaVuSans-30" transform="translate(287.646484 0.78125)"/>
     <use xlink:href="#DejaVuSans-32" transform="translate(351.269531 0.78125)"/>
    </g>
   </g>
  </g>
 </g>
 <defs>
  <clipPath id="p62bf6b5689">
   <rect x="57.199375" y="7.2" width="334.8" height="277.2"/>
  </clipPath>
 </defs>
</svg>
